<?xml version="1.0" encoding="UTF-8" standalone="no"?>
<svg
   xml:space="preserve"
   height="200"
   viewBox="0 0 700.01571 200.00014"
   width="700"
   version="1.1"
   id="svg1"
   sodipodi:docname="ARI.svg"
   inkscape:version="1.3.1 (91b66b0783, 2023-11-16)"
   inkscape:export-filename="ARI.png"
   inkscape:export-xdpi="96"
   inkscape:export-ydpi="96"
   xmlns:inkscape="http://www.inkscape.org/namespaces/inkscape"
   xmlns:sodipodi="http://sodipodi.sourceforge.net/DTD/sodipodi-0.dtd"
   xmlns="http://www.w3.org/2000/svg"
   xmlns:svg="http://www.w3.org/2000/svg"><defs
     id="defs1" /><sodipodi:namedview
     id="namedview1"
     pagecolor="#505050"
     bordercolor="#eeeeee"
     borderopacity="1"
     inkscape:showpageshadow="0"
     inkscape:pageopacity="0"
     inkscape:pagecheckerboard="0"
     inkscape:deskcolor="#505050"
     inkscape:zoom="1.7042857"
     inkscape:cx="349.41325"
     inkscape:cy="70.117352"
     inkscape:window-width="1920"
     inkscape:window-height="1017"
     inkscape:window-x="-8"
     inkscape:window-y="352"
     inkscape:window-maximized="1"
     inkscape:current-layer="svg1" /><path
     d="m 392.727,33.17547 c -17.1994,0 -30.67044,10.707449 -30.67044,24.513346 0,13.821233 13.47104,24.535255 30.67044,24.535255 17.19941,0 30.6741,-10.714022 30.6741,-24.535255 0,-13.805897 -13.47469,-24.513346 -30.6741,-24.513346 z m -232.37815,0.920223 3.61151,6.283441 -23.5168,40.931653 h 14.98648 l 3.50926,-6.076392 h 25.06147 l 3.49465,6.076392 h 18.63451 l -27.13561,-47.21619 -18.64547,7.31e-4 z m 47.19428,0 5.81347,7.267568 v 39.949351 h 16.44716 v -13.93115 h 7.0806 l 10.72133,13.93115 h 18.78423 L 252.66326,65.114868 c 6.6351,-2.767972 10.1334,-7.906978 10.1334,-14.371177 0,-9.854418 -8.08846,-16.646537 -23.13702,-16.646537 h -32.11651 z m 62.34874,0 5.79156,7.267568 v 39.949351 h 16.44716 V 34.096423 l -22.23872,7.31e-4 z m 35.45414,0 v 11.054723 h 23.94405 L 302.34433,81.311152 H 354.7386 V 70.261175 h -23.95135 l 26.96033,-36.165482 z m 121.81631,0 6.68257,6.996614 v 40.219575 h 15.19098 V 56.455645 l 24.28366,24.856237 h 14.20502 V 34.095693 l -15.19098,7.3e-4 V 58.93769 L 448.04992,34.096423 h -20.8876 z m 87.4942,0 3.61516,6.283441 -23.5168,40.931653 h 14.97187 l 3.50561,-6.076392 h 25.05051 l 3.50561,6.076392 h 18.62356 l -27.13197,-47.21619 -18.62355,7.31e-4 z M 392.727,44.65817 c 7.74156,0 13.54773,6.310829 13.54773,13.030646 0,6.745379 -5.80617,13.043426 -13.54773,13.043426 -7.74155,0 -13.58424,-6.298047 -13.58424,-13.043426 0,-6.719817 5.84269,-13.030646 13.58424,-13.030646 z m -162.92324,0.492246 h 9.07807 c 2.76797,0 7.3983,1.716288 7.3983,5.591814 0,3.883559 -4.63033,5.612993 -7.3983,5.612993 h -9.07807 z m -58.30634,8.351752 6.68988,11.611239 h -13.40166 z m 354.29671,0 6.68257,11.611239 H 519.07505 Z M 41.873827,101.41583 c -22.83394,0 -40.0479472,14.08087 -40.0479472,32.70807 4.382e-4,18.63451 17.2140072,32.70077 40.0479472,32.70077 12.715141,0 23.239276,-3.85252 29.753869,-8.31852 L 64.309734,145.7618 c -12.236771,7.53706 -39.317612,6.5438 -39.317612,-11.6379 -3.65e-4,-18.16709 27.080841,-19.18591 39.317612,-11.64885 L 71.627696,109.738 c -6.514593,-4.44409 -17.038728,-8.32217 -29.753869,-8.32217 z m 621.369453,0 c -18.55052,0 -31.00274,8.27105 -31.00274,20.56259 0,13.77778 14.20502,17.36373 29.98027,20.36175 9.09268,1.71264 12.48874,3.01994 12.1966,5.93398 -0.36517,3.57499 -7.74156,3.84522 -11.79492,3.69915 -7.44942,-0.29579 -18.25839,-1.62135 -26.18253,-6.2115 l -7.33987,12.74435 c 11.13762,6.14212 24.13759,8.31852 36.18813,8.31852 18.9522,0 32.90161,-8.01178 32.90161,-20.90585 0,-13.24464 -14.24154,-17.52075 -29.65162,-20.16091 -10.6629,-1.94999 -12.89042,-3.31572 -12.6348,-5.82808 0.29213,-2.9469 5.84268,-3.33033 9.93256,-3.24634 6.7556,0.17163 15.81176,1.65421 22.6404,5.79156 l 7.33987,-12.73705 c -8.21627,-5.45926 -19.57299,-8.32217 -32.57296,-8.32217 z m -559.47352,1.23427 4.82021,8.3806 -31.367904,54.55971 h 19.985631 l 4.677793,-8.09577 h 33.4165 l 4.64859,8.09577 h 24.86427 L 128.63403,102.6501 Z m 62.9111,0 7.75981,9.69155 v 53.24876 h 21.92468 v -18.54322 h 9.43593 l 14.30727,18.54322 h 25.04321 l -18.30221,-21.58872 c 8.84802,-3.70646 13.50756,-10.52414 13.50756,-19.14209 0,-13.16065 -10.77976,-22.2095 -30.83842,-22.2095 z m 83.12679,0 7.74521,9.69155 v 53.24876 h 28.79347 c 25.31343,0 41.66564,-12.2879 41.66564,-31.46651 0,-19.18226 -16.35221,-31.4738 -41.66564,-31.4738 z m 85.08043,0 7.74521,9.69155 v 53.24876 h 21.93198 V 102.6501 Z m 41.58166,0 8.91009,9.31908 v 53.62123 h 20.26681 v -33.11342 l 32.39038,33.11342 h 18.91569 V 102.6501 h -20.23029 v 33.1061 l -32.39038,-33.1061 z m 116.67109,0 4.82022,8.3806 -31.36791,54.55971 h 19.97467 l 4.67415,-8.09577 h 33.41285 l 4.67415,8.09577 h 24.83141 L 517.97224,102.6501 Z m 62.91841,0 7.74155,9.69155 v 53.24876 h 56.85662 V 150.8778 h -34.94655 v -48.2277 z m -359.69389,14.73451 h 12.11261 c 3.68819,0 9.85588,2.28595 9.85588,7.47499 0,5.17807 -6.16769,7.46767 -9.85588,7.46767 h -12.11261 z m 83.12678,0 h 7.15364 c 11.63425,0 18.86457,7.67583 18.91569,16.73929 -0.0511,9.05251 -7.28144,16.7539 -18.91569,16.7539 h -7.15364 z m -160.85274,11.13397 8.91009,15.49771 h -17.87496 z m 389.37838,0 8.91009,15.49771 h -17.89322 z"
     fill="#97233f"
     id="path1"
     style="fill:#ffffff;fill-opacity:1;stroke:none;stroke-width:4.00009;stroke-dasharray:none;stroke-opacity:1" /></svg>
