<?xml version="1.0" encoding="UTF-8" standalone="no"?>
<svg
   height="200"
   width="700"
   viewBox="0 0 702.54989 204.26862"
   version="1.1"
   id="svg3"
   sodipodi:docname="ATL.svg"
   inkscape:version="1.3.1 (91b66b0783, 2023-11-16)"
   inkscape:export-filename="ATL.png"
   inkscape:export-xdpi="96"
   inkscape:export-ydpi="96"
   xmlns:inkscape="http://www.inkscape.org/namespaces/inkscape"
   xmlns:sodipodi="http://sodipodi.sourceforge.net/DTD/sodipodi-0.dtd"
   xmlns="http://www.w3.org/2000/svg"
   xmlns:svg="http://www.w3.org/2000/svg">
  <defs
     id="defs3" />
  <sodipodi:namedview
     id="namedview3"
     pagecolor="#505050"
     bordercolor="#eeeeee"
     borderopacity="1"
     inkscape:showpageshadow="0"
     inkscape:pageopacity="0"
     inkscape:pagecheckerboard="0"
     inkscape:deskcolor="#505050"
     inkscape:zoom="1.0786506"
     inkscape:cx="340.70347"
     inkscape:cy="44.963587"
     inkscape:window-width="1920"
     inkscape:window-height="1017"
     inkscape:window-x="-8"
     inkscape:window-y="352"
     inkscape:window-maximized="1"
     inkscape:current-layer="svg3" />
  <g
     id="g1"
     transform="matrix(1.5981373,0,0,1.5981373,0,27.256817)"
     style="stroke:#ffffff;stroke-opacity:1;stroke-width:1.2781669;stroke-dasharray:none">
    <path
       d="m -3.876476,44.419789 9.1852705,7.60721 V 93.705957 H 25.908279 V 77.905352 l 22.272443,-0.01563 4.197195,-10.987726 -26.470338,0.01953 V 55.433814 H 58.238771 V 44.420089 Z m 69.19527,0 9.468563,7.425615 -16.095598,41.859953 H 77.677285 L 82.65766,80.348691 h 23.7294 l 5.08777,13.356666 h 19.01753 L 111.15484,44.41959 Z m 65.172366,0 9.40796,7.495913 v 41.789955 h 45.40087 V 81.133972 H 160.26761 V 44.419889 Z m 54.45764,0 9.44896,7.452914 v 41.832954 h 47.08282 V 81.133972 H 214.87225 V 55.433614 h 26.60833 V 44.419889 Z m 60.76848,0 9.40596,7.404115 v 41.881953 h 56.44759 V 44.420089 Z m 70.78923,0 9.13847,7.384616 v 41.900952 h 19.79651 V 71.9909 l 23.7394,21.714457 h 11.37672 V 44.41959 H 360.7011 V 65.753056 L 337.0257,44.41959 Z m 69.01627,0 9.01538,7.288918 v 21.61046 l 29.10427,-0.02148 v 7.835704 h -29.10427 v 12.571685 h 48.94377 V 62.318862 h -29.13827 v -6.886528 h 29.13827 V 44.41861 Z M 268.13572,55.433514 h 23.67541 v 25.700358 h -16.80858 v -20.0245 z M 91.440141,56.81048 h 5.988154 l 4.804575,12.614684 H 86.737258 Z"
       id="path1"
       style="stroke-width:1.2781669;stroke:#ffffff;stroke-opacity:1;stroke-dasharray:none" />
    <path
       d="M 99.160945,9e-4 103.92642,3.7391065 95.825035,24.81058 h 9.556355 l 2.50773,-6.724432 h 11.94471 l 2.56243,6.724432 h 9.57206 L 122.23417,2e-4 Z m 31.546205,0 2.20895,5.5623609 h 9.22827 V 24.81078 h 10.43374 V 8.3071923 l -3.35732,-2.7440314 h 14.06565 V 8e-4 Z m 36.72409,0 4.55258,3.8515037 V 24.81088 h 22.78043 l -0.0254,-6.288943 -12.54068,0.0078 V 0.0012 Z m 35.07712,0 4.76358,3.7382065 -8.0994,21.0714735 h 9.55636 l 2.50584,-6.724432 h 11.9447 l 2.56244,6.724432 h 9.57396 L 225.58168,2e-4 Z m 33.76115,0 4.52329,3.9140021 V 24.81038 h 9.88845 V 14.01365 l 11.85871,10.79673 h 5.72245 V 0 h -9.89815 V 10.892728 L 246.53856,0 Z m 37.76106,0 V 5.5632609 H 284.7923 V 24.81078 h 10.43574 V 8.3071923 l -3.35732,-2.7440314 h 14.07565 L 305.92687,8e-4 Z m 36.95408,0 4.76548,3.7382065 -8.1033,21.0714735 h 9.55636 l 2.50774,-6.724432 h 11.9447 l 2.56044,6.724432 h 9.57396 L 334.05587,2e-4 Z M 112.30961,6.239044 h 3.01363 l 2.41794,6.349441 h -7.79861 z m 103.34742,0 h 3.01552 l 2.41794,6.349441 h -7.8006 z m 108.47729,0 h 3.01552 l 2.41594,6.349441 h -7.7986 z"
       fill="#a71930"
       id="path2"
       style="fill:#000000;fill-opacity:1;stroke-width:1.2781669;stroke:#ffffff;stroke-opacity:1;stroke-dasharray:none" />
  </g>
</svg>
