<?xml version="1.0" encoding="UTF-8" standalone="no"?>
<svg
   xml:space="preserve"
   height="200"
   viewBox="0 0 700.01753 199.99755"
   width="700"
   version="1.1"
   id="svg3"
   sodipodi:docname="BAL.svg"
   inkscape:version="1.3.1 (91b66b0783, 2023-11-16)"
   inkscape:export-filename="BAL.png"
   inkscape:export-xdpi="96"
   inkscape:export-ydpi="96"
   xmlns:inkscape="http://www.inkscape.org/namespaces/inkscape"
   xmlns:sodipodi="http://sodipodi.sourceforge.net/DTD/sodipodi-0.dtd"
   xmlns="http://www.w3.org/2000/svg"
   xmlns:svg="http://www.w3.org/2000/svg"><defs
     id="defs3" /><sodipodi:namedview
     id="namedview3"
     pagecolor="#505050"
     bordercolor="#eeeeee"
     borderopacity="1"
     inkscape:showpageshadow="0"
     inkscape:pageopacity="0"
     inkscape:pagecheckerboard="0"
     inkscape:deskcolor="#505050"
     inkscape:zoom="1.4814286"
     inkscape:cx="350"
     inkscape:cy="68.514946"
     inkscape:window-width="1920"
     inkscape:window-height="1017"
     inkscape:window-x="-8"
     inkscape:window-y="352"
     inkscape:window-maximized="1"
     inkscape:current-layer="svg3" /><g
     id="g1"
     transform="matrix(3.6708926,0,0,3.6708926,0,31.480126)"><path
       d="m 176.47125,10.725767 c -9.44175,0 -12.7935,3.54675 -12.7935,6.5825 0,2.42685 2.44355,4.709 6.3725,5.9605 0,0 8.44875,2.733 8.65675,2.80175 0.039,0.01485 0.19092,0.07031 0.19092,0.07031 0.86525,0.32125 0.86522,0.39555 0.86522,0.59425 0,0.9581 -1.99035,1.799325 -4.26125,1.799325 -1.06022,0 -2.08722,-0.18558 -2.9115,-0.5161 -0.18012,-0.118812 -4.57125,-3.02625 -4.57125,-3.02625 l -6.0605,6.28325 9.38625,0.85205 c 1.40745,0.148563 3.05825,0.228515 4.76275,0.228515 12.8045,0 14.186,-5.2045 14.186,-7.442 0,-2.3637 -1.79025,-4.2225 -5.0415,-5.227 l -9.8225,-3.1895 c -0.4382,-0.141125 -0.78937,-0.551625 -0.85255,-0.71875 0.0446,-0.6276 1.52673,-1.130375 3.35,-1.130375 1.0305,0 1.7635,0.136995 2.25,0.415525 0.0557,0.03712 4.373,2.78175 4.373,2.78175 l 6.144,-5.99025 -9.21925,-0.8672 c -1.49655,-0.12625 -3.2345,-0.261725 -5.004,-0.261725 z m -162.25,0.38425 c -1.754675,0.01112 -3.498,0.145125 -4.99475,0.269525 C 9.21725,11.383342 0,12.246792 0,12.246792 l 6.146,5.99375 c 0,0 3.89575,-2.48075 3.957,-2.5235 0.105837,-0.05756 0.25585,-0.09858 0.396975,-0.14502 v 12.42975 c -0.62945,0.4419 -5.4995,3.875 -5.4995,3.875 h 22.4355 c 0,0 -4.8685,-3.433 -5.498,-3.875 v -4.371 H 22.3242 c 0.525475,0.5812 7.46625,8.246 7.46625,8.246 h 23.067 c 0,0 -4.17,-2.954 -5.078,-3.6 0.36395,-0.558875 0.612325,-0.9434 0.857425,-1.320325 h 9.587 c 0.245095,0.3769 0.49545,0.76145 0.859375,1.320325 -0.906125,0.646175 -5.07625,3.6 -5.07625,3.6 h 23.6405 c 0,0 -5.57575,-3.91625 -5.83,-4.09825 -0.19125,-0.2748 -11.542,-16.6685 -11.542,-16.6685 h -7.92675 c 0,0 -10.998,16.23425 -11.25975,16.61875 -0.07425,0.04084 -0.419675,0.220797 -0.92285,0.486325 -0.544025,-0.28225 -0.905825,-0.475475 -0.9541,-0.501475 -0.1525,-0.15 -4.045,-3.8775 -5.7025,-5.465 3.4725,-1.038 5.3675,-2.739 5.3675,-4.88 0,-5.95475 -13.588,-6.25925 -16.312,-6.25925 H 14.2223 Z m 48.81,0 c 0,0 5.53325,3.88825 5.8155,4.08875 0.202405,0.3138 14.0225,22.13275 14.0225,22.13275 0,0 12.91425,-21.637 13.1835,-22.0865 0.144845,-0.07613 1.08255,-0.569775 2.259775,-1.18995 0.9414,0.4939 1.692995,0.8931 1.930645,1.015625 v 12.93075 c -0.62945,0.4419 -5.497495,3.875 -5.497495,3.875 h 30.839995 v -7.83925 c 0,0 -6.44875,3.39425 -6.837,3.59675 h -7.067 v -4.67375 h 4.334 c 0.3825,0.202405 5.74475,3.064 5.74475,3.064 v -9.08875 c 1.19023,0.6276 3.82525,2.016125 3.82525,2.016125 v -7.84125 H 103.90392 86.249175 c 0,0 2.62375,2.84875 3.2105,3.482 -0.5292,0.920975 -3.7005,6.41675 -4.872,8.44425 -1.1215,-2.0462 -4.124,-7.5235 -4.6235,-8.42975 0.58115,-0.6313 3.22375,-3.4965 3.22375,-3.4965 h -20.15575 z m 64.97,0 3.5185,3.76225 v 13.24475 c -0.40665,0.434475 -3.5185,3.75975 -3.5185,3.75975 h 15.9 c 0,0 -4.86675,-3.4295 -5.496,-3.875 v -7.90825 c 2.61075,1.938475 20.69925,15.34475 20.69925,15.34475 v -20.44725 c 0.6276,-0.445625 5.496,-3.88075 5.496,-3.88075 h -3.00575 -14.808 c 0,0 4.8665,3.43525 5.496,3.88075 v 5.0025 c -2.386,-1.7528 -12.09125,-8.88325 -12.09125,-8.88325 h -12.19 z m -106.065,4.24125 h 0.625975 c 2.53075,0 4.144,1.1955 4.144,2.018075 0,0.791 -1.652225,1.988775 -4.144,1.988775 H 21.93625 v -4.00675 z m 89.7425,0 h 7.067 c 0.12813,0.06872 0.9789,0.514225 1.80518,0.948725 -0.0464,0.02228 -4.156,2.187575 -4.5365,2.386225 h -4.3355 v -3.335 z m -58.1625,4.3335 c 0.65915,1.0101 1.203375,1.849675 1.95165,2.999 h -3.9325 c 0.763125,-1.15305 1.318075,-1.99265 1.98095,-2.999 z"
       fill="#9a7611"
       id="path1"
       style="stroke-width:0.25" /><path
       d="m 124.80125,-7.3330617e-4 c -2.10748,0 -3.34225,1.35905000617 -3.34225,2.90575000617 0,1.546725 1.23483,2.90975 3.34225,2.90975 2.10563,0 3.34025,-1.36295 3.34025,-2.90975 0,-1.5467 -1.235,-2.90575000617 -3.34,-2.90575000617 z M 40.58375,0.15161169 V 5.6603617 h 3.00975 c 1.678525,0 2.69975,-0.436275 2.69975,-1.5708 0,-0.8114 -0.723975,-1.206525 -1.6245,-1.2622 v -0.013183 c 0.900525,-0.170845 1.3833,-0.5405 1.3833,-1.2461 0,-1.02865001 -0.902275,-1.41650001 -2.2373,-1.41650001 h -3.231 z m 16.32475,0 -2.43945,5.50875001 h 1.763675 l 0.334475,-0.8667 h 2.43945 l 0.334475,0.8667 h 1.77295 L 58.617,0.15161169 Z m 12.669,0 V 5.6603617 h 4.232 v -1.16015 h -2.581 V 0.15146169 h -1.650875 z m 11.57525,0 V 1.2209367 h 1.72705 v 4.4395 h 1.650875 v -4.4395 h 1.72655 V 0.15161169 h -5.1045 z m 13.65325,0 V 5.6603617 h 1.65235 V 0.15161169 Z m 10.6895,0 V 5.6603617 h 1.5039 v -4.27775 h 0.0185 l 1.34425,4.27775 h 1.458 l 1.31055,-4.27775 h 0.0171 v 4.27775 h 1.55957 V 0.15161169 h -2.3955 L 109.1068,4.2438617 h -0.0186 l -1.16943,-4.09225001 h -2.42335 z m 31.4325,0 V 5.6603617 h 1.65282 v -1.98095 h 1.04688 l 1.2998,1.98095 h 1.8496 l -1.51513,-2.2129 c 0.82625,-0.20053 1.36475,-0.774575 1.36475,-1.483875 0,-1.23847501 -0.91007,-1.81200001 -2.3955,-1.81200001 h -3.30325 z m 14.498,0 V 5.6603617 h 5.13975 V 4.5929867 H 153.077 v -1.30175 h 2.9985 v -1.065925 h -2.9985 v -1.0044 h 3.212 V 0.15158669 h -4.86275 z M 124.801,1.1579617 c 1.22362,0 1.688,0.883675 1.688,1.747075 0,0.8504 -0.46435,1.749025 -1.688,1.749025 -1.29975,0 -1.68995,-0.945025 -1.68995,-1.749025 0,-1.238475 0.72257,-1.747075 1.68995,-1.747075 z m -82.6375,0.016601 h 1.374025 c 0.54775,0 0.863275,0.1075575 0.863275,0.571775 0,0.40105 -0.3341,0.572275 -0.863275,0.572275 H 42.1635 Z m 96.42,0 h 1.51122 c 0.5292,0.00744 0.8838,0.2319425 0.8838,0.740725 0,0.5106 -0.3546,0.735725 -0.8838,0.743175 h -1.51122 v -1.483875 z m -80.81,0.3252 h 0.01855 l 0.8169,2.27245 h -1.650875 z m -15.58975,1.83985 h 1.643075 c 0.610875,0 0.815425,0.2003675 0.815425,0.655275 0,0.3565 -0.241573,0.642575 -1.11425,0.642575 h -1.34425 z m 134.2875,8.3407503 c -8.6825,0 -11.83875,3.0675 -11.83875,5.628 0,2.1112 2.49007,4.02725 5.706,5.05025 l 8.68225,2.809501 c 0.84852,0.32305 1.69727,0.543801 1.69727,1.5669 0,1.7621 -2.607,2.748001 -5.21575,2.748001 -1.33687,0 -2.49187,-0.2522 -3.34225,-0.604975 l -4.005,-2.65525 -4.1295,4.28375 7.40675,0.673825 c 1.51888,0.155967 3.1545,0.222655 4.67525,0.222655 9.10575,0 13.2335,-2.78125 13.2335,-6.489251 0,-2.527 -2.61275,-3.77125 -4.371,-4.3155 l -9.8355,-3.19525 c -0.78915,-0.2581 -1.5171,-1.054575 -1.5171,-1.598625 0,-1.6284 2.49038,-2.111325 4.31,-2.111325 1.2756,0 2.12575,0.19504 2.733,0.54785 l 3.76375,2.396975 4.1295,-4.02925 -7.167,-0.6704 c -1.517,-0.131845 -3.216,-0.2578 -4.915,-0.2578 z m -162.25,0.384276 -0.01123,0.01123 c -1.69525,0 -3.38875,0.129988 -4.90375,0.254401 l -7.165,0.673825 4.1295,4.029249 3.353,-2.140625 c 0.43635,-0.248812 1.028925,-0.401124 1.83105,-0.453124 v 14.0575 l -3.44425,2.42675 h 16.418 l -3.44275,-2.42675 v -5.820751 h 1.76025 l 7.46625,8.247501 h 6.859 6.1925 6.599 l -3.38275,-2.396975 1.63915,-2.5255 h 10.625 l 1.63915,2.5255 -3.38275,2.396975 h 17.63025 l -3.5,-2.461925 -11.3545,-16.397501 h -6.92225 l -11.109,16.397501 -1.580075,0.832025 -1.515125,-0.796875 -7.043,-6.749501 c 3.643,-0.765 6.315,-2.267225 6.315,-4.3785 0,-3.8975 -8.37775,-5.30475 -15.3575,-5.30475 h -8.34275 z m 51.825,0 3.50525,2.461924 13.293,20.984001 12.524,-20.984001 2.94525,-1.550775 2.88325,1.519525 v 14.002001 l -3.4425,2.42675 h 26.875 v -5.30675 l -5.6465,2.97075 h -8.25525 v -6.582001 h 5.524 l 4.55475,2.430675 v -7.19325 l -4.55475,2.396976 h -5.524 v -5.24375 h 8.25525 l 5.6465,2.972749 v -5.304749 h -24.586 -3.459 -8.16075 l 2.209475,2.400875 -6.06775,10.515249 -5.767,-10.515249 2.209475,-2.400875 h -14.962 z m 64.155,0 2.2749,2.430674 v 14.002001 l -2.2749,2.42675 h 10.69325 l -3.4425,-2.42675 V 18.201313 l 20.70175,15.340751 v -19.047 l 3.4425,-2.430675 H 149.7925 l 3.44425,2.430675 v 7.384249 l -13.356,-9.814999 H 130.201 Z m -109.215,2.332025 h 1.578625 c 2.852,0 5.09675,1.407374 5.09675,2.972749 0,1.53555 -2.24465,2.9415 -5.09675,2.9415 H 20.98625 v -5.913999 z m 32.5375,3.550249 3.70275,5.691 h -7.46425 l 3.76175,-5.691 z"
       id="path2"
       style="fill:#ffffff;fill-opacity:1;stroke:none;stroke-width:0.250006;stroke-dasharray:none;stroke-opacity:1" /></g></svg>
