<?xml version="1.0" encoding="UTF-8" standalone="no"?>
<svg
   xml:space="preserve"
   height="200"
   viewBox="0 0 701.24995 199.95168"
   width="700"
   version="1.1"
   id="svg6"
   sodipodi:docname="BUF.svg"
   inkscape:version="1.3.1 (91b66b0783, 2023-11-16)"
   inkscape:export-filename="BUF.png"
   inkscape:export-xdpi="96"
   inkscape:export-ydpi="96"
   xmlns:inkscape="http://www.inkscape.org/namespaces/inkscape"
   xmlns:sodipodi="http://sodipodi.sourceforge.net/DTD/sodipodi-0.dtd"
   xmlns="http://www.w3.org/2000/svg"
   xmlns:svg="http://www.w3.org/2000/svg"><defs
     id="defs6" /><sodipodi:namedview
     id="namedview6"
     pagecolor="#505050"
     bordercolor="#eeeeee"
     borderopacity="1"
     inkscape:showpageshadow="0"
     inkscape:pageopacity="0"
     inkscape:pagecheckerboard="0"
     inkscape:deskcolor="#505050"
     inkscape:zoom="1.2776559"
     inkscape:cx="308.76858"
     inkscape:cy="105.27091"
     inkscape:window-width="1920"
     inkscape:window-height="1017"
     inkscape:window-x="-8"
     inkscape:window-y="352"
     inkscape:window-maximized="1"
     inkscape:current-layer="svg6" /><g
     transform="matrix(4.605765,0,0,-4.605765,-1043.5668,1923.237)"
     id="g6"
     style="fill:#ffffff;fill-opacity:1;stroke:#c60c30;stroke-width:0.801429;stroke-dasharray:none;stroke-opacity:1"><g
       style="fill:#ffffff;fill-opacity:1;stroke:#c60c30;stroke-width:3.20571;stroke-dasharray:none;stroke-opacity:1"
       transform="matrix(0.25,0,0,0.25,227,297)"
       fill="#00338d"
       id="g5"><path
         d="m 602,385 c -2.41,5.54 -5.83,10.6 -10.1,14.9 -4.26,4.26 -9.34,7.69 -14.9,10.1 -5.66,2.45 -11.8,3.71 -18,3.7 h -42.1 c -2.18,0 -4.13,0.394 -6,1.19 -1.9,0.823 -3.51,1.89 -4.89,3.28 -1.39,1.39 -2.96,4.19 -2.79,8.32 0.136,3.3 1.39,5.25 2.79,6.64 1.38,1.39 3,2.45 4.9,3.27 1.86,0.802 3.81,1.19 5.99,1.19 h 22.9 c 2.03,0 3.88,-0.381 5.68,-1.17 1.84,-0.802 3.5,-1.94 4.94,-3.38 1.46,-1.46 2.57,-3.08 3.39,-4.94 0.782,-1.78 1.16,-3.7 1.16,-5.85 v -1.3 h 37.9 5.51 v 51.7 h -43.4 v -2.01 c -4.81,1.68 -9.89,2.54 -15.2,2.54 h -33.4 c -6.25,0.007 -12.5,-1.24 -18.2,-3.69 -5.56,-2.38 -10.7,-5.81 -14.9,-10.1 -4.21,-4.28 -7.59,-9.34 -9.98,-14.9 -2.47,-5.71 -3.69,-11.9 -3.69,-18.2 0,-6.22 1.23,-14.9 3.7,-20.6 2.39,-5.53 5.83,-10.6 10.1,-14.8 4.28,-4.21 9.34,-7.6 14.9,-9.98 5.73,-2.47 11.9,-3.71 18.2,-3.7 h 42.1 c 2.03,0 3.89,-0.381 5.68,-1.17 1.86,-0.816 3.48,-1.92 4.94,-3.38 1.46,-1.46 3.09,-4.4 3.02,-6.43 -0.129,-4.27 -1.59,-6.98 -2.99,-8.41 -1.39,-1.43 -2.96,-2.52 -4.79,-3.33 -1.8,-0.789 -3.71,-1.17 -5.86,-1.17 h -22.9 c -2.17,0 -4.12,0.388 -5.99,1.19 -1.91,0.816 -3.51,1.88 -4.89,3.28 -1.39,1.38 -2.46,2.98 -3.28,4.89 -0.796,1.86 -1.19,3.82 -1.19,5.99 v 1.29 h -37.9 -5.51 v -51.7 c 14.5,0 28.9,0 43.4,-0.007 v 2.06 c 4.88,-1.71 10,-2.59 15.3,-2.59 h 33.4 c 6.23,-0.0136 12.4,1.23 18.2,3.71 5.54,2.39 10.6,5.83 14.8,10.1 4.22,4.28 7.6,9.34 9.98,14.9 2.47,5.72 3.7,11.9 3.7,18.2 0,6.16 -1.24,14.8 -3.7,20.5"
         id="path1"
         style="fill:#ffffff;fill-opacity:1;stroke:#c60c30;stroke-width:3.20571;stroke-dasharray:none;stroke-opacity:1" /><path
         d="m 208,436 v 37 h -13.4 -37.9 -13.4 v -37 c 5.37,0 10.9,-1.03 10.9,-9.07 v -63 c 0,-7.85 -5.58,-9.43 -10.9,-9.43 v -37 h 13.4 37.9 13.4 v 37 c -7.17,0 -10.9,1.57 -10.9,9.63 v 63 c 0,6.24 2.41,8.87 10.9,8.87"
         id="path2"
         style="fill:#ffffff;fill-opacity:1;stroke:#c60c30;stroke-width:3.20571;stroke-dasharray:none;stroke-opacity:1" /><path
         d="m 97.2,421 c -0.809,-1.87 -1.94,-3.55 -3.35,-5 -1.39,-1.43 -2.94,-2.52 -4.79,-3.33 -1.78,-0.789 -3.7,-1.17 -5.85,-1.17 h -31.8 c 0,10.2 -0.0068,16.2 0,26.4 12,0.007 19.8,0 31.8,0 2.03,0 3.88,-0.381 5.67,-1.17 1.86,-0.809 3.47,-1.92 4.94,-3.38 1.46,-1.46 2.57,-3.08 3.38,-4.94 0.782,-1.78 0.782,-5.59 0,-7.38 z m -0.0136,-57.8 c -0.816,-1.91 -1.94,-3.6 -3.34,-5.04 -1.39,-1.43 -2.94,-2.52 -4.79,-3.33 -1.78,-0.789 -3.7,-1.17 -5.85,-1.17 h -31.8 c -0.0068,10.2 -0.0068,16.2 0,26.4 h 31.8 c 2.02,0 3.88,-0.388 5.67,-1.17 1.86,-0.823 3.47,-1.92 4.93,-3.38 1.47,-1.47 2.58,-3.09 3.39,-4.94 0.782,-1.79 0.782,-5.47 -0.0136,-7.34 z m 39.5,81.6 c -2.38,5.51 -5.76,10.6 -9.97,14.9 -4.23,4.3 -9.3,7.73 -14.8,10.1 -5.73,2.48 -11.9,3.72 -18.2,3.71 h -42.5 -37.8 -13.5 v -37 c 5.43,0 9.41,-1.42 9.41,-7.86 v -65.2 c 0,-5.24 -3.98,-8.43 -9.41,-8.43 v -37 h 13.5 37.8 42.5 c 6.24,-0.0136 12.4,1.23 18.2,3.71 5.52,2.39 10.6,5.83 14.8,10.1 4.21,4.28 7.59,9.34 9.97,14.9 2.48,5.72 3.69,12 3.7,18.2 0.0136,11.4 -3.93,22.5 -11.6,30.9 7.7,8.46 11.6,19.6 11.6,30.9 -0.0136,6.22 -1.22,12.4 -3.7,18.2"
         id="path3"
         style="fill:#ffffff;fill-opacity:1;stroke:#c60c30;stroke-width:3.20571;stroke-dasharray:none;stroke-opacity:1" /><path
         d="m 291,370 v -5.96 c 0,-2.65 -0.0136,-11 -10.3,-11 -11.1,0 -12.2,8.03 -12.2,11 v 63 c 0,10.1 10.8,8.87 10.8,8.87 v 37 h -13.3 -0.163 -37.7 -13.3 v -37 c 11.4,0 10.8,-8.87 10.8,-8.87 v -63 c 0,0 0.775,-9.63 -10.8,-9.63 v -37 h 13.3 62.9 43.4 v 31.5 21.1 h -43.4"
         id="path4"
         style="fill:#ffffff;fill-opacity:1;stroke:#c60c30;stroke-width:3.20571;stroke-dasharray:none;stroke-opacity:1" /><path
         d="m 417,370 v -5.96 c 0,-2.65 -0.007,-11 -10.3,-11 -11.1,0 -12.2,8.03 -12.2,11 v 63 c 0,10.1 10.8,8.87 10.8,8.87 v 37 h -13.3 -0.163 -37.7 -13.3 v -37 c 11.4,0 10.8,-8.87 10.8,-8.87 v -63 c 0,0 0.775,-9.63 -10.8,-9.63 v -37 h 13.3 62.9 43.4 v 31.5 21.1 h -43.4"
         id="path5"
         style="fill:#ffffff;fill-opacity:1;stroke:#c60c30;stroke-width:3.20571;stroke-dasharray:none;stroke-opacity:1" /></g></g></svg>
