<?xml version="1.0" encoding="UTF-8" standalone="no"?>
<svg
   xml:space="preserve"
   height="200"
   viewBox="0 0 699.95736 200.1345"
   width="700"
   version="1.1"
   id="svg19"
   sodipodi:docname="CAR.svg"
   inkscape:version="1.3.1 (91b66b0783, 2023-11-16)"
   inkscape:export-filename="CAR.png"
   inkscape:export-xdpi="96"
   inkscape:export-ydpi="96"
   xmlns:inkscape="http://www.inkscape.org/namespaces/inkscape"
   xmlns:sodipodi="http://sodipodi.sourceforge.net/DTD/sodipodi-0.dtd"
   xmlns="http://www.w3.org/2000/svg"
   xmlns:svg="http://www.w3.org/2000/svg"><defs
     id="defs19" /><sodipodi:namedview
     id="namedview19"
     pagecolor="#505050"
     bordercolor="#eeeeee"
     borderopacity="1"
     inkscape:showpageshadow="0"
     inkscape:pageopacity="0"
     inkscape:pagecheckerboard="0"
     inkscape:deskcolor="#505050"
     inkscape:zoom="1.2709314"
     inkscape:cx="293.09214"
     inkscape:cy="107.40155"
     inkscape:window-width="1920"
     inkscape:window-height="1017"
     inkscape:window-x="-8"
     inkscape:window-y="352"
     inkscape:window-maximized="1"
     inkscape:current-layer="svg19" /><g
     transform="matrix(3.3608839,0,0,-3.3608839,-671.69376,1430.6443)"
     id="g19"
     style="fill:#ffffff;fill-opacity:1"><g
       style="fill:#ffffff;fill-opacity:1"
       transform="matrix(0.25,0,0,0.25,228,297)"
       fill="#0085ca"
       id="g18"><path
         d="m 136,350 1.99,8.81 c 2.28,9.12 1.18,16.6 -3.17,21.7 -4.04,4.72 -10.8,7.22 -19.5,7.22 -0.397,0 -36.3,0.0526 -36.3,0.0526 l -0.43,-1.67 c 2.19,-0.865 4.5,-3.3 3.73,-6.88 l -24.1,-101 h 22.8 l 9.25,38.6 c 0.411,1.39 1.61,4.28 4.52,4.34 0.588,0.0191 3.78,0.172 4.5,0.172 18.5,0 32.5,11.1 36.7,29.1 z m -20.9,6.86 -1.1,-5.11 c -1.6,-6.87 -4.09,-11.1 -11.5,-11.1 l -18,0.0191 0.44,1.31 12,2.63 5.63,23.5 c 0,0 5.98,0.01 6.31,0.01 2.89,0 4.74,-0.588 5.82,-1.86 1.43,-1.68 1.55,-4.58 0.354,-9.37"
         id="path1"
         style="fill:#ffffff;fill-opacity:1" /><path
         d="m 153,388 -0.435,-1.67 c 2.15,-0.846 4.87,-3.34 3.82,-6.66 l -16.7,-42.4 c 2.1,0.373 16.4,2.86 23.8,3.87 l 4.24,12.3 0.01,-0.0143 c 0,0 1.23,3.93 2.79,3.93 0,0 1.27,-0.22 1.25,-2.26 l -3.96,-33.9 h -11.1 l 0.005,0.0191 h -23.3 l -17,-43.1 h 25.6 l 8.91,26 h 9.64 c 4.64,-0.421 4.86,-3.72 4.85,-4.51 l -2.52,-21.6 h 22.7 l 12.7,110 -45.1,-0.01"
         id="path2"
         style="fill:#ffffff;fill-opacity:1" /><path
         d="m 134,324 c 6.27,0.779 16.5,2.05 24.2,3.04 l 0.22,0.641 h -23 l -1.45,-3.68"
         id="path3"
         style="fill:#ffffff;fill-opacity:1" /><path
         d="m 161,336 h -22.6 l -2.05,-5.21 c 6.56,0.722 16.2,1.79 23.7,2.71 l 0.856,2.5"
         id="path4"
         style="fill:#ffffff;fill-opacity:1" /><path
         d="m 258,388 -9.69,-39.9 c -0.712,-2.71 -0.999,-3.19 -2.21,-3.19 -1.66,0 -2.05,3.77 -2.05,3.77 v -0.01 l -4.83,39.3 h -25.8 l -0.416,-1.66 c 2.19,-0.861 4.5,-3.3 3.71,-6.89 l -24.6,-101 h 20.9 l 11,45.2 c 0.593,2.12 0.966,2.53 2.02,2.53 1.31,0 1.82,-2.34 1.97,-3.32 l 4.78,-44.5 h 19.5 l 26.7,110 h -20.9"
         id="path5"
         style="fill:#ffffff;fill-opacity:1" /><path
         d="m 326,368 h 13.5 l 4.68,19.6 h -57.9 l -4.68,-19.6 12.6,-0.0239 c 4.92,0 4.09,-3.69 4.09,-3.69 l 0.0287,0.0239 -21.2,-86.7 h 23.7 l 20.3,86.7 c 0,0 0.827,3.68 4.94,3.68 l -0.005,0.005"
         id="path6"
         style="fill:#ffffff;fill-opacity:1" /><path
         d="m 457,341 h -15.2 c -2.39,0 -3.51,1.43 -2.8,4.43 l 4.08,16.8 c 0.516,2.11 0.952,5.13 7.45,5.13 h 20.8 l 4.83,20.2 h -55.7 l -0.43,-1.67 c 2.18,-0.851 4.45,-3.25 3.74,-6.77 l -24.2,-102 h 51.1 l 4.82,20.1 h -22.9 c -4.93,0 -4.85,1.86 -3.92,6.4 l 2.97,12.8 c 0.426,2.38 1.7,3.84 3.84,3.84 v 0.005 h 16.6 l 4.83,20.2"
         id="path7"
         style="fill:#ffffff;fill-opacity:1" /><path
         d="m 527,287 h -0.0143 l -5.36,39.3 c 8.68,4.89 14.9,13.3 17.5,24.3 l 1.99,8.81 c 2.28,9.12 1.18,16.6 -3.17,21.7 -4.03,4.72 -10.8,7.22 -19.5,7.22 -0.382,0 -36.3,0.0526 -36.3,0.0526 l -0.435,-1.67 c 2.2,-0.865 4.5,-3.3 3.73,-6.88 l -24.1,-101 h 22.8 l 9.24,38.6 c 0.421,1.4 1.63,4.26 4.52,4.32 0.32,0.01 1.4,0.0574 2.44,0.1 l 5.36,-43 h 27.8 l -0.191,1.64 c -2.54,0.87 -5.88,3.5 -6.33,6.99 z m -8.76,70.4 -1.1,-5.11 c -1.6,-6.87 -4.09,-11.1 -11.5,-11.1 l -18,0.0191 0.445,1.31 12,2.63 5.63,23.5 5.35,-0.0191 c 0.306,0.0191 0.631,0.0286 0.956,0.0286 2.89,0 4.74,-0.588 5.82,-1.86 1.44,-1.68 1.55,-4.58 0.354,-9.37"
         id="path8"
         style="fill:#ffffff;fill-opacity:1" /><path
         d="m 603,382 c -4.15,4.94 -10.6,7.55 -18.8,7.55 h -0.0144 c -1.12,0 -4.14,-0.21 -4.14,-0.21 -1.04,-0.105 -1.97,-0.21 -2.86,-0.359 l -0.153,-0.0287 c -15.1,-2.52 -25.6,-12.6 -28.7,-27.7 -0.76,-3.72 -0.861,-7.13 -0.459,-10.3 1,-11.6 8.47,-19 15.2,-25.8 5.67,-5.68 10.6,-10.7 10.9,-17.3 -0.01,-0.253 0.0622,-2.07 -0.282,-3.53 -1.06,-4.59 -4.26,-7.59 -9.05,-8.13 -0.626,-0.0431 -3.17,-0.244 -4.87,0.54 -2.48,1.06 -3.9,3.57 -3.95,6.49 -0.043,2.47 1.32,4.66 3.6,6.36 l 0.296,1.23 -23,-0.005 -0.588,-2.95 c -1.99,-9.72 -0.488,-18.2 4.23,-23.8 4.15,-4.94 10.6,-7.55 18.8,-7.55 h 0.0143 c 1.12,0 2.26,0.0478 3.5,0.139 0.139,0.01 0.272,0.0287 0.411,0.0478 l 0.225,0.0239 c 1.04,0.0909 1.97,0.21 2.86,0.354 l 0.158,0.0335 c 15.1,2.51 25.6,12.6 28.7,27.7 0.765,3.72 0.861,7.14 0.464,10.3 -1,11.5 -8.46,19 -15.2,25.8 -5.66,5.68 -10.6,10.7 -10.9,17.3 0.0192,0.253 0.0192,2.29 0.292,3.52 1,4.62 4.27,7.59 9.05,8.12 0.512,0.0383 3.77,0.163 5.69,-1.37 l 0.005,-0.005 c 1.87,-1.27 2.77,-3.29 2.81,-5.49 0.043,-2.66 -1.61,-4.98 -4.31,-6.66 l -0.268,-1.15 h 23.9 l 0.669,3.02 c 1.99,9.72 0.492,18.2 -4.23,23.8"
         id="path9"
         style="fill:#ffffff;fill-opacity:1" /><path
         d="m 391,388 -11.1,-46 c -0.684,-2.79 -2.95,-3.29 -4.09,-3.36 h -0.646 -0.0191 0.005 -23.7 l 0.406,1.7 11.3,1.91 10.8,45.8 -22.2,-0.01 -26.3,-110 h 22.6 l 8.37,35.5 0.005,-0.01 c 0,0 0.688,3.63 5.8,3.63 v 0.01 h 6.61 l -0.005,-0.0191 c 4.55,0 4.36,-2.87 4.26,-3.52 l -8.59,-35.6 h 22.7 l 26,110 -22.2,0.0287"
         id="path10"
         style="fill:#ffffff;fill-opacity:1" /><path
         d="M 64.1,446 H 38 l -0.445,-1.91 c 1.4,-0.956 2.52,-2.71 2.02,-5.07 l -1.82,-8.06 c -1.54,-6.62 -4.16,-9.2 -9.35,-9.2 -1.62,0 -3.72,0.215 -4.57,1.25 -0.932,1.14 -0.942,3.71 -0.0335,7.63 l 12.3,53.1 c 1.75,7.55 4.5,10.2 10.5,10.2 1.33,0 2.32,-0.397 2.97,-1.19 1.25,-1.53 1.44,-4.7 0.507,-8.72 l -1.1,-4.73 c -0.818,-2.04 -2.6,-3.56 -4.31,-4.44 l -0.449,-1.96 h 3.27 l -0.0096,-0.0382 h 23 l 2.18,9.37 c 2.31,9.96 0.985,18.6 -3.73,24.4 -2.88,3.53 -8.51,7.72 -19,7.72 -18.3,0 -32.2,-11 -36.3,-28.8 l -12.8,-53 c -2.11,-9.1 -0.88,-16.8 3.56,-22.2 2.97,-3.63 8.95,-7.97 20.5,-7.97 17.7,0 31.3,11 35.4,28.8 l 3.58,15.8"
         id="path11"
         style="fill:#ffffff;fill-opacity:1" /><path
         d="m 94.5,513 -0.426,-1.67 c 2.15,-0.842 4.87,-3.34 3.81,-6.67 l -40,-102 h 25.6 l 8.91,26 h 9.64 c 4.65,-0.421 4.85,-3.74 4.84,-4.52 l -2.52,-21.6 h 22.7 l 12.7,110 -45.1,-0.005 z m 14.8,-66.8 H 85.7 l 0.684,1.71 13.1,2.2 9.72,28.4 0.0143,-0.0191 c 0,0 1.23,3.92 2.78,3.92 0,0 1.27,-0.22 1.26,-2.25 l -3.96,-33.9"
         id="path12"
         style="fill:#ffffff;fill-opacity:1" /><path
         d="m 279,507 c -2.87,3.52 -8.49,7.7 -19,7.7 -18.2,0 -32.1,-11 -36.3,-28.8 l -12.6,-54 c -2.11,-9.08 -0.884,-16.8 3.55,-22.2 2.97,-3.62 8.93,-7.95 20.5,-7.95 17.7,0 31.3,11 35.4,28.8 l 12.1,52.1 c 2.32,9.94 0.99,18.6 -3.72,24.3 z m -18.8,-22.5 -12.3,-53.1 c -1.53,-6.61 -4.15,-9.18 -9.32,-9.18 -4.25,0 -5.5,4.95 -4.59,8.86 l 12.3,53.1 c 1.75,7.54 4.52,10.9 10.5,10.2 5.12,-0.564 4.39,-5.88 3.46,-9.87"
         id="path13"
         style="fill:#ffffff;fill-opacity:1" /><path
         d="m 302,426 21.2,86.9 -28.1,0.005 -0.426,-1.65 c 2.21,-0.875 4.53,-3.34 3.7,-6.96 h 0.01 l -24.6,-101 h 51.2 l 4.71,19.7 h -23.9 c -3.94,0.12 -3.94,2.71 -3.85,3.46"
         id="path14"
         style="fill:#ffffff;fill-opacity:1" /><path
         d="m 352,513 -0.43,-1.65 c 2.21,-0.875 4.54,-3.34 3.7,-6.96 l -24.6,-101 h 22.7 l 26.6,110 -28,0.005"
         id="path15"
         style="fill:#ffffff;fill-opacity:1" /><path
         d="m 433,513 -8.82,-36.3 h -0.0192 c -1.02,-4 -1.35,-4.7 -2.92,-4.7 -2.08,0 -2.54,4.7 -2.54,4.7 l -0.005,-0.0143 -4.47,36.3 h -25.8 l -0.426,-1.65 c 2.2,-0.865 4.5,-3.32 3.71,-6.91 l -24.6,-101 h 20.9 l 10.2,41.8 c 0.851,3.27 1.23,3.81 2.71,3.81 1.48,0 2.14,-2.59 2.4,-3.87 l 4.5,-41.8 h 19.5 l 26.7,110 h -20.9"
         id="path16"
         style="fill:#ffffff;fill-opacity:1" /><path
         d="m 472,513 -0.426,-1.67 c 2.14,-0.842 4.85,-3.34 3.81,-6.66 l -40,-102 h 25.6 l 8.92,26 h 9.64 c 4.64,-0.421 4.86,-3.72 4.85,-4.51 l -2.52,-21.6 -0.005,-0.0335 h 22.7 v 0.0335 l 12.7,110 -45.1,-0.005 z m -8.79,-66.8 0.688,1.71 c 0,0 6.36,1.11 13.1,2.2 l 9.73,28.4 0.01,-0.0191 c 0,0 1.23,3.92 2.79,3.92 0,0 1.26,-0.22 1.25,-2.25 l -3.95,-34 h -23.6"
         id="path17"
         style="fill:#ffffff;fill-opacity:1" /><path
         d="m 201,411 h -0.0143 l -5.36,39.3 c 8.68,4.89 14.9,13.3 17.5,24.3 l 1.99,8.82 c 2.27,9.12 1.18,16.6 -3.17,21.7 -4.03,4.72 -10.8,7.22 -19.5,7.22 -0.382,0 -36.3,0.0574 -36.3,0.0574 l -0.435,-1.67 c 2.2,-0.865 4.5,-3.31 3.73,-6.89 l -24.1,-101 h 22.8 l 9.24,38.6 c 0.416,1.4 1.63,4.26 4.53,4.33 0.32,0.01 1.4,0.0574 2.44,0.1 l 5.36,-43 h 27.8 l -0.191,1.64 c -2.54,0.88 -5.88,3.5 -6.33,6.99 z m -8.76,70.4 -1.1,-5.11 c -1.61,-6.87 -4.09,-11.1 -11.5,-11.1 l -18,0.0239 0.445,1.31 12.1,2.62 5.62,23.5 5.36,-0.0144 c 0.306,0.0144 0.622,0.0287 0.961,0.0287 2.89,0 4.73,-0.593 5.81,-1.86 1.44,-1.69 1.55,-4.58 0.359,-9.38"
         id="path18"
         style="fill:#ffffff;fill-opacity:1" /></g></g></svg>
