<?xml version="1.0" encoding="UTF-8" standalone="no"?>
<svg
   height="200"
   viewBox="0 0 700.00349 199.99958"
   width="700"
   version="1.1"
   id="svg1"
   sodipodi:docname="CHI.svg"
   inkscape:version="1.3.1 (91b66b0783, 2023-11-16)"
   inkscape:export-filename="CHI.png"
   inkscape:export-xdpi="96"
   inkscape:export-ydpi="96"
   xmlns:inkscape="http://www.inkscape.org/namespaces/inkscape"
   xmlns:sodipodi="http://sodipodi.sourceforge.net/DTD/sodipodi-0.dtd"
   xmlns="http://www.w3.org/2000/svg"
   xmlns:svg="http://www.w3.org/2000/svg">
  <defs
     id="defs1" />
  <sodipodi:namedview
     id="namedview1"
     pagecolor="#505050"
     bordercolor="#eeeeee"
     borderopacity="1"
     inkscape:showpageshadow="0"
     inkscape:pageopacity="0"
     inkscape:pagecheckerboard="0"
     inkscape:deskcolor="#505050"
     inkscape:zoom="1.2593323"
     inkscape:cx="316.43753"
     inkscape:cy="0.39703579"
     inkscape:window-width="1920"
     inkscape:window-height="1017"
     inkscape:window-x="-8"
     inkscape:window-y="352"
     inkscape:window-maximized="1"
     inkscape:current-layer="svg1" />
  <g
     transform="matrix(4.5842946,0,0,-4.5842946,-1046.8145,1904.9382)"
     id="g1"
     style="fill:#e64100;fill-opacity:1;stroke:none;stroke-width:0.800004;stroke-dasharray:none;stroke-opacity:1">
    <path
       d="m 172.98,1.0996 c -9.31,0 -15.94,2.9833 -15.94,9.2634 0,3.92 3.27,5.758 7.86,6.455 4.7,0.71 6.29,0.795 6.29,1.858 0,1.094 -1.14,1.119 -3.59,1.119 -2.22,0 -5.2,-0.742 -6.96,-1.133 -0.52,-0.115 -2.23,-0.658 -3.26,-1.049 v 7.584 c 6.09,2.487 11.12,2.823 15.49,2.823 9.44,0 17.81,-1.316 17.81,-8.18 0,-5.405 -3.99,-6.291 -9.02,-7.221 -4.75,-0.878 -6.44,-0.359 -6.45,-1.889 0,-1.4061 2.26,-1.1812 3.88,-1.1812 1.19,0 2.96,0.2154 4.02,0.3594 1.3,0.1748 4.47,0.8228 6.05,1.6658 V 3.8613 C 186.39,2.4506 181.34,1.0996 172.98,1.0996 Z M 0.81,1.6152 v 25.694 h 28.962 c 5.047,0 10.284,-1.977 10.284,-7.038 0,-3.364 -2.924,-5.607 -5.137,-6.115 2.99,-1.09 4.414,-3.718 4.414,-6.0994 0,-2.626 -1.869,-6.4414 -12.018,-6.4414 H 0.81 Z m 82.974,0 -10.73,25.694 h 15.771 l 1.004,-2.547 c 0.212,-0.549 0.538,-0.807 1.035,-0.807 h 6.313 c 0.555,0 0.974,0.155 1.185,0.774 l 0.858,2.58 h 16.571 l -9.96,-25.694 -22.047,2e-4 z m 32.907,0 v 25.694 h 15.72 l -0.01,-5.079 c 0.01,-0.633 0.25,-1.084 0.83,-1.084 h 0.74 c 0.48,0 0.99,0.151 1.44,1.004 l 2.75,5.159 h 17.73 l -6.47,-9.485 c 3.86,-0.95 5.54,-4.63 5.54,-7.8709 0,-5.8855 -5.4,-8.3379 -12.84,-8.3379 h -25.43 z m -75.028,0.002 v 25.694 h 30.824 v -7.887 l -13.586,-0.004 c -0.503,-0.002 -0.793,-0.389 -0.793,-0.887 v -0.322 c 0,-0.409 0.297,-0.973 0.762,-0.973 l 13.631,-0.006 v -6.037 l -13.615,-0.006 c -0.502,-0.002 -0.776,-0.517 -0.776,-1.017 V 9.9006 c 0,-0.4093 0.325,-1.0527 0.791,-1.0527 L 72.747,8.8459 V 1.6174 H 41.663 Z m -24.549,6.9453 1.963,0.0059 c 2.427,0 3.776,0.1627 3.776,1.5876 0,1.526 -1.17,1.528 -2.54,1.528 l -3.167,-0.006 c -0.502,0 -0.665,-0.135 -0.665,-0.633 V 9.2285 c 0,-0.4051 0.166,-0.666 0.633,-0.666 z m 116.18,0.5059 1.31,0.0136 c 2.43,0 3.97,0.3845 3.97,2.217 0,2.262 -2.44,2.156 -3.33,2.156 l -1.92,0.014 c -0.5,-0.002 -0.66,-0.135 -0.66,-0.633 V 9.7344 c 0,-0.4052 0.16,-0.666 0.63,-0.666 z M 94.381,11.768 c 0.155,0.003 0.311,0.19 0.43,0.568 l 1.095,3.685 c 0.175,0.486 -0.053,0.745 -0.55,0.745 H 93.25 c -0.407,0 -0.716,-0.31 -0.541,-0.76 l 1.254,-3.703 c 0.109,-0.358 0.263,-0.539 0.418,-0.535 z m -77.273,5.029 3.158,0.012 c 1.608,0 2.922,0.105 2.922,1.617 0,1.721 -1.161,1.74 -2.444,1.74 l -3.605,0.004 c -0.502,-0.002 -0.662,-0.137 -0.662,-0.635 v -2.072 c 0,-0.407 0.164,-0.666 0.631,-0.666 z"
       transform="matrix(0.8,0,0,-0.8,228.1,405.37)"
       fill="#E64100"
       id="path1"
       style="fill:#e64100;fill-opacity:1;stroke:none;stroke-width:1.00001;stroke-dasharray:none;stroke-opacity:1" />
  </g>
</svg>
