<?xml version="1.0" encoding="UTF-8" standalone="no"?>
<svg
   xml:space="preserve"
   height="200"
   viewBox="0 0 699.37897 199.8762"
   width="700"
   version="1.1"
   id="svg8"
   sodipodi:docname="CIN.svg"
   inkscape:version="1.3.1 (91b66b0783, 2023-11-16)"
   inkscape:export-filename="CIN.png"
   inkscape:export-xdpi="96"
   inkscape:export-ydpi="96"
   xmlns:inkscape="http://www.inkscape.org/namespaces/inkscape"
   xmlns:sodipodi="http://sodipodi.sourceforge.net/DTD/sodipodi-0.dtd"
   xmlns="http://www.w3.org/2000/svg"
   xmlns:svg="http://www.w3.org/2000/svg"><sodipodi:namedview
     id="namedview8"
     pagecolor="#505050"
     bordercolor="#eeeeee"
     borderopacity="1"
     inkscape:showpageshadow="0"
     inkscape:pageopacity="0"
     inkscape:pagecheckerboard="0"
     inkscape:deskcolor="#505050"
     inkscape:zoom="0.9010554"
     inkscape:cx="314.63104"
     inkscape:cy="111.53587"
     inkscape:window-width="1920"
     inkscape:window-height="1017"
     inkscape:window-x="-8"
     inkscape:window-y="352"
     inkscape:window-maximized="1"
     inkscape:current-layer="svg8" /><defs
     id="defs2"><clipPath
       id="b"
       clipPathUnits="userSpaceOnUse"><path
         d="m 0.54,343 h 606 v 100 h -606 z"
         id="path1" /></clipPath><clipPath
       id="a"
       clipPathUnits="userSpaceOnUse"><path
         d="M 0,0 H 612 V 792 H 0 Z"
         id="path2" /></clipPath></defs><g
     transform="matrix(2.3118147,0,0,-2.3118147,-352.11388,1007.3439)"
     id="g8"
     style="fill:#000000;fill-opacity:1;stroke:none;stroke-width:1.06574;stroke-dasharray:none;stroke-opacity:1"><g
       style="fill:#000000;fill-opacity:1;stroke:none;stroke-width:1.06574;stroke-dasharray:none;stroke-opacity:1"
       id="g7"><g
         transform="matrix(0.5,0,0,0.5,152,196)"
         id="g4"
         style="fill:#000000;fill-opacity:1;stroke:none;stroke-width:2.13148;stroke-dasharray:none;stroke-opacity:1"><g
           clip-path="url(#b)"
           id="g3"
           style="fill:#000000;fill-opacity:1;stroke:none;stroke-width:2.13148;stroke-dasharray:none;stroke-opacity:1"><path
             d="m 524,368 v -25.5 h -63.8 l -7.84,13.3 h 5.89 c 1.1,0 1.95,0.873 1.95,1.94 v 23.9 c 0,1.07 -0.855,1.94 -1.95,1.94 h -5.89 l 7.84,13.3 h 25.3 v -39.6 c 0,-0.81 0.639,-1.46 1.44,-1.46 h 16.9 v 12.2 h 20.2 z m -173,0 v -9.5 h -6.24 c -1.08,0 -1.94,-0.873 -1.94,-1.95 v -14.1 h -31.5 c -19.9,0 -35.8,10.3 -35.8,27.2 0,16.9 15.9,27.2 35.8,27.2 h 31.5 v -19.7 h -20.2 v 6.42 h -16 c -1.3,0 -2.34,-1.04 -2.34,-2.34 v -23.1 c 0,-1.29 1.04,-2.34 2.34,-2.34 h 16 v 12.2 h 28.3 z m -93.2,28.8 v -54.4 h -22.1 l -27.1,27.2 V 342.4 H 190 l -7.85,13.3 h 5.9 c 1.08,0 1.95,0.873 1.95,1.94 v 23.9 c 0,1.07 -0.873,1.94 -1.95,1.94 h -5.9 l 7.85,13.3 h 22.1 l 27.1,-27.2 v 13.9 h -7.86 l 7.86,13.3 h 18.6 z m -94.5,0 v -19.7 h -20.2 v 6.42 h -16.9 c -0.801,0 -1.45,-0.657 -1.45,-1.45 v -7.68 h 11.2 v -9.5 h -11.2 v -7.68 c 0,-0.81 0.648,-1.46 1.45,-1.46 h 16.9 v 6.42 h 20.2 v -19.7 H 99.5 l -7.85,13.3 h 5.91 c 1.07,0 1.94,0.873 1.94,1.94 v 23.9 c 0,1.07 -0.864,1.94 -1.94,1.94 h -5.91 l 7.85,13.3 h 63.8 z m 230,-32.8 5.38,13.6 c 0.207,0.513 0.891,0.513 1.1,0 l 5.37,-13.6 h -11.9 z m 19,-22 h 27.4 l -23.9,54.4 h -29.2 l -17.3,-39.3 c -0.621,-1.19 -1.67,-1.74 -2.69,-1.74 h -5.58 l 7.85,-13.3 h 14.5 l 4.27,10.8 h 20.4 l 4.28,-10.8 z m 193,17 c 0,-11 -8,-17 -27,-17 h -31.2 l -9.55,16.2 h 25.1 v -5.42 h 16 c 1.29,0 2.33,1.05 2.33,2.34 v 4.9 c 0,1.28 -1.04,2.32 -2.33,2.32 h -13 c -19.2,0 -27.5,6.4 -27.5,17 0,10.6 8.31,17 27.5,17 h 35.8 v -16.2 h -20.2 v 5.42 h -16 c -1.3,0 -2.34,-1.05 -2.34,-2.35 v -4.9 c 0,-1.29 1.04,-2.33 2.34,-2.33 h 13 c 19.2,0 27.5,-6.39 27.5,-17 z m -563,14.4 H 32 v 8.19 c 0,0.792 0.639,1.45 1.44,1.45 h 8.86 c 4.33,0 5.94,-1.97 5.94,-4.82 0,-2.83 -1.61,-4.82 -5.94,-4.82 z m 0,-18.1 h -8.86 c -0.801,0 -1.44,0.648 -1.44,1.46 v 8.18 h 10.3 c 4.33,0 5.94,-1.98 5.94,-4.82 0,-2.84 -1.61,-4.82 -5.94,-4.82 z m 19.4,14.4 c -0.576,0.117 -0.576,0.801 0,0.999 5.74,1.97 9.98,5.47 9.98,11.6 0.072,8.28 -7.85,14 -19.8,14 H 7.08 l -7.8,-13 h 5.9 c 1.07,0 1.94,-0.864 1.94,-1.94 v -23.9 c 0,-1.07 -0.873,-1.94 -1.94,-1.94 h -5.9 l 7.84,-13 h 47.4 c 13.5,0 19.6,8.49 19.6,15.5 0,5.8 -5.19,10.8 -12,12.2"
             id="path3"
             style="fill:#000000;fill-opacity:1;stroke:none;stroke-width:2.13148;stroke-dasharray:none;stroke-opacity:1" /></g></g><g
         fill="#fb4f1f"
         transform="matrix(0.5,0,0,0.5,152,196)"
         id="g6"
         style="fill:#000000;fill-opacity:1;stroke:none;stroke-width:2.13148;stroke-dasharray:none;stroke-opacity:1"><g
           fill="#fb4f1f"
           clip-path="url(#a)"
           id="g5"
           style="fill:#000000;fill-opacity:1;stroke:none;stroke-width:2.13148;stroke-dasharray:none;stroke-opacity:1"><path
             d="m 427,443 v -10.4 h 7.28 v 4.5 h 3.2 c 0.486,0 0.873,-0.387 0.873,-0.864 v -10.6 c 0,-0.477 -0.387,-0.864 -0.873,-0.864 h -2.63 l 3.5,-5.92 h 11.3 v 17.6 c 0,0.351 0.288,0.639 0.648,0.639 h 3.41 v -4.5 h 7.28 v 10.4 h -34 z m -166,-8.78 v 8.76 h -14 c -8.86,0 -15.9,-4.56 -15.9,-12.1 0,-7.52 7.08,-12.1 15.9,-12.1 h 14 v 8.78 h -8.96 v -2.86 h -7.13 c -0.567,0 -1.04,0.459 -1.04,1.04 v 10.3 c 0,0.576 0.468,1.04 1.04,1.04 h 7.13 v -2.85 H 261 Z m -112,0 v 8.76 h -14 c -8.85,0 -15.9,-4.56 -15.9,-12.1 0,-7.52 7.09,-12.1 15.9,-12.1 h 14 v 8.78 h -8.98 v -2.86 h -7.12 c -0.576,0 -1.04,0.459 -1.04,1.04 v 10.3 c 0,0.576 0.468,1.04 1.04,1.04 h 7.12 v -2.85 H 149 Z m 126,8.78 -3.49,-5.92 h 2.62 c 0.486,0 0.873,-0.387 0.873,-0.864 v -10.6 c 0,-0.477 -0.387,-0.864 -0.873,-0.864 h -2.62 l 3.49,-5.92 h 11.3 v 24.2 H 275 Z m -112,0 -3.49,-5.92 h 2.63 c 0.477,0 0.864,-0.387 0.864,-0.864 v -10.6 c 0,-0.477 -0.387,-0.864 -0.864,-0.864 h -2.63 l 3.49,-5.92 h 11.3 v 24.2 H 163 Z m 242,-14.6 -2.41,6.08 c -0.081,0.198 -0.414,0.18 -0.468,-0.018 l -2.39,-6.06 h 5.27 z m 1.9,-4.81 h -9.08 l -1.89,-4.8 h -6.45 l -3.48,5.92 h 2.49 c 0.468,0 0.945,0.27 1.22,0.846 l 7.66,17.4 h 13 l 10.6,-24.2 h -12.2 l -1.89,4.8 z m -38.1,19.4 -3.49,-5.92 h 3.49 V 430.9 L 356.7,443 h -9.84 l -3.49,-5.92 H 346 c 0.477,0 0.864,-0.387 0.864,-0.864 v -10.6 c 0,-0.477 -0.387,-0.864 -0.864,-0.864 h -2.63 l 3.49,-5.92 h 8.27 v 12.1 l 12.1,-12.1 h 9.85 v 24.2 h -8.26 z m -45.2,0 -3.5,-5.92 h 3.5 V 430.9 L 311.5,443 h -9.84 l -3.5,-5.92 h 2.64 c 0.477,0 0.864,-0.387 0.864,-0.864 v -10.6 c 0,-0.477 -0.387,-0.864 -0.864,-0.864 h -2.64 l 3.5,-5.92 h 8.26 v 12.1 l 12.1,-12.1 h 9.85 v 24.2 h -8.26 z m -112,0 -3.48,-5.92 h 3.48 V 430.9 L 199.5,443 h -9.84 l -3.49,-5.92 h 2.62 c 0.486,0 0.873,-0.387 0.873,-0.864 v -10.6 c 0,-0.477 -0.387,-0.864 -0.873,-0.864 h -2.62 l 3.49,-5.92 h 8.26 v 12.1 l 12.1,-12.1 h 9.83 v 24.2 h -8.26 z m 273,0 v -24.2 h -11.3 l -3.5,5.92 h 2.63 c 0.486,0 0.873,0.387 0.873,0.864 v 10.6 c 0,0.477 -0.387,0.864 -0.873,0.864 h -2.63 l 3.5,5.92 h 11.3"
             fill="#fb4f1f"
             id="path4"
             style="fill:#000000;fill-opacity:1;stroke:none;stroke-width:2.13148;stroke-dasharray:none;stroke-opacity:1" /></g></g></g></g></svg>
