<?xml version="1.0" encoding="UTF-8" standalone="no"?>
<svg
   height="200"
   width="700"
   viewBox="0 0 706.88201 204.3185"
   version="1.1"
   id="svg1"
   sodipodi:docname="CLE.svg"
   inkscape:version="1.3.1 (91b66b0783, 2023-11-16)"
   inkscape:export-filename="CLE.png"
   inkscape:export-xdpi="96"
   inkscape:export-ydpi="96"
   xmlns:inkscape="http://www.inkscape.org/namespaces/inkscape"
   xmlns:sodipodi="http://sodipodi.sourceforge.net/DTD/sodipodi-0.dtd"
   xmlns="http://www.w3.org/2000/svg"
   xmlns:svg="http://www.w3.org/2000/svg">
  <defs
     id="defs1" />
  <sodipodi:namedview
     id="namedview1"
     pagecolor="#505050"
     bordercolor="#eeeeee"
     borderopacity="1"
     inkscape:showpageshadow="0"
     inkscape:pageopacity="0"
     inkscape:pagecheckerboard="0"
     inkscape:deskcolor="#505050"
     inkscape:zoom="1.6787102"
     inkscape:cx="357.71511"
     inkscape:cy="105.14024"
     inkscape:window-width="1920"
     inkscape:window-height="1017"
     inkscape:window-x="-8"
     inkscape:window-y="352"
     inkscape:window-maximized="1"
     inkscape:current-layer="svg1" />
  <path
     d="M -2.9232687,14.715239 V 189.60208 H 71.268461 c 12.979584,0 26.676231,-12.0892 26.676231,-26.68324 V 116.2699 L 86.318657,100.39939 97.944692,84.527272 V 41.423939 c 0,-14.020616 -13.697583,-26.708933 -26.676231,-26.708933 z m 109.6082187,0.0093 V 189.60209 h 40.04821 v -68.42484 h 11.59193 l 17.99344,68.42484 h 40.54806 L 196.59605,116.61091 209.83724,99.13063 V 41.422064 c 0,-14.020608 -13.9419,-26.699585 -26.68557,-26.699585 z m 140.76202,0 c -12.86514,0 -26.56178,12.721719 -26.56178,26.69959 V 162.91879 c 0,14.54476 13.6163,26.68324 26.56178,26.68324 h 47.2352 c 13.47991,0 26.55478,-12.13918 26.55478,-26.68324 V 41.424114 c 0,-13.977871 -13.23534,-26.69959 -26.56179,-26.69959 z m 79.51249,0 19.26453,174.877501 H 392.7585 L 407.61785,83.758989 422.67903,189.60203 h 46.45508 L 488.40029,14.724582 H 451.78323 L 443.35107,126.30881 426.22488,14.724582 H 389.39295 L 374.19304,126.30881 363.70964,14.724582 Z m 170.17571,0 V 189.60209 h 35.48656 v -84.24466 l 32.43376,84.24466 h 34.21592 V 14.724582 H 563.78953 V 96.960513 L 531.09416,14.724582 Z m 139.26481,0 c -12.79366,0 -26.42864,12.721719 -26.42864,26.69959 v 59.738301 l 19.55018,18.78547 H 670.803 v 35.13154 h -21.47646 v -19.35862 h -39.3545 v 27.20644 c 0,13.98487 13.63546,26.67623 26.42865,26.67623 h 47.02966 c 13.27715,0 26.37493,-12.26906 26.37493,-26.55478 V 102.42283 L 691.36012,83.719345 H 649.32654 V 49.099327 H 670.803 v 19.5245 h 39.00181 V 41.30061 C 709.7261,27.372959 696.60566,14.722479 683.38084,14.722479 Z M 146.74017,45.142622 h 21.47645 V 90.768541 H 146.74017 Z M 36.783929,45.664406 H 58.257115 V 85.100664 H 36.783929 Z M 260.32612,49.27402 h 21.48345 V 155.24787 H 260.32612 Z M 36.783929,116.33714 h 21.473186 v 41.49168 H 36.783929 Z"
     fill="#ff3300"
     id="path1"
     style="fill:#311d00;fill-opacity:1;stroke:none;stroke-width:4.08637;stroke-dasharray:none;stroke-opacity:1"
     sodipodi:nodetypes="ccsscccscccccccccccsccsssssssssccccccccccccccccccccccccccscccccccsssscccccccccccccccccccccccccccccc" />
</svg>
