<?xml version="1.0" encoding="UTF-8" standalone="no"?>
<svg
   xml:space="preserve"
   version="1.1"
   viewBox="0 0 700 200"
   id="svg6"
   sodipodi:docname="DAL.svg"
   inkscape:version="1.3.1 (91b66b0783, 2023-11-16)"
   width="700"
   height="200"
   inkscape:export-filename="DAL.png"
   inkscape:export-xdpi="96"
   inkscape:export-ydpi="96"
   xmlns:inkscape="http://www.inkscape.org/namespaces/inkscape"
   xmlns:sodipodi="http://sodipodi.sourceforge.net/DTD/sodipodi-0.dtd"
   xmlns="http://www.w3.org/2000/svg"
   xmlns:svg="http://www.w3.org/2000/svg"><defs
     id="defs6" /><sodipodi:namedview
     id="namedview6"
     pagecolor="#505050"
     bordercolor="#eeeeee"
     borderopacity="1"
     inkscape:showpageshadow="0"
     inkscape:pageopacity="0"
     inkscape:pagecheckerboard="0"
     inkscape:deskcolor="#505050"
     inkscape:zoom="0.96590786"
     inkscape:cx="256.23562"
     inkscape:cy="133.03546"
     inkscape:window-width="1920"
     inkscape:window-height="1017"
     inkscape:window-x="-8"
     inkscape:window-y="352"
     inkscape:window-maximized="1"
     inkscape:current-layer="svg6" /><g
     fill="#024"
     id="g6"
     style="fill:#b0b7bc;fill-opacity:1"
     transform="matrix(1.400002,0,0,1.400002,-9.9993001e-6,40.500223)"><path
       d="m 105.29,52.571 c 0,3.1421 -2.5324,5.6807 -5.6683,5.6807 h -9.5632 c -3.1483,0 -5.6993,-2.5386 -5.6993,-5.6807 V 33.034 c 0,-3.1421 2.551,-5.6744 5.6993,-5.6744 h 9.5632 c 3.1359,0 5.6683,2.5324 5.6683,5.6744 z M 98.39,0.904 90.027,0.95387 c -13.626,0.51645 -24.558,11.429 -25.043,25.049 l 0.056,35.204 c 1.225,12.923 11.859,23.078 24.987,23.576 v 0.04988 h 8.3624 c 14.429,0 26.095,-11.691 26.095,-26.095 v -31.745 c 0,-14.41 -11.666,-26.089 -26.095,-26.089"
       id="path1"
       style="fill:#b0b7bc;fill-opacity:1" /><path
       d="m 348.46,52.571 c 0,3.1421 -2.5386,5.6807 -5.6744,5.6807 h -9.5694 c -3.1359,0 -5.6807,-2.5386 -5.6807,-5.6807 V 33.034 c 0,-3.1421 2.5448,-5.6744 5.6807,-5.6744 h 9.5694 c 3.1359,0 5.6744,2.5324 5.6744,5.6744 z m -6.9,-51.667 -8.37,0.04987 c -13.62,0.51642 -24.546,11.43 -25.056,25.05 l 0.0809,35.204 c 1.2133,12.923 11.859,23.077 24.975,23.575 v 0.04988 h 8.3624 c 14.435,0 26.114,-11.691 26.114,-26.095 v -31.745 c 0,-14.41 -11.679,-26.089 -26.114,-26.089"
       id="path2"
       style="fill:#b0b7bc;fill-opacity:1" /><path
       d="M 24.571,0.95418 C 11.206,1.4706 0.485,12.38418 0,26.00418 l 0.0685,35.204 c 1.1822,12.917 11.636,23.071 24.502,23.575 v 0.04988 h 8.213 c 14.124,0 25.572,-11.691 25.572,-26.101 v -12.948 l -16.855,-0.17428 v 6.7882 c 0,3.2417 -2.5884,5.8549 -5.7865,5.8549 h -9.7747 c -3.1794,0 -5.7678,-2.6132 -5.7678,-5.8549 v -20.172 c 0,-3.2354 2.5884,-5.8673 5.7678,-5.8673 h 9.7747 c 3.1981,0 5.7865,2.6319 5.7865,5.8673 v 7.6531 l 16.855,0.14934 v -13.041 -24.857 h -12.22 c -1.971,1.649 -3.284,2.4703 -6.731,1.4872 -3.447,-1.0017 -6.714,-2.663 -14.833,-2.663"
       id="path3"
       style="fill:#b0b7bc;fill-opacity:1" /><path
       d="m 277.59,33.391 h -11.585 v -8.3624 h 11.585 v 0.01125 c 2.2897,0 4.1625,1.8479 4.1625,4.1625 0,2.3146 -1.8728,4.1874 -4.1625,4.1874 z m 0,24.116 v 0.01125 h -11.585 v -8.3748 h 11.585 c 2.2897,0 4.1625,1.8666 4.1625,4.1812 0,2.3146 -1.8728,4.1812 -4.1625,4.1812 z m 24.69,-31.875 c 0,-13.651 -11.05,-24.714 -24.695,-24.714 l -5.2638,0.0685 h -67.272 v 23.289 c 3.8452,0 5.8487,1.9102 4.8594,5.2638 l -7.9206,23.824 -7.5846,-22.94 c -0.44799,-3.2105 1.7048,-6.1473 6.2842,-6.1473 V 0.987 h -32.547 v 23.289 c 2.607,0.9893 6.3838,1.2755 4.6167,6.6638 l -8.1446,24.652 -8.1073,-24.421 c -1.0018,-3.6772 2.7501,-6.894 6.7944,-6.894 V 0.9878 h -36.766 v 23.289 c 4.8407,0.49775 10.714,3.6336 11.84,7.8584 l 16.874,50.971 h 0.2551 15.735 0.24267 l 10.185,-30.706 10.011,30.706 h 16.495 l 17.59,-51.891 c 1.8355,-5.3696 5.0585,-6.9375 10.957,-6.9375 6.6389,0 9.3579,1.9724 9.3579,8.4992 v 17.72 c 0,6.8878 -3.4594,7.7588 -8.6112,7.7588 h -2.9554 v 24.956 h 43.075 c 13.645,0 24.695,-11.069 24.695,-24.72 0,-6.3029 -3.0737,-12.077 -6.9873,-16.457 3.9012,-4.3678 6.9873,-10.098 6.9873,-16.401"
       id="path4"
       style="fill:#b0b7bc;fill-opacity:1" /><path
       d="M 425.39,58.253 V 83.11 H 383.535 V 58.253 h 4.0754 c 9.2148,0 9.2148,-6.6451 6.6326,-10.465 l -15.38,-19.445 c -3.08,-3.677 -4.19,-3.814 -7.39,-3.814 h -1.8542 V 0.904 h 36.928 v 23.625 h -3.2043 c -2.719,-0.12438 -4.9092,0.61598 -2.4639,3.447 l 7.1428,8.3686 h 1.0951 l 7.0184,-8.493 c 1.9786,-2.5884 0.99553,-3.3226 -1.4746,-3.3226 h -2.215 -2.215 V 0.904 h 32.609 v 23.625 h -4.3056 c -1.8417,0 -3.3163,0.7342 -5.0398,2.831 -1.7173,2.0968 -16.862,21.055 -16.862,21.055 -2.831,3.4345 -1.5928,9.837 8.7481,9.837"
       id="path5"
       style="fill:#b0b7bc;fill-opacity:1" /><path
       d="m 486.71,31.42 h 11.399 V 0.907 h -13.533 c 0,1.711 -1.1386,2.047 -3.9448,2.047 -2.7812,0 -3.9572,-0.88974 -5.5811,-1.6426 -1.8417,-0.87109 -5.4069,-1.1449 -7.2175,-1.1449 -1.7982,0 -22.138,1.9599 -22.138,23.625 0,21.6651 17.403,24.77 22.81,26.089 5.4007,1.3128 10.988,3.783 9.3454,7.3855 -1.6426,3.615 -12.133,0.1618 -14.609,-1.4808 -2.4701,-1.6302 -4.9963,-4.0692 -4.9963,-4.0692 h -13.67 v 31.39 h 10.944 c 0.65952,-2.047 2.8061,-3.5216 4.9402,-3.5216 2.1217,0 4.7474,1.3128 6.4024,1.9599 1.6426,0.65952 6.0789,2.3021 11.156,2.3021 5.0834,0 21.982,-3.4532 21.982,-25.759 0,-22.312 -23.295,-24.446 -25.106,-24.944 -1.8168,-0.49154 -9.1774,-1.9599 -8.3561,-5.9109 0.80887,-3.9323 9.5196,-4.2807 15.748,0.66574 2.7812,2.2213 4.4238,3.5217 4.4238,3.5217"
       id="path6"
       style="fill:#b0b7bc;fill-opacity:1" /></g></svg>
