<?xml version="1.0" encoding="UTF-8" standalone="no"?>
<svg
   xml:space="preserve"
   height="200"
   viewBox="0 0 700.00919 199.99863"
   width="700"
   version="1.1"
   id="svg15"
   sodipodi:docname="DEN.svg"
   inkscape:version="1.3.1 (91b66b0783, 2023-11-16)"
   inkscape:export-filename="DEN.png"
   inkscape:export-xdpi="96"
   inkscape:export-ydpi="96"
   xmlns:inkscape="http://www.inkscape.org/namespaces/inkscape"
   xmlns:sodipodi="http://sodipodi.sourceforge.net/DTD/sodipodi-0.dtd"
   xmlns="http://www.w3.org/2000/svg"
   xmlns:svg="http://www.w3.org/2000/svg"><defs
     id="defs15" /><sodipodi:namedview
     id="namedview15"
     pagecolor="#505050"
     bordercolor="#eeeeee"
     borderopacity="1"
     inkscape:showpageshadow="0"
     inkscape:pageopacity="0"
     inkscape:pagecheckerboard="0"
     inkscape:deskcolor="#505050"
     inkscape:zoom="1.2658015"
     inkscape:cx="363.80111"
     inkscape:cy="120.47702"
     inkscape:window-width="1920"
     inkscape:window-height="1017"
     inkscape:window-x="-8"
     inkscape:window-y="352"
     inkscape:window-maximized="1"
     inkscape:current-layer="svg15" /><g
     transform="matrix(4.5866,0,0,-4.5866,-1049.9746,1915.3129)"
     id="g15"
     style="fill:#fb4f14;fill-opacity:1"><g
       transform="translate(0,0.40092)"
       id="g14"
       style="fill:#fb4f14;fill-opacity:1"><g
         fill="#0A2343"
         id="g7"
         style="fill:#fb4f14;fill-opacity:1"><path
           d="m 282.67,394.57 c -3.5298,0 -6.3904,2.3611 -6.3904,5.274 0,2.9139 2.8606,5.275 6.3904,5.275 3.5289,0 6.3905,-2.3611 6.3905,-5.275 0,-2.9129 -2.8616,-5.274 -6.3905,-5.274 z m 0,13.992 c -5.9453,0 -10.765,-3.904 -10.765,-8.718 0,-4.815 4.82,-8.719 10.765,-8.719 5.9443,0 10.764,3.904 10.764,8.719 0,4.8141 -4.82,8.718 -10.764,8.718"
           id="path1"
           style="fill:#fb4f14;fill-opacity:1" /><path
           d="m 350.42,394.57 c -3.5289,0 -6.3914,2.3611 -6.3914,5.274 0,2.9139 2.8626,5.275 6.3914,5.275 3.5298,0 6.3914,-2.3611 6.3914,-5.275 0,-2.9129 -2.8616,-5.274 -6.3914,-5.274 z m 0,13.992 c -5.9433,0 -10.763,-3.904 -10.763,-8.718 0,-4.815 4.82,-8.719 10.763,-8.719 5.9463,0 10.765,3.904 10.765,8.719 0,4.8141 -4.819,8.718 -10.765,8.718"
           id="path2"
           style="fill:#fb4f14;fill-opacity:1" /><path
           d="m 240.96,395.32 c -0.004,0 -6.1763,-0.004 -6.1763,-0.004 v 3.0679 c 0,0 6.1723,-0.004 6.1763,-0.004 1.4964,0 2.7096,-0.68405 2.7096,-1.529 0,-0.84398 -1.2131,-1.531 -2.7096,-1.531 z m -6.1654,9.1544 c 0,0 5.7548,0.002 5.7587,0.002 1.3948,0 2.526,-0.63868 2.526,-1.4254 0,-0.7877 -1.1312,-1.4264 -2.526,-1.4264 -0.004,0 -5.7587,0.002 -5.7587,0.002 z m 11.026,-4.3126 v 0.0405 c 0.87654,0.48368 2.1252,1.0967 2.144,3.2811 0.0158,2.0166 -1.9683,4.1734 -6.7132,4.1734 h -11.35 v -5.9433 h -0.9792 v -3.291 h 0.9792 v -6.3638 h 11.817 c 3.6513,0 6.6481,1.993 6.6481,4.5347 0,2.1223 -1.5685,3.2002 -2.5457,3.5684"
           id="path3"
           style="fill:#fb4f14;fill-opacity:1" /><path
           d="m 262.45,401.55 c -0.004,0 -5.7587,0.002 -5.7587,0.002 v 2.8478 c 0,0 5.7548,0.002 5.7587,0.002 1.3938,0 2.526,-0.63865 2.526,-1.4274 0,-0.78673 -1.1322,-1.4244 -2.526,-1.4244 z m 3.2002,-2.9268 c 2.8122,0.67518 4.3896,2.5388 4.3896,4.4192 -0.002,1.8005 -2.0778,4.5732 -6.8218,4.5732 h -11.349 v -5.9443 h -0.98118 v -3.289 h 0.98118 v -6.3658 h 4.8526 v 6.3411 h 3.8447 l 5.1645,-6.3737 h 5.5958 l -5.6768,6.6392"
           id="path4"
           style="fill:#fb4f14;fill-opacity:1" /><path
           d="m 337.96,403.57 v 4.3324 l -9.108,0.009 c -5.6176,-0.17075 -10.035,-3.748 -10.035,-8.0814 0,-4.4459 4.7164,-8.0468 10.532,-8.0468 0.004,0 6.8021,-0.003 8.6104,-0.006 v 4.3067 h -5.0372 v -0.93873 h -3.67 c -3.2999,0.0849 -5.9414,2.1528 -5.9414,4.6966 0,2.5408 2.6129,4.6384 5.9127,4.7232 0,0 2.3602,0 3.671,-0.002 l -0.004,-0.995 5.0688,0.002"
           id="path5"
           style="fill:#fb4f14;fill-opacity:1" /><path
           d="m 310.71,407.58 v -3.2061 h 0.94565 v -6.8712 l -10.785,10.077 h -4.8624 v -15.646 h 4.8624 v 10.106 l 10.785,-10.106 h 4.8614 v 15.646 h -5.8071"
           id="path6"
           style="fill:#fb4f14;fill-opacity:1" /><path
           d="m 374.56,401.55 h -4.7094 c -1.2339,0 -2.2446,0.70775 -2.2446,1.5714 0,0.8637 1.0108,1.5685 2.2446,1.5685 h 6.6876 v -0.99202 h 4.0352 v 4.2948 h -11.018 c -3.8418,0 -6.9827,-2.1667 -6.9827,-4.8141 0,-2.6484 3.1409,-4.816 6.9827,-4.816 h 4.7094 c 1.2339,0 2.2446,-0.70577 2.2446,-1.5695 0,-0.8637 -1.0108,-1.5705 -2.2446,-1.5705 h -6.6876 v 0.99303 h -4.0352 v -4.2958 h 11.018 c 3.8418,0 6.9827,2.1667 6.9827,4.816 0,2.6464 -3.141,4.8141 -6.9827,4.8141"
           id="path7"
           style="fill:#fb4f14;fill-opacity:1" /></g><g
         fill="#FC4C02"
         id="g13"
         style="fill:#fb4f14;fill-opacity:1"><path
           d="m 274.19,382.88 h 0.4758 c 0.71365,0 1.4017,0.53008 1.4017,1.457 0,0.9259 -0.68803,1.458 -1.4017,1.458 H 274.19 v -2.9149 z m -0.85285,3.5842 h 1.1648 c 1.303,0 2.4559,-0.43827 2.4559,-2.1272 0,-1.68893 -1.1529,-2.1282 -2.4559,-2.1282 h -1.1648 v 4.2554"
           id="path8"
           style="fill:#fb4f14;fill-opacity:1" /><path
           d="m 285.97,386.47 h 2.5122 v -0.66925 h -1.6583 v -1.0493 h 1.5172 v -0.67022 h -1.5172 v -1.1954 h 1.6702 v -0.67122 h -2.524 v 4.2554"
           id="path9"
           style="fill:#fb4f14;fill-opacity:1" /><path
           d="m 297.54,386.47 h 1.0473 l 1.6228,-3.1814 h 0.0109 v 3.1814 h 0.8183 v -4.2554 h -1.0434 l -1.6268,3.1834 h -0.0138 v -3.1834 h -0.81532 v 4.2554"
           id="path10"
           style="fill:#fb4f14;fill-opacity:1" /><path
           d="m 309.78,386.47 h 0.91405 l 1.0908,-3.3413 h 0.0118 l 1.0799,3.3413 h 0.8479 l -1.4332,-4.2554 h -1.0483 l -1.4629,4.2554"
           id="path11"
           style="fill:#fb4f14;fill-opacity:1" /><path
           d="m 322.51,386.47 h 2.5122 v -0.66925 h -1.6583 v -1.0493 h 1.5172 v -0.67022 h -1.5172 v -1.1954 h 1.6692 v -0.67122 h -2.523 v 4.2554"
           id="path12"
           style="fill:#fb4f14;fill-opacity:1" /><path
           d="m 334.91,384.65 h 0.28132 c 0.4205,0 0.9022,0.0612 0.9022,0.59127 0,0.51133 -0.47577,0.55575 -0.9022,0.55575 H 334.91 v -1.147 z m -0.85285,1.8163 h 0.92095 c 0.91307,0 2.0048,0.0306 2.0048,-1.151 0,-0.50145 -0.33563,-0.91605 -0.87753,-0.98907 v -0.0118 c 0.23098,-0.0178 0.3662,-0.24875 0.4511,-0.43925 l 0.68308,-1.6642 h -0.95057 l -0.51331,1.3306 c -0.1214,0.31587 -0.23097,0.43727 -0.59127,0.43727 H 334.91 v -1.7679 h -0.85285 v 4.2554"
           id="path13"
           style="fill:#fb4f14;fill-opacity:1" /></g></g></g></svg>
