<?xml version="1.0" encoding="UTF-8" standalone="no"?>
<svg
   xml:space="preserve"
   height="200"
   viewBox="0 0 699.98913 200.00142"
   width="700"
   version="1.1"
   id="svg1"
   sodipodi:docname="DET.svg"
   inkscape:version="1.3.1 (91b66b0783, 2023-11-16)"
   inkscape:export-filename="DET.png"
   inkscape:export-xdpi="96"
   inkscape:export-ydpi="96"
   xmlns:inkscape="http://www.inkscape.org/namespaces/inkscape"
   xmlns:sodipodi="http://sodipodi.sourceforge.net/DTD/sodipodi-0.dtd"
   xmlns="http://www.w3.org/2000/svg"
   xmlns:svg="http://www.w3.org/2000/svg"><defs
     id="defs1" /><sodipodi:namedview
     id="namedview1"
     pagecolor="#505050"
     bordercolor="#eeeeee"
     borderopacity="1"
     inkscape:showpageshadow="0"
     inkscape:pageopacity="0"
     inkscape:pagecheckerboard="0"
     inkscape:deskcolor="#505050"
     inkscape:zoom="0.62659444"
     inkscape:cx="198.69311"
     inkscape:cy="8.7776074"
     inkscape:window-width="1920"
     inkscape:window-height="1017"
     inkscape:window-x="-8"
     inkscape:window-y="352"
     inkscape:window-maximized="1"
     inkscape:current-layer="svg1" /><g
     transform="matrix(4.5601954,0,0,-4.5601954,-1044.8291,1909.3864)"
     id="g1"
     style="fill:#b0b7bc;fill-opacity:1;stroke:none;stroke-width:0.800006;stroke-dasharray:none;stroke-opacity:1"><path
       d="m 232.63,416.88 c 1.7986,-0.7946 3.5876,-2.6826 2.9203,-6.4719 l -5.9559,-33.732 h 29.288 l 1.8602,10.547 h -18.025 l 5.2293,29.657 h -15.317 z m 31.826,0 c 1.798,-0.7946 3.5876,-2.6826 2.9203,-6.4719 l -5.948,-33.732 h 15.332 c -1.798,0.79517 -3.5876,2.6824 -2.9203,6.4723 l 5.9441,33.732 h -15.328 z m 18.803,0 -5.952,-33.732 c -0.62765,-3.5598 1.7715,-6.4723 5.3312,-6.4723 h 25.293 l 5.9488,33.732 c 0.62763,3.5592 -1.7715,6.4719 -5.3312,6.4719 h -25.29 z m 31.175,0 c 1.7986,-0.7946 3.5876,-2.6826 2.9203,-6.4719 l -5.948,-33.732 h 10.548 l 5.2293,29.657 h 7.0367 c 1.2648,0 2.1179,-1.0352 1.8945,-2.3 l -4.8238,-27.357 h 13.022 l 1.8629,10.547 c -1.2653,0 -2.4017,0.45673 -2.075,2.3 l 3.6816,20.885 c 0.62765,3.5592 -1.772,6.4719 -5.3312,6.4719 h -28.017 z m 44.58,0 c -3.5598,0 -6.986,-2.9127 -7.6137,-6.4719 l -0.75273,-4.3102 c -0.98948,-5.6085 -0.37165,-8.0694 4.1781,-9.9473 4.7983,-1.9812 10.201,-4.3768 8.6875,-8.9277 h -14.764 l -1.8602,-10.547 h 32.23 c -1.798,0.79517 -3.5877,2.6824 -2.9199,6.4723 l 0.98828,5.6781 c 1.4764,8.4189 -7.2011,11.556 -10.324,12.898 -3.0868,1.3268 -3.4062,2.0072 -2.6914,4.6082 h 16.112 l 1.8602,10.548 h -23.13 z m -67.068,-10.548 h 8.3688 c 1.2653,0 2.1181,-1.0352 1.8953,-2.3 l -2.9668,-16.809 h -8.3762 c -1.2653,0 -2.1173,1.0347 -1.8945,2.3 z"
       fill="#0076b6"
       id="path1"
       style="fill:#b0b7bc;fill-opacity:1;stroke:none;stroke-width:0.800006;stroke-dasharray:none;stroke-opacity:1" /></g></svg>
