<?xml version="1.0" encoding="UTF-8" standalone="no"?>
<svg
   xml:space="preserve"
   height="200"
   viewBox="0 0 699.99769 199.9997"
   width="700"
   version="1.1"
   id="svg1"
   sodipodi:docname="GB.svg"
   inkscape:version="1.3.1 (91b66b0783, 2023-11-16)"
   inkscape:export-filename="GB.png"
   inkscape:export-xdpi="96"
   inkscape:export-ydpi="96"
   xmlns:inkscape="http://www.inkscape.org/namespaces/inkscape"
   xmlns:sodipodi="http://sodipodi.sourceforge.net/DTD/sodipodi-0.dtd"
   xmlns="http://www.w3.org/2000/svg"
   xmlns:svg="http://www.w3.org/2000/svg"><defs
     id="defs1" /><sodipodi:namedview
     id="namedview1"
     pagecolor="#505050"
     bordercolor="#eeeeee"
     borderopacity="1"
     inkscape:showpageshadow="0"
     inkscape:pageopacity="0"
     inkscape:pagecheckerboard="0"
     inkscape:deskcolor="#505050"
     inkscape:zoom="1.7678729"
     inkscape:cx="113.69596"
     inkscape:cy="113.97878"
     inkscape:window-width="1920"
     inkscape:window-height="1017"
     inkscape:window-x="-8"
     inkscape:window-y="352"
     inkscape:window-maximized="1"
     inkscape:current-layer="svg1" /><g
     transform="matrix(4.4446195,0,0,-4.4446195,-1012.9117,1853.3021)"
     id="g1"
     style="fill:#ffb612;fill-opacity:1"><path
       d="m 178.58,1.0293 c -5.67,0.1813 -12.1,3.5933 -12.1,10.586 v 7.643 c 0,12.039 14.69,11.003 14.68,17.726 l 0.01,4.977 c 0,1.277 -0.17,2.934 -1.22,3.416 l -0.01,11.859 c 7.09,-0.263 12.2,-5.314 12.2,-13.687 v -7.113 c 0.14,-15.061 -15.04,-11.108 -15.06,-20.657 0,-1.323 0.29,-3.054 1.48,-3.467 z m 1.36,0.0215 v 11.369 c 1.03,0.55 1.38,2.13 1.38,3.359 v 2.348 h 9.61 v -6.815 c 0,-6.7928 -5.81,-9.9385 -10.99,-10.261 z M 71.57,1.332 71.568,13.223 c 0.966,0.516 1.041,2.135 1.041,3.388 v 8.17 H 82.6 V 11.312 c 0,-6.7749 -5.173,-9.8007 -11.03,-9.98 z m -1.363,0.0118 c -6.003,0 -11.75,3.1853 -11.75,9.9682 V 47.41 c 0,6.487 5.921,9.606 11.752,9.867 L 70.207,45.018 c -1.044,-0.399 -1.078,-1.674 -1.078,-3.36 V 16.611 c 0,-1.281 0.052,-2.941 1.08,-3.423 0,0 0.036,-11.844 -0.002,-11.844 z m 32.489,1.0703 -5.829,19.049 0.033,15.508 6.176,19.396 h 10.59 l -8.25,-27.695 7.8,-26.258 -10.52,1e-4 z M 32.904,2.459 24.883,56.416 H 36.762 L 40.596,23.969 38.285,2.459 Z m 9.127,0 -2.406,0.0332 3.629,33.264 h -2.635 l -1.324,10.82 h 5.338 l 0.834,9.84 H 57.801 L 51.367,2.4592 h -9.336 z m 43.283,0 V 56.416 H 95.529 V 34.619 2.459 Z m 30.032,0 v 53.957 h 10.07 V 2.459 Z m 11.43,0 v 11.125 h 9.3 V 2.459 Z m 12.4,0 v 53.957 h 10.14 l 0.01,-53.957 z m 11.59,0 v 10.598 h 0.14 c 1.74,0 2.49,0.832 2.49,3.404 v 5.523 c 0,2.572 -0.75,3.407 -2.49,3.407 h -0.14 l 0.01,9.527 c 2.89,0.227 3.3,1.936 3.3,5.908 v 15.59 h 10.37 V 39.693 c 0,-4.906 -2.09,-8.086 -4.99,-8.25 3.4,-0.201 4.92,-6.536 4.92,-9.761 v -8.248 c 0,-11.097 -4.97,-10.975 -13.09,-10.975 z M 0.966,2.4805 v 53.936 H 11.634 L 11.599,2.4805 0.966,2.481 Z m 11.994,0 v 10.648 l 0.433,10e-4 c 1.893,0 2.026,0.834 2.026,3.406 v 10.594 c 0,2.195 -0.017,3.404 -1.871,3.404 H 12.96 v 11.051 h 0.568 c 7.794,0 12.561,-1.236 12.561,-10.898 v -17.252 c 0,-11.073 -3.556,-10.954 -12.561,-10.954 l -0.568,5e-4 z m 113.82,20.108 v 10.67 h 9.3 v -10.67 z m -54.167,10.219 v 8.851 c 0,1.327 0.087,3.055 -1.031,3.467 l -0.008,12.111 c 5.15,-0.217 11.03,-3.469 11.03,-9.826 v -14.603 z m 94.627,4.541 v 8.777 c 0,9.315 7.58,10.926 11.34,11.104 l -0.01,-11.86 c -1.07,-0.498 -1.34,-2.139 -1.34,-3.408 v -4.613 z m -40.46,8.547 v 10.521 h 9.68 v -10.521 z"
       transform="matrix(0.8,0,0,-0.8,229.4,417.8)"
       fill="#203731"
       id="path1"
       style="fill:#ffb612;fill-opacity:1" /></g></svg>
