<?xml version="1.0" encoding="UTF-8" standalone="no"?>
<svg
   xml:space="preserve"
   height="200"
   viewBox="0 0 699.99828 200.00247"
   width="700"
   version="1.1"
   id="svg3"
   sodipodi:docname="HOU.svg"
   inkscape:version="1.3.1 (91b66b0783, 2023-11-16)"
   inkscape:export-filename="HOU.png"
   inkscape:export-xdpi="96"
   inkscape:export-ydpi="96"
   xmlns:inkscape="http://www.inkscape.org/namespaces/inkscape"
   xmlns:sodipodi="http://sodipodi.sourceforge.net/DTD/sodipodi-0.dtd"
   xmlns="http://www.w3.org/2000/svg"
   xmlns:svg="http://www.w3.org/2000/svg"><defs
     id="defs3" /><sodipodi:namedview
     id="namedview3"
     pagecolor="#505050"
     bordercolor="#eeeeee"
     borderopacity="1"
     inkscape:showpageshadow="0"
     inkscape:pageopacity="0"
     inkscape:pagecheckerboard="0"
     inkscape:deskcolor="#505050"
     inkscape:zoom="0.88692083"
     inkscape:cx="320.20897"
     inkscape:cy="199.00311"
     inkscape:window-width="1920"
     inkscape:window-height="1017"
     inkscape:window-x="-8"
     inkscape:window-y="352"
     inkscape:window-maximized="1"
     inkscape:current-layer="svg3" /><g
     transform="matrix(4.5755043,0,0,-4.5755043,-1049.2119,1913.446)"
     id="g3"
     style="fill:#a71930;fill-opacity:1;stroke:#ffffff;stroke-width:0.400005;stroke-dasharray:none;stroke-opacity:1"><g
       transform="translate(0.72308,0.72308)"
       id="g2"
       style="fill:#a71930;fill-opacity:1;stroke:#ffffff;stroke-width:0.400005;stroke-dasharray:none;stroke-opacity:1"><path
         d="m -0.097656,10.766 4.6387,5.7285 h 8.2422 v 12.365 h 9.7227 l 0.002,-12.365 h 7.5684 l 4.6387,-5.7285 h -34.813 z m 39.029,2.1191 v 6.2695 h -3.9043 l 3.9043,3.4375 v 6.2676 h 19.629 l 2.9219,-3.6055 h -14.209 v -2.6621 h 11.287 l 2.7812,-3.4375 h -14.068 v -2.6602 h 11.287 l 2.9219,-3.6094 h -22.551 z m 26.824,0 9.6348,8.4941 -9.2969,7.4805 h 8.6113 l 4.802,-3.86 4.3809,3.8594 h 10.52 l -9.4023,-8.2812 9.5605,-7.6934 h -8.6113 l -5.0625,4.0742 -4.6211,-4.0742 h -10.514 z m 41.911996,0 -5.1914,9.3516 h -5.335896 l 3.585896,3.1602 -1.923796,3.4629 h 7.792996 l 1.5586,-3.2246 h 9.1426 l 1.5625,3.2246 h 9.3652 l -1.9434,-3.5078 3.5312,-3.1152 h -5.2656 l -5.1895,-9.3516 h -11.689 z m 21.861,0 4.4336,3.1406 v 12.834 h 7.0117 l -0.002,-7.8633 11.094,7.8633 h 7.4844 l -0.004,-15.975 h -7.0117 v 7.8613 l -11.092,-7.8613 h -11.914 z m 50.391,0 c -5.9531,0 -13.283,1.2014 -13.281,5.5645 0,5.2658 14.27,3.3444 14.266,5.4238 0,1.7553 -6.7424,1.8072 -11.801,0.86719 l -3.334,4.1191 h 10.504 c 5.9531,0 13.285,-1.2375 13.283,-5.6055 0.001,-5.2642 -14.27,-3.3047 -14.271,-5.3809 0,-1.7553 6.7459,-1.8088 11.803,-0.86719 l 3.334,-4.1211 h -10.502 z m -67.195,3.3008 2.9297,6.0508 h -5.8594 z"
         transform="matrix(0.8,0,0,-0.8,228.82,407.16)"
         fill="#03202f"
         id="path1"
         style="fill:#a71930;fill-opacity:1;stroke:#ffffff;stroke-width:0.500006;stroke-dasharray:none;stroke-opacity:1" /><path
         d="m 339.6,407.03 v -2.4246 l -3.4153,2.4246 h -3.6694 l 1.3614,-0.96855 10e-4,-3.9534 h 2.1614 v 2.4221 l 3.4152,-2.4221 h 2.3067 v 4.9219 h -2.1614 m -8.0088,-2.4726 c 10e-4,-1.6117 -2.0175,-2.5777 -4.5006,-2.5777 -2.4817,0 -4.4979,0.96598 -4.5005,2.5777 0.003,1.5741 2.0292,2.5997 4.5005,2.5997 2.47,0 4.5006,-1.0256 4.5006,-2.5997 z m -4.5006,1.1968 c -1.0606,0 -1.718,-0.55885 -1.718,-1.2279 0,-0.71442 0.70665,-1.2072 1.718,-1.2072 1.01135,0 1.7206,0.49273 1.7206,1.2072 0,0.66905 -0.6587,1.2279 -1.7206,1.2279 z m -35.696,-1.1968 c 0.003,-1.6117 -2.0149,-2.5777 -4.4992,-2.5777 -2.4804,0 -4.4992,0.96598 -4.5031,2.5777 0.004,1.5741 2.0331,2.5997 4.5031,2.5997 2.4713,0 4.4992,-1.0256 4.4992,-2.5997 z m -4.4979,1.1968 c -1.0606,0 -1.7193,-0.55885 -1.7193,-1.2279 10e-4,-0.71442 0.70668,-1.2072 1.718,-1.2072 1.0114,0 1.718,0.49273 1.718,1.2072 10e-4,0.66905 -0.65608,1.2279 -1.7167,1.2279 z m 14.449,1.2758 -0.004,-2.6775 c 0.004,-1.4366 -1.6921,-2.3728 -3.9248,-2.3728 -2.2328,0 -3.9274,0.93615 -3.9274,2.3728 v 1.709 l -1.3627,0.96855 h 3.9131 l -10e-4,-2.6204 c 0,-0.6081 0.6055,-1.0904 1.3783,-1.0904 0.7728,0 1.3783,0.48235 1.3783,1.0904 v 2.6204 h 2.5504 z m 9.2254,-3.1948 c 0,-1.3459 -2.2574,-1.7271 -4.0908,-1.7271 h -3.2364 l 1.0308,1.2681 c 1.5546,-0.28785 3.6331,-0.27487 3.6331,0.2671 0,0.64053 -4.3955,0.048 -4.3955,1.67 0,1.3446 2.2574,1.7167 4.0908,1.7167 h 3.2364 l -1.0295,-1.272 c -1.5559,0.29305 -3.6344,0.27617 -3.6318,-0.2658 -0.003,-0.63793 4.3929,-0.0337 4.3929,-1.6571 z m -29.222,1.4691 -1.67,-1.4716 -10e-4,-1.7245 h -2.5686 v 1.7245 h -3.0548 l 10e-4,-1.7245 h -2.5673 l -0.004,1.7245 -1.6687,1.4716 h 1.6726 l -0.004,1.7258 h 2.5712 v -1.7258 h 3.0535 v 1.7258 h 2.5686 v -1.7258 h 1.6713 z m 40.612,1.7258 -0.98412,-1.2162 h -2.553 v -3.7057 h -2.6684 v 3.7057 h -2.5543 l -0.98282,1.2162 h 9.7427 z"
         fill="#a71930"
         id="path2"
         style="fill:#a71930;fill-opacity:1;stroke:#ffffff;stroke-width:0.400005;stroke-dasharray:none;stroke-opacity:1" /></g></g></svg>
