<?xml version="1.0" encoding="UTF-8" standalone="no"?>
<svg
   width="700"
   height="200"
   viewBox="0 0 707.07071 204.47597"
   version="1.1"
   id="svg1"
   sodipodi:docname="IND.svg"
   inkscape:version="1.3.1 (91b66b0783, 2023-11-16)"
   inkscape:export-filename="IND.png"
   inkscape:export-xdpi="96"
   inkscape:export-ydpi="96"
   xmlns:inkscape="http://www.inkscape.org/namespaces/inkscape"
   xmlns:sodipodi="http://sodipodi.sourceforge.net/DTD/sodipodi-0.dtd"
   xmlns="http://www.w3.org/2000/svg"
   xmlns:svg="http://www.w3.org/2000/svg">
  <defs
     id="defs1" />
  <sodipodi:namedview
     id="namedview1"
     pagecolor="#505050"
     bordercolor="#eeeeee"
     borderopacity="1"
     inkscape:showpageshadow="0"
     inkscape:pageopacity="0"
     inkscape:pagecheckerboard="0"
     inkscape:deskcolor="#505050"
     inkscape:zoom="0.97566452"
     inkscape:cx="145.02936"
     inkscape:cy="153.2289"
     inkscape:window-width="1920"
     inkscape:window-height="1017"
     inkscape:window-x="-8"
     inkscape:window-y="352"
     inkscape:window-maximized="1"
     inkscape:current-layer="svg1" />
  <g
     transform="matrix(1.4428084,0,0,1.4428084,-580.89809,-415.33252)"
     id="g1"
     style="fill:#a5acaf;fill-opacity:1;stroke:none;stroke-width:1.88961;stroke-dasharray:none;stroke-opacity:1">
    <path
       d="m 848.24,297.4 c -5.9878,0.0505 -12.287,0.78632 -17.603,0.78632 -4.788,0 -10.837,-0.99509 -15.485,0.16999 -2.6836,0.67278 -5.7178,3.9644 -7.1531,6.2374 -1.5458,2.4487 -0.85621,6.3001 -0.85621,9.0772 v 20.29 c 0,5.7864 -2.322,18.233 1.2379,22.959 3.4931,4.6374 9.5383,6.0624 14.781,7.833 9.4883,3.2048 18.881,6.6869 28.299,10.09 6.0176,2.1737 15.378,2.8362 13.178,11.442 -0.51793,2.0317 -2.1036,3.0015 -4.1006,3.1756 -5.6919,0.49657 -14.224,1.2677 -19.756,-0.13871 -4.4329,-1.1277 -1.9752,-6.0173 -4.9349,-7.443 -4.9626,-2.3894 -15.195,-0.39629 -20.695,-0.39629 -1.9318,0 -5.083,-0.57809 -6.7714,0.54855 -2.005,1.3381 -1.2379,5.4029 -1.2379,7.4607 v 21.358 c 0,1.9398 -0.85404,6.64 0.85621,7.9947 1.6526,1.3087 5.6949,0.54855 7.687,0.54855 h 21.358 v -4.8056 c 2.0931,1.3829 4.0313,3.638 6.4074,4.4854 2.9207,1.0417 7.0749,0.32016 10.145,0.32016 h 21.358 c 4.3517,0 10.898,1.2914 14.417,-1.6811 1.7834,-1.5047 4.1917,-3.5537 5.0194,-5.7942 1.164,-3.1631 0.32015,-7.8694 0.32015,-11.213 v -25.096 c 0,-4.0351 1.2819,-10.76 -0.54959,-14.417 -2.5309,-5.0592 -9.0455,-6.2738 -13.867,-8.0374 -9.9315,-3.633 -19.911,-7.1738 -29.901,-10.651 -3.3906,-1.1795 -10.044,-2.2832 -12.42,-5.0715 -2.0125,-2.3654 -1.0996,-7.6321 1.7677,-8.8874 3.5668,-1.5613 9.4719,-0.45783 13.322,-0.45783 2.8887,0 8.2444,-1.0346 10.45,1.2379 1.6286,1.6803 0.51264,5.3349 2.9795,6.0674 7.9879,2.3718 19.863,0.16999 28.219,0.16999 v -26.698 c 0,-2.4097 1.0149,-7.852 -0.54959,-9.8228 -1.4043,-1.7722 -6.5039,-0.85621 -8.5276,-0.85621 -6.0657,0 -20.797,-3.1225 -20.824,4.8056 -2.0077,-1.5405 -3.8765,-4.0055 -6.4074,-4.6356 -3.0896,-0.76989 -6.5702,-0.98661 -10.163,-0.95631 z m -326.07,0.16059 c -2.615,0.01 -5.092,0.25694 -7.0947,1.022 -7.9885,3.0515 -7.4753,10.838 -7.4753,17.758 v 82.763 c 0,3.9609 -1.2184,10.405 0.93024,13.883 4.671,7.5581 11.664,6.4074 19.36,6.4074 h 45.386 c 5.8446,0 14.816,1.6947 20.29,-0.3963 7.6852,-2.9362 6.9414,-10.605 6.9414,-17.224 v -83.297 c 0,-3.8658 1.2673,-10.519 -0.8562,-13.883 -4.7826,-7.5757 -11.643,-6.4074 -19.434,-6.4074 h -45.386 c -3.5625,0 -8.3033,-0.64218 -12.662,-0.62573 z m -69.441,0.31495 c -2.7642,-0.0249 -5.6803,0.31078 -8.1355,0.31078 h -26.164 c -6.9366,0 -13.407,-0.38925 -17.072,6.9414 -2.3457,4.6908 -0.54855,14.012 -0.54855,19.222 v 76.355 c 0,3.5091 -1.0799,9.2139 0.8562,12.281 1.3669,2.1652 4.1768,5.1844 6.6191,6.0852 3.0259,1.1154 7.4833,0.32225 10.679,0.32225 h 55.531 c 3.6282,0 9.6485,1.1424 12.815,-0.8562 2.1646,-1.3669 5.1844,-4.1768 6.0852,-6.6191 1.1154,-3.0259 0.32225,-7.4833 0.32225,-10.679 0,-7.6644 1.207,-16.448 -0.0792,-23.997 -0.49445,-2.9031 -4.1203,-2.1671 -6.3282,-2.1671 -6.4864,0 -15.605,-1.6732 -21.813,0.16999 -3.9993,1.1875 -0.0725,10.188 -2.919,12.947 -1.8432,1.7871 -4.9661,1.2994 -7.3054,1.2994 h -17.086 c -2.4498,-9.9e-4 -5.4444,0.29508 -6.8454,-2.1942 -1.1523,-2.0466 -0.62989,-5.1562 -0.62989,-7.4169 v -41.648 c 0,-2.8219 -0.83323,-7.3143 1.7239,-9.2889 3.373,-2.603 12.82,-0.8562 16.964,-0.8562 3.3228,0 8.7314,-1.0218 11.737,0.54856 5.4009,2.8225 0.31923,9.3389 3.2287,13.012 1.1923,1.5052 4.7103,0.85621 6.3928,0.85621 5.6311,0 16.684,2.1564 21.722,-0.32226 2.2922,-1.1282 1.2379,-7.1611 1.2379,-9.2889 v -25.63 c 0,-2.0216 0.91598,-7.1249 -0.85621,-8.5286 -1.6526,-1.3087 -5.6948,-0.54856 -7.687,-0.54856 h -21.358 v 4.8056 c -2.0835,-1.462 -3.9096,-3.7816 -6.4074,-4.5313 -1.4172,-0.42549 -3.0208,-0.57006 -4.6794,-0.58506 z m 241.25,0.0271 c -1.3065,0.003 -2.562,0.11266 -3.6407,0.45365 -2.2971,0.72618 -1.1972,5.9443 -1.1972,7.8393 v 21.892 c 0,1.6974 -0.8997,6.238 0.44426,7.4607 1.1683,1.0636 3.9822,0.54856 5.4292,0.54856 h 13.349 c 1.5538,0 4.2436,0.48732 5.5512,-0.54856 1.9366,-1.534 0.22317,-4.874 2.5373,-6.6045 2.0429,-1.5271 9.0788,-1.6746 10.812,0.3817 2.2693,2.6938 0.8562,10.341 0.8562,13.713 v 28.833 c 0,4.0612 0.92953,9.4728 -0.37544,13.349 -0.99368,2.9522 -3.7091,4.9951 -4.6178,8.0093 -1.4678,4.868 -0.34624,11.487 -0.34624,16.553 0,2.2709 -0.86143,6.8717 0.6299,8.7549 1.352,1.7065 5.9788,0.8562 7.9133,0.8562 h 22.426 c 2.0616,0 7.6545,0.99776 8.7549,-1.2379 0.88154,-1.7919 0.32224,-4.8214 0.32224,-6.7714 0,-5.6844 1.3046,-13.219 -0.27219,-18.688 -0.90719,-3.1476 -3.8954,-5.2156 -4.4187,-8.5432 -1.0967,-6.9686 -0.1147,-14.836 -0.1147,-21.892 0,-10.194 -0.8695,-20.816 0.0313,-30.966 0.37804,-4.2631 8.7936,-4.3921 11.594,-2.2766 2.1545,1.6286 1.7239,4.7003 1.7239,7.079 h 25.63 v -37.911 h -96.645 c -1.8782,0 -4.1976,-0.289 -6.3751,-0.28366 z m -76.052,0.16999 c -1.0302,0.008 -2.0295,0.1443 -2.6833,0.66223 -2.1134,1.6739 -0.8562,9.2388 -0.8562,11.732 0,4.4142 -0.72599,9.5513 0.14808,13.883 0.61298,3.0387 3.2604,5.1478 4.2695,8.0093 1.3007,3.688 0.38795,8.9357 0.38795,12.815 v 26.164 c 0,4.065 0.68371,8.839 -0.21066,12.815 -0.68025,3.0275 -3.2573,5.119 -4.2205,8.0093 -1.8197,5.4591 -0.37439,13.484 -0.37439,19.222 0,1.95 -0.55931,4.9794 0.32225,6.7714 0.8303,1.6868 3.4816,1.2374 5.0173,1.2379 h 67.278 c 3.8637,0 15.561,1.9492 18.366,-0.8562 1.6766,-1.6771 0.85621,-6.0521 0.85621,-8.221 v -21.892 c 0,-2.0167 0.91278,-7.0462 -0.85621,-8.4473 -1.4481,-1.1464 -4.3653,-0.6299 -6.0852,-0.6299 h -15.485 c -1.7198,0 -4.6371,-0.51649 -6.0852,0.6299 -2.3008,1.8224 -0.0114,6.3867 -2.6823,8.585 -1.5063,1.2393 -3.8354,0.92971 -5.6492,0.93024 -4.5701,0.002 -14.817,1.9024 -18.566,-0.93024 -2.0306,-1.5346 -1.7228,-4.2918 -1.7239,-6.5451 v -15.485 c 0,-10.581 -1.6512,-22.683 0.11993,-33.105 0.52434,-3.0862 3.1571,-5.1638 4.2351,-8.0093 1.0695,-2.8251 0.45053,-6.6328 0.45053,-9.6111 v -12.281 c -5.3e-4,-1.3974 0.40019,-3.7962 -0.85621,-4.791 -1.2131,-0.96112 -3.5793,-0.54856 -5.0173,-0.54856 h -27.232 c -0.7769,0 -1.8377,-0.12141 -2.8679,-0.11367 z m -69.591,29.33 c 4.8765,0.0259 10.078,0.68517 14.258,0.68517 2.3158,0 6.057,-0.69017 7.4607,1.6811 1.3376,2.2586 0.54854,6.4584 0.54854,8.9979 v 43.25 c 0,2.4129 0.61373,6.0296 -2.1671,7.1531 -5.9114,2.3873 -16.546,0.32225 -22.929,0.32225 -2.0007,0 -5.5994,0.62976 -6.9268,-1.2994 -1.4588,-2.1193 -0.54856,-6.9032 -0.54856,-9.3796 v -43.784 c 0,-2.3179 -0.67139,-5.8598 2.1671,-6.7099 2.4014,-0.71963 5.2106,-0.93217 8.1365,-0.91669 z"
       fill="#013369"
       id="path1"
       style="fill:#a5acaf;fill-opacity:1;stroke:none;stroke-width:1.88961;stroke-dasharray:none;stroke-opacity:1" />
  </g>
</svg>
