<?xml version="1.0" encoding="UTF-8" standalone="no"?>
<svg
   xml:space="preserve"
   height="200"
   viewBox="0 0 699.66088 200.00577"
   width="700"
   version="1.1"
   id="svg20"
   sodipodi:docname="JAX.svg"
   inkscape:export-filename="JAX.png"
   inkscape:export-xdpi="96"
   inkscape:export-ydpi="96"
   inkscape:version="1.3.1 (91b66b0783, 2023-11-16)"
   xmlns:inkscape="http://www.inkscape.org/namespaces/inkscape"
   xmlns:sodipodi="http://sodipodi.sourceforge.net/DTD/sodipodi-0.dtd"
   xmlns="http://www.w3.org/2000/svg"
   xmlns:svg="http://www.w3.org/2000/svg"><defs
     id="defs20" /><sodipodi:namedview
     id="namedview20"
     pagecolor="#505050"
     bordercolor="#eeeeee"
     borderopacity="1"
     inkscape:showpageshadow="0"
     inkscape:pageopacity="0"
     inkscape:pagecheckerboard="0"
     inkscape:deskcolor="#505050"
     inkscape:zoom="4.8167539"
     inkscape:cx="95.5"
     inkscape:cy="32.490761"
     inkscape:window-width="1920"
     inkscape:window-height="1017"
     inkscape:window-x="-8"
     inkscape:window-y="352"
     inkscape:window-maximized="1"
     inkscape:current-layer="svg20" /><g
     transform="matrix(3.8609289,0,0,-3.8609289,-828.93779,1628.8487)"
     id="g20"><g
       transform="matrix(0.25,0,0,0.25,229,297)"
       id="g19"><g
         id="g6"><path
           d="M 344,428 V 334.2 L 331.9,319 c -16.5,-0.125 -32.9,-0.125 -49.4,-0.249 l -12.1,15.5 v 93.8 h 24.5 l -0.01,-87.5 24.5,0.0411 0.0227,87.4 h 24.5"
           id="path1" /><path
           d="m 152,426 c -15.5,-0.846 -31,-3.1 -47.3,-4.55 -6.42,-38.6 -12.8,-77.4 -19.2,-116 8.61,1.39 17.3,2.58 25.9,3.56 0,0 14.1,87.8 16.3,102 l 8.1,-44.3 -16.6,-20.7 20,2.65 5.74,-36.5 c 8.63,0.934 17.4,1.71 26.2,2.48 -6.45,37.8 -12.7,74.1 -19.1,112"
           id="path2" /><path
           d="m 215,359 16.6,0.364 v -20.1 c -7.88,-0.298 -24.4,-1.23 -24.4,-1.23 l -0.0212,67.7 24.7,0.734 v -12.7 l 20.8,0.221 v 18.9 l -11.4,14.6 -47,-1.29 -11.6,-14.6 0.0425,-81 c 0,0 12.1,-15.3 12.1,-14.9 l 44.8,2.22 13.2,16.4 v 42.7 h -23.3 l -14.5,-17.9"
           id="path3" /><path
           d="m 422,425 -45.6,2.63 c -6.24,-36.6 -12.5,-72.7 -18.8,-109 l 25.3,-0.908 c 1.04,6.65 14.1,80.2 16.5,95.5 l 6.72,-41.2 -14.3,-17.9 16.7,-1.52 c 0,0 5.92,-29.9 6.94,-36.7 l 25.1,-1.75 -18.6,111"
           id="path4" /><path
           d="m 506,358 16.7,15.6 v 32.2 l -11.8,15 -57.9,4.17 v -112 c 9.73,-1.05 14.7,-1.6 24.4,-2.65 v 91.1 l 22.5,-2.06 v -20.9 l -19.4,-18.1 25.1,-53.1 26.2,-3.39 -25.8,54"
           id="path5" /><path
           d="m 564,379 0.0198,13.9 c 6.88,-1.15 15.4,-2.57 22.2,-3.74 v -8.36 l 22.8,-15.7 -0.0694,30.5 -12.1,15.1 -45,6.91 -11.8,-14.8 v -35.4 c 15.5,-11.6 30.9,-23.3 46.4,-35 l -10e-4,-15.4 c -7.89,1.56 -17.4,3.38 -25.2,4.9 v 10.3 l -22.8,15.7 v -34 l 9.35,-11.5 c 13.3,-2.59 37.1,-7.42 50.8,-10.1 l 11.9,15.4 v 36.1 c -15.4,11.8 -30.9,23.5 -46.4,35.2"
           id="path6" /></g><g
         fill="#9f792c"
         id="g18"><path
           d="m 93.4,499 0.129,-36.8 h -8.75 l 0.0042,12.1 -10.1,-9.65 v -6.53 l 4.93,-4.93 h 19.1 l 4.93,4.93 v 40.9 h -10.2"
           id="path7" /><path
           d="m 296,490 h 9.98 V 462.3 H 296 Z m 15.2,9.06 h -20.3 l -4.93,-6.38 v -33.1 l 4.93,-6.28 h 20.3 l 5.05,6.44 v 33 l -5.05,6.3"
           id="path8" /><path
           d="m 420,453 h 10.1 v 45.8 H 420 Z"
           id="path9" /><path
           d="m 514,499 v -45.8 h 26.6 v 9.11 h -16.2 v 10.1 h 7.34 l 6.74,8.42 h -14.1 v 9.04 h 16.2 v 9.11 l -26.6,0.017"
           id="path10" /><path
           d="m 444,490 v -36.2 h 25.3 v 9.12 h -14.9 v 36.6 l -10.3,-9.49"
           id="path11" /><path
           d="m 142,499 -19,-0.0453 -8.06,-45.7 11.2,-0.0581 6.47,39.8 3.33,-17.5 -6.61,-8.27 7.85,-0.058 2.56,-14 10.6,0.0269 -8.24,45.8"
           id="path12" /><path
           d="m 165,499 -5.35,-6.26 v -33.4 l 5.35,-6.07 h 17.5 l 5.02,6.19 v 11.3 l -8.74,-6.26 v -2.21 h -8.75 v 27.8 l 8.75,-0.0241 v -6.26 h 8.74 v 9.18 l -6.48,6.12 h -16"
           id="path13" /><path
           d="m 248,499 -4.93,-5.04 v -15.5 l 19.5,-10.2 v -6.02 l -11.1,-0.009 v 3.29 l -9.12,5.06 v -10.9 l 5.12,-6.44 h 20.3 l 5.05,6.44 v 14.7 l -19.6,10.2 v 5.35 h 10.5 v -2.89 l 8.3,-4.1 0.004,11.9 -3.41,4.15 h -20.6"
           id="path14" /><path
           d="m 382,453 19,-0.0142 8.07,45.8 -11.2,0.0142 -6.33,-39.4 -7.26,39.4 -10.6,-0.0142 8.26,-45.8"
           id="path15" /><path
           d="m 232,499 h -11.9 l -8.99,-16.6 V 499 h -10.6 v -45.6 h 10.6 v 17.8 l 10.5,-17.8 12,0.0156 -14.6,23.6 13,22"
           id="path16" /><path
           d="m 351,499 0.0226,-24.3 -13.2,24.3 h -9.46 v -45.9 h 10.2 l -0.0369,25.6 13.6,-25.6 h 9.15 V 499 l -10.3,0.003"
           id="path17" /><path
           d="m 479,490 v -36.2 h 25.3 v 9.12 h -14.9 v 36.6 l -10.3,-9.49"
           id="path18" /></g><path
         d="m 46,414 0.0623,-93 -21.4,-3.69 0.0935,30.6 -24.8,-29 v -16 l 12,-10.4 46.6,8.06 12.1,14.5 0.282,103 -25,-4.32"
         id="path19" /></g></g></svg>
