<?xml version="1.0" encoding="UTF-8" standalone="no"?>
<svg
   height="200"
   viewBox="0 0 700 199.99862"
   width="700"
   version="1.1"
   id="svg1"
   sodipodi:docname="KC.svg"
   inkscape:version="1.3.1 (91b66b0783, 2023-11-16)"
   inkscape:export-filename="KC.png"
   inkscape:export-xdpi="96"
   inkscape:export-ydpi="96"
   xmlns:inkscape="http://www.inkscape.org/namespaces/inkscape"
   xmlns:sodipodi="http://sodipodi.sourceforge.net/DTD/sodipodi-0.dtd"
   xmlns="http://www.w3.org/2000/svg"
   xmlns:svg="http://www.w3.org/2000/svg">
  <defs
     id="defs1" />
  <sodipodi:namedview
     id="namedview1"
     pagecolor="#505050"
     bordercolor="#eeeeee"
     borderopacity="1"
     inkscape:showpageshadow="0"
     inkscape:pageopacity="0"
     inkscape:pagecheckerboard="0"
     inkscape:deskcolor="#505050"
     inkscape:zoom="5.464"
     inkscape:cx="125"
     inkscape:cy="28.092972"
     inkscape:window-width="1920"
     inkscape:window-height="1017"
     inkscape:window-x="-8"
     inkscape:window-y="352"
     inkscape:window-maximized="1"
     inkscape:current-layer="svg1" />
  <g
     transform="matrix(3.5283265,0,0,-3.5283265,-727.79377,1494.4301)"
     id="g1"
     style="fill:#ffb612;fill-opacity:1">
    <path
       d="M 249.17,1.1191 220.5,1.125 C 208.63,1.1468 203.32,12.094 207.78,20.279 L 218.4,38.98 c 0.96,1.694 -0.09,1.853 -1.09,1.858 -0.09,0 -16.1,-0.018 -15.78,0.006 l -2.64,14.451 h 31.44 c 12.61,0 12.68,-14.083 10.85,-17.533 L 230.45,17.979 c -1.2,-2.396 1.07,-2.215 3.04,-2.215 l 13.19,0.002 2.49,-14.647 z M 48.92,1.3809 c 0.015,0.005 -13.295,0.0117 -17.217,0.0117 -15.094,0 -27.005,7.3251 -30.09,24.812 -2.944,16.696 9.51,29.09 22.705,29.09 0.538,0 14.745,0.022 14.75,0 l 2.696,-15.75 c -0.005,0.019 -6.95,0.004 -8.871,0.004 -6.167,0 -11.477,-4.664 -10.371,-10.93 1.454,-8.245 8.292,-11.326 13.259,-11.326 1.667,0 10.534,0.017 10.52,-0.01 L 48.92,1.3806 Z m 2.162,0.0195 -9.531,54.055 h 20.521 l 3.198,-19.139 h 10.982 l -3.199,19.139 H 93.57 l 9.534,-54.055 -20.518,4e-4 -3.383,18.727 H 68.221 l 3.383,-18.727 -20.522,4e-4 z m 54.632,0 -9.526,54.055 h 20.846 l 9.54,-54.055 -20.86,4e-4 z m 23.77,0 -9.53,54.055 h 38.87 l 2.56,-14.592 h -17.86 l 1.17,-5.685 h 15.71 l 2.39,-14.428 h -15.88 l 1.03,-5.264 h 16.98 l 2.38,-14.086 -37.82,4e-4 z m 40.6,0 -9.04,54.055 h 20.85 l 3.35,-18.504 h 15.1 l 2.55,-14.758 h -14.77 l 1.25,-6.707 h 16.4 l 2.39,-14.086 -38.08,4e-4 z"
       transform="matrix(0.8,0,0,-0.8,205.33,417.84)"
       fill="#e31837"
       id="path1"
       style="fill:#ffb612;fill-opacity:1" />
  </g>
</svg>
