<?xml version="1.0" encoding="UTF-8" standalone="no"?>
<svg
   width="700"
   height="200"
   viewBox="0 0 702.82258 203.02756"
   version="1.1"
   id="svg3"
   sodipodi:docname="LAC.svg"
   inkscape:version="1.3.1 (91b66b0783, 2023-11-16)"
   inkscape:export-filename="LAC.png"
   inkscape:export-xdpi="96"
   inkscape:export-ydpi="96"
   xmlns:inkscape="http://www.inkscape.org/namespaces/inkscape"
   xmlns:sodipodi="http://sodipodi.sourceforge.net/DTD/sodipodi-0.dtd"
   xmlns="http://www.w3.org/2000/svg"
   xmlns:svg="http://www.w3.org/2000/svg">
  <defs
     id="defs3" />
  <sodipodi:namedview
     id="namedview3"
     pagecolor="#505050"
     bordercolor="#eeeeee"
     borderopacity="1"
     inkscape:showpageshadow="0"
     inkscape:pageopacity="0"
     inkscape:pagecheckerboard="0"
     inkscape:deskcolor="#505050"
     inkscape:zoom="0.68850808"
     inkscape:cx="154.68228"
     inkscape:cy="108.20498"
     inkscape:window-width="1920"
     inkscape:window-height="1017"
     inkscape:window-x="-8"
     inkscape:window-y="352"
     inkscape:window-maximized="1"
     inkscape:current-layer="g1" />
  <g
     transform="matrix(1.3333,0,0,-1.3333,-159.8,593.6)"
     id="g3">
    <g
       id="g1"
       transform="matrix(1.4312316,0,0,1.4312316,-55.496238,-195.55975)">
      <g
         id="g2"
         transform="translate(-0.18964404,-0.13917867)">
        <path
           d="m 223.45338,407.84748 3.30682,-7.29688 -26.32453,-36.06482 15.27977,0.0731 -12.91346,-19.45776 27.72297,25.86295 -11.07669,-0.0481 v 0.0312 h 0.0107 l 3.48945,5.53492 h 15.81342 l 0.20222,-5.53492 h 13.16477 l -4.77139,36.90041 z m -84.98744,-0.006 c -6.32035,0 -9.764,-2.63374 -11.6336,-8.95395 l -5.50984,-18.43424 c -1.67289,-5.26765 1.32966,-9.48121 6.59675,-9.48121 h 25.33477 l 3.01285,10.00756 h -23.17553 l 5.04825,16.85381 H 157.627 c 2.25821,0 4.15345,1.40392 4.79967,3.68722 0.64645,2.28252 1.84762,6.32035 1.84762,6.32035 z m 33.5375,0 -11.0215,-36.8694 h 11.58799 l 4.09876,13.69386 h 15.80111 l -4.09876,-13.69386 h 11.58708 l 11.0215,36.8694 h -11.58799 l -4.1041,-13.69387 h -15.80202 l 4.10501,13.69387 z m 96.22149,0 -10.96631,-36.8694 h 11.58526 l 2.97362,10.00756 h 8.62053 l 6.70622,-10.00756 h 13.91143 l -4.1264,6.08089 -3.06718,4.84528 c 3.2831,1.22234 5.67222,3.72617 6.86997,7.86886 l 2.58433,8.59315 c 1.67211,5.26765 -1.32966,9.48122 -6.59675,9.48122 z m 54.56474,0 c -6.32081,0 -9.76491,-2.63374 -11.63452,-8.95395 l -5.51075,-18.43424 c -1.67211,-5.26765 1.32975,-9.48121 6.59767,-9.48121 h 28.49471 l 6.36962,21.17183 h -17.26021 l 3.39589,-7.47797 -1.13672,-3.6863 h -14.74794 l 5.13035,16.85381 h 20.01558 c 1.94245,0 4.23492,1.51986 4.79968,3.68722 0.56334,2.16576 1.82089,6.32035 1.82089,6.32035 z m 36.70976,0 -11.02059,-36.8694 h 34.23535 l 2.98343,10.00756 h -22.64964 l 1.11264,3.6863 h 19.33598 l 2.83109,9.48121 h -19.33506 l 1.11264,3.6863 h 18.96059 c 3.01669,0 4.21152,1.57633 4.80059,3.68722 0.58843,2.11011 1.8681,6.32035 1.8681,6.32035 z m 41.85881,0 -11.0215,-36.8694 h 11.58799 l 2.96382,10.00756 h 8.68302 l 6.70531,-10.00756 h 13.92557 l -7.20795,10.92617 c 3.2831,1.22234 5.67313,3.72617 6.86997,7.86886 l 2.58524,8.59315 c 1.67211,5.26765 -1.33052,9.48122 -6.59767,9.48122 z m 54.55106,0 c -6.32036,0 -9.764,-2.63374 -11.63361,-8.95395 l -1.39237,-4.74038 c -1.47931,-5.8241 2.41329,-9.48121 7.93042,-9.48121 h 13.87859 l -0.94962,-3.6863 H 438.9872 l -3.05294,-10.00756 h 27.91545 c 6.32035,0 9.71155,2.63373 11.63452,8.95394 l 1.35675,4.74038 c 1.67836,6.10871 -2.05291,9.48121 -8.79613,9.48121 h -13.10593 l 1.15989,3.6863 h 20.01467 c 2.49955,0 4.14643,1.49012 4.80059,3.68721 0.65347,2.19628 1.85742,6.32036 1.85742,6.32036 z M 276.83041,397.83367 h 14.74794 l -2.19418,-7.37351 h -14.74703 z m 133.13467,0 h 14.74886 l -2.19413,-7.37351 H 407.77187 Z M 236.83846,397.3054 h 0.52736 l 0.79998,-11.33439 h -8.96079 z"
           fill="#0080c6"
           id="path1"
           style="fill:#ffffff;fill-opacity:1;stroke:none;stroke-width:0.761372;stroke-dasharray:none;stroke-opacity:1" />
        <path
           d="m 177.02113,444.19509 c -4.88998,0 -7.55459,-2.038 -9.00092,-6.92881 l -4.49786,-15.07999 c -1.29445,-4.07527 1.02858,-7.33702 5.10526,-7.33702 h 15.93475 c 4.89089,0 7.5555,2.03887 9.00184,6.9288 l 4.49786,15.07999 c 1.29445,4.07601 -1.02854,7.33703 -5.10436,7.33703 z m 83.68752,-0.34743 2.56117,-5.65397 -16.68551,-22.93379 h 11.03062 l 2.70192,4.28855 h 12.25164 l 0.1559,-4.28855 h 10.19821 l -3.6961,28.58822 z m -125.09341,-0.0606 2.55583,-5.64166 0.0116,0.005 -6.8426,-22.89366 h 25.67594 l 2.42579,8.1521 h -16.71151 l 6.10324,20.3782 z m 77.55281,0 c -4.8909,0 -7.55459,-2.03805 -9.00184,-6.92881 l -1.07702,-3.6676 c -1.14479,-4.5078 1.86737,-7.33702 6.13608,-7.33702 h 10.73917 l -0.73493,-2.85335 H 200.0737 l -2.36253,-7.74342 h 21.60194 c 4.88999,0 7.514,2.03804 9.00184,6.9288 l 1.05029,3.6676 c 1.29833,4.72715 -1.58928,7.33703 -6.80702,7.33703 h -10.14121 l 0.898,2.85248 h 15.4873 c 1.93387,0 3.2077,1.1531 3.71394,2.85339 0.50615,1.69952 1.4378,4.8909 1.4378,4.8909 z m 81.78097,0 -8.52702,-28.53029 h 8.96626 l 4.48449,15.85538 7.13132,-15.85538 h 9.78133 l 8.52612,28.53029 h -8.96444 l -4.48897,-15.89552 -7.12675,15.89552 z m 43.14915,0 c -4.8918,0 -7.5555,-2.03805 -9.00183,-6.92881 l -4.26447,-14.26492 c -1.29358,-4.07527 1.02935,-7.33611 5.10527,-7.33611 h 22.04939 l 4.92829,16.38356 h -13.35634 l 2.62889,-5.78624 -0.88016,-2.85339 h -11.41193 l 3.9705,13.04299 h 15.4873 c 1.50367,0 3.27758,1.17567 3.71481,2.85248 0.43641,1.67608 1.40843,4.89089 1.40843,4.89089 z m 28.63611,0 -8.52793,-28.53029 h 26.49101 l 2.30907,7.74342 h -17.52658 l 0.86055,2.85335 h 14.96277 l 2.19149,7.33702 h -14.96277 l 0.86054,2.85248 h 14.67223 c 2.33498,0 3.25792,1.21969 3.71394,2.8534 0.45605,1.63293 1.44761,4.89089 1.44761,4.89089 z m 30.78486,0 2.55496,-5.64166 0.0116,0.005 -6.8426,-22.89366 h 25.67594 l 2.42487,8.1521 h -16.71059 l 6.10324,20.3782 z m 34.95783,-0.0276 -8.52885,-28.52938 h 26.49193 l 2.3082,7.74434 h -17.52566 l 0.86054,2.85248 h 14.96186 l 2.19149,7.33611 h -14.96186 l 0.86055,2.8534 h 14.67313 c 2.33421,0 3.25793,1.2196 3.71395,2.85248 0.45526,1.63293 1.44674,4.89089 1.44674,4.89089 z m 39.59558,0 c -4.89089,0 -7.5555,-2.03718 -9.00274,-6.92789 l -1.07616,-3.66851 c -1.14479,-4.50699 1.86737,-7.33612 6.13609,-7.33612 h 10.73916 l -0.73584,-2.85248 h -19.15581 l -2.36162,-7.74433 h 21.60103 c 4.8909,0 7.51491,2.03718 9.00184,6.92789 l 1.0512,3.66851 c 1.29833,4.72624 -1.59014,7.33612 -6.80793,7.33612 h -10.14121 l 0.898,2.85339 h 15.4873 c 1.93378,0 3.20866,1.15223 3.7148,2.85248 0.50615,1.69952 1.43781,4.8909 1.43781,4.8909 z m -295.38301,-7.51263 h 12.22701 l -4.0293,-13.44893 h -12.22701 z m 94.38792,-0.56745 h 0.40801 l 0.62003,-8.78107 h -6.94157 z"
           fill="#ffc20e"
           id="path2"
           style="stroke-width:0.456113" />
      </g>
    </g>
  </g>
</svg>
