<?xml version="1.0" encoding="UTF-8" standalone="no"?>
<svg
   xml:space="preserve"
   height="200"
   viewBox="0 0 699.99273 199.99753"
   width="700"
   version="1.1"
   id="svg8"
   sodipodi:docname="LV.svg"
   inkscape:version="1.3.1 (91b66b0783, 2023-11-16)"
   inkscape:export-filename="LV.png"
   inkscape:export-xdpi="96"
   inkscape:export-ydpi="96"
   xmlns:inkscape="http://www.inkscape.org/namespaces/inkscape"
   xmlns:sodipodi="http://sodipodi.sourceforge.net/DTD/sodipodi-0.dtd"
   xmlns="http://www.w3.org/2000/svg"
   xmlns:svg="http://www.w3.org/2000/svg"><defs
     id="defs8" /><sodipodi:namedview
     id="namedview8"
     pagecolor="#505050"
     bordercolor="#eeeeee"
     borderopacity="1"
     inkscape:showpageshadow="0"
     inkscape:pageopacity="0"
     inkscape:pagecheckerboard="0"
     inkscape:deskcolor="#505050"
     inkscape:zoom="7.2031217"
     inkscape:cx="94.82"
     inkscape:cy="17.700659"
     inkscape:window-width="1920"
     inkscape:window-height="1017"
     inkscape:window-x="-8"
     inkscape:window-y="352"
     inkscape:window-maximized="1"
     inkscape:current-layer="svg8" /><g
     transform="matrix(4.6140153,0,0,-4.6140153,-1050.0115,1913.9247)"
     id="g8"
     style="fill:#a5acaf;fill-opacity:1;stroke:none;stroke-opacity:1"><g
       style="fill:#a5acaf;fill-opacity:1;stroke:none;stroke-opacity:1"
       transform="matrix(0.25,0,0,0.25,227.57,294.85)"
       id="g7"><path
         d="m 197.35,338.23 h 39.38 v 109.4 h -39.38 z"
         id="path1"
         style="fill:#a5acaf;fill-opacity:1;stroke:none;stroke-opacity:1" /><path
         d="m 345.91,447.63 h 72.341 v -28.595 h -33.073 v -11.79 h 30.138 v -27.934 h -30.138 v -11.672 h 34.241 V 338.232 H 345.91 v 109.4"
         id="path2"
         style="fill:#a5acaf;fill-opacity:1;stroke:none;stroke-opacity:1" /><path
         d="m 527,376 2.0546,-1.6112 c 7.1816,-5.5767 19.122,-10.123 28.364,-10.123 3.9655,0 11.909,1.2053 11.909,6.195 0,4.9896 -5.2832,5.4268 -8.9489,6.1637 l -8.0747,1.4613 c -15.693,2.7915 -31.768,14.907 -31.768,32.211 0,29.545 22.55,39.299 48.798,39.299 12.615,0 21.745,-1.8547 32.192,-8.0497 l -9.2112,-25.03 c -6.4885,4.284 -15.5,7.1379 -24.155,7.1379 -3.5159,0 -8.6492,-1.3302 -8.6492,-5.8827 0,-4.0966 8.262,-7.9622 11.341,-8.6929 l 9.0988,-2.0608 c 14.832,-3.3223 26.89,-12.178 26.89,-30.456 0,-26.41 -22.425,-39.886 -46.343,-39.886 -13.939,0 -32.948,3.4034 -42.546,12.171 l 9.0489,27.153"
         id="path3"
         style="fill:#a5acaf;fill-opacity:1;stroke:none;stroke-opacity:1" /><path
         d="m 38.094,399.44 h 4.0155 c 7.8311,0 14.432,1.0367 14.432,9.2425 0,8.518 -6.8319,9.5422 -14.138,9.5422 h -4.309 v -18.785 z m 0,-25.698 V 338.234 H 0 v 109.4 h 48.56 c 29.045,0 48.941,-4.8335 48.941,-34.347 0,-14.907 -11.516,-25.729 -24.286,-29.982 l 28.352,-45.069 H 57.659 l -19.565,35.508"
         id="path4"
         style="fill:#a5acaf;fill-opacity:1;stroke:none;stroke-opacity:1" /><path
         d="m 461.44,399.85 h 2.7852 c 6.6008,0 14.432,1.0242 14.432,9.2487 0,8.4993 -7.244,9.536 -14.138,9.536 h -3.0787 v -18.785 z m 0,-24.48 v -37.138 h -38.5 v 109.4 h 51.427 c 24.942,0 44.845,-9.3361 44.845,-37.213 0,-15.637 -11.378,-23.631 -23.069,-27.534 l 28.352,-44.651 h -42.259 l -20.796,37.138"
         id="path5"
         style="fill:#a5acaf;fill-opacity:1;stroke:none;stroke-opacity:1" /><path
         d="m 145.26,404.45 -6.7195,-27.39 h 14.082 l -7.3627,27.39 z M 127.712,338.235 H 86.39 l 38.437,109.4 h 41.591 l 37.007,-109.4 h -41.316 l -3.672,13.795 h -27.496 l -3.2286,-13.795"
         id="path6"
         style="fill:#a5acaf;fill-opacity:1;stroke:none;stroke-opacity:1" /><path
         d="m 279.52,371.4 h 2.4917 c 13.358,0 22.8,6.1575 22.8,20.683 0,15.55 -8.1246,22.151 -22.8,22.151 H 279.52 Z m -38.974,76.232 h 41.76 c 37.113,0 61.069,-15.069 61.069,-55.704 0,-32.861 -18.672,-53.694 -51.09,-53.694 h -51.739 v 109.4"
         id="path7"
         style="fill:#a5acaf;fill-opacity:1;stroke:none;stroke-opacity:1" /></g></g></svg>
