<?xml version="1.0" encoding="UTF-8" standalone="no"?>
<svg
   height="200"
   viewBox="0 0 700 199.99915"
   width="700"
   version="1.1"
   id="svg3"
   sodipodi:docname="MIA.svg"
   inkscape:version="1.3.1 (91b66b0783, 2023-11-16)"
   inkscape:export-filename="MIA.png"
   inkscape:export-xdpi="96"
   inkscape:export-ydpi="96"
   xmlns:inkscape="http://www.inkscape.org/namespaces/inkscape"
   xmlns:sodipodi="http://sodipodi.sourceforge.net/DTD/sodipodi-0.dtd"
   xmlns="http://www.w3.org/2000/svg"
   xmlns:svg="http://www.w3.org/2000/svg">
  <defs
     id="defs3" />
  <sodipodi:namedview
     id="namedview3"
     pagecolor="#505050"
     bordercolor="#eeeeee"
     borderopacity="1"
     inkscape:showpageshadow="0"
     inkscape:pageopacity="0"
     inkscape:pagecheckerboard="0"
     inkscape:deskcolor="#505050"
     inkscape:zoom="0.96590786"
     inkscape:cx="289.88272"
     inkscape:cy="121.64721"
     inkscape:window-width="1920"
     inkscape:window-height="1017"
     inkscape:window-x="-8"
     inkscape:window-y="352"
     inkscape:window-maximized="1"
     inkscape:current-layer="g2" />
  <g
     id="g2"
     transform="matrix(1.25,0,0,-1.25,-257.96,529.9)">
    <g
       id="g1"
       transform="matrix(2.8223702,0,0,2.8223702,-378.0327,-775.14312)">
      <path
         d="m 403.74,399.85 -0.34529,-1.2951 -0.30097,-1.1252 c -0.0524,-0.20164 -0.36263,-1.1086 -1.2449,-1.77 -0.85125,-0.63815 -2.026,-0.67065 -2.2538,-0.67065 l -12.951,-0.007 c -2.5337,0 -2.4891,-2.3387 -2.4891,-2.3387 l 10.872,-0.20794 c 3.7897,-0.0835 5.8223,-2.3469 5.6643,-4.7768 -0.0214,-0.32721 -0.12262,-1.1541 -0.35711,-1.9839 -0.50485,-1.9595 -2.215,-5.2278 -8.0075,-5.2278 l -16.751,10e-4 0.58497,2.2612 c 0.0498,0.19534 0.21085,1.3416 1.0691,1.9839 0.80911,0.60637 1.8768,0.65474 2.1877,0.65474 l 13.166,0.006 c 0.7733,0 1.3417,0.14921 1.7593,0.37262 0.50631,0.27144 0.79028,0.65293 0.94909,1.0115 0.23599,0.53141 0.19758,1.013 0.19758,1.013 l -11.601,0.23893 c -3.3857,0.0905 -5.4024,1.8487 -5.1391,4.6904 0.031,0.33422 0.0886,1.0144 0.37668,2.1024 l 0.002,0.008 0.003,0.0111 c 0.88449,3.1158 3.8957,5.0534 7.8572,5.0534 h 0.002 l 15.434,-0.003 1.3154,-0.002 z m -29.519,-6.6145 c -0.0502,-0.54323 -0.11966,-1.2877 -0.35749,-2.1814 l -2.8528,-10.542 h -5.388 l 3.0338,11.146 c 0.15956,0.61338 0.21495,0.88076 0.23968,1.0462 9.8e-4,0.009 0.003,0.0192 0.004,0.0277 0.005,0.0399 0.009,0.0746 0.0122,0.10638 0.0232,0.25037 0.008,0.46752 -0.0321,0.66214 -0.006,0.0255 -0.01,0.0524 -0.0159,0.0772 -0.26477,1.0543 -1.4007,1.3021 -2.4026,1.3021 l -9.8746,-6.4e-4 -3.1431,-11.706 c -0.12113,-0.36412 -0.50482,-1.3494 -1.2896,-1.937 -0.97754,-0.73269 -2.6091,-0.72272 -2.6091,-0.72272 h -2.2006 l 5.1997,19.341 h 5.3382 l -0.61082,-2.3144 c 1.3789,1.7715 2.8188,2.208 3.543,2.3144 h 6.4719 c 4.5837,0 7.3073,-2.5976 6.9343,-6.6189 z m -31.305,-10.43 -0.0137,-0.0488 -0.0188,-0.0502 c -0.17651,-0.48155 -0.51848,-1.1562 -1.1592,-1.636 -0.85086,-0.63776 -2.0252,-0.67175 -2.2531,-0.67175 h -2.5844 l 5.1591,19.339 h 5.4206 l -4.5505,-16.932 z m 1.2449,19.861 h -1.3199 l 0.35045,1.2992 0.39811,1.4894 c 0.055,0.19758 0.36152,1.2305 1.2372,1.8853 0.77109,0.57832 1.7859,0.65809 2.1848,0.664 l 0.0107,0.002 h 2.5958 l -0.33237,-1.2881 -0.81281,-3.1283 -0.24114,-0.92361 h -4.0708 z m -9.0795,-9.3314 -0.0144,-0.16768 c -0.0388,-0.44869 -0.0894,-1.0621 -0.39811,-2.252 l -2.8506,-10.511 h -5.3851 l 3.0404,11.215 c 0.13259,0.53101 0.19537,0.81501 0.23858,1.1278 6.5e-4,0.006 0.002,0.0115 0.003,0.0177 0.0173,0.13038 0.0325,0.26702 0.0476,0.42986 0.0122,0.13444 0.006,0.25592 -0.007,0.37078 -0.002,0.0211 -0.003,0.0439 -0.006,0.0643 -0.16619,1.0395 -1.3612,1.2759 -2.4019,1.2759 l -10.119,-0.0126 -3.1165,-11.69 c 0,0 -0.3549,-1.3479 -1.3332,-2.0799 -0.78327,-0.58682 -1.9861,-0.69613 -2.4314,-0.7183 h -2.461 l 6.784,25.494 c 0.15362,0.42762 0.53436,1.2881 1.2475,1.8221 0.77184,0.57871 1.9529,0.69393 2.4123,0.71756 h 2.3868 l -0.33202,-1.2866 -2.4891,-9.7195 c 0.47898,0.61449 0.96497,1.0684 1.4259,1.404 0.0694,0.0502 0.13849,0.0986 0.20644,0.14366 0.37077,0.24633 0.72048,0.41583 1.0329,0.534 0.13038,0.0495 0.25521,0.0909 0.37078,0.12372 0.59715,0.1695 0.98529,0.14106 0.98529,0.14106 l 6.2145,0.002 c 5.5705,0 7.2249,-3.4755 6.9494,-6.4457 z m -36.091,-7.9569 c 0,0 -6.1909,-0.003 -8.6696,-0.003 -0.47011,0 -0.90958,0.0802 -1.2977,0.23157 -0.24004,0.093 -0.4594,0.21345 -0.65474,0.35821 -0.76222,0.5665 -1.1434,1.5089 -0.83832,2.6896 l 1.6485,6.1739 8.6944,6.5e-4 c 2.5024,0 2.9872,-0.67656 3.0474,-1.3221 0.002,-0.0192 0.002,-0.0384 0.003,-0.0576 0.009,-0.16099 -0.004,-0.31871 -0.017,-0.46272 -0.007,-0.0702 -0.0266,-0.18501 -0.0558,-0.33052 -0.002,-0.008 -0.003,-0.0166 -0.005,-0.0247 -0.32792,-1.6286 -1.855,-7.2537 -1.855,-7.2537 z m 0.53731,14.426 -5.8847,-0.0137 c -0.59195,-0.0418 -2.2298,-0.33938 -3.7886,-2.341 l 0.61597,2.3325 -5.2521,-0.0122 -7.4509,-27.685 h 2.3469 c 0.3811,0.0118 1.6692,0.10155 2.4942,0.72087 0.7648,0.57277 1.1474,1.5193 1.2785,1.9059 l 2.194,8.2903 c 0.0314,-0.82611 0.44499,-2.3421 2.745,-2.6323 0.20494,-0.0255 8.2316,-0.006 8.2316,-0.006 l 0.003,0.006 h 2.0869 c 0,0 1.5902,-0.0835 2.8676,0.9576 1.4155,1.1548 1.9392,2.9972 1.9392,2.9972 l 0.47196,1.6467 c 0,0 1.7863,7.0381 1.8328,7.5466 0.36561,3.9385 -2.1504,6.2869 -6.7315,6.2869 z m -17.535,6.901 -6.3482,-23.815 -0.004,-0.0196 -0.007,-0.0222 c -0.10859,-0.34675 -0.44022,-1.2187 -1.208,-1.7936 -0.63299,-0.47603 -1.4299,-0.61968 -1.9868,-0.65662 l -0.0373,-0.002 h -2.8107 l 0.34973,1.2981 6.3356,23.758 c 0.0528,0.19904 0.35932,1.2275 1.2346,1.8853 0.82391,0.61782 1.9167,0.6662 2.2324,0.6662 h 2.5987 l -0.34861,-1.2984 z m -20.59,-18.16 c -0.6038,-2.2387 -1.9746,-3.194 -4.5844,-3.194 h -9.379 l 1.6891,6.2651 c 0.5318,1.9739 1.4898,3.1963 4.6173,3.1963 l 9.2343,-0.0126 c -0.0196,-0.079 -1.52,-6.0421 -1.5773,-6.2548 z m 6.9638,10.316 c -0.54105,0.79842 -1.6294,0.93468 -2.1065,0.95354 l -11.95,0.005 c -5.49,0 -9.1087,-2.6593 -10.462,-7.6895 l -2.0396,-7.9561 c -0.0964,-0.4668 -0.3187,-1.8886 0.32682,-2.8414 0.51293,-0.75632 1.5156,-0.91806 2.0267,-0.94909 l 12.062,-0.006 c 5.5793,0 9.0873,2.5792 10.427,7.6629 l 1.5821,6.1772 h -0.004 l 0.18576,0.71385 0.28436,1.109 c 0.0982,0.4893 0.30208,1.8816 -0.33273,2.8203 z m -33.645,-0.96276 c -0.0643,-0.69945 -0.38333,-2.0562 -1.2198,-5.1886 -1.6707,-6.2289 -2.4979,-6.9428 -8.0518,-6.9428 h -11.559 l 4.1158,15.302 h 11.483 c 3.7395,0 4.9024,-0.54621 5.1945,-1.6039 0.007,-0.0255 0.0122,-0.0524 0.0181,-0.0787 0.0495,-0.2142 0.065,-0.74265 0.0646,-0.76333 -0.004,-0.22677 -0.0211,-0.46681 -0.0451,-0.72457 z m -4.0741,8.509 h -16.613 l -0.24595,-0.91436 -6.7282,-25.065 h 17.198 c 9.0972,0 11.941,2.31 14.489,11.77 0.98971,3.6161 1.2604,5.1166 1.3756,6.3637 0.33202,3.5788 -1.0425,7.8457 -9.4758,7.8457"
         fill="#008e97"
         id="path1"
         style="fill:#ffffff;fill-opacity:1" />
      <path
         d="m 242.18,411.86 2.8853,11.16 h -1.8062 c -1.1515,-0.0587 -1.5426,-0.72382 -1.6556,-1.0045 l -2.8812,-11.146 h 1.9048 c 0.0465,0 1.0325,0.01 1.5529,0.99006 m 52.241,0.0196 2.8798,11.141 h -1.7955 c -1.4594,-0.0746 -1.6976,-1.1278 -1.6976,-1.1278 l -0.24485,-0.95055 h -3.3e-4 l -2.6043,-10.072 h 1.7567 c 1.1947,0.0414 1.5913,0.72603 1.7062,1.0096 m -11.095,11.141 -6.3467,-9.3705 -1.5012,9.3705 h -3.3787 c -1.4598,-0.0746 -1.6973,-1.1286 -1.6973,-1.1286 l -2.868,-11.022 h 3.2014 l 2.3461,9.0736 h 0.0779 l 1.52,-9.0736 h 3.1615 l 6.1927,9.0736 h 0.0975 l -2.3465,-9.0736 h 3.2018 l 3.1416,12.15 h -4.8023 z m -20.255,-12.15 h -3.4164 l -0.72048,2.9514 h -6.2474 l -1.3354,-1.7538 -0.0473,-0.062 c 0,0 -0.84384,-1.1326 -2.2978,-1.1326 h -0.72123 v -0.003 h -1.2612 l 8.7416,11.129 c 0.24449,0.27293 0.98159,0.97422 2.0947,1.0207 h 1.9491 l 3.2616,-12.15 z m -4.601,4.857 -1.0484,4.3259 -3.286,-4.3259 z m -27.381,7.2932 -6.346,-9.3705 -1.5016,9.3705 h -3.4016 c -1.2117,-0.0617 -1.5817,-0.79622 -1.6707,-1.0451 l -2.8709,-11.105 h 3.2014 l 2.3454,9.0736 h 0.0783 l 1.5196,-9.0736 h 3.1626 l 6.1916,9.0736 h 0.0971 l -2.3454,-9.0736 h 3.2014 l 3.1412,12.15 h -4.8027 z m 164.21,-36.287 -11.039,0.15437 c -1.6873,0.0454 -3.1095,0.39886 -4.0039,1.2334 1.0783,-1.4255 3.0633,-2.2778 4.8001,-2.2863 l 9.2937,-0.11301 c 0.50631,0.27144 0.79028,0.65292 0.94909,1.0115 z m 9.3247,12.316 -0.52514,-1.999 c -0.32166,-0.83719 -1.1858,-3.0341 -4.6081,-3.118 l -11.983,-0.007 c -1.8583,0 -1.7674,-1.3151 -1.7674,-1.3151 l 1.5662,-0.0303 c 0,0 -0.28065,0.3826 0.99747,0.3826 l 10.885,-0.0827 c 4.5948,-0.0554 5.7784,3.3133 5.9313,3.8983 l 0.3549,1.325 -0.8505,0.94652 z m -3.3148,-9.5367 c 0,0 0.82132,-1.2516 0.005,-4.303 -0.43061,-1.6072 -2.2317,-5.8194 -8.8399,-5.8194 l -15.937,6.5e-4 0.94283,-1.0525 14.962,-0.002 c 6.7578,0 9.7047,4.3577 9.854,7.4107 0.11852,2.424 -0.9864,3.765 -0.9864,3.765 z m -32.389,3.3226 c 0.0232,0.25037 0.008,0.46752 -0.0321,0.66214 -0.46752,0.24927 -1.0654,0.32682 -1.6223,0.32682 l -9.8742,-6.5e-4 -2.9112,-10.889 c -0.68243,-2.28 -2.293,-3.4814 -5.1679,-3.4773 h -1.0185 l 0.95351,-1.0528 h 0.48118 c 3.074,0 5.2503,1.9879 5.8006,4.3699 l 2.6578,9.9957 9.875,6.5e-4 c 0.27699,0 0.56501,-0.0196 0.84199,-0.0698 9.8e-4,0.009 0.003,0.0192 0.004,0.0277 0.005,0.0399 0.009,0.0746 0.0122,0.10638 z m 5.9442,3.0445 c 0.7733,-2.0555 0.0414,-4.9885 -0.19609,-5.8822 l -2.8536,-10.542 h -5.2337 l 0.94357,-1.0528 h 5.086 l 2.8532,10.542 c 0.89296,3.1734 0.0794,5.7433 -0.59935,6.935 z m -26.557,2.9292 -4.3355,-16.135 c -0.15661,-0.57536 -0.98383,-3.3296 -4.5353,-3.3307 h -1.5828 l 0.92991,-1.0536 h 0.8143 c 2.8266,0 4.8197,2.0016 5.333,3.8717 l 4.2081,15.725 -0.83163,0.92325 z m 2.1508,8.2697 -1.4222,-5.4685 h -5.248 l 0.95055,-1.0532 h 5.0937 l 1.4536,5.6033 -0.82762,0.91845 z m -20.688,-13.887 c 0.0122,0.13444 0.006,0.25592 -0.007,0.37078 -0.46235,0.21861 -1.058,0.28695 -1.6113,0.28695 l -10.119,-0.0122 -2.8846,-10.865 c -0.79693,-2.8063 -2.8388,-3.6235 -5.0553,-3.6235 h -1.2486 l 0.94244,-1.0529 c 3.8632,-0.14992 5.764,2.1567 6.3286,4.2155 l 2.7136,10.273 10.119,0.0122 c 0.25407,0 0.51739,-0.0155 0.77184,-0.0521 6.5e-4,0.006 0.002,0.0115 0.003,0.0177 0.0173,0.13038 0.0325,0.26702 0.0476,0.42986 z m -9.2014,6.3194 1.811,7.0698 -0.82794,0.91991 -2.2224,-8.6674 c 0.0694,0.0502 0.13849,0.0986 0.20644,0.14366 0.37078,0.24633 0.72048,0.41583 1.0329,0.534 z m 14.735,-2.8587 c 0.90442,-1.7183 0.73713,-3.2746 0.62743,-4.4519 0,0 -0.14992,-1.1515 -0.45865,-2.3417 l -2.8506,-10.511 h -5.234 l 0.9476,-1.0529 h 5.083 l 2.8502,10.511 c 0.92695,3.1656 0.3645,6.017 -0.96497,7.8464 z m -34.39,-3.6686 c 0.0129,0.14401 0.0262,0.30172 0.017,0.46271 -0.4557,0.19833 -1.1629,0.32721 -2.2542,0.32721 l -8.694,-6.5e-4 -1.6485,-6.1746 c -0.15953,-0.61744 -0.12999,-1.1688 0.0421,-1.6363 0.19534,-0.14476 0.4147,-0.26517 0.65474,-0.35821 -0.0166,0.29283 0.013,0.60711 0.0994,0.94169 l 1.6485,6.1742 8.694,6.5e-4 c 0.55319,0 1.0071,-0.0336 1.3804,-0.0919 0.002,0.008 0.003,0.017 0.005,0.0247 0.0292,0.14551 0.0491,0.26036 0.0558,0.33052 z m 5.7429,3.9094 c 0.82132,-1.7874 0.59641,-3.6361 0.40659,-4.4327 l -1.7468,-7.092 c -0.67025,-3.0589 -2.4023,-6.0557 -6.254,-6.0557 0,0 -9.2276,-0.0259 -9.4326,0 -1.4583,-0.0225 -2.2423,0.46973 -2.2423,0.46973 0,0 1.0263,-1.523 3.0386,-1.523 h 8.1146 c 6.8859,-0.21679 7.6459,6.3109 8.2346,8.564 l 1.0846,4.5841 c 0.30134,1.4698 0.0931,3.8012 -1.2032,5.4856 z m -20.042,-15.97 -1.6925,-6.4276 c -0.68285,-2.4252 -2.6017,-3.4677 -4.85,-3.4677 h -1.3439 l 0.93692,-1.0532 h 0.61082 c 2.7823,0 5.0826,1.7833 5.7078,4.4603 l 1.4041,5.3474 c -0.52033,0.5639 -0.77333,1.1408 -0.77333,1.1408 z m -3.4271,26.159 -6.5801,-24.653 c -0.40291,-1.6652 -2.2106,-3.0873 -4.1527,-3.0873 l -1.8753,-0.003 0.90182,-1.0436 0.95981,-0.007 c 2.5651,0 4.5239,1.8074 5.1325,3.6132 l 6.4365,24.268 -0.82242,0.91329 z m -28.734,-13.316 c -3.7698,-0.0166 -3.8244,-0.60306 -4.6173,-3.1963 l -1.4052,-5.2118 h 1.0839 l 1.4573,5.3374 c 0.43833,1.5747 0.49336,2.0012 2.7797,2.0012 l 8.7135,0.005 c 0.0964,0.38259 0.18687,0.74265 0.26517,1.0536 l -8.2771,0.0111 z m 15.934,2.7369 c -0.20018,0.96276 -0.79807,1.6918 -0.79807,1.6918 0.43801,-1.1954 6.5e-4,-2.7993 -0.0798,-3.2003 l -2.0485,-8.0004 c -1.3313,-5.0114 -6.1673,-7.6626 -10.427,-7.6626 l -12.062,0.006 c -0.36708,0.0221 -1.7892,0.0835 -2.3,0.41249 0,0 0.30614,-0.41655 1.0625,-0.87855 0.88962,-0.54322 2.0337,-0.58718 2.0337,-0.58718 l 10.814,-0.006 c 5.9656,0 10.38,3.3787 11.802,8.113 l 1.9211,7.5499 c 0,0 0.38555,1.0979 0.0816,2.5615 z m -35.671,2.8901 c -0.74155,0.41658 -2.0714,0.62929 -4.4046,0.62929 h -11.483 l -3.8326,-14.249 h 1.0854 l 3.5493,13.196 h 11.477 c 1.7091,0 2.8776,-0.11483 3.673,-0.33974 3.6e-4,0.0207 0.002,0.0429 0.003,0.0631 0.002,0.25335 -0.0177,0.48599 -0.0672,0.70019 z m 7.0137,-2.9308 c -0.11522,-1.2471 -0.41174,-2.7409 -1.3756,-6.3637 -2.5171,-9.4614 -8.1899,-11.77 -14.489,-11.77 h -16.895 l -0.93912,1.0532 h 17.037 c 7.6747,0 11.987,2.3085 14.489,11.77 0.95835,3.6246 1.2604,5.1166 1.3756,6.3637 0.1348,1.4506 0.33864,3.2971 -0.44502,4.6439 1.1445,-1.7597 1.4126,-3.8481 1.2412,-5.6972"
         fill="#fc4c02"
         id="path2" />
    </g>
  </g>
</svg>
