<?xml version="1.0" encoding="UTF-8" standalone="no"?>
<svg
   xml:space="preserve"
   height="200"
   viewBox="0 0 700.40825 200.09154"
   width="700"
   version="1.1"
   id="svg14"
   sodipodi:docname="MIN.svg"
   inkscape:export-filename="MIN.png"
   inkscape:export-xdpi="96"
   inkscape:export-ydpi="96"
   inkscape:version="1.3.1 (91b66b0783, 2023-11-16)"
   xmlns:inkscape="http://www.inkscape.org/namespaces/inkscape"
   xmlns:sodipodi="http://sodipodi.sourceforge.net/DTD/sodipodi-0.dtd"
   xmlns="http://www.w3.org/2000/svg"
   xmlns:svg="http://www.w3.org/2000/svg"><sodipodi:namedview
     id="namedview14"
     pagecolor="#505050"
     bordercolor="#eeeeee"
     borderopacity="1"
     inkscape:showpageshadow="0"
     inkscape:pageopacity="0"
     inkscape:pagecheckerboard="0"
     inkscape:deskcolor="#505050"
     inkscape:zoom="1.7119427"
     inkscape:cx="262.56719"
     inkscape:cy="5.549251"
     inkscape:window-width="1920"
     inkscape:window-height="1017"
     inkscape:window-x="-8"
     inkscape:window-y="352"
     inkscape:window-maximized="1"
     inkscape:current-layer="g13" /><defs
     id="defs2"><clipPath
       id="b"
       clipPathUnits="userSpaceOnUse"><path
         d="m 0.399,293 h 608 v 200 h -608 z"
         id="path1" /></clipPath><clipPath
       id="a"
       clipPathUnits="userSpaceOnUse"><path
         d="M 0,0 H 612 V 792 H 0 Z"
         id="path2" /></clipPath></defs><g
     transform="matrix(4.0278169,0,0,-4.0278169,-874.77983,1684.5642)"
     id="g14"><g
       transform="matrix(0.25,0,0,0.25,228,295)"
       id="g13"><g
         id="g1"
         transform="matrix(0.99473896,0,0,0.99473896,1.7873069,2.536425)"><g
           fill="#ffc62f"
           id="g5"><g
             clip-path="url(#b)"
             fill="#ffc62f"
             id="g4"><path
               d="m 566,384 c -0.14,0.04 -0.752,0.22 -0.752,0.22 -8.95,2.73 -8.95,4.51 -8.95,6.58 0,0.738 0.2,1.25 0.692,1.72 1.09,1.05 3.28,1.64 5.87,1.56 8.73,-0.273 11.6,-2.36 15.7,-5.25 5.49,-3.92 7.6,-9.94 8.14,-11.7 -5.73,2.26 -13.3,4.58 -20.7,6.86 z m 30.2,-11.8 h 7.18 v 39.3 l -14.6,0.106 c 0,0 -1.39,-3.45 -1.76,-4.35 -2.07,0.798 -4.16,1.6 -4.16,1.6 -5.11,1.79 -11.4,3.05 -17.4,3.49 -1.32,0.0998 -31.9,2.04 -39.4,-19.2 -1.46,-4.13 -2.18,-8.19 -2.18,-12 0,-10.7 5.47,-19.9 15.6,-25.5 5.99,-3.25 10.2,-4.47 15.1,-5.87 0,0 11.1,-3.57 11.1,-3.58 l 1.38,-0.519 c 3.47,-1.26 7.78,-2.81 8.28,-4.15 0.04,-0.0599 0.0466,-0.153 0.0466,-0.279 0,-0.725 -0.572,-2.18 -1.63,-3.31 -2.69,-2.85 -9.23,-3.1 -16.3,-0.639 -9.63,3.36 -14.8,7.61 -18.2,10.4 -3.2,2.63 -8.03,6.63 -13.3,2.33 -2.02,-1.65 -3.12,-4 -3.08,-6.62 0.0598,-4.6 3.77,-9.79 11,-15.4 7.48,-5.82 20.8,-10.8 30.4,-11.4 8.59,-0.479 24.5,0.0997 34.7,9.66 6.09,5.7 9.23,13.6 9.3,23.4 v 0.22 c 0,11.3 -6.56,18.3 -12.2,22.4"
               id="path3" /><path
               d="m 329,339 c -2.36,-1.88 -4.89,-3.27 -4.92,-3.28 0.0133,0 -0.792,-0.419 -0.792,-0.419 l -1.95,-1.02 -2.72,1.44 c -0.0532,0.0199 -2.56,1.4 -4.91,3.28 -0.685,2.33 -2.24,9.23 -2.24,24.2 0,15.1 1.52,26.1 2.35,31 2.28,1.08 3.74,1.53 3.75,1.54 0.007,0 2.91,0.785 3.78,1 l 3.83,-1.03 c -0.0133,0.0133 1.43,-0.439 3.71,-1.52 0.825,-4.89 2.35,-15.9 2.35,-31 0,-15 -1.56,-21.9 -2.24,-24.2 z m -51.6,0 c -2.35,-1.88 -4.88,-3.27 -4.9,-3.28 l -0.798,-0.419 -2.17,-1.12 v -11.1 c -3.84,9.44 -4.6,16.5 -5.23,22.4 0,0.0333 -0.106,0.965 -0.106,0.965 -0.938,8.53 -2.5,22.8 -16.3,30.4 -2.06,0.991 -4.11,1.67 -6.19,2.12 6.27,6.11 15.4,14.4 18,15.9 0.665,0.399 2.73,0.599 3.97,0.506 0.007,0 5.93,-0.426 5.93,-0.426 v 1.73 l 4,-1.08 c -0.02,0.0133 1.42,-0.439 3.69,-1.52 0.838,-4.89 2.36,-15.9 2.36,-31 0,-14.9 -1.56,-21.8 -2.25,-24.2 z m -49.8,56.2 c -0.758,-1.08 -5.79,-7.14 -9.75,-11.5 0.472,4.78 0.978,8.32 1.33,10.4 2.26,1.08 3.73,1.53 3.75,1.53 0.007,0.0133 2.81,0.758 3.51,0.951 0.778,-0.26 1.7,-0.592 1.7,-0.592 -0.133,-0.193 -0.552,-0.785 -0.552,-0.785 z M 182.7,339 c -2.35,-1.88 -4.88,-3.27 -4.91,-3.28 l -0.798,-0.419 -1.3,-0.685 -2.12,1.1 c -0.02,0.007 -2.54,1.4 -4.9,3.28 -0.685,2.31 -2.24,9.23 -2.24,24.2 0,15.1 1.51,26.1 2.34,31 2.28,1.08 3.74,1.53 3.76,1.54 0,0 1.96,0.526 3.15,0.838 l 3.22,-0.865 c -0.04,0.0133 1.43,-0.439 3.69,-1.52 0.838,-4.89 2.35,-15.9 2.35,-31 0,-14.9 -1.56,-21.8 -2.24,-24.2 z m 322,69.1 c 0,0 -0.333,-0.372 -0.519,-0.592 -0.02,0 -0.0266,0 -0.0399,0.007 0.226,0.253 0.559,0.585 0.559,0.585 z m 19.4,-42 c 0.0133,-0.0133 -0.319,0.998 -0.319,0.998 l -0.925,2.76 -38,0.0199 -0.0133,-15.9 4.77,-0.665 c 0.166,-0.02 4.46,-0.738 6.64,-4.98 0.399,-0.805 0.639,-2.4 0.805,-4.42 -1.01,-1.1 -2.44,-2.64 -2.44,-2.64 -3.13,-2.7 -8.94,-5.83 -15,-5.73 h -0.705 c -6.96,0.0399 -14.5,9.44 -14.5,30 0,20.5 7.47,29.9 14.4,30 h 0.659 c 7.12,-0.0532 10.7,-2.16 15.5,-6.58 6.25,-5.78 8.63,-11.3 8.73,-11.6 l 1.35,-3.43 14.8,0.0266 v 38.1 l -14.6,0.0932 c 0,0 -1.4,-3.47 -1.78,-4.39 -2.3,0.832 -4.68,1.71 -4.68,1.71 -8.1,2.74 -17.5,3.58 -20,3.58 -36.8,0 -48,-20.8 -51.3,-35.7 -1.52,10.2 -5.61,19.2 -11.8,25.6 -6.62,6.77 -15.1,10.3 -25.1,10.4 -8.67,0.0865 -16.2,-2.65 -22.8,-7.58 0.0266,0.911 0.22,5.81 0.22,5.81 h -242 c 0.273,0.552 0.565,1.17 0.818,1.69 4.22,8.32 7.64,13.9 9.27,16.5 5.16,1.01 18.9,3.97 26.8,8.54 9.91,5.65 16.7,15.8 18.2,27.2 0.546,4.27 0.705,8.04 0.519,11.8 -0.0532,1.29 -0.186,3.34 -0.306,4.93 -0.379,5.27 -0.765,10.7 -5.94,10.7 l -0.519,-0.007 -0.452,-0.0865 c -4.38,-0.878 -4.32,-5.39 -4.29,-7.81 l 0.007,-1.41 c 0,-2.81 -0.259,-5.66 -0.685,-7.98 -0.353,-1.44 -0.798,-2.89 -1.38,-4.3 -3.27,-7.96 -6.59,-10.6 -16.9,-13.5 -10.5,-2.95 -27.8,-4.13 -28,-4.14 l -2.1,-0.146 -1.28,-1.67 c -6.77,-8.83 -13.2,-18.7 -20.9,-32.1 -5.61,-9.72 -11.3,-21.1 -18.6,-36.9 -2.95,-6.46 -6.53,-14.9 -9.51,-22.1 -1.87,12.1 -3.98,30 -3.99,49.6 -0.0133,11.2 1.62,25.4 1.64,25.6 l 0.752,6.45 -6.36,-1.36 c 0,0 -8.38,-1.8 -20.4,-4.5 -5.76,-1.29 -12.1,-2.51 -17,-2.61 0,0 -3.25,-0.313 -4.92,0.938 -4.07,3.05 -3.43,7.79 -3.75,14.3 l 0.106,10.9 -4.47,-5.2 c 0.4,1 -6.38,-8 -8.29,-12 -0.7,-1 -6.63,-15 -0.7,-26 2.57,-5 7.79,-10 17.9,-10 0,0 2.41,0.04 2.99,0.0666 0.592,-7.93 2.13,-24.8 5.59,-45 6.45,-37.7 14.7,-61.8 15.1,-62.8 l 1.08,-3.13 h 36.9 l 0.845,3.6 c 0.0599,0.286 6.86,29 22.8,68.5 5,12.4 12.5,29.1 18.2,41 v -10.9 l 4.1,-1.11 c -0.0333,0.0133 1.43,-0.439 3.7,-1.52 0.832,-4.89 2.34,-15.9 2.34,-31 0,-15 -1.56,-21.9 -2.24,-24.2 -2.35,-1.88 -4.88,-3.26 -4.91,-3.28 l -2.97,-1.54 v -15 h 102 v 15 l -2.97,1.54 c -0.0266,0.007 -2.55,1.4 -4.9,3.28 -0.492,1.72 -1.44,5.93 -1.92,13.9 1.72,0.193 3.43,0.299 4.76,0.273 7.15,-0.173 10.7,-1.65 14,-10.3 2.86,-7.74 5.89,-14.5 11.4,-22.4 4.67,-6.7 9.17,-11.9 14.6,-16.8 -0.0466,0.0266 0.938,-0.898 0.938,-0.898 4.88,-4.63 9.94,-9.43 14.9,-5.77 5.1,3.76 1.24,9.35 -1.07,12.7 0.0533,-0.0665 -2.02,3.08 -2.02,3.08 -1.27,2.26 -2.34,4.38 -3.31,6.42 h 102 v 15 l -2.97,1.54 c -0.0134,0.007 -2.38,1.3 -4.67,3.1 -0.658,2.85 -2.14,10.1 -2.41,20.5 l -0.0133,6.6 c 0.0865,0.778 1.76,4.65 6.15,8.91 4.34,4.24 9.3,6.71 13.2,6.59 7.28,-0.193 11.5,-3.82 13.2,-11.4 0.965,-4.23 1.45,-8.61 1.45,-13.3 0,-2.59 -0.153,-5.27 -0.452,-8.05 -0.752,-6.96 -2,-18.6 -11.2,-35 -0.007,0 -1.88,-2.91 -1.88,-2.91 -1.28,-1.9 -3.16,-4.66 -3.16,-7.38 0,-1.51 0.585,-3.03 2.19,-4.36 4.91,-4.04 10.1,0.852 15.6,6.02 l 0.419,0.406 c 5.31,4.84 9.97,10.2 14.6,16.9 7.6,10.9 12,21.2 13.8,32.7 2.88,-15.7 13.8,-36.9 51.7,-37 2.31,0.0199 8.02,0.552 13.9,1.88 -1.52,-3.85 -3.19,-7.61 -5.24,-11.3 -0.0133,-0.0266 -1.96,-2.99 -1.96,-2.99 -1.6,-2.31 -3.01,-4.36 -3.01,-6.83 l 1.99,-4.4 c 4.62,-4.17 10.4,0.259 16.9,6.01 5.1,4.51 11.9,12.6 15.5,20.6 6.69,14.7 6.93,22.7 7.35,36 0,0.0133 0.0134,0.625 0.0134,0.625 0.386,6.87 0.0199,7.96 -0.146,8.42"
               id="path4"
               style="stroke:#ffc62f;stroke-width:1.98735;stroke-dasharray:none;stroke-opacity:1" /></g></g><g
           clip-path="url(#a)"
           fill="#4f2683"
           id="g11"
           transform="matrix(0.99999772,0,0,0.99999772,1.0904447e-5,0.00111405)"><path
             d="m 530,392 c -4.88,-13.8 -0.552,-26 11.6,-32.6 5.58,-3.03 9.42,-4.14 14.3,-5.53 l 11.3,-3.62 1.51,-0.545 c 5.32,-1.93 9.5,-3.45 10.7,-6.52 0.984,-2.55 -0.572,-5.82 -2.42,-7.8 -3.87,-4.11 -11.7,-4.76 -20.5,-1.67 -10.3,3.62 -15.8,8.12 -19.4,11.1 -3.06,2.53 -5.48,4.54 -8.14,2.33 -1.08,-0.872 -1.63,-2.08 -1.62,-3.45 0.0533,-4.34 5.96,-9.56 9.47,-12.3 6.83,-5.32 19.4,-10.1 28.1,-10.6 7.94,-0.452 22.6,0.0399 31.7,8.57 5.26,4.94 7.96,11.8 8.02,20.5 0.0931,11.9 -8.64,18.5 -13.9,21.4 -5.17,2.85 -15.7,6.06 -25.8,9.17 l -0.605,0.193 c -9.98,3.03 -11.8,5.89 -11.8,10.4 0,1.82 0.645,3.38 1.92,4.61 1.91,1.86 5.04,2.81 8.81,2.69 9.94,-0.306 13.6,-2.95 17.9,-5.99 7.74,-5.55 9.93,-14.7 9.94,-14.8 l 0.266,-1.16 h 8.22 v 31.3 l -7.84,0.0466 -1.46,-3.61 c -0.0133,0 -0.452,-0.984 -0.858,-1.84 -1.95,0.745 -7.76,2.97 -7.76,2.97 -4.68,1.64 -10.6,2.81 -16.3,3.25 -0.286,0.0199 -28.8,1.93 -35.3,-16.5"
             id="path5" /><path
             d="m 171,408 h -42.6 v -7.7 l 1.12,-0.293 c 0.0199,-0.0133 2.52,-0.725 6.27,-2.73 0.572,-2.96 2.76,-15.5 2.76,-33.6 0,-18.3 -2.31,-25.3 -2.8,-26.6 -2.92,-2.55 -6.47,-4.43 -6.51,-4.43 l -0.805,-0.426 v -8.54 h 44 v 8.54 l -0.805,0.426 c -0.04,0 -3.57,1.88 -6.5,4.43 -0.499,1.3 -2.81,8.26 -2.81,26.6 0,18.2 2.19,30.7 2.76,33.6 3.75,2 6.25,2.71 6.27,2.73 l 1.1,0.293 0.007,7.7 h -1.49"
             id="path6" /><path
             d="m 316,408 h -42.6 v -7.7 l 1.1,-0.293 c 0.0333,-0.0133 2.52,-0.725 6.27,-2.73 0.572,-2.96 2.77,-15.5 2.77,-33.6 0,-18.3 -2.31,-25.3 -2.81,-26.6 -2.92,-2.55 -6.46,-4.43 -6.49,-4.43 l -0.805,-0.426 v -8.54 h 44 v 8.54 l -0.798,0.426 c -0.0399,0 -3.57,1.88 -6.5,4.43 -0.492,1.3 -2.81,8.26 -2.81,26.6 0,18.2 2.2,30.7 2.77,33.6 3.75,2 6.23,2.71 6.25,2.73 l 1.11,0.293 0.007,7.7 h -1.49"
             id="path7" /><path
             d="m 360,392 c 1.05,6.29 3.03,8.14 3.06,8.15 l 0.486,0.426 0.0665,0.685 0.246,6.61 h -38.7 v -7.7 l 1.1,-0.293 c 0.0266,-0.0133 2.51,-0.725 6.27,-2.73 0.572,-2.96 2.77,-15.5 2.77,-33.6 0,-18.3 -2.31,-25.3 -2.81,-26.6 -2.91,-2.55 -6.45,-4.43 -6.49,-4.43 l -0.812,-0.426 v -8.54 h 44 v 8.54 l -0.805,0.426 c -0.0399,0 -3.51,1.86 -6.41,4.38 -0.512,1.96 -2.5,10.4 -2.83,22.7 l -0.0133,6.69 c 0,2.32 2.75,7.32 7.36,11.8 5.2,5.06 11.1,7.87 16.1,7.74 9.16,-0.253 14.9,-5.16 17,-14.6 1.6,-7.04 1.95,-14.4 1.07,-22.6 -0.785,-7.28 -2.09,-19.5 -11.7,-36.6 l -2,-3.11 c -2.01,-2.97 -3.45,-5.11 -1.79,-6.49 2.04,-1.68 5.22,1.12 10.2,5.85 l 0.412,0.392 c 5.12,4.66 9.6,9.83 14.1,16.3 9.71,13.9 13.9,26.8 14.1,43 0.16,13.1 -3.96,24.9 -11.3,32.5 -5.85,5.99 -13.3,9.07 -22.3,9.15 -16.5,0.186 -25.4,-9.71 -30.6,-17.6"
             id="path8" /><path
             d="m 430,366 v -0.213 c 0.0665,-16.2 6.47,-43.3 48.6,-43.4 2.58,0.0266 11.4,0.885 18.7,3.33 0,0 0.905,0.333 1.71,0.632 -1.92,-6.42 -4.5,-12.8 -8.19,-19.3 l -2.08,-3.21 c -1.32,-1.89 -2.37,-3.41 -2.37,-4.62 0,-0.512 0.2,-0.978 0.665,-1.4 1.44,-1.3 3.88,-0.738 11.6,6.05 4.77,4.21 11.1,11.8 14.5,19.2 6.35,14 6.57,21.3 6.98,34.5 l 0.0133,0.632 c 0.0599,1.06 0.273,6.4 0.0732,7 l -0.346,1.02 -31,0.0199 -0.007,-8.32 1.3,-0.186 c 0.259,-0.0399 6.51,-0.971 9.67,-7.14 0.832,-1.62 1.24,-4.08 1.39,-7.67 -1.28,-1.6 -2.57,-3.03 -3.98,-4.26 -3.84,-3.33 -10.5,-6.85 -17.7,-6.72 h -0.592 c -9.31,0.0399 -18.6,10.6 -18.6,34 0,23.3 9.24,33.9 18.4,34 l 0.752,-0.02 c 8.35,-0.0465 12.8,-2.72 18.2,-7.64 7.12,-6.59 9.69,-12.9 9.72,-13 l 0.366,-0.951 8.05,0.0133 v 30.1 l -7.84,0.0332 -1.46,-3.6 c 0,0 -0.459,-0.984 -0.858,-1.83 -1.96,0.712 -8.23,3.01 -8.23,3.01 -7.45,2.52 -16.4,3.35 -18.7,3.35 -43.7,0 -48.5,-30.4 -48.6,-43.4"
             id="path9" /><path
             d="m 221,408 h -42.6 v -7.7 l 1.12,-0.293 c 0.02,-0.0133 2.52,-0.725 6.27,-2.73 0.572,-2.96 2.76,-15.5 2.76,-33.6 0,-18.3 -2.31,-25.3 -2.81,-26.6 -2.92,-2.55 -6.46,-4.43 -6.5,-4.43 l -0.805,-0.426 v -8.54 h 44 v 8.54 l -0.812,0.426 c -0.0332,0 -3.57,1.9 -6.49,4.45 -0.466,1.22 -2.2,6.7 -2.67,19.7 3.02,0.599 6.67,0.911 9.06,0.845 8.32,-0.2 13.6,-2.31 17.7,-12.9 2.77,-7.48 5.69,-14 10.9,-21.6 4.49,-6.45 8.81,-11.4 14,-16.2 l 0.984,-0.918 c 4.64,-4.41 7.6,-7.04 9.69,-5.48 1.98,1.46 0.22,3.99 -2,7.21 l -2.07,3.17 c -8.91,15.9 -10,26.3 -10.9,34.6 l -0.106,0.945 c -0.905,8.25 -2.28,20.7 -14.2,27.3 -4.42,2.13 -8.67,2.61 -13.4,2.01 l 0.0865,0.106 1.31,1.42 c 4.54,4.97 19.7,19.2 23.7,21.5 1.88,1.08 5.16,1.1 6.27,1.02 l 1.6,-0.113 v 8.08 h -36.2 v -7.55 l 5.16,-1.75 c -1.3,-1.88 -3.61,-5.19 -3.61,-5.19 -1.19,-1.7 -8.96,-11 -12.8,-14.8 -1.81,-1.82 -3.44,-3.11 -5.01,-4.16 0.605,12.3 2.05,20.6 2.49,22.9 3.75,2 6.25,2.71 6.27,2.73 l 1.1,0.293 0.007,7.7 h -1.49"
             id="path10" /><path
             d="m 177,477 c -0.0465,1.25 -0.173,3.23 -0.293,4.78 -0.239,3.37 -0.506,6.55 -1.35,6.39 -0.752,-0.146 -0.526,-2.18 -0.545,-4.66 0,-3.45 -0.346,-6.53 -0.825,-9.09 -0.406,-1.65 -0.918,-3.32 -1.59,-4.95 -3.99,-9.71 -8.79,-13.1 -19.9,-16.2 -11.1,-3.12 -28.9,-4.3 -28.9,-4.3 -7.56,-9.86 -14.1,-20.3 -20.6,-31.6 -5.49,-9.52 -11.1,-20.6 -18.4,-36.5 -6.33,-13.8 -15.5,-36.7 -15.5,-36.7 0,0 -6.9,30.1 -6.93,66.1 -0.0133,11.6 1.67,26.1 1.67,26.1 0,0 -8.36,-1.8 -20.4,-4.5 -12,-2.69 -22.8,-4.47 -26.9,0 -3.17,3.47 -3.81,8.62 -3.44,12.8 0.233,2.67 0.905,6.55 0.905,6.55 0,0 -4.52,-7.3 -6.33,-11.4 -0.945,-2.12 -5.46,-13.8 -0.865,-22.1 4.59,-8.34 12.5,-7.82 15.1,-7.79 2.57,0.0199 6.07,0.486 6.07,0.486 0,0 1.11,-21.7 5.85,-49.3 6.47,-37.8 14.9,-62.1 14.9,-62.1 h 29.9 c 0,0 6.76,28.9 23,69.2 6.19,15.4 15.6,35.8 21,46.9 6.15,12.1 10.6,18.6 10.6,18.6 0,0 18.2,3.12 27.4,8.37 9.19,5.24 14.7,14.5 15.9,23.8 0.552,4.32 0.652,7.82 0.486,11"
             id="path11" /></g></g></g></g></svg>
