<?xml version="1.0" encoding="UTF-8" standalone="no"?>
<svg
   xml:space="preserve"
   height="200"
   viewBox="0 0 700.01499 199.99947"
   width="700"
   version="1.1"
   id="svg1"
   sodipodi:docname="NO.svg"
   inkscape:version="1.3.1 (91b66b0783, 2023-11-16)"
   inkscape:export-filename="NO.png"
   inkscape:export-xdpi="96"
   inkscape:export-ydpi="96"
   xmlns:inkscape="http://www.inkscape.org/namespaces/inkscape"
   xmlns:sodipodi="http://sodipodi.sourceforge.net/DTD/sodipodi-0.dtd"
   xmlns="http://www.w3.org/2000/svg"
   xmlns:svg="http://www.w3.org/2000/svg"><defs
     id="defs1" /><sodipodi:namedview
     id="namedview1"
     pagecolor="#505050"
     bordercolor="#eeeeee"
     borderopacity="1"
     inkscape:showpageshadow="0"
     inkscape:pageopacity="0"
     inkscape:pagecheckerboard="0"
     inkscape:deskcolor="#505050"
     inkscape:zoom="7.0783523"
     inkscape:cx="95.785004"
     inkscape:cy="22.95732"
     inkscape:window-width="1920"
     inkscape:window-height="1017"
     inkscape:window-x="-8"
     inkscape:window-y="352"
     inkscape:window-maximized="1"
     inkscape:current-layer="svg1" /><g
     transform="matrix(4.6157461,0,0,-4.6157461,-1053.6102,1931.1262)"
     id="g1"
     style="fill:#000000;fill-opacity:1"><path
       d="m 133.62,1.043 c -0.64,-0.0107 -1.27,-0.0098 -1.88,0.0058 -4.06,0.105 -3.56,1.0583 -3.15,2.4258 0.34,1.1627 1.7,7.7474 1.82,8.6304 0.21,1.458 2.25,1.296 1.93,-0.441 -0.11,-0.553 -0.32,-1.479 -0.42,-2.2656 -0.16,-1.3946 0.73,-2.0427 2.84,-2.3964 1.51,-0.2505 4.79,0 5.8,0.1269 1.01,0.1253 1.38,0.6941 1.41,2.0176 0.04,1.2655 -0.56,20.256 -1.1,27.152 -0.13,1.741 -1.12,3.969 -2.17,5.198 -0.73,0.856 -0.56,1.734 0.85,1.576 1.13,-0.123 8.28,-0.438 11.47,-0.281 1.18,0.058 1.48,-1.391 0.12,-1.799 -2.39,-0.712 -2.78,-2.069 -2.86,-3.81 -0.19,-3.812 -0.07,-17.486 1,-27.881 0.12,-1.1629 0.19,-1.6369 1.51,-1.6369 1.9,0 6.97,0.3781 7.53,0.4746 0.5,0.0829 0.62,0.0143 1.01,-0.2227 0.47,-0.2826 1.14,-1.1142 1.99,-2.3633 0.21,-0.3114 0.9,-1.2122 1.21,-2.0195 0.54,-1.4062 0.59,-1.7288 -1.47,-1.4141 -5.3,0.8226 -11.46,0.2209 -15.78,-0.1582 -2.27,-0.1955 -7.18,-0.843 -11.66,-0.9179 z M 27.36,1.2891 C 27.032,1.2962 26.713,1.4897 26.589,1.8984 26.513,2.1523 26.38,2.7109 26.306,3.002 26.138,3.6688 25.659,3.7869 24.667,3.5703 22.978,3.1963 18.329,2.5919 14.964,2.5293 13.272,2.4988 12.961,2.5515 11.562,3.2539 10.702,3.6855 6.1116,6.6868 5.1046,7.3164 3.9114,8.0645 3.8934,8.2009 3.1183,9.6191 1.744,12.143 1.0501,17.416 1.4191,21.3381 c 0.2775,2.963 3.4533,4.244 6.08,4.471 3.9689,0.347 9.6379,0.031 12.158,0.377 2.576,0.355 3.757,1.736 4.444,3.435 0.597,1.479 0.249,4.903 -0.223,6.047 -0.702,1.709 -0.85,1.771 -5.291,1.955 -5.685,0.239 -12.23,-2.525 -15.562,-6.051 -1.346,-1.423 -1.961,0.07 -1.9204,0.698 0.2505,3.967 0.2234,7.208 -0.12694,10.677 -0.1777,1.739 2.1103,1.422 2.205,0.125 0.0272,-0.386 0.0617,-0.808 0.0938,-1.576 0.0372,-0.834 0.6374,-0.84 1.7324,-0.158 2.7554,1.725 6.3181,2.932 10.492,2.932 4.005,0 4.445,0.029 5.102,-0.883 1.558,-2.15 3.773,-4.317 5.828,-5.764 1.108,-0.78 1.985,-1.733 2.332,-3.18 0.24,-1.012 1.512,-6.021 1.859,-8.541 0.345,-2.521 -0.914,-4.881 -3.465,-4.847 -1.909,0.02 -8.506,-0.065 -12.035,-0.192 -4.351,-0.15 -5.1,-2.121 -5.8279,-3.529 -0.9681,-1.86 -1.042,-4.542 -0.6934,-6.803 0.3216,-2.09 0.7101,-2.6238 3.5583,-2.4275 3.402,0.237 9.106,1.7981 10.617,2.1735 1.876,0.473 2.958,2.5 3.278,3.563 0.282,0.946 1.934,1.169 1.763,-0.41 -0.404,-3.7221 -0.419,-7.8182 0.407,-10.744 0.256,-0.9017 -0.316,-1.4089 -0.864,-1.3969 z m 65.45,0.4511 c -0.172,-0.0015 -0.378,0.0134 -0.635,0.0332 -3.18,0.2522 -5.764,0.3144 -8.127,0.1875 -0.757,-0.0389 -1.223,0.9213 -0.566,1.3868 0.846,0.6025 3.614,2.8295 4.976,4.4746 1.344,1.6231 1.711,3.3427 1.733,5.0077 0.062,4.837 -0.212,16.885 -0.913,21.834 -0.303,2.134 -1.639,6.772 -2.3,8.092 -0.606,1.217 0.682,1.275 1.293,0.599 1.039,-1.15 2.904,-1.724 5.228,-1.828 1.798,-0.076 1.544,-0.89 1.447,-2.359 -0.279,-4.252 -0.598,-11.815 -0.377,-21.393 0.031,-1.357 0.975,-1.333 1.543,-0.502 2.021,2.949 7.613,7.773 10.333,10.047 6.2,5.186 9.8,6.301 15.18,13.453 h 2.43 c 0,0 -0.4,-23.769 0.88,-30.937 0.55,-3.0533 0.77,-4.3223 1.95,-6.3008 0.45,-0.7465 0.9,-1.8763 -1.6,-1.4786 -2.36,0.3774 -5.61,0.2074 -9.45,-0.0312 -1.1,-0.0677 -2.93,1.573 -0.47,2.0469 1.59,0.3114 4.94,1.4422 5.03,4.8847 0.03,1.0071 -0.25,16.946 -0.25,17.955 0,1.625 -1.15,1.345 -2.01,0.537 -2.45,-2.283 -6.98,-5.712 -9.45,-8.07 C 100.475,11.544 98.616,9.6395 93.907,2.467 93.53,1.893 93.324,1.7449 92.81,1.7402 Z M 52.253,2.002 C 52.036,1.9797 51.761,1.9869 51.413,2.0254 47.234,2.4908 44.624,2.7311 40.388,2.0879 38.089,1.7393 38.126,4.0775 39.853,4.1367 c 0.668,0.0237 1.264,0.0745 2.013,0.2539 4.682,1.1069 3.739,3.2594 3.119,4.8164 -4.276,10.749 -9.588,22.796 -16.316,31.943 -0.712,0.97 -0.241,1.484 0.691,1.327 1.671,-0.285 4.507,-0.264 5.891,-0.127 0.862,0.086 1.202,-0.235 1.197,-1.012 -0.028,-3.41 2.187,-7.895 4.221,-11.969 0.63,-1.259 1.02,-1.166 2.111,-1.166 1.009,0 8.566,-0.071 9.954,-0.125 2.232,-0.086 2.233,0.461 2.835,1.668 1.708,3.419 3.504,8.639 3.969,12.192 0.136,1.027 0.771,0.735 1.797,0.599 1.198,-0.159 4.819,-0.097 6.268,0.096 1.396,0.181 1.861,-0.943 1.103,-1.955 C 65.018,35.761 54.187,8.121 53.146,2.906 53.043,2.3973 52.904,2.0687 52.253,2.002 Z m 135.14,0.1445 c -0.3,0.0071 -0.6,0.2026 -0.72,0.6113 -0.08,0.2556 -0.31,0.7947 -0.44,1.0723 -0.3,0.6313 -0.62,0.8176 -1.61,0.5976 -1.69,-0.3706 -6.21,-1.0704 -9.58,-1.1347 -1.69,-0.0322 -2.22,0.0554 -3.62,0.7578 -0.86,0.4316 -5.42,3.4956 -6.42,4.1269 -1.2,0.7447 -1.22,0.8823 -1.99,2.2993 -1.37,2.521 -2.07,7.8 -1.7,11.718 0.28,2.964 3.45,4.243 6.08,4.473 3.97,0.345 9.83,0.032 12.35,0.377 2.57,0.354 3.63,1.734 4.31,3.434 0.6,1.484 0.19,4.903 -0.28,6.05 -0.7,1.708 -0.66,1.766 -5.1,1.953 -5.69,0.236 -12.23,-2.528 -15.57,-6.048 -1.34,-1.426 -2.24,0.065 -2.2,0.691 0.25,3.969 0.13,7.213 -0.22,10.68 -0.18,1.738 2.01,1.421 2.11,0.127 0.03,-0.386 0.03,-0.935 0.06,-1.703 0.04,-0.837 0.73,-0.844 1.83,-0.157 2.76,1.722 6.6,2.928 10.77,2.928 4.01,0 4.45,0.03 5.11,-0.879 1.55,-2.153 3.8,-4.223 5.86,-5.67 1.11,-0.78 1.98,-1.733 2.33,-3.181 0.24,-1.011 1.38,-5.986 1.73,-8.504 0.35,-2.527 -0.91,-4.886 -3.47,-4.856 -1.9,0.024 -8.28,-0.064 -11.81,-0.187 -4.35,-0.158 -5.16,-2.092 -5.89,-3.498 -0.97,-1.864 -1.23,-4.668 -0.88,-6.932 0.32,-2.0886 0.71,-2.6219 3.56,-2.4239 3.4,0.237 9.36,1.8919 10.87,2.2679 1.87,0.474 2.95,2.497 3.27,3.56 0.29,0.943 1.81,1.167 1.64,-0.412 -0.4,-3.722 -0.45,-7.8155 0.38,-10.74 0.25,-0.9024 -0.26,-1.4103 -0.76,-1.3985 z M 80.423,2.2812 C 80.144,2.2729 79.775,2.3143 79.29,2.4023 76.927,2.8356 73.127,3.1628 69.839,2.8125 68.172,2.6398 68.203,4.7518 69.335,4.8906 c 0.411,0.0525 0.92,0.0964 1.449,0.3164 2.112,0.8818 2.152,3.816 2.11,5.703 -0.104,4.5 -0.547,20.405 -2.016,30.617 -0.261,1.804 0.366,2.368 1.984,1.828 1.969,-0.653 6.578,-1.132 8.883,-0.978 1.143,0.076 1.449,-1.162 0.317,-1.668 -1.136,-0.504 -1.451,-0.788 -1.955,-1.418 -0.644,-0.802 -0.664,-1.584 -0.661,-2.33 0.033,-7.281 -0.18,-24.679 1.608,-33.174 0.213,-1.0078 0.204,-1.4808 -0.631,-1.5058 z m -31.975,10.219 c 0.252,0.016 0.504,0.236 0.756,0.678 0.505,0.882 3.781,9.766 4.158,10.519 0.378,0.755 0.128,1.137 -0.88,1.137 h -8.223 c -1.386,0 -1.26,-0.63 -1.008,-1.387 0.251,-0.756 3.937,-9.638 4.441,-10.394 0.253,-0.379 0.505,-0.569 0.756,-0.553 z"
       transform="matrix(0.8,0,0,-0.8,227.49,415.13)"
       id="path1"
       style="fill:#000000;fill-opacity:1" /></g></svg>
