<?xml version="1.0" encoding="UTF-8" standalone="no"?>
<svg
   height="200"
   width="700"
   viewBox="0 0 700 200"
   version="1.1"
   id="svg1"
   sodipodi:docname="NYJ.svg"
   inkscape:version="1.3.1 (91b66b0783, 2023-11-16)"
   inkscape:export-filename="NYJ.png"
   inkscape:export-xdpi="96"
   inkscape:export-ydpi="96"
   xmlns:inkscape="http://www.inkscape.org/namespaces/inkscape"
   xmlns:sodipodi="http://sodipodi.sourceforge.net/DTD/sodipodi-0.dtd"
   xmlns="http://www.w3.org/2000/svg"
   xmlns:svg="http://www.w3.org/2000/svg">
  <defs
     id="defs1" />
  <sodipodi:namedview
     id="namedview1"
     pagecolor="#505050"
     bordercolor="#eeeeee"
     borderopacity="1"
     inkscape:showpageshadow="0"
     inkscape:pageopacity="0"
     inkscape:pagecheckerboard="0"
     inkscape:deskcolor="#505050"
     inkscape:zoom="1.2360293"
     inkscape:cx="304.60444"
     inkscape:cy="149.26831"
     inkscape:window-width="1920"
     inkscape:window-height="1017"
     inkscape:window-x="-8"
     inkscape:window-y="352"
     inkscape:window-maximized="1"
     inkscape:current-layer="svg1" />
  <path
     d="m 696.32138,79.400342 a 40.235997,40.235997 0 0 0 3.66777,-17.741911 c 0,-19.565995 -18.75884,-27.734651 -70.14204,-27.734651 -46.50132,0 -65.67272,7.348744 -79.53499,21.212821 -9.79591,9.782926 -15.09092,21.613105 -15.09092,31.199064 0,14.277605 7.53918,19.375565 34.05322,26.101145 28.33862,7.13893 33.84999,8.56237 33.84999,14.68453 0,6.72515 -6.32497,10.60298 -17.1381,10.60298 -9.77667,0 -14.46808,-3.06438 -14.46808,-7.95213 a 22.001837,22.001837 0 0 1 2.64428,-10.39962 h -62.99766 a 39.614495,39.614495 0 0 0 -4.49454,18.14212 c 0,19.38249 16.3112,28.56153 72.5923,28.56153 47.51085,0 66.69134,-7.96541 79.53041,-20.80586 a 48.63793,48.63793 0 0 0 15.49125,-34.04681 c 0,-14.487247 -9.57285,-20.405657 -36.297,-26.724275 -26.70456,-6.324937 -31.80935,-7.952131 -31.80935,-12.440242 0,-5.091495 5.71465,-9.789385 16.92846,-9.789385 8.97577,0 14.07429,3.267411 14.07429,7.748809 a 18.502882,18.502882 0 0 1 -2.66374,9.382859 h 61.79976 z M 545.80007,37.184767 H 385.11966 L 367.98157,69.20378 h 42.62251 l -49.96583,93.60376 h 79.53032 l 49.96577,-93.603652 h 38.54139 L 545.8005,37.184875 Z M 355.16037,69.000534 372.09529,37.184767 H 222.62017 l -66.884,125.623313 h 151.70515 l 16.92846,-31.81576 h -79.12201 l 8.77258,-15.90469 h 70.96808 l 16.31165,-30.792108 h -71.16515 l 8.55594,-15.29441 h 76.47437 z M 174.76241,104.28721 c -9.9927,18.75201 -16.31811,29.35527 -26.31074,39.34852 -14.88103,14.88745 -39.55184,22.43966 -76.263255,22.43966 C 21.208669,166.07553 -7.9234889e-7,153.83204 -7.9234889e-7,130.99217 -7.9234889e-7,119.37184 2.8607036,111.00633 9.7959183,98.369235 L 17.826839,83.094676 H 83.907787 L 67.497889,114.48421 a 28.477394,28.477394 0 0 0 -3.667804,11.41011 7.0440382,7.0440382 0 0 0 7.952131,7.74881 c 8.562404,0 12.847308,-5.70823 18.55554,-16.31175 L 132.37622,37.18603 h 77.48839 l -35.1031,67.10429"
     fill="#115740"
     id="path1"
     style="fill:#000000;fill-opacity:1;stroke:#ffffff;stroke-width:4;stroke-dasharray:none;stroke-opacity:1" />
</svg>
