<?xml version="1.0" encoding="UTF-8" standalone="no"?>
<svg
   height="200"
   width="700"
   viewBox="0 0 700 200"
   version="1.1"
   id="svg1"
   sodipodi:docname="PHI.svg"
   inkscape:version="1.3.1 (91b66b0783, 2023-11-16)"
   inkscape:export-filename="PHI.png"
   inkscape:export-xdpi="96"
   inkscape:export-ydpi="96"
   xmlns:inkscape="http://www.inkscape.org/namespaces/inkscape"
   xmlns:sodipodi="http://sodipodi.sourceforge.net/DTD/sodipodi-0.dtd"
   xmlns="http://www.w3.org/2000/svg"
   xmlns:svg="http://www.w3.org/2000/svg">
  <defs
     id="defs1" />
  <sodipodi:namedview
     id="namedview1"
     pagecolor="#505050"
     bordercolor="#eeeeee"
     borderopacity="1"
     inkscape:showpageshadow="0"
     inkscape:pageopacity="0"
     inkscape:pagecheckerboard="0"
     inkscape:deskcolor="#505050"
     inkscape:zoom="0.95122698"
     inkscape:cx="365.31764"
     inkscape:cy="0.5256369"
     inkscape:window-width="1920"
     inkscape:window-height="1017"
     inkscape:window-x="-8"
     inkscape:window-y="352"
     inkscape:window-maximized="1"
     inkscape:current-layer="svg1" />
  <g
     transform="matrix(3.7149655,0,0,-3.7149655,-212.05571,186.90415)"
     id="g1"
     style="fill:#a5acaf;fill-opacity:1;stroke:#ffffff;stroke-width:0.71781734;stroke-dasharray:none;stroke-opacity:1">
    <path
       d="m 184.74,38.548 c 0,0 2.7557,-1.5149 1.873,-5.0635 l -1.4464,-7.2156 h 7.5146 c -2.1328,-0.96735 -8.2782,-4.734 -9.5153,-9.9582 l -1.6214,-8.0733 h 27.321 l 1.2159,5.9916 h -17.889 l 1.2377,6.1735 h 11.167 c 0.83841,0.5631 3.6726,3.8756 4.1447,5.9561 l -14.114,-6.22e-4 1.252,6.2345 h 15.281 c 0.83841,0.5631 3.6726,3.875 4.1447,5.9561 z m -124,0 c 0,0 2.7557,-1.5149 1.8737,-5.0635 l -1.447,-7.2156 h 7.5152 c -2.1334,-0.96735 -8.2782,-4.734 -9.5153,-9.9582 L 57.5452,8.2374 h 27.321 l 1.2153,5.9916 h -17.889 l 1.2383,6.1735 h 11.167 c 0.83779,0.5631 3.6726,3.8756 4.1447,5.9561 l -14.114,-6.22e-4 1.252,6.2345 h 15.281 c 0.83841,0.5631 3.6726,3.875 4.1447,5.9561 z m 44.698,-5.9561 -3.9691,-10.159 9.1017,6.23e-4 0.12271,10.159 z m 14.293,5.9555 -0.35193,-30.309 h -8.979 l 0.0953,8.2303 h -11.347 l -3.2266,-8.2303 h -9.2481 l 12.193,30.309 z m 120.22,-12.189 h -15.464 l 1.2601,6.2339 h 15.153 c 0.83841,0.5631 3.6726,3.875 4.1447,5.9555 h -25.763 c -1.0508,0 -1.9528,-0.74685 -2.149,-1.7784 l -2.803,-13.961 c -0.23857,-1.2533 0.72255,-2.4056 1.9976,-2.4056 h 15.658 l -1.2414,-6.1729 h -18.137 l -1.2047,-5.991 25.812,0.00997 c 1.0514,0.00436 1.9422,0.7456 2.1484,1.7765 l 2.737,13.73 c 0.25788,1.3486 -0.7755,2.6024 -2.1484,2.6024 z m -100.53,-5.9555 h 3.8364 L 142.0191,14.23 h -10.174 l 3.6906,18.362 h 16.76 c 0.83841,0.5631 3.68,3.8756 4.1522,5.9561 h -27.503 c -0.95551,0 -1.779,-0.67459 -1.9677,-1.6114 l -5.778,-28.698 h 27.511 c 0.9605,0 1.7864,0.68082 1.9702,1.6233 l 3.3026,16.496 h -13.36 z M 163.752,14.23 h 16.451 l -1.2034,-5.991 h -25.927 l 6.1037,30.309 h 9.4742 L 163.7527,14.23"
       fill="#004851"
       id="path1"
       style="fill:#a5acaf;fill-opacity:1;stroke:#ffffff;stroke-width:0.71781734;stroke-dasharray:none;stroke-opacity:1" />
  </g>
</svg>
