<?xml version="1.0" encoding="UTF-8" standalone="no"?>
<!-- Generator: Adobe Illustrator 14.0.0, SVG Export Plug-In . SVG Version: 6.00 Build 43363)  -->

<svg
   version="1.1"
   id="Layer_1"
   x="0px"
   y="0px"
   width="700"
   height="200"
   viewBox="0 0 700 200"
   xml:space="preserve"
   sodipodi:docname="PIT.svg"
   inkscape:version="1.3.1 (91b66b0783, 2023-11-16)"
   inkscape:export-filename="PIT.png"
   inkscape:export-xdpi="96"
   inkscape:export-ydpi="96"
   xmlns:inkscape="http://www.inkscape.org/namespaces/inkscape"
   xmlns:sodipodi="http://sodipodi.sourceforge.net/DTD/sodipodi-0.dtd"
   xmlns="http://www.w3.org/2000/svg"
   xmlns:svg="http://www.w3.org/2000/svg"><defs
   id="defs19" /><sodipodi:namedview
   id="namedview19"
   pagecolor="#505050"
   bordercolor="#eeeeee"
   borderopacity="1"
   inkscape:showpageshadow="0"
   inkscape:pageopacity="0"
   inkscape:pagecheckerboard="0"
   inkscape:deskcolor="#505050"
   inkscape:zoom="5.424"
   inkscape:cx="125"
   inkscape:cy="38.071534"
   inkscape:window-width="1920"
   inkscape:window-height="1017"
   inkscape:window-x="-8"
   inkscape:window-y="352"
   inkscape:window-maximized="1"
   inkscape:current-layer="Layer_1" />
<g
   id="g19"
   style="fill:#ffb612;fill-opacity:1"
   transform="matrix(2.9166676,0,0,2.9166676,-14.583344,-10.83191)">
	<path
   d="m 230.674,23.749 c 9.396,0.4 14.755,5.978 14.299,16.313 l -11.586,0.009 c 0.005,-2.358 0.145,-5.057 -2.703,-5.608 z"
   id="path1"
   style="fill:#ffb612;fill-opacity:1" />
	<path
   d="m 230.684,57.361 c 1.136,-0.331 2.176,-1.06 2.176,-2.373 0,-1.309 -0.839,-2.109 -2.171,-2.512 l -0.02,-12.133 c 5.92,1.506 14.06,4.516 14.06,15.661 0,11.85 -8.647,14.543 -14.055,14.889 z"
   id="path2"
   style="fill:#ffb612;fill-opacity:1" />
	<path
   d="M 228.134,70.912 C 218.748,70.5 212.837,65.438 213.35,53.8 h 11.241 c -0.115,2.281 1.419,3.432 3.538,3.71 z"
   id="path3"
   style="fill:#ffb612;fill-opacity:1" />
	<path
   d="m 228.138,51.92 c -5.383,-1.116 -8.666,-1.884 -11.868,-6.217 -1.966,-2.675 -2.354,-5.45 -2.354,-8.758 0,-8.887 6.797,-12.746 14.222,-13.177 l -0.009,10.769 c -1.472,0.393 -2.009,1.412 -2.009,2.332 0,0.93 0.753,2.1 2.009,2.626 z"
   id="path4"
   style="fill:#ffb612;fill-opacity:1" />
	<path
   d="M 43.425,35.728 V 24.753 h 5.09 V 20.94 l 13.216,-7.133 v 10.946 h 6.136 v 10.975 h -6.279 v 18.331 c 0.019,2.525 1.069,4.218 3.528,4.132 1.769,-0.063 2.771,-0.666 2.986,-1.007 V 70.73 c -1.476,0.412 -2.454,0.45 -5.277,0.45 -6.946,0 -14.309,-4.496 -14.309,-11.36 V 35.728 Z"
   id="path5"
   style="fill:#ffb612;fill-opacity:1" />
	<rect
   x="137.339"
   y="4.855"
   width="13.686"
   height="66.039001"
   id="rect5"
   style="fill:#ffb612;fill-opacity:1" />
	<path
   d="m 201.309,23.389 v 5.832 h 0.163 c 2.373,-3.564 6.846,-6.375 10.867,-6.375 v 16.411 c -1.007,-0.709 -2.862,-1.256 -4.156,-1.256 -2.896,0 -7.224,1.63 -7.018,5.091 V 70.895 H 187.863 V 23.389 Z"
   id="path6"
   style="fill:#ffb612;fill-opacity:1" />
	<path
   d="M 25.392,4.819 C 37.5,5.253 42.519,14.799 42.097,25.033 H 29.461 c -0.144,-3.327 -0.637,-6.215 -4.074,-6.792 z"
   id="path7"
   style="fill:#ffb612;fill-opacity:1" />
	<path
   d="m 25.392,56.244 c 1.764,-0.35 3.317,-1.668 3.317,-3.921 0,-1.765 -1.38,-3.197 -3.313,-4.487 L 25.392,28.818 c 5.584,1.906 8.882,3.991 11.888,7.874 2.828,3.657 4.521,7.675 4.521,15.387 0,10.623 -5.771,18.45 -16.408,18.921 V 56.244 Z"
   id="path8"
   style="fill:#ffb612;fill-opacity:1" />
	<path
   d="M 22.855,71.027 C 11.303,70.419 5.513,62.854 5.513,55.046 v -7.344 h 13.911 v 3.552 c 0,2.627 1.031,4.42 3.423,4.933 z"
   id="path9"
   style="fill:#ffb612;fill-opacity:1" />
	<path
   d="M 22.86,46.326 C 22.012,45.866 21.12,45.401 20.257,44.95 15.55,42.453 11.735,39.879 9.122,36.71 6.539,33.487 5,28.837 5,23.241 5,12.635 12.947,5.591 22.855,4.87 l -0.004,13.38 c -2.306,0.489 -3.782,2.44 -3.773,4.873 0.005,2.078 1.51,4.084 3.773,4.88 z"
   id="path10"
   style="fill:#ffb612;fill-opacity:1" />
	<path
   d="m 86.892,70.889 c 13.811,-0.763 13.714,-11.726 13.719,-16.696 H 89.826 c -0.105,1.721 -0.848,2.876 -2.929,3.27 z"
   id="path11"
   style="fill:#ffb612;fill-opacity:1" />
	<path
   d="m 86.892,35.301 c 2.33,0.456 3.341,2.401 3.341,3.384 V 39.6 l -3.355,0.02 0.014,10.388 h 13.733 V 36.433 c 0,-9.441 -7.842,-12.046 -13.733,-12.308 v 11.181"
   id="path12"
   style="fill:#ffb612;fill-opacity:1" />
	<path
   d="m 84.375,35.383 c -1.673,0.235 -3.024,1.361 -3.024,3.346 v 0.829 l 2.996,0.024 0.005,10.426 h -3.188 v 4.06 c -0.005,2.397 0.8,3.375 3.207,3.528 l -0.02,13.326 C 76.399,70.649 70.675,66.963 70.675,57.261 V 38.853 c 0,-11.483 5.292,-14.418 13.676,-14.723 v 11.277"
   id="path13"
   style="fill:#ffb612;fill-opacity:1" />
	<path
   d="m 120.308,70.889 c 13.82,-0.763 13.723,-11.726 13.723,-16.696 h -10.78 c -0.11,1.721 -0.848,2.876 -2.929,3.27 z"
   id="path14"
   style="fill:#ffb612;fill-opacity:1" />
	<path
   d="m 120.313,35.301 c 2.334,0.456 3.346,2.401 3.346,3.384 V 39.6 l -3.36,0.02 0.01,10.388 h 13.738 V 36.433 c 0,-9.441 -7.842,-12.046 -13.733,-12.308 l -0.004,11.181"
   id="path15"
   style="fill:#ffb612;fill-opacity:1" />
	<path
   d="m 117.796,35.383 c -1.62,0.144 -3.024,1.361 -3.024,3.346 v 0.829 l 3,0.024 0.005,10.426 h -3.192 v 4.06 c 0,2.397 0.8,3.375 3.207,3.528 l -0.015,13.326 C 109.82,70.649 104.096,66.963 104.096,57.261 V 38.853 c 0,-11.483 5.297,-14.418 13.681,-14.723 v 11.277"
   id="path16"
   style="fill:#ffb612;fill-opacity:1" />
	<path
   d="m 170.817,70.889 c 13.819,-0.763 13.724,-11.726 13.729,-16.696 h -10.785 c -0.11,1.721 -0.849,2.876 -2.929,3.27 z"
   id="path17"
   style="fill:#ffb612;fill-opacity:1" />
	<path
   d="m 170.817,35.301 c 2.339,0.456 3.351,2.401 3.351,3.384 V 39.6 l -3.36,0.02 0.01,10.388 h 13.738 V 36.433 c 0,-9.441 -7.843,-12.046 -13.738,-12.308 v 11.181"
   id="path18"
   style="fill:#ffb612;fill-opacity:1" />
	<path
   d="m 168.306,35.383 c -1.62,0.144 -3.025,1.361 -3.025,3.346 v 0.829 l 3.001,0.024 0.005,10.426 h -3.192 v 4.06 c 0,2.397 0.801,3.375 3.207,3.528 l -0.015,13.326 C 160.335,70.649 154.606,66.963 154.606,57.261 V 38.853 c 0,-11.483 5.297,-14.418 13.681,-14.723 v 11.277"
   id="path19"
   style="fill:#ffb612;fill-opacity:1" />
</g>
</svg>
