<?xml version="1.0" encoding="UTF-8" standalone="no"?>
<svg
   xml:space="preserve"
   height="200"
   viewBox="0 0 699.98592 199.99756"
   width="700"
   version="1.1"
   id="svg3"
   sodipodi:docname="SEA.svg"
   inkscape:version="1.3.1 (91b66b0783, 2023-11-16)"
   inkscape:export-filename="SEA.png"
   inkscape:export-xdpi="96"
   inkscape:export-ydpi="96"
   xmlns:inkscape="http://www.inkscape.org/namespaces/inkscape"
   xmlns:sodipodi="http://sodipodi.sourceforge.net/DTD/sodipodi-0.dtd"
   xmlns="http://www.w3.org/2000/svg"
   xmlns:svg="http://www.w3.org/2000/svg"><defs
     id="defs3" /><sodipodi:namedview
     id="namedview3"
     pagecolor="#505050"
     bordercolor="#eeeeee"
     borderopacity="1"
     inkscape:showpageshadow="0"
     inkscape:pageopacity="0"
     inkscape:pagecheckerboard="0"
     inkscape:deskcolor="#505050"
     inkscape:zoom="7.0353843"
     inkscape:cx="96.370002"
     inkscape:cy="15.564182"
     inkscape:window-width="1920"
     inkscape:window-height="1017"
     inkscape:window-x="-8"
     inkscape:window-y="352"
     inkscape:window-maximized="1"
     inkscape:current-layer="svg3" /><g
     transform="matrix(4.5874126,0,0,-4.5874126,-1053.2874,1915.0055)"
     id="g3"
     style="fill:#69be28;fill-opacity:1"><g
       id="g2"
       style="fill:#69be28;fill-opacity:1"><path
         d="m 11.861,10.139 c -5.7455,0 -10.508,2.82 -10.508,6.154 5e-4,7.427 13.219,6.534 13.219,8.822 0,0.838 -0.901,1.453 -2.761,1.453 -6.3666,0 -10.907,-3.648 -10.907,-3.648 l 3e-4,7.361 3.0723,-1.211 c 0,0 2.7505,1.211 9.1694,1.211 5.678,0 11.499,-2.339 11.499,-6.152 0,-7.48 -14.393,-6.548 -14.393,-8.838 0,-0.838 0.895,-1.451 2.758,-1.451 6.231,0 9.744,2.617 9.744,2.617 v -6.318 l -3.037,1.189 c 0,0 -2.845,-1.189 -7.856,-1.189 z m 169.71,4.283 c -4.52,0 -8.27,2.223 -8.27,4.846 0,5.847 10.41,5.144 10.41,6.947 0,0.658 -0.71,1.14 -2.17,1.14 -5.02,0 -8.59,-2.873 -8.59,-2.873 v 5.799 l 2.42,-0.951 c 0,0 2.16,0.951 7.22,0.951 4.47,0 9.05,-1.844 9.05,-4.845 0,-5.891 -11.33,-5.153 -11.33,-6.959 0,-0.657 0.7,-1.139 2.17,-1.139 4.91,0 7.67,2.058 7.67,2.058 v -4.974 l -2.39,0.933 c 0,0 -2.24,-0.933 -6.19,-0.933 z m -68.12,0.269 7.29,15.229 h 6.7 l -0.99,-2.08 2.94,-6.158 3.95,8.238 h 6.7 l -1,-2.08 6.31,-13.149 h -4.71 l -3.95,8.239 -3.94,-8.239 h -6.7 l 0.99,2.082 -2.95,6.157 -3.95,-8.239 z m -87.331,0.002 1.631,2.586 V 27.332 L 26.12,29.92 h 18.774 v -3.232 h -9.817 v -2.766 h 9.817 v -3.231 h -9.817 v -2.765 h 9.817 v -3.233 z m 27.352,0 0.884,1.69 -4.302,8.222 h -2.196 l 1.092,2.112 -1.676,3.203 h 5.543 l 1.303,-2.488 h 6.014 l 1.301,2.488 h 7.308 L 60.78,14.693 Z m 17.258,0 1.63,2.586 v 10.053 l -1.63,2.588 h 8.55 v -5.998 h 5.838 v 5.998 h 6.918 V 14.693 h -6.918 v 5.998 H 79.28 v -5.998 z m 29.651,0 0.88,1.69 -4.303,8.222 h -2.193 l 1.091,2.112 -1.675,3.203 h 5.541 l 1.309,-2.488 h 6.01 l 1.3,2.488 h 7.31 l -7.97,-15.227 z m 47.14,0 1.62,2.586 v 10.053 l -1.62,2.588 h 8.95 v -4.482 l 1.72,-1.454 v 0.002 l 4.74,5.934 h 7.71 l -7.66,-9.996 6.18,-5.231 h -8.2 l 1.3,2.061 -5.79,4.879 v -6.94 z m -90.395,6.989 1.529,2.923 h -3.058 z m 46.905,0 1.53,2.923 h -3.06 z"
         transform="matrix(0.8,0,0,-0.8,228.88,408.2)"
         fill="#024"
         id="path1"
         style="fill:#69be28;fill-opacity:1" /><path
         d="m 40.07,1.0957 c -2.246,0 -4.103,1.1005 -4.103,2.4043 0,2.8987 5.162,2.5489 5.162,3.4453 0,0.3276 -0.353,0.5664 -1.08,0.5664 -2.486,0 -4.256,-1.4277 -4.256,-1.4277 V 8.9609 L 36.99,8.4883 c 0,0 1.075,0.4726 3.584,0.4726 2.217,0 4.49,-0.9142 4.49,-2.4043 0,-2.9186 -5.623,-2.5561 -5.623,-3.4492 0,-0.3293 0.351,-0.5664 1.077,-0.5664 2.433,0 3.808,1.0195 3.808,1.0195 V 1.0957 l -1.187,0.4609 c 0,0 -1.111,-0.4609 -3.069,-0.4609 z m 13.446,0.1309 0.806,1.2851 V 7.498 l -0.806,1.2832 h 9.312 V 7.1777 H 57.959 V 5.8066 h 4.869 V 4.2031 H 57.959 V 2.834 h 4.869 V 1.2266 Z m 21.105,0 0.44,0.8398 -2.135,4.082 h -1.088 l 0.541,1.0469 -0.832,1.5859 h 2.752 l 0.644,-1.2343 h 2.983 l 0.644,1.2343 h 3.627 L 78.248,1.2266 Z m 14.297,0 v 1.8066 h 3.707 V 7.498 l -0.809,1.2832 h 4.446 v -5.748 h 3.703 V 1.2266 Z m 19.572,0 v 1.8066 h 3.71 V 7.498 l -0.81,1.2832 h 4.44 v -5.748 h 3.71 V 1.2266 Z m 19.75,0 0.82,1.2851 v 4.8262 l -0.82,1.4433 h 9.72 V 6.9766 h -5.27 v -5.75 z m 18.24,0 0.81,1.2851 V 7.498 l -0.81,1.2832 h 9.32 V 7.1777 h -4.87 V 5.8066 h 4.87 V 4.2031 h -4.87 V 2.834 h 4.87 V 1.2266 Z m -70.046,3.4687 0.759,1.4531 h -1.517 z"
         transform="matrix(0.8,0,0,-0.8,228.88,408.2)"
         fill="#a5acaf"
         id="path2"
         style="fill:#69be28;fill-opacity:1" /></g></g></svg>
