<?xml version="1.0" encoding="UTF-8" standalone="no"?>
<!-- Created with Inkscape (http://www.inkscape.org/) -->

<svg
   version="1.1"
   id="svg815"
   xml:space="preserve"
   width="700"
   height="200"
   viewBox="0 0 700 200"
   sodipodi:docname="SF.svg"
   inkscape:version="1.3.1 (91b66b0783, 2023-11-16)"
   inkscape:export-filename="SF.png"
   inkscape:export-xdpi="96"
   inkscape:export-ydpi="96"
   xmlns:inkscape="http://www.inkscape.org/namespaces/inkscape"
   xmlns:sodipodi="http://sodipodi.sourceforge.net/DTD/sodipodi-0.dtd"
   xmlns="http://www.w3.org/2000/svg"
   xmlns:svg="http://www.w3.org/2000/svg"
   xmlns:rdf="http://www.w3.org/1999/02/22-rdf-syntax-ns#"
   xmlns:cc="http://creativecommons.org/ns#"
   xmlns:dc="http://purl.org/dc/elements/1.1/"><metadata
     id="metadata821"><rdf:RDF><cc:Work
         rdf:about=""><dc:format>image/svg+xml</dc:format><dc:type
           rdf:resource="http://purl.org/dc/dcmitype/StillImage" /></cc:Work></rdf:RDF></metadata><defs
     id="defs819"><clipPath
       clipPathUnits="userSpaceOnUse"
       id="clipPath833"><path
         d="M 0,792 H 612 V 0 H 0 Z"
         id="path831"
         inkscape:connector-curvature="0" /></clipPath><clipPath
       clipPathUnits="userSpaceOnUse"
       id="clipPath1901"><path
         d="m 274.46,82.382 h 63.081 V 39.218 H 274.46 Z"
         id="path1899"
         inkscape:connector-curvature="0" /></clipPath><clipPath
       clipPathUnits="userSpaceOnUse"
       id="clipPath1915"><path
         d="M 0,0 H 612 V 792 H 0 Z"
         id="path1913"
         inkscape:connector-curvature="0" /></clipPath><clipPath
       clipPathUnits="userSpaceOnUse"
       id="clipPath1945"><path
         d="M 0,0 H 612 V 792 H 0 Z"
         id="path1943"
         inkscape:connector-curvature="0" /></clipPath></defs><sodipodi:namedview
     pagecolor="#ffffff"
     bordercolor="#666666"
     borderopacity="1"
     objecttolerance="10"
     gridtolerance="10"
     guidetolerance="10"
     inkscape:pageopacity="0"
     inkscape:pageshadow="2"
     inkscape:window-width="1920"
     inkscape:window-height="1017"
     id="namedview817"
     showgrid="false"
     fit-margin-top="0"
     fit-margin-left="0"
     fit-margin-right="0"
     fit-margin-bottom="0"
     inkscape:zoom="1.1383348"
     inkscape:cx="328.11085"
     inkscape:cy="119.912"
     inkscape:window-x="-8"
     inkscape:window-y="352"
     inkscape:window-maximized="1"
     inkscape:current-layer="g825"
     inkscape:showpageshadow="0"
     inkscape:pagecheckerboard="0"
     inkscape:deskcolor="#505050" /><g
     id="g823"
     inkscape:groupmode="layer"
     inkscape:label="SF"
     transform="matrix(1.3333333,0,0,-1.3333333,-156.0164,934.7068)"><g
       id="g825"><g
         id="g827"
         transform="matrix(6.6589739,0,0,6.5896412,-1442.6662,-4473.6451)"><g
           id="g829"
           clip-path="url(#clipPath833)"><g
             id="g835"><g
               id="g837"
               transform="translate(52.6763,775.9819)" /><g
               id="g841"
               transform="translate(48.2241,775.396)" /><g
               id="g845"
               transform="translate(40.9766,775.9819)" /><g
               id="g849"
               transform="translate(36.5244,775.396)" /><g
               id="g853"
               transform="translate(64.376,775.9819)" /><g
               id="g857"
               transform="translate(59.9238,775.396)" /><g
               id="g861"
               transform="translate(76.0762,775.9819)" /><g
               id="g865"
               transform="translate(71.6235,775.396)" /><g
               id="g869"
               transform="translate(87.7759,775.9819)" /><g
               id="g873"
               transform="translate(83.3232,775.396)" /><g
               id="g877"
               transform="translate(227.145,773.4626)" /><g
               id="g881"
               transform="translate(559.9233,770.9432)" /><g
               id="g885"
               transform="translate(564.3755,771.5292)" /><g
               id="g889"
               transform="translate(571.623,770.9432)" /><g
               id="g893"
               transform="translate(576.0752,771.5292)" /><g
               id="g897"
               transform="translate(548.2236,770.9432)" /><g
               id="g901"
               transform="translate(552.6758,771.5292)" /><g
               id="g905"
               transform="translate(536.5234,770.9432)" /><g
               id="g909"
               transform="translate(540.9761,771.5292)" /><g
               id="g913"
               transform="translate(524.8237,770.9432)" /><g
               id="g917"
               transform="translate(529.2764,771.5292)" /><g
               id="g921"
               transform="translate(385.4546,773.4624)" /><g
               id="g925"
               transform="translate(333.5314,778.0229)" /><g
               id="g929"
               transform="translate(329.6213,774.9426)" /><g
               id="g933"
               transform="translate(372.9557,775.1837)" /><g
               id="g937"
               transform="translate(351.4695,778.8031)" /><g
               id="g941"
               transform="translate(326.8988,767.7671)" /><g
               id="g945"
               transform="translate(338.2656,768.7701)" /><g
               id="g949"
               transform="translate(362.4088,778.625)" /><g
               id="g953"
               transform="translate(357.2288,765.9734)" /><g
               id="g957"
               transform="translate(363.6515,770.2435)" /><g
               id="g961"
               transform="translate(358.9454,779.2876)" /><g
               id="g965"
               transform="translate(370.0642,770.2435)" /><g
               id="g969"
               transform="translate(341.4529,779.4062)" /><g
               id="g973"
               transform="translate(343.3217,785.421)" /><g
               id="g977"
               transform="translate(342.558,768.7701)" /><g
               id="g981"
               transform="translate(352.2576,773.9446)" /><g
               id="g985"
               transform="translate(316.6198,772.3734)" /><g
               id="g989"
               transform="translate(288.8849,765.6826)"><path
                 d="M 0,0 -1.103,1.066 V 6.83 H 0 Z m -0.674,14.924 c 0.012,0.071 0.103,0.539 0.425,0.539 h 0.021 l 0.022,0.005 h -0.001 c 0.001,0 0.015,0.002 0.036,0.002 0.048,0 0.138,0 0.138,-0.208 v -3.355 -0.011 l 0.001,-0.013 c 0,0 0.006,-0.099 -0.091,-0.239 C -0.15,11.614 -0.31,11.44 -0.679,11.129 Z M 5.521,0.992 c 0,0 -0.195,0.199 -0.176,0.535 v 4.724 c 0,0 -0.023,1.361 -2.018,2.951 0,0 2.301,0.948 2.386,4.373 0,0 0.084,3.271 -4.253,5.32 0,0 -0.92,0.39 -2.078,0.39 -0.788,0 -1.686,-0.181 -2.481,-0.788 0,0 -0.1,-0.1 -0.272,-0.1 -0.102,0 -0.227,0.034 -0.372,0.145 0,0 -0.612,0.455 -2.195,0.455 l -2.478,-0.023 v -2.293 l 1.264,-1.369 h 0.804 v -4.993 h -0.19 -0.022 c -0.118,0 -0.685,-0.041 -0.685,-0.849 0,-0.088 0.014,-0.164 0.017,-0.222 0.053,-0.266 0.235,-0.812 0.845,-1.052 V 2.292 c 0,0 0.055,-1.284 -0.864,-1.284 h -1.262 v -2.309 l 1.183,-1.197 h 1.126 0.024 c 0.218,0 1.836,0.032 2.395,0.961 0,0 0.026,0.077 0.167,0.077 0,0 10e-4,0 0.005,0 0.026,0 0.147,-0.005 0.194,-0.085 0,0 0.886,-0.979 2.136,-0.979 H 0.51 v 0.887 c 0,0 0.015,0.031 0.047,0.031 0.019,0 0.045,-0.012 0.077,-0.051 0,0 0.636,-1.004 1.459,-1.004 h 0.012 c 0.099,0 0.792,0.026 1.349,0.734 0,0 0.057,0.09 0.158,0.09 0,0 0.011,0.003 0.029,0.003 0.033,0 0.088,-0.009 0.133,-0.062 0,0 0.566,-0.633 1.453,-0.633 h 1.667 v 2.242 z"
                 style="fill:#ffffff;fill-opacity:1;fill-rule:nonzero;stroke:none"
                 id="path991"
                 inkscape:connector-curvature="0" /></g><g
               id="g993"
               transform="translate(244.8933,773.9521)"><path
                 d="m 0,0 h -0.488 l 0.129,0.296 C -0.248,0.189 -0.121,0.127 0,0.098 Z m 5.609,-7.262 c 0,0 -0.01,-0.002 -0.026,-0.002 -0.067,0 -0.243,0.031 -0.243,0.348 v 2.754 h 3.086 l -0.966,1.349 0.808,0.872 c 0,0 0.176,0.142 -0.074,0.397 L 7.048,-0.345 H 5.577 c 0,0 0.38,0.33 0.38,0.941 0,0 0,0.459 -0.602,0.918 v 4.892 c 0,0 -0.103,0.822 1.043,0.822 l 0.697,0.019 v 2.366 l -1.242,1.23 H 4.351 c 0,0 -0.914,0 -1.535,-0.662 0,0 -0.879,0.758 -2.206,0.758 -0.026,0 -0.053,0 -0.079,-10e-4 L -5.675,-0.985 v -2.144 l 0.98,-0.915 h 4.507 c 0,0 0.009,10e-4 0.024,10e-4 0.069,0 0.264,-0.023 0.264,-0.289 v -1.875 c 0,0 0.063,-0.871 -1.013,-0.871 h -1.061 v -2.355 l 1.155,-1.131 H 1.05 c 0,0 0.087,-0.012 0.229,-0.012 0.467,0 1.518,0.126 1.956,1.204 0,0 0.949,-1.192 2.12,-1.192 h 1.773 v 2.079 l -1.14,1.223 z"
                 style="fill:#ffffff;fill-opacity:1;fill-rule:nonzero;stroke:none"
                 id="path995"
                 inkscape:connector-curvature="0" /></g><g
               id="g997"
               transform="translate(260.2784,776.0227)"><path
                 d="m 0,0 c -0.369,-0.033 -0.731,-0.236 -0.751,-0.725 -0.014,-0.004 -0.04,-0.009 -0.083,-0.009 h -0.008 l -0.007,-0.001 h -0.012 c -0.143,0 -0.313,0.036 -0.313,0.208 v 5.529 c 0.004,0.065 0.056,0.486 0.57,0.486 h 0.01 l 0.009,10e-4 c 0.003,0 0.026,0.002 0.061,0.002 C -0.177,5.491 0,5.336 0,5.032 Z m 6.135,-1.28 c 0,0 0.015,2.884 -0.28,4.147 0,0 -1.599,6.212 -6.621,6.212 -0.14,0 -0.283,-0.005 -0.429,-0.014 h -0.009 c -0.249,0 -5.481,-0.078 -5.605,-6.605 0,0 -0.084,-5.871 5.656,-6.972 0,0 0.145,-0.015 0.342,-0.015 0.342,0 0.841,0.044 1.038,0.284 l -0.008,-3.53 c 0,0 0.064,-1.508 -1.308,-1.692 0,0 -0.048,-0.013 -0.092,-0.013 -0.028,0 -0.054,0.005 -0.066,0.022 0,0 -0.036,0.07 0.049,0.141 0.107,0.088 0.177,0.238 0.247,0.352 0.2,0.328 0.355,0.674 0.389,1.057 0.048,0.536 0.04,1.113 -0.196,1.613 -0.083,0.176 -0.196,0.346 -0.31,0.506 -0.143,0.204 -0.322,0.377 -0.509,0.543 -0.233,0.208 -0.484,0.387 -0.756,0.548 -0.035,0.021 -0.071,0.042 -0.107,0.062 0,0 -0.712,0.426 -1.604,0.426 -0.569,0 -1.21,-0.172 -1.789,-0.737 -0.562,-0.549 -0.756,-1.464 -0.692,-2.206 0.05,-0.592 0.238,-1.09 0.502,-1.618 0.245,-0.492 0.498,-1.036 0.539,-1.587 0,0 0.072,-0.489 -0.139,-0.819 l 1.383,-1.373 0.977,0.834 c 0,0 0.085,0.087 0.199,0.087 0.061,0 0.13,-0.024 0.198,-0.099 0,0 1.156,-1.064 3.216,-1.064 0.062,0 0.123,10e-4 0.186,0.002 0,0 0.011,0 0.032,0 0.391,0 4.25,0.22 5.371,8.847 0,0 0.796,0.242 0.796,1.363 0,0 0,0.877 -0.6,1.298"
                 style="fill:#ffffff;fill-opacity:1;fill-rule:nonzero;stroke:none"
                 id="path999"
                 inkscape:connector-curvature="0" /></g><g
               id="g1001"
               transform="translate(276.6727,771.8212)"><path
                 d="m 0,0 c -0.042,0 -0.083,-0.001 -0.125,-0.004 -0.412,-0.026 -0.891,-0.193 -1.238,-0.408 0,0 -1.224,-0.693 -1.181,-2.262 0,0 -0.043,-0.755 0.738,-1.591 0,0 0.135,-0.185 -0.022,-0.347 0,0 -0.21,-0.305 -0.569,-0.305 0,0 -0.548,0.024 -0.548,0.449 v 5.605 h 4.02 l -1.108,1.254 c 0,0 -0.155,0.145 0.029,0.305 l 0.668,0.689 c 0,0 0.187,0.256 -0.07,0.474 L -0.571,4.96 h -2.387 v 3.5 c 0,0 -0.009,0.668 0.54,0.668 0,0 0.401,-0.061 0.106,-0.55 -0.111,-0.185 -0.095,-0.523 -0.092,-0.722 0.007,-0.605 0.227,-1.169 0.656,-1.613 0.683,-0.71 1.619,-1.18 2.577,-1.18 0.462,0 0.929,0.111 1.375,0.355 0,0 1.056,0.734 1.014,2.059 0,0 0,0.856 -0.57,1.875 0,0 -0.358,1.163 0.346,2.097 l -1.369,1.48 -0.847,-0.74 c 0,0 -0.095,-0.078 -0.234,-0.078 -0.08,0 -0.175,0.026 -0.273,0.107 0,0 -1.388,0.827 -2.891,0.827 -0.052,0 -0.104,-0.002 -0.157,-0.003 0,0 -0.017,10e-4 -0.049,10e-4 -0.241,0 -1.341,-0.048 -2.589,-0.857 0,0 -0.087,-0.076 -0.2,-0.076 -0.062,0 -0.133,0.023 -0.201,0.096 0,0 -0.691,0.55 -1.799,0.55 l -2.583,0.014 v -2.109 l 1.333,-1.496 h 0.79 V 4.073 H -8.37 c 0,0 -0.579,-0.019 -0.579,-0.833 0,-0.813 0.896,-1.247 0.896,-1.247 v -5.901 c 0,0 0.142,-1.222 -1.062,-1.222 h -1.095 v -2.172 l 1.166,-1.304 h 1.265 c 0,0 1.267,0 2.385,1.264 0,0 0.95,-1.345 3.082,-1.345 0,0 1.73,-0.001 2.954,1.059 l 1.689,-1.284 c 0,0 -0.18,1.304 0.042,2.069 0,0 0.16,0.759 0.78,1.957 0.436,0.842 0.325,2.001 -0.17,2.783 C 2.389,-1.166 1.246,0 0,0"
                 style="fill:#ffffff;fill-opacity:1;fill-rule:nonzero;stroke:none"
                 id="path1003"
                 inkscape:connector-curvature="0" /></g><g
               id="g1005"
               transform="translate(302.5952,777.3923)"><path
                 d="m 0,0 c 0.27,-0.245 0.013,-0.303 0.013,-0.303 -0.037,0.003 -0.073,0.005 -0.107,0.005 -0.444,0 -0.637,-0.269 -0.637,-0.269 -1.086,0.718 -1.287,2.08 -1.287,2.08 -0.224,1.296 0.737,1.548 0.968,1.667 0.092,0.048 0.161,0.062 0.21,0.062 0.074,0 0.104,-0.032 0.104,-0.032 C -0.625,3.134 -0.704,2.935 -0.704,2.935 -1.306,1.513 0,0 0,0 m 1.575,-2.131 c 0,0 0.08,0.629 -0.333,1.146 0,0 0.537,-0.227 1.151,-0.227 0.415,0 0.864,0.102 1.208,0.447 0,0 2.311,1.499 0.444,5.106 0,0 -0.475,0.887 0.19,1.437 L 2.873,7.124 2.227,6.527 c 0,0 -0.087,-0.107 -0.219,-0.107 -0.076,0 -0.165,0.034 -0.263,0.14 0,0 -1.183,0.747 -3.177,0.747 h -0.007 c -0.212,0 -5.407,-0.058 -5.407,-5.809 0,0 -0.274,-3.057 3.356,-5.545 0,0 0.238,-0.136 0.139,-0.304 0,0 -0.488,-0.633 0.399,-1.092 0,0 0.443,-0.181 0.971,-0.181 0.282,0 0.589,0.052 0.865,0.211 0,0 2.786,-2.17 1.52,-4.586 0,0 -0.426,-0.803 -1.202,-0.803 -0.216,0 -0.46,0.062 -0.729,0.222 10e-4,-10e-4 0.003,-10e-4 0.005,-10e-4 0.098,0 0.302,1.424 0.295,1.51 -0.085,1.103 -0.77,2.121 -1.658,2.786 -0.456,0.343 -1.029,0.502 -1.605,0.503 -1.252,0 -2.523,-0.754 -2.673,-2.031 -0.07,-0.593 0.05,-1.32 0.254,-1.88 0,0 1.496,-2.369 0.716,-3.585 l 1.093,-1.116 1.476,1.385 c 0,0 1.527,-1.434 3.722,-1.434 h 0.011 c 0.281,0 5.432,0.077 5.35,5.749 0,0 0.422,4.076 -3.884,6.563"
                 style="fill:#ffffff;fill-opacity:1;fill-rule:nonzero;stroke:none"
                 id="path1007"
                 inkscape:connector-curvature="0" /></g><g
               id="g1009"
               transform="translate(276.9523,770.9373)"><path
                 d="m 0,0 c -0.859,0.197 -1.656,-0.465 -1.862,-1.207 -0.195,-0.706 0.1,-1.471 0.79,-2.044 l 0.093,-0.077 -0.034,-0.114 c -0.005,-0.016 -0.495,-1.565 -2.08,-1.569 -0.154,-0.012 -1.49,-0.059 -1.941,1.486 l -0.007,0.024 -0.02,6.379 v 0.956 l 1.889,-0.002 h 0.952 l -0.363,0.519 0.445,0.567 h -1.525 v 10e-4 l -1.398,0.004 v 5.248 l 0.003,0.017 c 0.327,1.699 2.111,1.617 2.129,1.617 v 0 c 1.418,0 1.823,-0.994 1.84,-1.036 L -1.051,10.672 -1.119,10.59 C -1.671,9.918 -1.94,9.173 -1.84,8.598 -1.772,8.205 -1.535,7.881 -1.135,7.635 -0.833,7.449 -0.281,7.376 0.093,7.47 0.476,7.568 0.751,7.771 0.933,8.09 1.347,8.815 1.182,10.033 0.889,10.93 L 0.884,10.949 C 0.828,11.222 0.76,11.751 0.719,12.095 L 0.123,11.652 0.005,11.755 c -1.434,1.254 -2.925,1.269 -2.939,1.269 -1.291,0.076 -2.885,-0.998 -2.902,-1.009 l -0.126,-0.087 -0.113,0.103 c -0.9,0.818 -1.999,0.883 -2.01,0.883 h -1.533 v -0.868 l 0.573,-10e-4 c 1.484,-0.183 1.501,-1.513 1.501,-1.526 V 4.429 H -7.545 V 4.002 l -0.006,-7.139 c -0.032,-0.598 -0.385,-1.739 -1.482,-1.852 l -0.02,-0.001 h -0.598 v -0.944 h 0.799 l 0.025,-0.007 c 0.002,0 0.737,-0.138 2.228,1.185 l 0.16,0.141 0.124,-0.171 c 0.01,-0.013 1.026,-1.36 3.04,-1.36 0.016,0 1.576,0.02 2.748,1.272 l 0.135,0.143 0.879,-0.849 c 0.04,0.37 0.126,0.947 0.302,1.522 0.348,1.14 0.684,2.558 0.173,3.408 C 0.761,-0.314 0.446,-0.101 0,0"
                 style="fill:#ab1b2c;fill-opacity:1;fill-rule:nonzero;stroke:none"
                 id="path1011"
                 inkscape:connector-curvature="0" /></g><g
               id="g1013"
               transform="translate(261.2336,781.8427)"><path
                 d="m 0,0 v -7.005 -0.004 c 0,0 -0.433,-0.324 -0.767,-0.324 0,0 -0.148,-0.02 -0.287,0.04 l -0.541,-0.212 c -0.192,-0.04 -0.371,-0.058 -0.537,-0.058 -1.489,-0.001 -1.932,1.475 -1.937,1.492 l -0.006,0.024 V -0.17 C -3.9,1.686 -2.066,1.676 -2.05,1.673 -0.13,1.539 -0.001,0.027 0,0.012 Z M -1.934,2.49 C -3.442,2.413 -4.637,1.906 -5.482,0.983 c -1.591,-1.737 -1.419,-4.386 -1.417,-4.412 0.177,-2.001 0.813,-3.46 1.888,-4.333 1.163,-0.945 2.451,-0.849 2.465,-0.848 l 0.016,10e-4 c 1.387,0 2.251,0.497 2.259,0.502 l 0.288,0.17 0.024,-5.916 c 0.024,-1.062 -0.681,-1.627 -0.811,-1.722 -0.814,-0.863 -2.213,-0.238 -2.272,-0.211 -1.045,0.544 -0.68,1.858 -0.665,1.914 l 0.017,0.038 c 0.223,0.392 0.318,1.144 0.328,1.235 -0.002,0.614 -0.171,1.078 -0.503,1.381 -0.468,0.427 -1.117,0.395 -1.124,0.395 -0.513,0 -0.909,-0.144 -1.188,-0.428 -0.526,-0.536 -0.485,-1.407 -0.485,-1.416 0,-0.868 0.622,-2.033 0.677,-2.134 0.212,-0.313 0.322,-0.751 0.377,-1.052 l 0.583,0.473 0.121,-0.15 c 1.336,-1.659 2.868,-1.687 2.884,-1.687 4.72,-0.188 5.227,9.22 5.232,9.314 l 0.091,0.731 0.011,0.513 C 3.252,-2.972 2.282,-0.31 2.273,-0.282 1.196,2.529 -1.806,2.492 -1.934,2.49"
                 style="fill:#ab1b2c;fill-opacity:1;fill-rule:nonzero;stroke:none"
                 id="path1015"
                 inkscape:connector-curvature="0" /></g><g
               id="g1017"
               transform="translate(245.576,772.8228)"><path
                 d="m 0,0 h -3.635 c -0.067,0 -0.128,0.033 -0.163,0.089 -0.034,0.054 -0.036,0.123 -0.005,0.18 l 3.611,6.635 C -0.151,6.979 -0.063,7.017 0.022,6.998 0.107,6.977 0.167,6.903 0.167,6.819 V 2.607 H 0.165 V 2.358 L 0.176,1.361 0.19,0.183 C 0.19,0.082 0.105,0 0,0 M 2.724,-0.032 V 0 H 2.682 L 2.681,2.286 V 2.581 H 2.678 v 6.024 c 0,1.234 1.015,1.56 1.552,1.56 h 0.316 v 1.07 H 3.945 c -0.979,0 -1.812,-0.907 -1.82,-0.916 L 1.991,10.172 1.848,10.31 c -0.621,0.6 -1.315,0.844 -1.602,0.925 L -5.7,-0.062 V -1.39 h 5.836 v -3.657 c 0,-1.623 -1.458,-1.641 -1.473,-1.641 h -0.565 v -0.945 h 1.32 c 0.59,0 1.46,0.798 1.745,1.105 l 0.141,0.152 0.142,-0.151 c 1.083,-1.16 2.195,-1.227 2.206,-1.228 l 0.783,0.001 v 0.993 l -0.329,0.005 c -1.39,0.295 -1.407,1.255 -1.407,1.296 v 4.192 h 2.535 l -0.39,0.52 0.522,0.716 z"
                 style="fill:#ab1b2c;fill-opacity:1;fill-rule:nonzero;stroke:none"
                 id="path1019"
                 inkscape:connector-curvature="0" /></g><g
               id="g1021"
               transform="translate(303.168,774.8831)"><path
                 d="m 0,0 -1.605,1.255 c -0.878,0.621 -1.641,1.481 -1.68,1.524 -0.53,0.555 -0.676,1.288 -0.705,1.805 -0.047,0.847 0.039,1.457 0.263,1.863 0.215,0.39 0.692,0.76 1.044,0.939 0.602,0.306 1.341,0.286 2.081,-0.056 C -0.593,7.326 0.327,6.844 0.362,6.65 L 0.378,6.557 0.308,6.486 C 0.094,6.279 -0.106,6.021 -0.254,5.76 -0.565,5.208 -0.827,4.386 -0.304,3.609 -0.075,3.27 0.516,3.004 0.904,2.978 1.759,2.921 2.532,3.571 2.62,4.431 2.684,5.047 2.506,5.627 2.319,6.242 2.211,6.592 2.101,6.954 2.039,7.325 1.994,7.592 1.955,7.861 1.923,8.127 L 1.272,7.578 1.148,7.722 C -0.687,9.849 -3.714,8.579 -3.745,8.566 -6.888,7.227 -6.525,3.817 -6.508,3.672 l 0.002,-0.021 c 0,-2.038 2.652,-4.254 3.59,-4.974 l 0.347,-0.183 0.54,-0.218 0.558,-0.306 c 0.111,-0.074 2.715,-1.843 2.387,-4.728 -0.005,-0.048 -0.134,-1.207 -0.991,-1.837 -0.468,-0.344 -1.056,-0.461 -1.749,-0.346 -0.054,0.009 -1.331,0.233 -2.218,1.483 l -0.083,0.117 0.097,0.107 c 0.005,0.006 0.485,0.546 0.485,1.352 l 0.001,0.017 c 10e-4,0.007 0.061,0.722 -0.385,1.212 -0.27,0.295 -0.675,0.454 -1.207,0.472 -0.055,-0.001 -1.544,0.005 -1.647,-1.593 0.015,-0.118 0.136,-0.968 0.559,-1.464 0.028,-0.036 0.512,-0.669 0.625,-1.616 l 0.467,0.551 0.147,-0.166 c 0.019,-0.021 1.882,-2.087 4.099,-1.924 0.153,0.006 3.58,0.181 4.084,3.714 l 0.003,0.018 C 3.246,-6.487 4.22,-2.333 0,0"
                 style="fill:#ab1b2c;fill-opacity:1;fill-rule:nonzero;stroke:none"
                 id="path1023"
                 inkscape:connector-curvature="0" /></g><g
               id="g1025"
               transform="translate(287.8417,775.8252)"><path
                 d="m 0,0 -1.544,0.005 h -0.383 l 0.003,5.205 c 0.051,1.733 1.841,2.07 1.859,2.073 l 0.034,0.003 c 1.573,0 1.976,-1.315 1.98,-1.329 L 1.956,5.933 V 1.716 C 1.956,0.418 0.676,0.026 0,0 m 4.502,-8.439 v 5.105 c -0.002,0.08 -0.064,2.055 -2.286,2.75 l -0.427,0.135 0.398,0.202 C 2.281,-0.198 4.499,0.981 4.54,4.168 4.535,4.329 4.371,8.296 0.475,8.339 L 0.459,8.34 C 0.448,8.341 -0.924,8.43 -2.478,6.852 L -2.652,6.675 -2.78,6.887 C -2.809,6.934 -3.509,8.059 -4.979,8.059 H -6.604 V 7.162 h 0.991 c 0.01,0.001 0.444,0.017 0.772,-0.286 0.23,-0.213 0.347,-0.521 0.347,-0.916 v -6.401 h -0.001 v -0.295 l 0.022,-7.234 c 10e-4,-0.034 0.021,-0.944 -0.562,-1.523 -0.306,-0.305 -0.718,-0.459 -1.224,-0.459 h -0.395 v -0.79 h 1.106 c 0.086,0.008 1.169,0.111 1.98,0.826 l 0.139,0.122 0.128,-0.132 c 0.008,-0.008 0.779,-0.79 1.484,-0.79 h 1.219 v 0.677 c -0.57,0.075 -1.409,0.421 -1.409,1.349 v 7.282 h 0.378 l 2.18,-0.001 c 0.462,-0.037 1.334,-0.383 1.334,-1.427 v -7.895 c 0.222,0.008 0.715,0.118 1.38,0.8 l 0.152,0.156 0.136,-0.17 c 0.007,-0.008 0.728,-0.893 1.493,-0.893 h 1.132 v 0.658 c -0.275,0.011 -0.769,0.081 -1.153,0.418 -0.347,0.305 -0.523,0.75 -0.523,1.323"
                 style="fill:#ab1b2c;fill-opacity:1;fill-rule:nonzero;stroke:none"
                 id="path1027"
                 inkscape:connector-curvature="0" /></g><g
               id="g1029"
               transform="translate(278.1056,766.7759)"><path
                 d="m 0,0 c -0.137,-0.449 -0.217,-0.906 -0.263,-1.252 -0.006,-0.044 -0.011,-0.085 -0.016,-0.125 -0.009,-0.075 -0.016,-0.142 -0.022,-0.202 -0.003,-0.034 -0.006,-0.066 -0.008,-0.094 -0.009,-0.102 -0.012,-0.163 -0.012,-0.165 v -0.008 l -0.018,-0.407 -1.197,1.154 C -2.09,-1.64 -2.7,-1.948 -3.216,-2.122 -3.31,-2.154 -3.399,-2.18 -3.486,-2.203 c -0.103,-0.028 -0.2,-0.051 -0.29,-0.069 -0.022,-0.005 -0.045,-0.01 -0.066,-0.014 -0.336,-0.063 -0.561,-0.065 -0.586,-0.065 -0.79,0 -1.437,0.184 -1.944,0.425 -0.073,0.034 -0.142,0.069 -0.209,0.106 -0.267,0.145 -0.489,0.302 -0.666,0.447 -0.177,0.146 -0.31,0.279 -0.399,0.377 0,0 -0.001,0 -0.001,-0.001 -0.083,-0.071 -0.163,-0.136 -0.241,-0.198 -0.026,-0.021 -0.05,-0.039 -0.076,-0.059 -0.053,-0.04 -0.104,-0.081 -0.155,-0.118 -0.028,-0.02 -0.055,-0.04 -0.082,-0.059 -0.047,-0.034 -0.094,-0.066 -0.14,-0.097 -0.025,-0.017 -0.051,-0.035 -0.076,-0.051 -0.048,-0.031 -0.095,-0.061 -0.141,-0.089 -0.02,-0.012 -0.039,-0.025 -0.058,-0.036 -0.064,-0.038 -0.126,-0.073 -0.186,-0.105 -0.01,-0.006 -0.019,-0.01 -0.029,-0.015 -0.049,-0.026 -0.098,-0.051 -0.144,-0.073 -0.02,-0.009 -0.038,-0.017 -0.057,-0.026 -0.036,-0.016 -0.071,-0.032 -0.106,-0.046 -0.019,-0.008 -0.038,-0.016 -0.056,-0.023 -0.033,-0.013 -0.065,-0.025 -0.096,-0.036 -0.016,-0.006 -0.033,-0.012 -0.049,-0.018 -0.034,-0.011 -0.067,-0.021 -0.099,-0.03 -0.01,-0.003 -0.022,-0.007 -0.032,-0.01 -0.041,-0.011 -0.08,-0.021 -0.117,-0.029 -0.01,-0.002 -0.018,-0.003 -0.027,-0.004 -0.027,-0.006 -0.054,-0.011 -0.079,-0.015 -0.012,-0.002 -0.023,-0.003 -0.035,-0.005 -0.02,-0.002 -0.04,-0.005 -0.059,-0.006 -0.011,-10e-4 -0.022,-0.002 -0.032,-0.003 -0.018,-10e-4 -0.035,-0.002 -0.051,-0.002 -0.009,-10e-4 -0.017,-10e-4 -0.025,-10e-4 -0.003,0 -0.006,0 -0.009,0 -0.006,0 -0.01,0 -0.016,0 -0.023,10e-4 -0.043,10e-4 -0.062,0.003 -0.006,0 -0.012,0.001 -0.018,0.002 -0.02,0.002 -0.038,0.004 -0.052,0.007 h -1.133 v 1.677 h 0.968 c 0.913,0.102 1.096,1.16 1.128,1.433 0.005,0.039 0.006,0.062 0.006,0.064 L -9.084,7.94 C -9.207,7.884 -9.343,7.84 -9.466,7.84 v 0 c -0.001,0 -0.005,0 -0.012,-10e-4 -0.002,0 -0.003,0 -0.006,0 -0.01,-0.001 -0.024,-0.002 -0.04,-0.002 -0.002,0 -0.003,0 -0.005,0 -0.002,0 -0.004,0 -0.005,0 -0.017,0 -0.035,0.001 -0.055,0.003 -10e-4,0 -0.002,0 -0.002,0 -0.019,0.002 -0.04,0.005 -0.061,0.009 -0.005,0.002 -0.01,0.003 -0.016,0.004 -0.022,0.005 -0.045,0.012 -0.067,0.021 -0.004,0.001 -0.007,0.003 -0.011,0.004 -0.02,0.009 -0.04,0.019 -0.06,0.031 C -9.811,7.912 -9.815,7.915 -9.82,7.918 -9.841,7.932 -9.861,7.95 -9.881,7.97 -9.884,7.974 -9.888,7.979 -9.892,7.983 -9.909,8.003 -9.924,8.025 -9.938,8.051 -9.94,8.055 -9.942,8.058 -9.944,8.062 -9.958,8.091 -9.969,8.124 -9.978,8.16 -9.98,8.169 -9.982,8.177 -9.984,8.186 -9.991,8.225 -9.996,8.267 -9.996,8.316 v 0.002 c 0,0.001 -10e-4,0.001 -10e-4,0.003 0,0.002 0,0.003 0,0.005 v 0.011 c 0,0.002 0,0.005 0,0.009 0,0.004 10e-4,0.009 10e-4,0.015 0,0.004 0.001,0.008 0.001,0.012 10e-4,0.006 0.002,0.013 0.003,0.019 0.001,0.005 0.002,0.01 0.003,0.015 0.001,0.007 0.003,0.015 0.005,0.024 0.002,0.004 0.003,0.009 0.004,0.015 0.003,0.009 0.008,0.02 0.012,0.03 10e-4,0.004 0.003,0.007 0.004,0.011 0.007,0.014 0.014,0.029 0.024,0.043 10e-4,0.003 0.004,0.006 0.006,0.009 0.008,0.012 0.016,0.023 0.026,0.034 0.004,0.005 0.009,0.009 0.014,0.014 0.008,0.009 0.018,0.018 0.028,0.027 0.006,0.005 0.013,0.01 0.02,0.015 0.01,0.008 0.022,0.016 0.034,0.023 0.008,0.005 0.016,0.01 0.025,0.014 0.013,0.007 0.028,0.013 0.043,0.02 0.01,0.004 0.019,0.008 0.029,0.011 0.017,0.006 0.037,0.011 0.056,0.017 0.011,0.002 0.02,0.005 0.031,0.007 0.028,0.006 0.058,0.011 0.09,0.014 0.004,0.001 0.008,0.001 0.012,0.002 0.035,0.003 0.072,0.005 0.112,0.005 0.002,0 0.005,-0.001 0.007,-0.001 0.031,0 0.066,-0.002 0.1,-0.005 C -9.289,8.735 -9.273,8.735 -9.254,8.733 -9.2,8.728 -9.141,8.72 -9.078,8.709 v 5.972 c 0,0.007 -0.001,0.048 -0.009,0.109 -0.006,0.041 -0.016,0.091 -0.03,0.148 -0.015,0.057 -0.036,0.119 -0.065,0.184 -0.028,0.065 -0.064,0.132 -0.111,0.199 -0.023,0.033 -0.048,0.066 -0.077,0.099 -0.056,0.065 -0.124,0.127 -0.205,0.183 -0.081,0.057 -0.175,0.107 -0.284,0.147 -0.109,0.041 -0.234,0.072 -0.375,0.091 h -0.917 v 1.601 h 1.923 c 0.007,0 0.03,-0.001 0.068,-0.005 0.076,-0.007 0.208,-0.023 0.378,-0.059 0.212,-0.046 0.485,-0.122 0.78,-0.252 0.178,-0.077 0.363,-0.174 0.549,-0.294 0.125,-0.081 0.249,-0.171 0.372,-0.274 0.004,0.003 0.011,0.007 0.016,0.01 0.022,0.014 0.044,0.028 0.071,0.044 0.012,0.008 0.027,0.017 0.04,0.025 0.022,0.013 0.043,0.026 0.068,0.04 0.015,0.009 0.033,0.019 0.049,0.029 0.025,0.014 0.05,0.028 0.077,0.044 0.019,0.01 0.04,0.022 0.06,0.033 0.027,0.015 0.053,0.03 0.082,0.045 0.023,0.013 0.047,0.025 0.071,0.038 0.029,0.015 0.057,0.03 0.087,0.045 0.025,0.013 0.052,0.026 0.078,0.039 0.031,0.016 0.062,0.031 0.094,0.047 0.028,0.013 0.056,0.026 0.085,0.039 0.032,0.016 0.065,0.031 0.099,0.046 0.029,0.014 0.06,0.027 0.09,0.04 0.035,0.015 0.069,0.03 0.105,0.045 0.031,0.012 0.063,0.025 0.095,0.038 0.036,0.014 0.072,0.028 0.108,0.042 0.033,0.013 0.066,0.025 0.1,0.037 0.037,0.013 0.074,0.026 0.112,0.039 0.034,0.011 0.068,0.022 0.102,0.033 0.038,0.012 0.077,0.024 0.116,0.035 0.035,0.01 0.069,0.02 0.104,0.029 0.039,0.01 0.079,0.02 0.118,0.03 0.035,0.008 0.07,0.016 0.105,0.024 0.04,0.008 0.08,0.016 0.12,0.023 0.035,0.007 0.071,0.013 0.106,0.018 0.04,0.006 0.08,0.012 0.12,0.016 0.036,0.005 0.071,0.009 0.107,0.012 0.04,0.004 0.08,0.006 0.12,0.008 0.035,0.001 0.07,0.003 0.105,0.003 0.012,0.001 0.025,0.002 0.037,0.002 0.053,0 0.106,-0.002 0.158,-0.005 0.01,0 0.076,-10e-4 0.186,-0.011 0.061,-0.006 0.137,-0.015 0.224,-0.028 0.069,-0.011 0.145,-0.024 0.227,-0.041 0.205,-0.041 0.451,-0.106 0.723,-0.204 0.063,-0.022 0.127,-0.047 0.193,-0.073 0.463,-0.187 0.987,-0.469 1.511,-0.905 l 0.348,0.259 0.535,0.398 0.024,-0.217 0.012,-0.109 c 0,-0.001 0.002,-0.018 0.005,-0.048 0.005,-0.044 0.013,-0.116 0.024,-0.206 0.021,-0.18 0.051,-0.43 0.084,-0.666 0.01,-0.078 0.022,-0.155 0.033,-0.227 0.016,-0.108 0.033,-0.205 0.048,-0.281 0.088,-0.271 0.268,-0.897 0.303,-1.577 0.003,-0.075 0.006,-0.151 0.006,-0.228 0,-0.458 -0.076,-0.925 -0.297,-1.312 -0.116,-0.204 -0.265,-0.373 -0.444,-0.506 -0.09,-0.066 -0.188,-0.124 -0.293,-0.173 -0.106,-0.049 -0.219,-0.088 -0.339,-0.119 -0.067,-0.017 -0.138,-0.029 -0.21,-0.038 -0.023,-0.002 -0.047,-0.004 -0.071,-0.005 -0.051,-0.005 -0.101,-0.008 -0.153,-0.009 -0.012,0 -0.023,-0.002 -0.034,-0.002 -0.033,0 -0.066,0.002 -0.099,0.003 -0.011,10e-4 -0.022,10e-4 -0.032,10e-4 -0.062,0.004 -0.122,0.01 -0.183,0.017 -0.015,0.002 -0.029,0.005 -0.044,0.007 -0.049,0.007 -0.097,0.016 -0.145,0.026 -0.015,0.003 -0.029,0.006 -0.043,0.009 -0.059,0.014 -0.116,0.03 -0.171,0.047 -0.01,0.003 -0.019,0.007 -0.029,0.01 -0.046,0.016 -0.09,0.033 -0.133,0.052 -0.014,0.006 -0.028,0.011 -0.042,0.018 -0.049,0.023 -0.097,0.047 -0.141,0.074 h -0.001 c -0.061,0.038 -0.12,0.078 -0.175,0.119 -0.056,0.041 -0.108,0.084 -0.157,0.129 -0.098,0.088 -0.184,0.184 -0.257,0.285 -0.073,0.101 -0.134,0.208 -0.181,0.322 -0.024,0.056 -0.044,0.114 -0.062,0.174 -0.017,0.06 -0.031,0.121 -0.042,0.183 -0.054,0.312 -0.021,0.654 0.088,1.006 0.063,0.205 0.15,0.414 0.265,0.622 0.104,0.189 0.228,0.376 0.372,0.561 -0.038,0.065 -0.102,0.159 -0.201,0.257 -0.099,0.099 -0.233,0.202 -0.41,0.285 -0.213,0.099 -0.487,0.17 -0.839,0.17 -0.004,0.001 -0.013,0.001 -0.023,0.001 h -0.012 c -0.009,0 -0.021,0 -0.033,0 -0.009,0 -0.018,0 -0.029,0 -0.013,-0.001 -0.027,-0.001 -0.043,-0.002 -0.011,0 -0.023,-10e-4 -0.036,-0.002 C -4.287,15.596 -4.306,15.594 -4.325,15.592 -4.339,15.591 -4.353,15.59 -4.368,15.588 -4.389,15.586 -4.413,15.582 -4.436,15.579 -4.451,15.577 -4.465,15.575 -4.48,15.573 -4.51,15.568 -4.542,15.561 -4.574,15.554 -4.585,15.552 -4.595,15.551 -4.605,15.548 -4.648,15.538 -4.693,15.527 -4.738,15.513 -4.75,15.509 -4.761,15.505 -4.773,15.501 -4.807,15.49 -4.842,15.478 -4.877,15.465 -4.894,15.458 -4.911,15.45 -4.927,15.443 -4.958,15.43 -4.987,15.417 -5.017,15.402 -5.036,15.393 -5.055,15.382 -5.074,15.372 -5.102,15.356 -5.13,15.341 -5.158,15.323 -5.177,15.311 -5.196,15.297 -5.216,15.284 -5.242,15.266 -5.268,15.246 -5.294,15.226 -5.313,15.21 -5.332,15.194 -5.351,15.178 -5.376,15.156 -5.4,15.132 -5.424,15.108 -5.442,15.089 -5.46,15.071 -5.477,15.051 -5.5,15.024 -5.523,14.995 -5.545,14.966 -5.56,14.945 -5.576,14.924 -5.592,14.901 -5.613,14.869 -5.633,14.834 -5.653,14.798 -5.665,14.775 -5.679,14.752 -5.692,14.727 -5.712,14.686 -5.729,14.641 -5.746,14.596 -5.755,14.572 -5.765,14.551 -5.773,14.527 -5.797,14.456 -5.818,14.381 -5.834,14.3 c 0,-0.001 0,-0.001 0,-0.002 V 9.447 h 1.018 0.196 2.092 L -2.708,9.216 -3.269,8.5 -3.062,8.204 -2.657,7.626 H -4.023 -4.605 -5.807 L -5.814,7.07 V 0.712 C -5.792,0.636 -5.766,0.566 -5.738,0.499 -5.729,0.477 -5.719,0.457 -5.71,0.437 -5.69,0.393 -5.67,0.351 -5.649,0.312 -5.637,0.29 -5.625,0.269 -5.613,0.248 -5.592,0.214 -5.571,0.18 -5.55,0.149 -5.536,0.13 -5.523,0.111 -5.509,0.092 c 0.022,-0.03 0.045,-0.058 0.069,-0.085 0.013,-0.015 0.027,-0.031 0.04,-0.046 0.027,-0.028 0.054,-0.054 0.081,-0.078 0.011,-0.01 0.022,-0.021 0.033,-0.031 0.039,-0.033 0.078,-0.063 0.117,-0.09 0.007,-0.004 0.014,-0.008 0.021,-0.012 0.032,-0.022 0.065,-0.042 0.098,-0.06 0.014,-0.008 0.028,-0.014 0.042,-0.021 0.026,-0.013 0.051,-0.025 0.076,-0.036 0.015,-0.007 0.03,-0.013 0.045,-0.018 0.024,-0.01 0.048,-0.019 0.071,-0.026 0.014,-0.005 0.029,-0.01 0.043,-0.014 0.023,-0.007 0.047,-0.013 0.069,-0.019 0.013,-0.003 0.025,-0.006 0.037,-0.009 0.026,-0.006 0.05,-0.01 0.074,-0.014 0.008,-0.002 0.016,-0.003 0.024,-0.004 0.031,-0.005 0.06,-0.008 0.087,-0.011 0.007,-0.001 0.013,-0.001 0.019,-0.001 0.02,-0.002 0.039,-0.003 0.057,-0.004 0.008,0 0.015,0 0.023,0 0.013,0 0.024,-0.001 0.035,0 0.014,0 0.027,0 0.037,0 0.004,0.001 0.01,0.001 0.013,0.001 0.012,0.001 0.021,0.002 0.024,0.002 v 0 l 0.021,0.001 c 0.339,0 0.618,0.087 0.845,0.215 0.182,0.103 0.33,0.234 0.45,0.367 0.089,0.101 0.163,0.203 0.222,0.299 0.079,0.127 0.133,0.241 0.165,0.318 -0.275,0.248 -0.489,0.524 -0.638,0.814 -0.099,0.195 -0.169,0.395 -0.208,0.599 -0.02,0.102 -0.032,0.204 -0.036,0.307 -0.002,0.051 -0.002,0.103 -0.001,0.154 0.006,0.154 0.029,0.308 0.071,0.46 0,0.001 10e-4,0.002 10e-4,0.002 0.015,0.053 0.032,0.105 0.052,0.157 0.006,0.017 0.014,0.035 0.022,0.052 0.014,0.035 0.028,0.07 0.045,0.104 0.009,0.02 0.02,0.04 0.03,0.06 0.017,0.031 0.033,0.062 0.051,0.092 0.012,0.02 0.024,0.04 0.037,0.06 0.018,0.03 0.038,0.058 0.057,0.087 0.014,0.02 0.028,0.039 0.042,0.058 0.022,0.028 0.044,0.056 0.066,0.083 0.015,0.018 0.03,0.036 0.045,0.054 0.025,0.028 0.052,0.056 0.079,0.083 0.014,0.015 0.028,0.03 0.043,0.044 0.037,0.037 0.076,0.071 0.116,0.105 0.005,0.004 0.01,0.009 0.015,0.014 0.046,0.037 0.093,0.072 0.141,0.106 0.016,0.011 0.033,0.021 0.049,0.032 0.033,0.021 0.067,0.043 0.101,0.063 0.02,0.011 0.041,0.022 0.061,0.033 0.032,0.017 0.064,0.033 0.097,0.048 0.022,0.011 0.045,0.02 0.067,0.03 0.033,0.013 0.066,0.026 0.099,0.038 0.023,0.008 0.047,0.016 0.07,0.024 0.035,0.011 0.07,0.02 0.105,0.029 0.023,0.006 0.046,0.012 0.069,0.017 0.038,0.007 0.077,0.013 0.116,0.019 0.021,0.003 0.042,0.007 0.063,0.009 0.052,0.005 0.105,0.008 0.159,0.009 0.008,0 0.015,10e-4 0.024,10e-4 0,0 0.001,0 0.002,0 0.042,0 0.085,-0.004 0.129,-0.007 0.022,-0.002 0.043,-0.001 0.065,-0.003 0.066,-0.008 0.133,-0.019 0.199,-0.034 0.069,-0.016 0.135,-0.034 0.198,-0.054 0.128,-0.041 0.246,-0.091 0.356,-0.15 0.085,-0.047 0.163,-0.1 0.238,-0.158 C -0.11,4.03 0.029,3.877 0.137,3.696 0.247,3.514 0.323,3.313 0.373,3.098 0.39,3.026 0.403,2.953 0.414,2.879 0.436,2.73 0.447,2.576 0.448,2.419 0.455,1.632 0.231,0.757 0,0 m -1.433,5.045 c -0.041,0 -0.083,-0.001 -0.125,-0.003 -0.412,-0.027 -0.89,-0.194 -1.237,-0.409 0,0 -1.225,-0.693 -1.182,-2.262 0,0 -0.043,-0.755 0.738,-1.59 0,0 0.135,-0.186 -0.022,-0.348 0,0 -0.21,-0.304 -0.568,-0.304 0,0 -0.549,0.024 -0.549,0.448 v 5.605 h 4.02 l -1.108,1.254 c 0,0 -0.154,0.145 0.029,0.305 l 0.668,0.689 c 0,0 0.187,0.257 -0.07,0.474 l -1.165,1.101 H -4.39 v 3.5 c 0,0 -0.009,0.668 0.54,0.668 0,0 0.4,-0.061 0.105,-0.55 -0.111,-0.185 -0.095,-0.523 -0.092,-0.722 0.008,-0.605 0.227,-1.168 0.656,-1.613 0.683,-0.71 1.62,-1.179 2.577,-1.179 0.462,0 0.929,0.11 1.375,0.354 0,0 1.056,0.734 1.014,2.059 0,0 0,0.856 -0.57,1.875 0,0 -0.358,1.164 0.346,2.098 l -1.369,1.479 -0.847,-0.74 c 0,0 -0.095,-0.077 -0.234,-0.077 -0.08,0 -0.175,0.025 -0.273,0.107 0,0 -1.388,0.826 -2.891,0.826 -0.052,0 -0.104,-0.001 -0.156,-0.003 0,0 -0.017,0.001 -0.049,0.001 -0.242,0 -1.342,-0.048 -2.589,-0.857 0,0 -0.088,-0.076 -0.201,-0.076 -0.062,0 -0.133,0.023 -0.201,0.096 0,0 -0.691,0.551 -1.799,0.551 l -2.582,0.013 v -2.109 l 1.332,-1.495 h 0.79 V 9.118 h -0.295 c 0,0 -0.579,-0.019 -0.579,-0.832 0,-0.814 0.896,-1.248 0.896,-1.248 V 1.137 c 0,0 0.142,-1.222 -1.062,-1.222 h -1.095 v -2.171 l 1.166,-1.305 h 1.265 c 0,0 1.267,0 2.385,1.264 0,0 0.95,-1.345 3.082,-1.345 0,0 1.73,-10e-4 2.955,1.059 l 1.688,-1.284 c 0,0 -0.18,1.305 0.042,2.069 0,0 0.16,0.759 0.78,1.957 0.436,0.842 0.325,2.002 -0.169,2.783 -0.595,0.937 -1.738,2.103 -2.984,2.103"
                 style="fill:#100f0d;fill-opacity:1;fill-rule:nonzero;stroke:none"
                 id="path1031"
                 inkscape:connector-curvature="0" /></g><g
               id="g1033"
               transform="translate(265.8461,774.9086)"><path
                 d="m 0,0 c 0,-0.003 0,-0.004 0,-0.006 v -0.001 c 0,-0.002 0,-0.004 0,-0.004 0,-0.048 -0.006,-0.09 -0.013,-0.13 -0.002,-0.008 -0.004,-0.017 -0.006,-0.025 -0.008,-0.037 -0.019,-0.07 -0.034,-0.098 -0.002,-0.004 -0.004,-0.007 -0.006,-0.011 -0.014,-0.026 -0.029,-0.048 -0.046,-0.068 -0.004,-0.004 -0.007,-0.009 -0.011,-0.013 -0.019,-0.02 -0.04,-0.038 -0.061,-0.052 -0.005,-0.003 -0.009,-0.006 -0.013,-0.009 -0.02,-0.012 -0.04,-0.023 -0.061,-0.031 -0.003,-0.002 -0.007,-0.003 -0.01,-0.005 -0.023,-0.008 -0.046,-0.015 -0.068,-0.02 -0.005,-0.001 -0.01,-0.003 -0.015,-0.004 -0.021,-0.004 -0.042,-0.007 -0.061,-0.009 -0.001,0 -0.002,0 -0.002,0 -0.021,-0.002 -0.039,-0.003 -0.055,-0.003 -0.002,0 -0.004,0 -0.006,0 -0.002,0 -0.003,0 -0.005,0 -0.016,0 -0.029,0.001 -0.039,0.002 -0.004,0 -0.004,0 -0.007,0 -0.007,0.001 -0.012,0.001 -0.012,0.001 -0.072,0 -0.15,0.012 -0.226,0.03 -0.077,0.018 -0.153,0.043 -0.224,0.069 L -1.009,-0.758 -1.035,-1.102 C -1.038,-1.169 -1.055,-1.49 -1.105,-1.978 -1.115,-2.076 -1.127,-2.182 -1.14,-2.294 -1.151,-2.383 -1.162,-2.476 -1.175,-2.572 -1.26,-3.235 -1.397,-4.063 -1.61,-4.934 -1.645,-5.078 -1.682,-5.223 -1.722,-5.368 -1.761,-5.513 -1.803,-5.66 -1.847,-5.806 -1.891,-5.952 -1.937,-6.099 -1.986,-6.244 -2.01,-6.317 -2.035,-6.39 -2.061,-6.463 -2.112,-6.608 -2.166,-6.752 -2.223,-6.896 -2.251,-6.967 -2.28,-7.039 -2.309,-7.109 c -0.059,-0.142 -0.121,-0.282 -0.186,-0.42 -0.13,-0.277 -0.27,-0.545 -0.423,-0.8 -0.115,-0.191 -0.236,-0.375 -0.365,-0.55 -0.043,-0.058 -0.087,-0.115 -0.132,-0.172 -0.089,-0.112 -0.182,-0.221 -0.277,-0.324 -0.096,-0.103 -0.196,-0.202 -0.299,-0.295 -0.051,-0.047 -0.103,-0.092 -0.157,-0.135 -0.106,-0.088 -0.216,-0.17 -0.33,-0.246 -0.171,-0.114 -0.35,-0.213 -0.538,-0.297 -0.125,-0.056 -0.255,-0.105 -0.388,-0.146 -0.133,-0.042 -0.271,-0.075 -0.412,-0.101 -0.212,-0.038 -0.434,-0.058 -0.665,-0.058 -0.053,0 -0.106,0.001 -0.16,0.003 h -0.001 c -0.022,0 -0.189,0.002 -0.453,0.056 -0.052,0.011 -0.109,0.024 -0.169,0.039 -0.12,0.031 -0.253,0.071 -0.397,0.124 -0.145,0.053 -0.299,0.12 -0.461,0.202 -0.243,0.124 -0.503,0.283 -0.768,0.489 -0.266,0.207 -0.537,0.459 -0.803,0.77 l -0.552,-0.449 -0.277,-0.224 -0.016,0.184 -0.014,0.17 c 0,10e-4 -0.001,0.014 -0.003,0.035 -0.002,0.013 -0.004,0.031 -0.006,0.051 -0.005,0.032 -0.01,0.07 -0.017,0.115 -0.029,0.192 -0.089,0.491 -0.197,0.753 -0.041,0.098 -0.089,0.192 -0.144,0.272 l -0.009,0.016 c -0.017,0.03 -0.244,0.443 -0.441,0.975 -0.043,0.118 -0.085,0.242 -0.122,0.368 -0.035,0.116 -0.065,0.234 -0.09,0.352 -0.031,0.141 -0.054,0.283 -0.065,0.421 -0.005,0.064 -0.008,0.127 -0.008,0.188 0,0.004 -10e-4,0.023 -10e-4,0.055 -0.001,0.016 -0.001,0.036 0,0.058 10e-4,0.084 0.008,0.21 0.031,0.359 0.001,0.01 0.003,0.02 0.005,0.03 0.018,0.113 0.045,0.237 0.085,0.366 0.043,0.136 0.099,0.277 0.176,0.415 0.076,0.137 0.171,0.272 0.292,0.394 0.176,0.18 0.387,0.316 0.63,0.407 0.061,0.023 0.123,0.043 0.188,0.06 0.13,0.034 0.267,0.057 0.412,0.068 0.072,0.006 0.147,0.009 0.223,0.009 10e-4,0 0.007,0 0.015,0 0.002,0 0.004,0 0.007,10e-4 0.008,0 0.016,0 0.027,0 h 0.006 c 0.005,0 0.012,0 0.017,0 h 0.018 c 0.013,-10e-4 0.027,-10e-4 0.041,-0.002 0.005,0 0.009,0 0.014,0 0.02,-10e-4 0.041,-0.003 0.064,-0.005 0.007,0 0.015,-10e-4 0.022,-0.002 0.017,-0.001 0.035,-0.003 0.053,-0.005 0.01,-10e-4 0.02,-0.003 0.03,-0.004 0.018,-0.002 0.035,-0.005 0.053,-0.008 0.012,-10e-4 0.024,-0.003 0.036,-0.005 0.018,-0.003 0.037,-0.007 0.056,-0.011 0.013,-0.002 0.025,-0.004 0.038,-0.007 0.021,-0.004 0.042,-0.01 0.063,-0.015 0.012,-0.003 0.023,-0.005 0.035,-0.008 0.03,-0.008 0.06,-0.017 0.091,-0.026 0.004,-10e-4 0.008,-0.003 0.013,-0.004 0.035,-0.011 0.07,-0.023 0.106,-0.037 0.011,-0.004 0.022,-0.009 0.034,-0.013 0.024,-0.01 0.049,-0.02 0.074,-0.031 0.014,-0.007 0.028,-0.014 0.042,-0.02 0.023,-0.011 0.046,-0.022 0.069,-0.034 0.014,-0.008 0.029,-0.016 0.043,-0.024 0.023,-0.013 0.046,-0.026 0.069,-0.04 0.014,-0.009 0.028,-0.017 0.042,-0.027 0.024,-0.016 0.048,-0.033 0.072,-0.051 0.013,-0.008 0.024,-0.017 0.036,-0.026 0.036,-0.027 0.071,-0.056 0.105,-0.086 0,-0.001 0,-0.001 10e-4,-0.001 0.104,-0.095 0.195,-0.2 0.273,-0.317 0.039,-0.058 0.075,-0.12 0.108,-0.183 0.163,-0.32 0.246,-0.709 0.246,-1.163 l -10e-4,-0.018 c 0,-0.001 -0.001,-0.002 -0.001,-0.002 0,-0.005 -0.002,-0.02 -0.005,-0.043 C -7.603,-5.756 -7.606,-5.776 -7.609,-5.8 -7.614,-5.833 -7.619,-5.873 -7.626,-5.917 -7.662,-6.14 -7.73,-6.488 -7.842,-6.792 -7.858,-6.835 -7.875,-6.877 -7.892,-6.918 -7.905,-6.949 -7.92,-6.978 -7.934,-7.007 -7.942,-7.023 -7.95,-7.04 -7.958,-7.055 -7.96,-7.062 -7.962,-7.073 -7.965,-7.083 c -0.049,-0.212 -0.206,-1.084 0.481,-1.441 0,0 0.007,-0.003 0.016,-0.007 0.009,-0.003 0.02,-0.008 0.035,-0.014 0.003,-10e-4 0.006,-0.002 0.009,-0.003 0.014,-0.006 0.032,-0.012 0.051,-0.019 0.003,-10e-4 0.005,-0.002 0.008,-0.003 0.021,-0.008 0.046,-0.016 0.072,-0.024 0.006,-0.002 0.012,-0.004 0.017,-0.006 0.028,-0.009 0.057,-0.018 0.089,-0.027 0.004,-10e-4 0.009,-0.003 0.013,-0.004 0.03,-0.008 0.062,-0.016 0.095,-0.025 0.005,-10e-4 0.011,-0.002 0.017,-0.004 0.036,-0.008 0.073,-0.016 0.112,-0.024 0.008,-0.001 0.016,-0.003 0.024,-0.004 0.04,-0.008 0.081,-0.014 0.124,-0.02 0.002,0 0.005,-10e-4 0.007,-10e-4 0.04,-0.005 0.082,-0.009 0.124,-0.012 0.008,0 0.017,-10e-4 0.025,-0.002 0.042,-0.002 0.085,-0.003 0.128,-0.003 0.013,0.001 0.027,0.001 0.04,0.002 0.033,10e-4 0.066,0.003 0.1,0.006 0.015,10e-4 0.03,0.003 0.045,0.005 0.035,0.004 0.07,0.01 0.105,0.017 0.011,0.002 0.023,0.004 0.034,0.007 0.046,0.01 0.09,0.023 0.135,0.039 0.009,0.003 0.018,0.008 0.027,0.011 0.035,0.014 0.069,0.029 0.102,0.046 0.014,0.007 0.028,0.015 0.041,0.023 0.03,0.017 0.059,0.036 0.087,0.057 0.012,0.009 0.025,0.017 0.036,0.027 0.039,0.031 0.077,0.064 0.112,0.103 l 0.034,0.029 c 0.002,0.002 0.006,0.004 0.013,0.009 0.019,0.014 0.057,0.044 0.106,0.089 0.017,0.016 0.034,0.033 0.053,0.051 0.203,0.207 0.511,0.63 0.497,1.281 l -0.011,2.649 -0.011,2.65 c -0.233,-0.1 -0.602,-0.229 -1.081,-0.318 -0.032,-0.006 -0.064,-0.011 -0.098,-0.017 -0.189,-0.031 -0.392,-0.057 -0.612,-0.07 -0.119,-0.007 -0.242,-0.012 -0.37,-0.012 -0.007,0 -0.019,-0.001 -0.034,-0.001 -0.003,-10e-4 -0.006,-10e-4 -0.01,-10e-4 -0.017,-10e-4 -0.036,-0.002 -0.06,-0.002 h -0.006 c -0.014,0 -0.029,-0.001 -0.046,-0.001 -0.007,0 -0.015,0.001 -0.022,0.001 -0.011,0 -0.023,0 -0.035,0 -0.021,0 -0.044,10e-4 -0.068,0.002 -0.014,10e-4 -0.027,10e-4 -0.041,0.002 -0.028,10e-4 -0.059,0.004 -0.089,0.006 -0.013,10e-4 -0.025,10e-4 -0.038,0.002 -0.044,0.004 -0.092,0.009 -0.141,0.015 -0.009,0.001 -0.019,0.003 -0.028,0.004 -0.041,0.005 -0.084,0.011 -0.128,0.018 -0.018,0.003 -0.037,0.007 -0.056,0.01 -0.038,0.007 -0.075,0.013 -0.114,0.021 -0.022,0.005 -0.044,0.009 -0.066,0.014 -0.039,0.009 -0.078,0.018 -0.119,0.028 -0.023,0.006 -0.045,0.012 -0.069,0.018 -0.044,0.011 -0.089,0.025 -0.135,0.039 -0.02,0.006 -0.04,0.011 -0.06,0.018 -0.066,0.021 -0.133,0.044 -0.202,0.07 -0.008,0.003 -0.015,0.006 -0.023,0.009 -0.061,0.023 -0.123,0.049 -0.185,0.076 -0.023,0.01 -0.046,0.021 -0.069,0.032 -0.048,0.022 -0.096,0.045 -0.145,0.07 -0.026,0.013 -0.053,0.027 -0.08,0.041 -0.046,0.025 -0.093,0.052 -0.14,0.079 -0.026,0.016 -0.053,0.032 -0.08,0.048 -0.05,0.031 -0.1,0.064 -0.15,0.098 -0.023,0.016 -0.047,0.03 -0.07,0.047 -0.073,0.052 -0.146,0.106 -0.218,0.164 -0.435,0.352 -0.803,0.789 -1.102,1.309 -0.05,0.087 -0.098,0.176 -0.144,0.267 -0.093,0.183 -0.177,0.375 -0.254,0.575 -0.193,0.503 -0.339,1.062 -0.436,1.677 -0.039,0.245 -0.07,0.5 -0.094,0.764 0,0.014 -0.004,0.07 -0.006,0.159 -0.003,0.089 -0.004,0.212 10e-4,0.362 0.002,0.075 0.006,0.156 0.011,0.244 0.005,0.088 0.013,0.181 0.022,0.28 0.014,0.148 0.034,0.307 0.061,0.475 0.008,0.056 0.018,0.113 0.028,0.171 0.021,0.116 0.045,0.235 0.074,0.356 0.028,0.122 0.059,0.246 0.096,0.372 0.036,0.125 0.076,0.253 0.122,0.381 0.022,0.064 0.046,0.129 0.071,0.193 0.176,0.452 0.414,0.908 0.735,1.334 0.092,0.121 0.191,0.241 0.296,0.356 0.172,0.188 0.356,0.359 0.554,0.515 0.092,0.073 0.189,0.141 0.287,0.207 0.085,0.057 0.171,0.111 0.26,0.163 0.101,0.058 0.203,0.115 0.31,0.167 0.307,0.15 0.638,0.272 0.989,0.365 0.161,0.043 0.327,0.079 0.497,0.109 0.03,0.006 0.061,0.011 0.091,0.016 0.266,0.044 0.543,0.074 0.831,0.089 0.01,0 0.228,0.003 0.567,-0.04 0.128,-0.017 0.272,-0.039 0.429,-0.071 0.105,-0.022 0.215,-0.047 0.329,-0.077 0.286,-0.075 0.599,-0.181 0.917,-0.328 0.89,-0.414 1.823,-1.158 2.336,-2.499 0.011,-0.028 0.984,-2.694 1.062,-6.394 0.064,0.011 0.123,0.019 0.178,0.025 0.018,0.001 0.034,0.001 0.051,0.002 0.035,0.003 0.07,0.006 0.102,0.006 0.002,0 0.005,0 0.008,0 0.039,0 0.076,-0.002 0.111,-0.005 0.003,0 0.005,-0.001 0.008,-0.001 0.034,-0.003 0.065,-0.008 0.094,-0.014 0.011,-0.003 0.02,-0.006 0.03,-0.008 0.02,-0.005 0.039,-0.01 0.057,-0.016 0.01,-0.004 0.019,-0.008 0.029,-0.012 0.015,-0.006 0.03,-0.013 0.043,-0.02 0.009,-0.004 0.017,-0.009 0.025,-0.013 0.012,-0.008 0.024,-0.015 0.034,-0.024 0.007,-0.005 0.014,-0.009 0.02,-0.014 0.01,-0.009 0.02,-0.018 0.028,-0.027 0.005,-0.005 0.01,-0.01 0.015,-0.015 0.009,-0.011 0.017,-0.022 0.025,-0.033 0.002,-0.003 0.005,-0.006 0.006,-0.01 0.01,-0.014 0.017,-0.028 0.024,-0.042 0.002,-0.004 0.003,-0.008 0.004,-0.012 0.005,-0.01 0.009,-0.02 0.012,-0.03 0.001,-0.005 0.003,-0.01 0.004,-0.015 0.002,-0.008 0.004,-0.016 0.006,-0.024 0.001,-0.005 0.002,-0.009 0.002,-0.014 0.001,-0.007 0.002,-0.013 0.003,-0.019 0,-0.005 0.001,-0.009 0.001,-0.013 C 0,0.028 0,0.024 0,0.019 0,0.016 0,0.013 0,0.01 0,0.006 0,0.003 0,0 m 1.167,-1.464 c 0,0 0,0.877 -0.599,1.298 0,0 0.014,2.884 -0.281,4.148 0,0 -1.598,6.211 -6.62,6.211 -0.141,0 -0.283,-0.005 -0.429,-0.014 h -0.009 c -0.249,0 -5.482,-0.078 -5.605,-6.605 0,0 -0.085,-5.871 5.656,-6.972 0,0 0.144,-0.014 0.342,-0.014 0.341,0 0.841,0.044 1.037,0.283 l -0.007,-3.53 c 0,0 0.063,-1.508 -1.309,-1.691 0,0 -0.048,-0.014 -0.092,-0.014 -0.027,0 -0.053,0.005 -0.065,0.022 0,0 -0.037,0.07 0.049,0.141 0.106,0.088 0.176,0.238 0.246,0.352 0.2,0.328 0.355,0.674 0.389,1.057 0.048,0.536 0.04,1.113 -0.195,1.613 -0.083,0.176 -0.197,0.346 -0.31,0.507 -0.144,0.203 -0.323,0.376 -0.509,0.542 -0.234,0.208 -0.485,0.387 -0.756,0.548 -0.036,0.021 -0.072,0.042 -0.107,0.062 0,0 -0.712,0.427 -1.605,0.427 -0.569,0 -1.21,-0.173 -1.788,-0.738 -0.563,-0.549 -0.757,-1.463 -0.693,-2.205 0.051,-0.593 0.238,-1.091 0.502,-1.619 0.246,-0.492 0.498,-1.036 0.539,-1.587 0,0 0.072,-0.489 -0.138,-0.819 l 1.382,-1.373 0.978,0.834 c 0,0 0.085,0.087 0.198,0.087 0.061,0 0.131,-0.024 0.199,-0.099 0,0 1.155,-1.064 3.216,-1.064 0.061,0 0.123,10e-4 0.185,0.003 0,0 0.011,-10e-4 0.033,-10e-4 0.391,0 4.249,0.22 5.371,8.847 0,0 0.795,0.242 0.795,1.363"
                 style="fill:#100f0d;fill-opacity:1;fill-rule:nonzero;stroke:none"
                 id="path1035"
                 inkscape:connector-curvature="0" /></g><g
               id="g1037"
               transform="translate(249.3923,766.535)"><path
                 d="m 0,0 c 0.102,-0.041 0.219,-0.077 0.352,-0.106 h 0.647 v -1.728 h -1.172 c -0.007,0.001 -0.031,0.002 -0.069,0.006 -0.039,0.004 -0.092,0.011 -0.159,0.023 -0.059,0.01 -0.13,0.026 -0.208,0.046 -0.022,0.006 -0.045,0.012 -0.068,0.018 -0.063,0.018 -0.13,0.039 -0.201,0.063 -0.124,0.043 -0.259,0.096 -0.404,0.166 -0.099,0.047 -0.202,0.104 -0.309,0.167 -0.092,0.054 -0.187,0.113 -0.283,0.18 -0.208,0.145 -0.423,0.321 -0.639,0.535 -0.062,-0.061 -0.143,-0.137 -0.237,-0.221 -0.063,-0.055 -0.132,-0.115 -0.205,-0.174 -0.185,-0.15 -0.4,-0.306 -0.625,-0.431 -0.045,-0.025 -0.09,-0.049 -0.136,-0.071 -0.228,-0.111 -0.462,-0.185 -0.683,-0.185 h -1.698 v 1.679 h 0.944 c 0.111,0.001 1.093,0.045 1.093,1.274 v 3.29 h -5.836 v 1.782 l 0.021,0.039 6.1,11.591 0.14,-0.026 c 0.008,-0.001 0.046,-0.009 0.108,-0.024 0.063,-0.017 0.149,-0.041 0.254,-0.077 0.07,-0.024 0.148,-0.053 0.232,-0.087 0.127,-0.052 0.268,-0.117 0.417,-0.198 0.099,-0.053 0.202,-0.114 0.307,-0.182 0.157,-0.103 0.318,-0.223 0.477,-0.363 0.282,0.267 0.97,0.828 1.801,0.896 0.055,0.005 0.111,0.008 0.168,0.008 H 1.11 V 16.085 H 0.414 c -0.12,0 -1.172,-0.041 -1.172,-1.192 V 9.119 c 0.064,0.012 0.122,0.019 0.177,0.025 0.019,0.002 0.034,0.002 0.052,0.003 0.035,0.002 0.07,0.005 0.101,0.005 0.003,0 0.006,0 0.008,0 0.04,0 0.077,-10e-4 0.111,-0.005 0.003,0 0.006,-10e-4 0.009,-10e-4 C -0.266,9.143 -0.235,9.138 -0.207,9.132 -0.196,9.13 -0.186,9.127 -0.176,9.124 -0.156,9.119 -0.137,9.114 -0.12,9.108 -0.109,9.104 -0.1,9.1 -0.09,9.097 -0.076,9.09 -0.061,9.084 -0.048,9.077 -0.039,9.072 -0.031,9.068 -0.023,9.063 -0.01,9.055 0.001,9.048 0.012,9.04 0.019,9.035 0.026,9.03 0.032,9.025 0.042,9.016 0.051,9.007 0.06,8.998 0.065,8.993 0.07,8.989 0.074,8.984 0.084,8.972 0.092,8.961 0.099,8.95 0.101,8.947 0.104,8.944 0.106,8.941 0.115,8.926 0.123,8.912 0.13,8.898 0.131,8.894 0.132,8.891 0.134,8.888 0.138,8.877 0.142,8.866 0.146,8.856 0.147,8.851 0.148,8.847 0.149,8.842 0.152,8.833 0.154,8.825 0.156,8.817 0.156,8.813 0.157,8.808 0.158,8.804 0.159,8.797 0.16,8.79 0.161,8.783 c 0,-0.004 0.001,-0.007 0.001,-0.011 0,-0.006 0,-0.012 0.001,-0.017 0,-0.002 0,-0.005 0,-0.007 0,-0.005 0,-0.01 0,-0.013 V 8.732 C 0.162,8.729 0.162,8.727 0.162,8.727 V 8.726 C 0.162,8.678 0.157,8.636 0.149,8.597 0.148,8.588 0.146,8.58 0.144,8.571 0.135,8.535 0.125,8.502 0.11,8.473 0.108,8.469 0.106,8.466 0.104,8.462 0.09,8.436 0.075,8.414 0.058,8.394 0.054,8.39 0.05,8.385 0.046,8.381 0.027,8.361 0.007,8.344 -0.015,8.329 -0.019,8.326 -0.024,8.323 -0.028,8.32 -0.048,8.308 -0.068,8.298 -0.088,8.289 -0.092,8.288 -0.095,8.286 -0.099,8.285 -0.121,8.276 -0.144,8.269 -0.167,8.264 -0.172,8.263 -0.177,8.262 -0.182,8.261 -0.203,8.256 -0.224,8.253 -0.243,8.251 c -0.001,0 -0.002,0 -0.002,0 C -0.266,8.249 -0.283,8.249 -0.3,8.248 H -0.305 -0.31 c -0.017,0.001 -0.03,0.001 -0.04,0.002 -0.004,0 -0.004,0 -0.007,0 -0.007,10e-4 -0.012,0.002 -0.012,0.002 v 0 c -0.055,0 -0.113,0.008 -0.172,0.023 -0.058,0.015 -0.117,0.036 -0.173,0.06 V 7.654 h 0.002 V 6.623 H 2.281 L 1.494,5.542 1.983,4.892 2.162,4.653 H -0.737 V 0.828 C -0.737,0.804 -0.716,0.286 0,0 M 3.927,3.255 2.961,4.604 3.769,5.476 c 0,0 0.176,0.142 -0.074,0.397 L 2.549,7.072 H 1.078 c 0,0 0.38,0.33 0.38,0.941 0,0 0,0.459 -0.602,0.918 v 4.892 c 0,0 -0.103,0.822 1.043,0.822 l 0.697,0.019 v 2.366 l -1.242,1.23 h -1.502 c 0,0 -0.914,0 -1.535,-0.662 0,0 -0.879,0.758 -2.206,0.758 -0.026,0 -0.053,0 -0.079,-0.001 L -10.174,6.432 V 4.288 l 0.98,-0.915 h 4.507 c 0,0 0.009,10e-4 0.024,10e-4 0.069,0 0.264,-0.023 0.264,-0.289 V 1.21 c 0,0 0.063,-0.871 -1.013,-0.871 h -1.061 v -2.355 l 1.155,-1.131 h 1.869 c 0,0 0.087,-0.012 0.229,-0.012 0.467,0 1.518,0.126 1.956,1.204 0,0 0.949,-1.192 2.12,-1.192 h 1.773 v 2.079 L 1.489,0.156 H 1.11 c 0,0 -0.01,-0.002 -0.026,-0.002 -0.067,0 -0.243,0.03 -0.243,0.347 v 2.754 z"
                 style="fill:#100f0d;fill-opacity:1;fill-rule:nonzero;stroke:none"
                 id="path1039"
                 inkscape:connector-curvature="0" /></g><g
               id="g1041"
               transform="translate(302.5952,777.3923)"><path
                 d="m 0,0 c 0.27,-0.245 0.013,-0.303 0.013,-0.303 -0.037,0.003 -0.073,0.005 -0.107,0.005 -0.444,0 -0.637,-0.269 -0.637,-0.269 -1.086,0.718 -1.287,2.08 -1.287,2.08 -0.224,1.296 0.737,1.548 0.968,1.667 0.092,0.048 0.161,0.062 0.21,0.062 0.074,0 0.104,-0.032 0.104,-0.032 C -0.625,3.134 -0.704,2.935 -0.704,2.935 -1.306,1.513 0,0 0,0 m 4.148,-9.246 c -0.114,-0.793 -0.371,-1.428 -0.704,-1.94 -0.069,-0.106 -0.141,-0.21 -0.217,-0.306 -0.11,-0.139 -0.225,-0.268 -0.345,-0.386 -0.18,-0.178 -0.369,-0.332 -0.562,-0.467 -0.064,-0.046 -0.129,-0.088 -0.193,-0.129 -0.195,-0.123 -0.391,-0.226 -0.583,-0.314 -0.128,-0.058 -0.254,-0.11 -0.377,-0.155 -0.245,-0.09 -0.476,-0.156 -0.678,-0.203 -0.051,-0.012 -0.099,-0.023 -0.146,-0.033 -0.094,-0.019 -0.18,-0.034 -0.256,-0.046 -0.076,-0.012 -0.142,-0.021 -0.197,-0.027 -0.052,-0.007 -0.094,-0.01 -0.124,-0.013 -0.033,-0.002 -0.052,-0.003 -0.055,-0.003 -0.096,-0.008 -0.189,-0.011 -0.283,-0.011 -1.2,0 -2.263,0.552 -3.009,1.086 -0.15,0.106 -0.286,0.212 -0.409,0.312 -0.123,0.101 -0.231,0.196 -0.325,0.282 -0.092,0.085 -0.17,0.16 -0.231,0.221 l -0.853,-1.007 0.016,0.539 c 0.012,0.392 -0.058,0.743 -0.151,1.033 -0.02,0.062 -0.041,0.122 -0.063,0.178 -0.029,0.077 -0.06,0.147 -0.091,0.212 -0.042,0.088 -0.083,0.167 -0.119,0.231 -0.016,0.027 -0.031,0.052 -0.045,0.075 -0.056,0.091 -0.094,0.141 -0.096,0.143 -0.097,0.115 -0.181,0.243 -0.252,0.377 -0.047,0.089 -0.089,0.181 -0.126,0.272 -0.037,0.091 -0.07,0.182 -0.097,0.269 -0.028,0.087 -0.051,0.172 -0.071,0.251 -0.02,0.078 -0.036,0.151 -0.048,0.215 -0.007,0.032 -0.012,0.063 -0.017,0.09 -0.02,0.111 -0.028,0.182 -0.029,0.193 l -0.001,0.015 0.001,0.014 c 0.042,0.732 0.333,1.19 0.682,1.476 0.073,0.06 0.149,0.112 0.226,0.158 0.049,0.03 0.099,0.057 0.149,0.082 0.031,0.015 0.061,0.029 0.092,0.042 0.061,0.027 0.122,0.05 0.181,0.07 0.059,0.02 0.116,0.036 0.172,0.05 0.054,0.015 0.107,0.026 0.156,0.035 0.05,0.01 0.095,0.017 0.137,0.023 0.042,0.005 0.079,0.009 0.111,0.012 0.033,0.003 0.06,0.004 0.081,0.006 0.031,10e-4 0.049,10e-4 0.051,10e-4 0.322,-0.011 0.607,-0.068 0.855,-0.168 0.124,-0.05 0.238,-0.111 0.343,-0.183 0.105,-0.072 0.2,-0.155 0.285,-0.249 0.066,-0.073 0.124,-0.149 0.173,-0.227 0.05,-0.078 0.091,-0.157 0.126,-0.236 0.053,-0.118 0.09,-0.236 0.117,-0.347 0.072,-0.297 0.068,-0.547 0.062,-0.639 0,-0.011 -10e-4,-0.02 -10e-4,-0.027 -0.001,-0.179 -0.021,-0.347 -0.054,-0.501 -0.099,-0.461 -0.309,-0.8 -0.432,-0.968 0.099,-0.128 0.202,-0.243 0.307,-0.346 0.106,-0.103 0.213,-0.195 0.32,-0.276 0.085,-0.065 0.169,-0.121 0.253,-0.173 0.072,-0.046 0.144,-0.089 0.213,-0.125 0.072,-0.039 0.14,-0.071 0.206,-0.101 0.159,-0.072 0.299,-0.121 0.401,-0.152 0.058,-0.017 0.105,-0.029 0.137,-0.036 0.033,-0.008 0.051,-0.011 0.052,-0.011 0.004,-0.001 0.007,-0.001 0.011,-0.001 0.07,-0.012 0.139,-0.021 0.206,-0.027 0.024,-0.002 0.047,-0.002 0.07,-0.003 0.046,-0.003 0.093,-0.006 0.138,-0.006 0.007,0 0.013,10e-4 0.02,10e-4 0.082,0 0.161,0.007 0.238,0.016 0.021,0.002 0.042,0.005 0.063,0.009 0.081,0.012 0.161,0.028 0.236,0.051 0.004,10e-4 0.007,0.003 0.01,0.004 0.073,0.022 0.142,0.051 0.21,0.083 0.017,0.008 0.035,0.017 0.053,0.026 0.068,0.036 0.135,0.075 0.198,0.121 0,10e-4 0,10e-4 0,10e-4 0.317,0.232 0.519,0.562 0.645,0.861 0.017,0.043 0.034,0.085 0.049,0.126 0.019,0.053 0.035,0.103 0.05,0.152 0.079,0.253 0.1,0.44 0.101,0.445 0.066,0.583 -0.002,1.12 -0.149,1.604 -0.063,0.207 -0.14,0.405 -0.228,0.592 -0.49,1.046 -1.298,1.764 -1.661,2.051 -0.01,0.008 -0.019,0.016 -0.028,0.023 -0.096,0.074 -0.155,0.115 -0.159,0.117 l -0.192,0.108 -0.687,0.386 c -0.004,-0.043 -0.009,-0.087 -0.016,-0.133 -0.023,-0.136 -0.063,-0.279 -0.137,-0.382 0,0 -0.002,-0.004 -0.005,-0.008 -0.001,-0.002 -0.001,-0.003 -0.002,-0.006 -0.005,-0.006 -0.01,-0.015 -0.018,-0.027 v 0 C -2.178,-4.915 -2.188,-4.927 -2.198,-4.94 -2.2,-4.943 -2.203,-4.947 -2.206,-4.95 -2.217,-4.964 -2.23,-4.979 -2.245,-4.993 v -10e-4 c -0.015,-0.014 -0.032,-0.028 -0.049,-0.042 -0.005,-0.003 -0.009,-0.006 -0.014,-0.01 -0.018,-0.013 -0.038,-0.026 -0.06,-0.036 -0.001,-0.001 -0.001,-0.001 -0.002,-0.001 -0.021,-0.011 -0.045,-0.019 -0.07,-0.026 -0.007,-0.002 -0.013,-0.003 -0.019,-0.005 -0.026,-0.006 -0.052,-0.009 -0.08,-0.009 -0.002,0 -0.003,-10e-4 -0.003,-10e-4 h -0.001 c -0.012,0 -0.025,0.002 -0.038,0.003 -0.01,0.001 -0.02,0.001 -0.031,0.003 -0.013,0.003 -0.027,0.007 -0.041,0.01 -0.012,0.003 -0.022,0.005 -0.034,0.009 -0.016,0.005 -0.033,0.013 -0.05,0.021 -0.01,0.004 -0.02,0.007 -0.03,0.012 -0.022,0.011 -0.045,0.025 -0.068,0.04 -0.006,0.004 -0.012,0.006 -0.018,0.01 0,0 -0.164,0.086 -0.181,0.284 -0.014,0.153 0.062,0.374 0.372,0.673 -0.125,0.097 -0.273,0.214 -0.435,0.349 -0.014,0.011 -0.028,0.022 -0.042,0.034 -0.12,0.1 -0.249,0.21 -0.382,0.329 -0.004,0.003 -0.008,0.007 -0.012,0.01 -0.619,0.551 -1.343,1.279 -1.898,2.09 -0.058,0.085 -0.114,0.173 -0.169,0.26 -0.132,0.211 -0.25,0.427 -0.351,0.646 -0.018,0.039 -0.036,0.079 -0.053,0.119 C -6.073,-0.062 -6.132,0.1 -6.179,0.263 -6.19,0.298 -6.2,0.334 -6.209,0.369 -6.237,0.477 -6.26,0.584 -6.277,0.692 -6.3,0.839 -6.313,0.986 -6.313,1.133 -6.316,1.155 -6.32,1.208 -6.324,1.287 c -0.003,0.05 -0.005,0.11 -0.006,0.18 0,0.037 0,0.076 0,0.117 0.001,0.164 0.01,0.364 0.033,0.589 0.005,0.056 0.012,0.114 0.02,0.173 0.046,0.356 0.13,0.764 0.277,1.185 0.048,0.141 0.104,0.284 0.168,0.426 0.063,0.142 0.135,0.285 0.216,0.427 0.161,0.283 0.357,0.562 0.596,0.825 0.12,0.132 0.251,0.26 0.393,0.382 0.356,0.307 0.784,0.581 1.301,0.801 10e-4,0 0.006,0.002 0.013,0.005 0.002,10e-4 0.005,0.002 0.006,0.003 0.007,0.003 0.016,0.006 0.027,0.01 0.005,0.002 0.011,0.004 0.016,0.007 0.011,0.004 0.022,0.008 0.035,0.013 0.008,0.003 0.017,0.006 0.026,0.009 0.013,0.005 0.027,0.01 0.043,0.016 0.011,0.003 0.022,0.008 0.034,0.012 0.017,0.005 0.034,0.011 0.053,0.017 0.013,0.005 0.026,0.009 0.041,0.014 0.019,0.006 0.04,0.013 0.062,0.02 0.015,0.004 0.03,0.009 0.046,0.014 0.024,0.007 0.049,0.015 0.075,0.022 0.016,0.005 0.031,0.009 0.048,0.014 0.029,0.008 0.059,0.016 0.09,0.025 0.016,0.004 0.031,0.008 0.047,0.012 0.041,0.011 0.085,0.021 0.129,0.032 0.007,0.002 0.013,0.003 0.021,0.005 0.052,0.012 0.105,0.024 0.161,0.035 0.015,0.004 0.031,0.006 0.046,0.01 0.041,0.008 0.083,0.016 0.126,0.024 0.021,0.004 0.044,0.007 0.066,0.011 0.038,0.006 0.076,0.013 0.115,0.019 0.025,0.003 0.051,0.007 0.076,0.01 0.038,0.005 0.077,0.011 0.116,0.015 0.027,0.004 0.054,0.007 0.081,0.009 0.039,0.005 0.078,0.008 0.118,0.012 0.029,0.002 0.058,0.005 0.087,0.007 0.04,0.003 0.08,0.005 0.121,0.007 0.03,10e-4 0.059,0.003 0.089,0.004 0.042,0.001 0.084,0.002 0.127,0.003 0.021,0 0.042,0.001 0.063,0.001 0.01,0 0.02,-0.001 0.029,-0.001 0.026,0 0.053,-10e-4 0.079,-10e-4 0.04,-0.001 0.08,-0.002 0.119,-0.004 0.028,-0.001 0.056,-0.002 0.083,-0.004 0.04,-0.002 0.079,-0.006 0.119,-0.009 0.028,-0.002 0.056,-0.005 0.085,-0.008 0.04,-0.004 0.081,-0.009 0.121,-0.014 C -0.459,6.765 -0.431,6.761 -0.404,6.757 -0.361,6.751 -0.318,6.744 -0.275,6.736 -0.249,6.731 -0.223,6.727 -0.197,6.722 -0.148,6.713 -0.099,6.702 -0.05,6.69 -0.03,6.686 -0.01,6.682 0.01,6.677 0.079,6.66 0.148,6.641 0.217,6.62 0.228,6.617 0.239,6.613 0.25,6.609 0.308,6.591 0.366,6.572 0.424,6.551 0.447,6.542 0.47,6.532 0.494,6.523 0.539,6.506 0.584,6.488 0.629,6.469 0.656,6.457 0.683,6.445 0.709,6.432 0.751,6.413 0.792,6.394 0.834,6.373 0.861,6.359 0.889,6.344 0.917,6.33 0.957,6.308 0.997,6.286 1.036,6.263 1.064,6.247 1.092,6.23 1.12,6.213 1.159,6.189 1.198,6.163 1.237,6.137 1.264,6.119 1.291,6.101 1.318,6.082 1.358,6.053 1.397,6.023 1.437,5.993 1.462,5.973 1.487,5.954 1.512,5.934 1.555,5.899 1.597,5.862 1.639,5.825 1.66,5.807 1.681,5.789 1.701,5.771 1.763,5.713 1.823,5.654 1.883,5.591 1.884,5.59 1.884,5.59 1.885,5.589 L 2.8,6.363 2.835,6.006 C 2.872,5.633 2.923,5.252 2.986,4.874 3.019,4.677 3.069,4.478 3.124,4.281 3.166,4.131 3.211,3.983 3.256,3.836 3.28,3.758 3.303,3.681 3.327,3.602 3.374,3.445 3.419,3.287 3.458,3.127 3.536,2.807 3.59,2.479 3.586,2.141 3.585,2.056 3.58,1.971 3.571,1.885 3.564,1.82 3.555,1.757 3.542,1.694 3.537,1.673 3.531,1.652 3.526,1.631 3.516,1.591 3.507,1.55 3.495,1.51 3.487,1.485 3.477,1.462 3.469,1.437 3.456,1.403 3.445,1.368 3.43,1.334 3.42,1.309 3.408,1.284 3.396,1.26 3.381,1.228 3.367,1.196 3.35,1.166 3.337,1.141 3.323,1.117 3.308,1.093 3.291,1.064 3.274,1.035 3.256,1.006 3.24,0.983 3.223,0.96 3.207,0.937 3.187,0.91 3.168,0.883 3.147,0.857 3.129,0.835 3.11,0.814 3.091,0.792 3.07,0.767 3.048,0.742 3.025,0.719 3.005,0.698 2.984,0.678 2.964,0.659 2.94,0.636 2.916,0.613 2.891,0.592 2.87,0.573 2.847,0.555 2.825,0.537 2.799,0.517 2.774,0.497 2.747,0.478 2.723,0.461 2.7,0.445 2.676,0.429 2.648,0.411 2.621,0.394 2.593,0.377 2.568,0.362 2.542,0.348 2.517,0.335 2.488,0.319 2.459,0.304 2.429,0.29 2.403,0.278 2.377,0.266 2.35,0.255 2.32,0.242 2.289,0.23 2.258,0.219 2.23,0.209 2.203,0.199 2.175,0.191 2.144,0.181 2.112,0.172 2.08,0.163 2.052,0.156 2.023,0.149 1.995,0.143 1.962,0.136 1.929,0.13 1.896,0.125 1.867,0.12 1.838,0.115 1.808,0.112 1.775,0.108 1.741,0.106 1.706,0.104 1.677,0.102 1.648,0.1 1.618,0.1 1.607,0.099 1.596,0.098 1.585,0.098 1.54,0.098 1.495,0.1 1.45,0.103 1.39,0.107 1.325,0.115 1.259,0.128 1.159,0.147 1.054,0.178 0.948,0.214 0.88,0.238 0.812,0.264 0.745,0.294 0.496,0.404 0.257,0.554 0.082,0.737 0.033,0.789 -0.012,0.843 -0.049,0.899 -0.163,1.068 -0.248,1.244 -0.308,1.425 -0.33,1.492 -0.35,1.558 -0.365,1.626 c -0.012,0.055 -0.021,0.111 -0.029,0.167 -0.012,0.099 -0.019,0.199 -0.017,0.301 0.003,0.266 0.057,0.541 0.159,0.821 0.061,0.169 0.141,0.339 0.238,0.512 C 0.119,3.662 0.283,3.888 0.468,4.088 0.441,4.106 0.411,4.125 0.379,4.145 0.253,4.224 0.099,4.318 -0.019,4.388 -0.048,4.406 -0.076,4.422 -0.1,4.436 -0.147,4.464 -0.183,4.484 -0.197,4.491 -0.222,4.503 -0.25,4.515 -0.279,4.528 -0.288,4.531 -0.297,4.535 -0.306,4.538 -0.327,4.547 -0.349,4.556 -0.373,4.565 -0.384,4.569 -0.395,4.573 -0.406,4.578 -0.43,4.586 -0.454,4.594 -0.479,4.603 -0.49,4.607 -0.501,4.61 -0.513,4.614 -0.585,4.637 -0.663,4.658 -0.745,4.676 -0.757,4.679 -0.769,4.681 -0.782,4.683 -0.811,4.689 -0.841,4.694 -0.871,4.699 -0.886,4.702 -0.901,4.704 -0.916,4.706 -0.946,4.71 -0.977,4.713 -1.009,4.716 -1.022,4.718 -1.036,4.719 -1.05,4.72 -1.095,4.723 -1.141,4.725 -1.187,4.725 h -0.002 c -0.052,0 -0.106,-0.003 -0.16,-0.008 C -1.363,4.716 -1.376,4.714 -1.39,4.713 -1.446,4.707 -1.501,4.699 -1.557,4.686 c 0,0 -0.001,0 -0.001,0 C -1.613,4.674 -1.668,4.657 -1.723,4.639 -1.737,4.634 -1.751,4.629 -1.765,4.624 -1.822,4.603 -1.877,4.58 -1.933,4.552 -2.085,4.475 -2.265,4.354 -2.427,4.215 -2.468,4.18 -2.507,4.144 -2.545,4.107 -2.62,4.034 -2.689,3.957 -2.745,3.881 -2.773,3.842 -2.797,3.804 -2.818,3.766 -2.913,3.595 -2.978,3.369 -3.015,3.09 -3.033,2.95 -3.044,2.797 -3.048,2.631 c -0.004,-0.165 0,-0.345 0.01,-0.537 0.016,-0.285 0.071,-0.644 0.222,-0.99 0.061,-0.138 0.137,-0.275 0.232,-0.404 0.047,-0.064 0.1,-0.127 0.157,-0.186 0.007,-0.009 0.238,-0.269 0.584,-0.601 0.087,-0.083 0.181,-0.171 0.28,-0.26 0.099,-0.089 0.204,-0.18 0.313,-0.27 0.217,-0.18 0.45,-0.355 0.684,-0.504 0.027,0.058 0.054,0.11 0.081,0.157 0.009,0.016 0.018,0.028 0.027,0.043 0.018,0.03 0.036,0.059 0.054,0.084 0.011,0.015 0.021,0.027 0.032,0.041 0.016,0.021 0.033,0.042 0.049,0.06 0.011,0.012 0.022,0.022 0.033,0.033 0.015,0.016 0.03,0.031 0.046,0.043 0.011,0.01 0.022,0.018 0.033,0.026 0.015,0.011 0.029,0.022 0.043,0.03 0.011,0.007 0.022,0.013 0.033,0.018 0.014,0.008 0.027,0.014 0.041,0.02 0.011,0.004 0.021,0.008 0.031,0.011 0.013,0.004 0.026,0.008 0.039,0.01 0.009,0.002 0.019,0.005 0.028,0.006 0.013,0.001 0.025,0.003 0.037,0.003 0.005,0 0.011,0.001 0.016,0.001 0.003,0 0.005,0 0.007,0 0.03,-0.001 0.058,-0.005 0.084,-0.011 0.004,-0.001 0.008,-0.002 0.013,-0.003 0.024,-0.007 0.046,-0.015 0.064,-0.023 0.003,-0.002 0.005,-0.003 0.009,-0.005 0.017,-0.008 0.031,-0.017 0.041,-0.023 0.002,-0.001 0.002,-0.001 0.004,-0.003 0.008,-0.005 0.013,-0.009 0.013,-0.009 0.026,-0.017 0.048,-0.036 0.067,-0.055 0.075,-0.078 0.104,-0.175 0.105,-0.279 0,-0.002 0,-0.004 0,-0.006 0,-0.053 -0.007,-0.108 -0.02,-0.163 C 0.431,-1.17 0.413,-1.225 0.392,-1.278 0.361,-1.359 0.323,-1.435 0.285,-1.503 0.26,-1.548 0.235,-1.589 0.212,-1.624 0.19,-1.659 0.17,-1.688 0.155,-1.709 L 0.43,-1.924 0.773,-2.19 C 5.14,-4.604 4.204,-9.001 4.148,-9.246 m -2.573,7.115 c 0,0 0.08,0.629 -0.333,1.146 0,0 0.537,-0.227 1.151,-0.227 0.415,0 0.864,0.102 1.208,0.447 0,0 2.311,1.499 0.444,5.106 0,0 -0.475,0.887 0.19,1.437 L 2.873,7.124 2.227,6.527 c 0,0 -0.087,-0.107 -0.219,-0.107 -0.076,0 -0.165,0.034 -0.263,0.14 0,0 -1.183,0.747 -3.177,0.747 h -0.007 c -0.212,0 -5.407,-0.058 -5.407,-5.809 0,0 -0.274,-3.057 3.356,-5.545 0,0 0.238,-0.136 0.139,-0.304 0,0 -0.488,-0.633 0.399,-1.092 0,0 0.443,-0.181 0.971,-0.181 0.282,0 0.589,0.052 0.865,0.211 0,0 2.786,-2.17 1.52,-4.586 0,0 -0.426,-0.803 -1.202,-0.803 -0.216,0 -0.46,0.062 -0.729,0.222 10e-4,-10e-4 0.003,-10e-4 0.005,-10e-4 0.098,0 0.302,1.424 0.295,1.51 -0.085,1.103 -0.77,2.121 -1.658,2.786 -0.456,0.343 -1.029,0.502 -1.605,0.503 -1.252,0 -2.523,-0.754 -2.673,-2.031 -0.07,-0.593 0.05,-1.32 0.254,-1.88 0,0 1.496,-2.369 0.716,-3.585 l 1.093,-1.116 1.476,1.385 c 0,0 1.527,-1.434 3.722,-1.434 h 0.011 c 0.281,0 5.432,0.077 5.35,5.749 0,0 0.422,4.076 -3.884,6.563"
                 style="fill:#100f0d;fill-opacity:1;fill-rule:nonzero;stroke:none"
                 id="path1043"
                 inkscape:connector-curvature="0" /></g><g
               id="g1045"
               transform="translate(294.3992,764.6201)"><path
                 d="m 0,0 h -1.511 c -0.229,0 -0.449,0.057 -0.652,0.145 -0.041,0.017 -0.08,0.036 -0.12,0.056 -0.078,0.039 -0.154,0.083 -0.225,0.128 -0.072,0.046 -0.14,0.094 -0.205,0.143 -0.192,0.145 -0.348,0.296 -0.451,0.405 0,0 0,0 -10e-4,0 C -3.221,0.823 -3.277,0.774 -3.332,0.728 -3.347,0.715 -3.361,0.704 -3.375,0.691 -3.424,0.652 -3.471,0.614 -3.518,0.579 -3.523,0.575 -3.53,0.57 -3.536,0.565 -3.588,0.527 -3.638,0.493 -3.688,0.461 -3.7,0.452 -3.713,0.444 -3.726,0.436 -3.767,0.41 -3.808,0.386 -3.848,0.364 -3.856,0.359 -3.864,0.354 -3.873,0.349 -3.919,0.324 -3.964,0.302 -4.007,0.281 -4.018,0.276 -4.029,0.272 -4.039,0.267 -4.075,0.251 -4.11,0.236 -4.144,0.223 -4.153,0.22 -4.161,0.216 -4.17,0.213 -4.21,0.198 -4.249,0.185 -4.287,0.173 -4.295,0.171 -4.302,0.169 -4.311,0.167 -4.341,0.158 -4.371,0.151 -4.4,0.144 -4.408,0.142 -4.416,0.14 -4.425,0.138 -4.458,0.131 -4.49,0.126 -4.521,0.121 -4.526,0.121 -4.531,0.12 -4.536,0.12 -4.562,0.116 -4.587,0.113 -4.61,0.112 -4.617,0.111 -4.625,0.111 -4.631,0.11 -4.657,0.109 -4.681,0.108 -4.703,0.108 h -0.002 c -0.03,0 -0.057,0.001 -0.082,0.003 -0.007,0.001 -0.014,0.002 -0.021,0.002 -0.016,0.002 -0.03,0.004 -0.043,0.006 -0.006,0.001 -0.012,0.002 -0.017,0.003 -0.012,0.002 -0.021,0.003 -0.028,0.006 -0.004,0 -0.007,0.001 -0.01,0.002 -0.008,0.002 -0.014,0.003 -0.016,0.004 l -0.13,0.042 v 8.193 c 0,0.932 -0.884,1.051 -0.98,1.061 L -8.186,9.425 V 9.424 l 0.002,-6.909 c 0,-0.412 0.224,-0.655 0.482,-0.797 0.11,-0.061 0.227,-0.103 0.334,-0.133 0.035,-0.01 0.07,-0.019 0.103,-0.026 C -7.1,1.523 -6.974,1.517 -6.958,1.517 L -6.776,1.51 V 0.123 h -1.599 c -0.17,0 -0.34,0.033 -0.503,0.087 -0.082,0.027 -0.162,0.059 -0.239,0.094 -0.117,0.054 -0.228,0.115 -0.331,0.179 -0.068,0.043 -0.133,0.086 -0.194,0.13 -0.091,0.065 -0.173,0.129 -0.242,0.186 -0.046,0.039 -0.087,0.074 -0.121,0.105 -0.173,-0.136 -0.352,-0.249 -0.53,-0.343 -0.77,-0.408 -1.511,-0.461 -1.551,-0.464 l -1.316,-0.001 h -0.189 V 1.62 h 0.775 c 0.099,0 0.194,0.007 0.283,0.021 0.224,0.037 0.417,0.119 0.576,0.244 0.032,0.026 0.062,0.052 0.091,0.081 0.471,0.467 0.455,1.255 0.455,1.263 l -0.007,4.664 -0.004,2.332 c -0.042,-0.02 -0.087,-0.037 -0.132,-0.053 -0.089,-0.031 -0.18,-0.053 -0.265,-0.053 v 0 c -10e-4,0 -0.005,0 -0.012,-10e-4 -0.003,0 -0.003,0 -0.007,0 -0.009,-10e-4 -0.023,-0.002 -0.039,-0.002 h -0.006 -0.005 c -0.016,0 -0.034,0.001 -0.055,0.003 -0.001,0 -0.002,0 -0.003,0 -0.018,0.002 -0.039,0.005 -0.06,0.009 -0.005,10e-4 -0.01,0.002 -0.015,0.004 -0.022,0.005 -0.045,0.011 -0.068,0.02 -0.004,0.002 -0.007,0.003 -0.011,0.005 -0.02,0.008 -0.04,0.019 -0.06,0.031 -0.004,0.003 -0.009,0.005 -0.013,0.008 -0.022,0.015 -0.042,0.032 -0.061,0.053 -0.004,0.004 -0.008,0.009 -0.011,0.013 -0.017,0.019 -0.033,0.042 -0.046,0.067 -0.002,0.004 -0.005,0.007 -0.007,0.011 -0.014,0.029 -0.025,0.062 -0.034,0.098 -0.002,0.009 -0.003,0.017 -0.005,0.026 -0.007,0.039 -0.013,0.081 -0.013,0.13 0,0 0,0.002 0,0.005 v 0.004 c -0.001,0.003 -0.001,0.007 -0.001,0.012 0,0.002 0.001,0.005 0.001,0.008 0,0.005 0,0.01 10e-4,0.016 0,0.003 0,0.007 10e-4,0.012 0,0.006 0.001,0.012 0.002,0.019 10e-4,0.005 0.002,0.01 0.003,0.015 0.002,0.007 0.004,0.015 0.005,0.022 0.002,0.006 0.003,0.011 0.005,0.017 0.003,0.009 0.007,0.018 0.01,0.027 0.002,0.005 0.004,0.009 0.006,0.014 0.006,0.014 0.014,0.028 0.023,0.043 0.002,0.004 0.006,0.007 0.008,0.011 0.008,0.01 0.015,0.021 0.024,0.031 0.005,0.005 0.01,0.011 0.015,0.016 0.009,0.009 0.017,0.017 0.027,0.026 0.007,0.005 0.014,0.01 0.021,0.015 0.011,0.008 0.022,0.016 0.033,0.023 0.009,0.005 0.017,0.01 0.026,0.014 0.013,0.007 0.028,0.013 0.042,0.02 0.01,0.004 0.02,0.008 0.03,0.011 0.017,0.006 0.036,0.011 0.056,0.016 0.01,0.003 0.02,0.006 0.031,0.008 0.027,0.006 0.056,0.01 0.087,0.014 0.006,0 0.01,10e-4 0.015,0.002 0.035,0.003 0.072,0.005 0.112,0.005 0.002,0 0.005,0 0.007,0 0.031,-10e-4 0.066,-0.003 0.1,-0.006 0.018,-10e-4 0.034,-10e-4 0.052,-0.002 0.055,-0.006 0.113,-0.014 0.177,-0.025 v 6.178 c 0,0.145 -0.02,0.271 -0.057,0.38 -0.019,0.054 -0.043,0.103 -0.071,0.148 -0.029,0.045 -0.062,0.085 -0.099,0.12 h -0.001 c -0.025,0.024 -0.051,0.044 -0.078,0.062 -0.01,0.006 -0.019,0.011 -0.029,0.017 -0.017,0.01 -0.035,0.021 -0.053,0.029 -0.012,0.006 -0.023,0.01 -0.034,0.015 -0.016,0.007 -0.032,0.014 -0.048,0.019 -0.011,0.004 -0.022,0.007 -0.033,0.01 -0.015,0.004 -0.03,0.009 -0.043,0.012 -0.012,0.002 -0.022,0.005 -0.032,0.007 -0.013,0.002 -0.026,0.005 -0.037,0.006 -0.01,0.002 -0.018,0.003 -0.027,0.004 -0.01,0.001 -0.021,0.003 -0.03,0.003 -0.006,0.001 -0.013,0.001 -0.019,0.002 -0.008,0 -0.015,0.001 -0.021,0.001 -0.004,0 -0.008,0 -0.011,0 h -0.008 -1.38 v 1.631 h 2.006 c 0.657,0 1.18,-0.196 1.576,-0.439 0.198,-0.122 0.364,-0.255 0.499,-0.381 0.068,-0.063 0.128,-0.125 0.18,-0.182 0.052,-0.058 0.097,-0.111 0.134,-0.158 0.094,0.089 0.186,0.172 0.278,0.251 0.031,0.026 0.061,0.05 0.092,0.075 0.061,0.05 0.121,0.1 0.181,0.145 0.035,0.027 0.071,0.052 0.106,0.078 0.054,0.039 0.107,0.078 0.16,0.114 0.037,0.025 0.072,0.048 0.108,0.071 0.051,0.033 0.101,0.065 0.151,0.095 0.035,0.021 0.07,0.041 0.104,0.061 0.05,0.028 0.098,0.055 0.146,0.08 0.033,0.018 0.066,0.035 0.099,0.051 0.048,0.024 0.095,0.046 0.142,0.068 0.03,0.014 0.06,0.028 0.09,0.041 0.049,0.021 0.098,0.04 0.146,0.059 0.024,0.01 0.049,0.02 0.072,0.029 0.061,0.022 0.12,0.042 0.177,0.061 0.009,0.003 0.019,0.006 0.028,0.009 0.066,0.021 0.129,0.038 0.189,0.054 0.021,0.005 0.038,0.009 0.058,0.013 0.039,0.01 0.079,0.019 0.116,0.027 0.022,0.004 0.042,0.008 0.063,0.012 0.032,0.005 0.063,0.011 0.093,0.016 0.021,0.003 0.04,0.005 0.059,0.008 0.027,0.004 0.053,0.007 0.078,0.01 0.018,0.002 0.035,0.003 0.051,0.005 0.023,0.002 0.045,0.004 0.065,0.005 0.015,0.001 0.029,0.002 0.042,0.002 0.02,10e-4 0.037,0.002 0.054,0.002 0.011,0 0.021,0.001 0.031,0.001 0.003,0 0.007,0 0.009,0 0.014,0 0.023,0 0.034,-0.001 0.006,0 0.012,0 0.017,0 0.016,0 0.028,-0.001 0.036,-0.002 0.006,0 0.011,0 0.018,0 0.259,-0.004 0.504,-0.024 0.733,-0.058 0.235,-0.036 0.456,-0.086 0.662,-0.15 0.206,-0.063 0.398,-0.139 0.577,-0.226 0.895,-0.433 1.463,-1.135 1.823,-1.836 0.252,-0.491 0.402,-0.981 0.492,-1.38 0.012,-0.057 0.024,-0.112 0.034,-0.165 0.021,-0.106 0.037,-0.203 0.05,-0.289 0.038,-0.26 0.044,-0.423 0.044,-0.431 -0.019,-1.516 -0.502,-2.61 -1.045,-3.362 -0.18,-0.251 -0.367,-0.463 -0.546,-0.641 -0.119,-0.119 -0.234,-0.222 -0.341,-0.31 C -3.678,10.974 -3.776,10.9 -3.862,10.84 -1.732,9.964 -1.676,7.895 -1.676,7.874 V 2.766 c 0,-0.174 0.019,-0.333 0.057,-0.476 0.05,-0.19 0.133,-0.351 0.248,-0.483 0.029,-0.032 0.06,-0.063 0.093,-0.092 0.037,-0.033 0.077,-0.061 0.116,-0.088 0.01,-0.006 0.019,-0.012 0.028,-0.017 0.039,-0.025 0.079,-0.048 0.119,-0.067 0.005,-0.002 0.009,-0.004 0.014,-0.006 0.037,-0.017 0.075,-0.033 0.113,-0.046 0.009,-0.003 0.018,-0.007 0.027,-0.01 0.04,-0.014 0.08,-0.026 0.119,-0.036 0.007,-0.002 0.014,-0.003 0.021,-0.005 0.034,-0.008 0.068,-0.015 0.101,-0.021 0.008,-0.001 0.015,-0.002 0.023,-0.004 0.035,-0.006 0.071,-0.01 0.103,-0.014 0.008,0 0.014,-0.001 0.021,-0.002 0.029,-0.002 0.056,-0.004 0.08,-0.006 0.005,0 0.01,0 0.014,-0.001 0.028,-10e-4 0.052,-10e-4 0.074,-10e-4 h 0.022 c 0.006,0 0.011,0 0.016,0 0.008,0 0.015,0 0.021,10e-4 0.004,0 0.007,0 0.01,0 0.017,0.001 0.027,0.001 0.028,0.001 L 0,1.413 Z m -5.514,1.062 -1.103,1.067 v 5.764 h 1.103 z m 5.344,1.527 v 4.725 c 0,0 -0.022,1.36 -2.017,2.951 0,0 2.301,0.948 2.385,4.372 0,0 0.085,3.272 -4.252,5.32 0,0 -0.92,0.39 -2.078,0.39 -0.788,0 -1.686,-0.18 -2.481,-0.787 0,0 -0.101,-0.101 -0.272,-0.101 -0.102,0 -0.227,0.035 -0.372,0.145 0,0 -0.612,0.456 -2.195,0.456 l -2.478,-0.023 v -2.294 l 1.263,-1.368 h 0.805 v -4.993 h -0.191 -0.021 c -0.118,0 -0.685,-0.042 -0.685,-0.85 0,-0.088 0.014,-0.164 0.017,-0.222 0.053,-0.266 0.235,-0.812 0.845,-1.051 V 3.354 c 0,0 0.054,-1.283 -0.864,-1.283 h -1.262 v -2.31 l 1.182,-1.196 h 1.126 0.024 c 0.218,0 1.837,0.032 2.396,0.961 0,0 0.026,0.076 0.166,0.076 0,0 0.002,0.001 0.006,0.001 0.026,0 0.147,-0.005 0.194,-0.086 0,0 0.885,-0.979 2.136,-0.979 h 1.789 v 0.888 c 0,0 0.015,0.03 0.046,0.03 0.02,0 0.046,-0.012 0.078,-0.051 0,0 0.636,-1.004 1.459,-1.004 h 0.012 c 0.099,0 0.792,0.026 1.349,0.734 0,0 0.057,0.091 0.157,0.091 0,0 0.012,0.002 0.029,0.002 0.034,0 0.088,-0.009 0.134,-0.062 0,0 0.566,-0.632 1.453,-0.632 H 1.38 V 0.776 L 0.006,2.054 c 0,0 -0.194,0.2 -0.176,0.535"
                 style="fill:#100f0d;fill-opacity:1;fill-rule:nonzero;stroke:none"
                 id="path1047"
                 inkscape:connector-curvature="0" /></g><g
               id="g1049"
               transform="translate(260.4568,775.8524)"><path
                 d="m 0,0 c 0,0 -0.026,0.003 -0.069,0.003 -0.182,0 -0.67,-0.05 -0.682,-0.58 0,0 0.021,-0.159 -0.261,-0.159 0,0 -0.01,-0.001 -0.027,-0.001 -0.106,0 -0.492,0.025 -0.492,0.381 v 5.534 c 0,0 0.031,0.653 0.748,0.653 0,0 0.032,0.003 0.08,0.003 C -0.504,5.834 0,5.777 0,5.202 Z m 0.126,6.635 c -0.043,0.057 -0.095,0.113 -0.152,0.168 -0.081,0.078 -0.178,0.153 -0.292,0.219 -0.19,0.111 -0.429,0.2 -0.733,0.247 -0.076,0.012 -0.155,0.022 -0.24,0.028 v 0 c -0.001,0 -0.006,0 -0.008,0 -0.005,0 -0.012,0 -0.02,-10e-4 -0.007,0 -0.016,0 -0.024,-0.001 -0.01,0 -0.02,-0.001 -0.032,-0.001 C -1.386,7.293 -1.4,7.291 -1.413,7.29 -1.426,7.289 -1.439,7.288 -1.455,7.286 -1.47,7.285 -1.487,7.282 -1.503,7.28 -1.52,7.277 -1.536,7.275 -1.555,7.272 -1.572,7.269 -1.592,7.265 -1.611,7.261 -1.631,7.257 -1.65,7.254 -1.671,7.249 -1.691,7.245 -1.713,7.238 -1.734,7.233 -1.755,7.227 -1.776,7.222 -1.799,7.215 -1.821,7.208 -1.844,7.2 -1.867,7.192 -1.89,7.184 -1.912,7.177 -1.935,7.168 -1.959,7.159 -1.983,7.147 -2.007,7.137 -2.03,7.127 -2.053,7.117 -2.077,7.106 -2.101,7.094 -2.125,7.079 -2.15,7.065 -2.173,7.052 -2.196,7.04 -2.219,7.026 -2.243,7.01 -2.267,6.992 -2.291,6.974 -2.314,6.958 -2.336,6.944 -2.358,6.926 -2.382,6.907 -2.405,6.884 -2.429,6.862 -2.449,6.843 -2.471,6.825 -2.491,6.805 -2.514,6.781 -2.535,6.753 -2.557,6.727 -2.575,6.704 -2.595,6.684 -2.613,6.659 -2.634,6.63 -2.653,6.597 -2.673,6.565 -2.688,6.539 -2.706,6.516 -2.721,6.488 -2.74,6.452 -2.756,6.411 -2.773,6.372 -2.785,6.344 -2.799,6.318 -2.81,6.288 -2.827,6.242 -2.84,6.19 -2.854,6.14 -2.861,6.112 -2.871,6.087 -2.878,6.058 -2.896,5.976 -2.911,5.888 -2.92,5.795 v -5.799 c 0.004,-0.012 0.009,-0.027 0.016,-0.045 0.002,-0.005 0.005,-0.013 0.007,-0.019 0.006,-0.014 0.012,-0.029 0.019,-0.045 0.003,-0.01 0.008,-0.02 0.012,-0.03 0.007,-0.016 0.014,-0.033 0.023,-0.051 0.006,-0.012 0.012,-0.025 0.018,-0.037 0.009,-0.018 0.018,-0.037 0.029,-0.057 0.007,-0.014 0.015,-0.028 0.023,-0.042 0.011,-0.02 0.023,-0.041 0.036,-0.062 0.008,-0.015 0.018,-0.03 0.028,-0.045 0.013,-0.022 0.028,-0.044 0.044,-0.066 0.01,-0.015 0.021,-0.03 0.032,-0.045 0.018,-0.024 0.037,-0.048 0.056,-0.072 0.012,-0.014 0.022,-0.027 0.034,-0.041 0.027,-0.031 0.056,-0.062 0.087,-0.093 0.006,-0.005 0.011,-0.011 0.017,-0.017 0.037,-0.036 0.076,-0.071 0.118,-0.104 0.013,-0.01 0.027,-0.019 0.04,-0.029 0.031,-0.023 0.062,-0.046 0.095,-0.066 0.018,-0.012 0.037,-0.022 0.056,-0.033 0.031,-0.018 0.062,-0.035 0.095,-0.051 0.022,-0.01 0.045,-0.019 0.067,-0.029 0.033,-0.014 0.067,-0.027 0.102,-0.039 0.025,-0.008 0.05,-0.016 0.076,-0.023 0.037,-0.01 0.074,-0.019 0.113,-0.026 0.027,-0.006 0.054,-0.011 0.083,-0.015 0.04,-0.006 0.083,-0.01 0.126,-0.012 0.029,-0.002 0.057,-0.005 0.087,-0.006 0.05,0 0.101,0.002 0.154,0.005 0.026,0.002 0.05,0.002 0.077,0.004 0.08,0.008 0.163,0.02 0.251,0.039 l 0.391,0.145 c -0.008,0.042 -0.014,0.09 -0.014,0.144 0,0 0,0.001 0,0.002 v 0.003 c 0,0.001 0,0.003 0,0.005 0,0.003 0,0.006 0,0.01 0,0.003 0,0.006 0,0.009 0,0.005 0,0.01 0.001,0.016 0,0.004 0.001,0.008 0.001,0.012 0.001,0.006 0.002,0.013 0.003,0.019 0.001,0.005 0.001,0.01 0.002,0.015 0.002,0.007 0.004,0.015 0.006,0.023 0.001,0.005 0.003,0.01 0.004,0.016 0.003,0.009 0.007,0.018 0.011,0.028 0.002,0.004 0.003,0.009 0.005,0.013 0.007,0.014 0.014,0.028 0.023,0.043 0.003,0.003 0.006,0.007 0.008,0.011 0.008,0.01 0.015,0.021 0.024,0.031 0.005,0.006 0.01,0.01 0.015,0.016 0.009,0.009 0.018,0.017 0.028,0.026 0.006,0.005 0.013,0.01 0.02,0.015 0.01,0.008 0.022,0.016 0.033,0.023 0.009,0.005 0.017,0.01 0.026,0.014 0.013,0.007 0.027,0.013 0.042,0.019 0.01,0.004 0.02,0.008 0.03,0.012 0.017,0.006 0.036,0.011 0.056,0.016 0.01,0.003 0.02,0.006 0.031,0.008 0.028,0.006 0.058,0.01 0.091,0.014 0.004,0 0.007,0.001 0.011,0.002 0.034,0.003 0.071,0.004 0.111,0.004 0.002,0 0.005,0 0.008,0 0.031,0 0.066,-0.003 0.1,-0.005 C 0.186,-0.448 0.202,-0.448 0.22,-0.45 0.275,-0.455 0.334,-0.463 0.397,-0.474 V 5.983 C 0.395,6 0.389,6.054 0.37,6.13 0.337,6.256 0.269,6.445 0.126,6.635"
                 style="fill:#100f0d;fill-opacity:1;fill-rule:nonzero;stroke:none"
                 id="path1051"
                 inkscape:connector-curvature="0" /></g><g
               id="g1053"
               transform="translate(245.0719,773.7795)"><path
                 d="m 0,0 h -0.935 l 0.361,0.829 c 0.168,-0.381 0.481,-0.405 0.557,-0.405 0.011,0 0.017,0 0.017,0 z m -0.11,1.077 c -0.003,0 -0.003,0 -0.007,-10e-4 -0.01,0 -0.023,-0.001 -0.039,-0.001 -0.002,0 -0.003,0 -0.006,0 -0.001,0 -0.003,0 -0.005,0 -0.016,0 -0.034,0.001 -0.055,0.003 0,0 -0.001,0 -0.002,0 C -0.243,1.08 -0.263,1.083 -0.285,1.087 -0.29,1.088 -0.295,1.089 -0.3,1.09 -0.322,1.096 -0.345,1.102 -0.368,1.111 -0.371,1.113 -0.375,1.114 -0.378,1.116 -0.399,1.124 -0.419,1.135 -0.438,1.147 -0.443,1.15 -0.447,1.152 -0.452,1.155 -0.473,1.17 -0.494,1.187 -0.513,1.208 -0.517,1.212 -0.52,1.216 -0.524,1.221 -0.541,1.241 -0.556,1.263 -0.57,1.288 -0.572,1.292 -0.574,1.295 -0.577,1.3 -0.59,1.328 -0.602,1.361 -0.61,1.398 c -0.002,0.008 -0.004,0.016 -0.006,0.026 -0.007,0.039 -0.013,0.081 -0.013,0.129 0,0 0,0.002 0,0.005 0,0.002 0,0.003 0,0.004 v 0.012 c 0,0.003 0,0.005 0,0.008 0,0.005 0,0.01 0.001,0.016 0,0.004 0.001,0.008 0.001,0.012 0.001,0.006 0.002,0.012 0.003,0.019 0,0.005 0.001,0.01 0.003,0.016 0.001,0.007 0.003,0.014 0.005,0.022 0.001,0.005 0.003,0.01 0.004,0.016 0.003,0.009 0.007,0.018 0.011,0.027 0.002,0.005 0.003,0.01 0.005,0.015 0.007,0.014 0.014,0.028 0.023,0.042 0.003,0.004 0.006,0.007 0.008,0.011 0.008,0.011 0.015,0.021 0.024,0.032 0.005,0.005 0.01,0.01 0.015,0.015 0.009,0.009 0.018,0.018 0.028,0.026 0.006,0.005 0.013,0.011 0.02,0.016 0.011,0.008 0.022,0.015 0.034,0.022 0.008,0.005 0.017,0.01 0.026,0.015 0.012,0.006 0.027,0.013 0.042,0.019 0.009,0.004 0.019,0.008 0.03,0.012 0.017,0.006 0.035,0.011 0.055,0.015 0.01,0.003 0.02,0.006 0.031,0.009 0.028,0.005 0.058,0.01 0.09,0.013 0.005,0.001 0.008,0.002 0.012,0.002 0.035,0.003 0.072,0.005 0.112,0.005 0.002,0 0.005,0 0.007,0 C -0.007,1.978 0.028,1.976 0.063,1.974 0.08,1.972 0.096,1.972 0.114,1.97 0.169,1.965 0.228,1.958 0.291,1.946 V 5.12 l -3.107,-5.71 h 3.13 l 0.002,0.497 0.002,0.497 V 0.667 L 0.32,1.193 C 0.188,1.131 0.037,1.078 -0.098,1.078 c 0,0 -0.005,0 -0.012,-0.001"
                 style="fill:#100f0d;fill-opacity:1;fill-rule:nonzero;stroke:none"
                 id="path1055"
                 inkscape:connector-curvature="0" /></g><g
               id="g1057"
               transform="translate(288.9048,777.2227)"><path
                 d="m 0,0 c 0,0 -0.178,-0.209 -0.682,-0.626 0,0 -0.044,-0.018 -0.09,-0.018 -0.051,0 -0.105,0.023 -0.105,0.121 l 0.004,3.92 c 0,0 0.093,0.698 0.604,0.698 0,0 0.032,0.008 0.078,0.008 0.115,0 0.316,-0.048 0.316,-0.381 V 0.367 C 0.125,0.367 0.148,0.208 0,0 M 0.048,5.139 C 0.012,5.17 -0.027,5.2 -0.07,5.229 -0.149,5.284 -0.238,5.334 -0.338,5.377 -0.438,5.42 -0.549,5.455 -0.671,5.48 -0.794,5.505 -0.928,5.52 -1.075,5.521 -1.097,5.517 -1.136,5.508 -1.188,5.494 -1.555,5.392 -2.573,5.002 -2.607,3.806 v -4.837 h 1.537 c 0.018,10e-4 0.179,0.009 0.392,0.059 0.085,0.02 0.179,0.046 0.275,0.082 0.144,0.052 0.294,0.125 0.43,0.225 0.271,0.199 0.485,0.508 0.485,0.983 V 4.482 C 0.483,4.568 0.358,4.879 0.048,5.139"
                 style="fill:#100f0d;fill-opacity:1;fill-rule:nonzero;stroke:none"
                 id="path1059"
                 inkscape:connector-curvature="0" /></g><g
               id="g1061"
               transform="translate(259.5131,785.2742)"><path
                 d="m 0,0 c -0.141,0 -0.287,-0.005 -0.435,-0.014 h -0.004 c -0.231,0 -5.656,-0.077 -5.783,-6.775 -10e-4,-0.062 -0.013,-1.523 0.689,-3.142 0.653,-1.503 2.068,-3.418 5.111,-4.001 l 0.007,-0.002 h 0.008 c 0.006,-0.001 0.157,-0.017 0.362,-0.017 0.358,0 0.645,0.044 0.858,0.129 l -0.007,-3.202 c 0.002,-0.059 0.034,-1.216 -0.959,-1.482 0.028,0.043 0.053,0.087 0.077,0.128 0.015,0.027 0.029,0.052 0.044,0.076 0.249,0.409 0.381,0.768 0.413,1.129 0.041,0.452 0.062,1.12 -0.211,1.699 -0.09,0.193 -0.215,0.377 -0.325,0.533 -0.16,0.227 -0.36,0.417 -0.535,0.573 -0.237,0.21 -0.493,0.396 -0.784,0.567 -0.035,0.021 -0.073,0.044 -0.111,0.065 -0.026,0.015 -0.761,0.45 -1.694,0.45 -0.735,0 -1.379,-0.266 -1.915,-0.789 -0.417,-0.406 -0.631,-0.966 -0.714,-1.505 l -0.139,0.194 -0.885,1.237 0.708,0.765 c 0.033,0.031 0.103,0.111 0.111,0.239 0.007,0.132 -0.054,0.266 -0.183,0.398 l -1.145,1.197 -0.053,0.055 h -0.078 -1.116 c 0.104,0.18 0.204,0.438 0.204,0.769 0,0.021 -0.007,0.512 -0.602,0.999 v 4.811 0.01 l -10e-4,0.011 c 0,0 -0.022,0.226 0.139,0.4 0.142,0.152 0.386,0.229 0.726,0.229 l 0.702,0.019 0.173,0.005 v 0.168 2.365 0.071 l -0.05,0.05 -1.241,1.23 -0.053,0.051 h -0.075 -1.503 c -0.038,0 -0.893,-0.007 -1.549,-0.603 -0.304,0.217 -1.1,0.699 -2.192,0.699 h -0.081 l -0.109,-0.002 -0.049,-0.093 -6.205,-11.924 -0.019,-0.036 v -0.041 -2.144 -0.073 l 0.054,-0.051 0.98,-0.915 0.052,-0.049 h 0.072 4.507 0.011 l 0.011,0.002 c 0.051,-10e-4 0.088,-0.009 0.088,-0.117 v -1.875 -0.006 -0.006 c 0,-0.002 0.015,-0.276 -0.176,-0.471 -0.141,-0.143 -0.362,-0.216 -0.659,-0.216 h -1.061 -0.178 v -0.172 -2.355 -0.07 l 0.051,-0.05 1.155,-1.132 0.053,-0.052 h 0.075 1.857 c 0.032,-0.003 0.119,-0.011 0.24,-0.011 0.442,0 1.469,0.109 2.002,1.062 0.345,-0.36 1.133,-1.051 2.075,-1.051 h 1.773 0.178 v 0.173 2.079 0.067 l -0.046,0.049 -1.14,1.223 -0.053,0.057 h -0.079 -0.38 -0.02 l -0.009,-0.002 c -0.058,0.005 -0.061,0.146 -0.061,0.175 v 2.581 h 2.907 0.275 c -0.035,-0.267 -0.039,-0.527 -0.019,-0.759 0.058,-0.68 0.295,-1.23 0.519,-1.68 0.243,-0.486 0.483,-1.004 0.522,-1.525 l 0.001,-0.005 v -0.006 c 0.001,-0.004 0.06,-0.432 -0.113,-0.704 l -0.073,-0.114 0.097,-0.096 1.382,-1.374 0.119,-0.118 0.127,0.109 0.978,0.834 0.006,0.005 0.006,0.007 c 0.009,0.008 0.043,0.032 0.069,0.032 0.023,0 0.05,-0.025 0.064,-0.041 l 0.005,-0.005 0.005,-0.005 c 0.05,-0.046 1.232,-1.112 3.34,-1.112 0.061,0 0.122,10e-4 0.184,0.003 0.007,-0.001 0.018,-0.001 0.034,-0.001 0.446,0 4.381,0.25 5.535,8.9 0.245,0.118 0.81,0.496 0.81,1.483 0,0.038 -0.007,0.9 -0.6,1.381 0,0.495 -0.013,2.94 -0.285,4.102 -0.017,0.068 -0.419,1.602 -1.45,3.161 C 3.965,-1.101 2.117,0 0,0 m -0.387,-13.763 c -5.741,1.101 -5.656,6.971 -5.656,6.971 0.124,6.528 5.356,6.605 5.604,6.605 h 0.01 c 0.146,0.01 0.288,0.015 0.429,0.015 5.022,0 6.62,-6.212 6.62,-6.212 0.295,-1.263 0.281,-4.148 0.281,-4.148 0.599,-0.42 0.599,-1.297 0.599,-1.297 0,-1.122 -0.795,-1.363 -0.795,-1.363 -1.121,-8.627 -4.98,-8.848 -5.371,-8.848 -0.021,0 -0.033,10e-4 -0.033,10e-4 -0.062,-0.002 -0.124,-0.003 -0.185,-0.003 -2.061,0 -3.216,1.064 -3.216,1.064 -0.069,0.075 -0.138,0.1 -0.198,0.1 -0.115,0 -0.199,-0.088 -0.199,-0.088 l -0.978,-0.834 -1.382,1.374 c 0.21,0.329 0.138,0.818 0.138,0.818 -0.041,0.552 -0.293,1.095 -0.539,1.587 -0.264,0.529 -0.451,1.027 -0.502,1.619 -0.064,0.742 0.131,1.657 0.692,2.206 0.58,0.565 1.22,0.737 1.789,0.737 0.893,0 1.604,-0.427 1.604,-0.427 0.036,-0.02 0.072,-0.041 0.108,-0.062 0.271,-0.16 0.522,-0.339 0.756,-0.547 0.186,-0.166 0.365,-0.34 0.509,-0.543 0.113,-0.16 0.227,-0.33 0.31,-0.507 0.235,-0.5 0.243,-1.077 0.195,-1.613 -0.034,-0.382 -0.189,-0.729 -0.389,-1.057 -0.07,-0.114 -0.14,-0.263 -0.246,-0.352 -0.086,-0.07 -0.049,-0.141 -0.049,-0.141 0.012,-0.016 0.038,-0.021 0.065,-0.021 0.044,0 0.092,0.013 0.092,0.013 1.372,0.183 1.309,1.691 1.309,1.691 l 0.007,3.531 c -0.196,-0.24 -0.696,-0.284 -1.037,-0.284 -0.198,0 -0.342,0.015 -0.342,0.015 m -19.907,-0.688 v 2.144 l 6.205,11.923 c 0.026,0 0.053,0 0.079,0 1.328,0 2.207,-0.757 2.207,-0.757 0.62,0.662 1.534,0.662 1.534,0.662 h 1.503 l 1.241,-1.23 v -2.365 l -0.697,-0.02 c -1.146,0 -1.042,-0.822 -1.042,-0.822 v -4.893 c 0.601,-0.458 0.601,-0.917 0.601,-0.917 0,-0.611 -0.38,-0.941 -0.38,-0.941 h 1.471 l 1.146,-1.199 c 0.25,-0.255 0.074,-0.397 0.074,-0.397 l -0.807,-0.873 0.965,-1.348 h -3.085 v -2.754 c 0,-0.317 0.175,-0.348 0.242,-0.348 0.016,0 0.026,0.003 0.026,0.003 h 0.38 l 1.14,-1.224 v -2.079 h -1.773 c -1.172,0 -2.121,1.192 -2.121,1.192 -0.438,-1.078 -1.489,-1.204 -1.956,-1.204 -0.141,0 -0.229,0.012 -0.229,0.012 h -1.868 l -1.156,1.131 v 2.355 h 1.061 c 1.077,0 1.013,0.871 1.013,0.871 v 1.875 c 0,0.266 -0.194,0.289 -0.264,0.289 -0.015,0 -0.024,-10e-4 -0.024,-10e-4 h -4.507 z m 46.456,13.492 -0.01,-0.007 -0.008,-0.009 c 0,0 -0.054,-0.047 -0.143,-0.047 -0.08,0 -0.168,0.036 -0.262,0.108 -0.028,0.021 -0.68,0.492 -2.305,0.492 l -2.48,-0.023 -0.176,-0.001 v -0.171 -2.294 -0.065 l 0.045,-0.049 1.264,-1.369 0.053,-0.058 h 0.08 0.625 V -9.1 h -0.011 -0.022 c -0.398,0 -0.863,-0.267 -0.863,-1.021 0,-0.065 0.006,-0.122 0.011,-0.168 0.002,-0.023 0.005,-0.044 0.005,-0.063 l 0.001,-0.012 0.002,-0.012 c 0.05,-0.248 0.229,-0.834 0.843,-1.13 V -17.3 c 0,-0.013 0.021,-0.649 -0.283,-0.954 -0.105,-0.106 -0.237,-0.157 -0.403,-0.157 h -1.262 -0.178 v -0.172 -2.31 -0.069 l 0.049,-0.05 1.182,-1.196 0.053,-0.053 h 0.077 1.126 0.023 c 0.32,0 1.94,0.05 2.544,1.035 0.005,10e-4 0.011,10e-4 0.019,10e-4 h 0.016 c 0.012,-10e-4 0.026,-0.003 0.033,-0.006 l 0.004,-0.006 0.012,-0.013 c 0.038,-0.043 0.953,-1.038 2.27,-1.038 h 1.789 0.178 v 0.173 0.499 c 0.27,-0.322 0.781,-0.809 1.405,-0.809 h 0.012 c 0.143,0 0.89,0.039 1.491,0.802 l 0.006,0.007 0.005,0.008 c 10e-4,0 0.007,0.007 0.011,0.009 h 0.022 0.002 c 0.035,-0.043 0.637,-0.694 1.585,-0.694 h 1.667 0.179 v 0.173 2.242 0.073 l -0.055,0.051 -1.369,1.274 c -0.019,0.022 -0.139,0.169 -0.127,0.406 l 0.001,0.005 v 0.004 4.725 c -0.001,0.059 -0.044,1.367 -1.88,2.917 0.618,0.358 2.177,1.542 2.248,4.402 0.004,0.138 0.037,3.406 -4.353,5.479 -0.045,0.02 -0.974,0.407 -2.156,0.407 -1.003,0 -1.875,-0.277 -2.592,-0.824 m 0.11,-0.135 c 0.796,0.606 1.694,0.787 2.482,0.787 1.158,0 2.078,-0.39 2.078,-0.39 4.337,-2.049 4.252,-5.32 4.252,-5.32 -0.084,-3.424 -2.385,-4.372 -2.385,-4.372 1.995,-1.591 2.017,-2.951 2.017,-2.951 v -4.725 C 34.698,-18.4 34.892,-18.6 34.892,-18.6 l 1.374,-1.278 v -2.242 h -1.667 c -0.887,0 -1.453,0.632 -1.453,0.632 -0.046,0.053 -0.1,0.062 -0.133,0.062 -0.018,0 -0.03,-0.002 -0.03,-0.002 -0.1,0 -0.157,-0.091 -0.157,-0.091 -0.557,-0.708 -1.25,-0.734 -1.349,-0.734 h -0.012 c -0.823,0 -1.459,1.004 -1.459,1.004 -0.032,0.039 -0.058,0.051 -0.078,0.051 -0.031,0 -0.046,-0.03 -0.046,-0.03 v -0.887 h -1.789 c -1.251,0 -2.136,0.978 -2.136,0.978 -0.047,0.081 -0.168,0.085 -0.195,0.085 -0.003,0 -0.004,0 -0.004,0 -0.141,0 -0.167,-0.077 -0.167,-0.077 -0.559,-0.928 -2.178,-0.96 -2.396,-0.96 h -0.023 -1.126 l -1.183,1.196 v 2.31 h 1.262 c 0.918,0 0.864,1.283 0.864,1.283 v 5.905 c -0.61,0.239 -0.792,0.785 -0.845,1.051 -0.003,0.058 -0.017,0.134 -0.017,0.223 0,0.807 0.567,0.849 0.685,0.849 h 0.022 0.19 v 4.993 H 22.22 l -1.264,1.368 v 2.294 l 2.478,0.023 c 1.583,0 2.195,-0.456 2.195,-0.456 0.145,-0.11 0.27,-0.145 0.372,-0.145 0.171,0 0.271,0.101 0.271,0.101 m -11.888,0.855 c -0.01,0 -0.026,0.001 -0.05,0.001 -0.31,0 -1.421,-0.064 -2.689,-0.886 l -0.01,-0.006 -0.01,-0.009 c -0.011,-0.009 -0.049,-0.032 -0.08,-0.032 -0.009,0 -0.032,0 -0.069,0.039 l -0.009,0.01 -0.01,0.008 c -0.03,0.024 -0.754,0.59 -1.912,0.59 L 6.963,-0.51 H 6.784 V -0.683 -2.792 -2.856 L 6.827,-2.904 8.159,-4.4 8.213,-4.46 H 8.295 8.906 V -9.208 H 8.79 c -0.266,-0.009 -0.758,-0.23 -0.758,-1.005 0,-0.747 0.644,-1.199 0.896,-1.347 v -5.801 -0.009 l 10e-4,-0.01 C 8.93,-17.385 8.98,-17.875 8.703,-18.173 8.555,-18.331 8.334,-18.411 8.044,-18.411 H 6.95 6.771 v -0.172 -2.172 -0.064 l 0.043,-0.048 1.166,-1.305 0.053,-0.059 h 0.082 1.266 c 0.053,0 1.257,0.013 2.377,1.169 0.344,-0.378 1.328,-1.251 3.089,-1.251 v 0 c 0.075,0 1.713,0.012 2.96,1.009 l 1.573,-1.197 0.346,-0.262 -0.058,0.42 c -0.002,0.013 -0.173,1.279 0.037,2 l 0.002,0.006 10e-4,0.006 c 0.001,0.008 0.164,0.755 0.765,1.915 0.447,0.864 0.374,2.077 -0.178,2.95 -1.022,1.611 -2.29,2.185 -3.135,2.185 -0.045,0 -0.091,-10e-4 -0.137,-0.004 -0.426,-0.027 -0.933,-0.193 -1.322,-0.435 -0.048,-0.026 -1.306,-0.758 -1.265,-2.406 -0.003,-0.093 -10e-4,-0.859 0.775,-1.696 0.017,-0.028 0.035,-0.079 -0.01,-0.125 l -0.01,-0.011 -0.008,-0.011 c -10e-4,-0.002 -0.165,-0.228 -0.42,-0.228 -0.03,0.002 -0.37,0.027 -0.37,0.275 v 5.434 h 3.842 0.387 l -0.251,0.284 -1.109,1.254 -0.005,0.006 -0.006,0.006 c -0.002,0.001 -0.007,0.012 -0.007,0.015 0,0 0.003,0.013 0.031,0.037 l 0.006,0.005 0.005,0.005 0.668,0.69 0.008,0.009 0.008,0.009 c 0.096,0.132 0.199,0.448 -0.095,0.701 l -1.162,1.097 -0.052,0.049 h -0.072 -2.208 v 3.328 c -10e-4,0.077 0.024,0.3 0.143,0.416 0.051,0.049 0.116,0.075 0.198,0.079 0.014,-0.005 0.041,-0.016 0.05,-0.036 0.005,-0.012 0.027,-0.079 -0.079,-0.254 C 14.566,-5 14.572,-5.318 14.576,-5.55 l 10e-4,-0.05 c 0.008,-0.661 0.251,-1.258 0.703,-1.728 0.755,-0.784 1.742,-1.234 2.708,-1.234 0.515,0 1.008,0.127 1.464,0.377 l 0.008,0.004 0.008,0.006 c 0.046,0.032 1.132,0.804 1.088,2.204 0,0.031 -0.007,0.896 -0.582,1.934 -0.036,0.135 -0.276,1.136 0.324,1.931 l 0.086,0.113 -0.097,0.104 -1.37,1.479 -0.119,0.13 -0.134,-0.116 -0.841,-0.736 c -0.01,-0.007 -0.058,-0.037 -0.119,-0.037 -0.053,0 -0.104,0.021 -0.158,0.066 l -0.01,0.008 -0.012,0.007 c -0.059,0.035 -1.448,0.852 -2.985,0.852 -0.051,0 -0.103,-0.001 -0.155,-0.003 m 0.155,-0.17 c 1.504,0 2.891,-0.826 2.891,-0.826 0.099,-0.081 0.194,-0.107 0.274,-0.107 0.138,0 0.234,0.078 0.234,0.078 l 0.847,0.74 1.369,-1.48 c -0.705,-0.934 -0.347,-2.097 -0.347,-2.097 0.57,-1.019 0.57,-1.875 0.57,-1.875 0.042,-1.325 -1.013,-2.059 -1.013,-2.059 -0.446,-0.245 -0.913,-0.354 -1.376,-0.354 -0.957,0 -1.893,0.469 -2.577,1.179 -0.428,0.444 -0.648,1.008 -0.655,1.612 -0.003,0.2 -0.019,0.538 0.091,0.723 0.296,0.489 -0.105,0.549 -0.105,0.549 -0.549,0 -0.54,-0.667 -0.54,-0.667 v -3.501 h 2.387 l 1.164,-1.1 c 0.258,-0.217 0.07,-0.474 0.07,-0.474 l -0.668,-0.69 c -0.183,-0.159 -0.029,-0.304 -0.029,-0.304 l 1.109,-1.254 h -4.02 v -5.606 c 0,-0.424 0.548,-0.448 0.548,-0.448 0.359,0 0.569,0.305 0.569,0.305 0.157,0.162 0.022,0.347 0.022,0.347 -0.781,0.836 -0.739,1.591 -0.739,1.591 -0.042,1.569 1.182,2.262 1.182,2.262 0.347,0.215 0.826,0.382 1.237,0.408 0.043,0.003 0.084,0.004 0.126,0.004 1.246,0 2.389,-1.166 2.983,-2.104 0.495,-0.781 0.606,-1.94 0.17,-2.782 -0.62,-1.198 -0.78,-1.957 -0.78,-1.957 -0.222,-0.765 -0.042,-2.069 -0.042,-2.069 l -1.689,1.284 c -1.224,-1.06 -2.955,-1.059 -2.955,-1.059 -2.132,0 -3.081,1.345 -3.081,1.345 -1.119,-1.264 -2.385,-1.264 -2.385,-1.264 H 8.115 l -1.165,1.304 v 2.172 h 1.094 c 1.204,0 1.062,1.222 1.062,1.222 v 5.901 c 0,0 -0.895,0.434 -0.895,1.247 0,0.813 0.579,0.833 0.579,0.833 h 0.295 v 5.092 h -0.79 l -1.333,1.496 v 2.109 l 2.583,-0.014 c 1.107,0 1.799,-0.55 1.799,-0.55 0.068,-0.073 0.138,-0.097 0.201,-0.097 0.112,0 0.2,0.077 0.2,0.077 1.247,0.809 2.348,0.857 2.589,0.857 0.032,0 0.049,-0.001 0.049,-0.001 0.053,0.001 0.105,0.002 0.156,0.002 m 27.104,0.007 c -0.228,0 -5.581,-0.067 -5.585,-5.975 -0.017,-0.214 -0.185,-3.215 3.431,-5.692 l 0.005,-0.004 0.007,-0.004 c 0.03,-0.018 0.066,-0.052 0.074,-0.071 -0.048,-0.071 -0.211,-0.338 -0.137,-0.658 0.062,-0.269 0.266,-0.494 0.608,-0.671 l 0.007,-0.004 0.007,-0.003 c 0.02,-0.008 0.483,-0.194 1.041,-0.194 0.314,0 0.597,0.059 0.842,0.175 0.453,-0.392 2.444,-2.278 1.383,-4.3 -0.003,-0.006 -0.387,-0.708 -1.042,-0.708 -0.158,0 -0.324,0.04 -0.495,0.121 0.138,0.44 0.245,1.44 0.244,1.45 -0.083,1.074 -0.728,2.162 -1.726,2.909 -0.462,0.347 -1.071,0.539 -1.715,0.539 -1.257,0 -2.683,-0.765 -2.85,-2.184 -0.068,-0.574 0.033,-1.324 0.262,-1.956 l 0.006,-0.017 0.01,-0.016 c 0.015,-0.022 1.431,-2.293 0.718,-3.404 l -0.073,-0.112 0.095,-0.097 1.092,-1.116 0.124,-0.127 0.13,0.122 1.357,1.272 c 0.42,-0.348 1.816,-1.37 3.717,-1.37 h 0.012 c 0.243,0 2.421,0.044 3.98,1.571 1.052,1.031 1.573,2.492 1.548,4.343 0.011,0.119 0.085,1.115 -0.336,2.408 -0.399,1.225 -1.337,2.95 -3.543,4.256 0.004,0.154 -0.011,0.443 -0.137,0.751 0.213,-0.052 0.483,-0.098 0.771,-0.098 0.549,0 0.994,0.163 1.325,0.487 0.103,0.072 0.639,0.472 0.971,1.268 0.328,0.786 0.51,2.126 -0.484,4.048 -0.018,0.033 -0.402,0.775 0.146,1.229 l 0.145,0.119 -0.133,0.132 -1.362,1.345 -0.123,0.123 -0.128,-0.118 -0.646,-0.597 -0.009,-0.009 -0.008,-0.01 c -0.008,-0.008 -0.044,-0.04 -0.079,-0.04 -0.035,0 -0.08,0.029 -0.129,0.082 l -0.015,0.017 -0.021,0.013 c -0.05,0.031 -1.251,0.775 -3.275,0.775 z M 40.13,-13.325 c -0.886,0.459 -0.399,1.092 -0.399,1.092 0.099,0.168 -0.139,0.305 -0.139,0.305 -3.63,2.487 -3.356,5.544 -3.356,5.544 0,5.751 5.195,5.81 5.407,5.81 h 0.007 c 1.994,0 3.177,-0.747 3.177,-0.747 0.098,-0.107 0.188,-0.14 0.263,-0.14 0.133,0 0.219,0.106 0.219,0.106 l 0.646,0.597 1.362,-1.345 c -0.665,-0.551 -0.19,-1.438 -0.19,-1.438 1.867,-3.607 -0.444,-5.106 -0.444,-5.106 -0.344,-0.344 -0.793,-0.447 -1.208,-0.447 -0.615,0 -1.151,0.227 -1.151,0.227 0.413,-0.517 0.333,-1.145 0.333,-1.145 4.306,-2.488 3.884,-6.564 3.884,-6.564 0.082,-5.671 -5.069,-5.749 -5.349,-5.749 H 43.18 c -2.195,0 -3.722,1.434 -3.722,1.434 l -1.476,-1.385 -1.093,1.117 c 0.781,1.215 -0.716,3.584 -0.716,3.584 -0.204,0.56 -0.324,1.287 -0.254,1.88 0.15,1.277 1.421,2.031 2.673,2.031 0.576,0 1.149,-0.16 1.605,-0.503 0.888,-0.665 1.573,-1.683 1.658,-2.786 0.007,-0.086 -0.197,-1.51 -0.295,-1.51 -0.002,0 -0.003,0.001 -0.005,0.001 0.269,-0.16 0.513,-0.222 0.729,-0.222 0.776,0 1.202,0.804 1.202,0.804 1.267,2.415 -1.52,4.586 -1.52,4.586 -0.276,-0.16 -0.583,-0.212 -0.865,-0.212 -0.528,0 -0.971,0.181 -0.971,0.181 M 0.161,-3.591 c -0.717,0 -0.749,-0.653 -0.749,-0.653 v -5.534 c 0,-0.356 0.387,-0.381 0.493,-0.381 0.017,0 0.026,0.001 0.026,0.001 0.283,0 0.262,0.159 0.262,0.159 0.012,0.53 0.5,0.58 0.682,0.58 0.042,0 0.069,-0.003 0.069,-0.003 v 5.202 c 0,0.576 -0.505,0.632 -0.703,0.632 -0.049,0 -0.08,-0.003 -0.08,-0.003 m -0.57,-6.187 v 5.528 c 0.005,0.065 0.056,0.486 0.57,0.486 h 0.01 l 0.01,10e-4 c 0.003,10e-4 0.026,0.003 0.06,0.003 0.348,0 0.524,-0.155 0.524,-0.46 V -9.251 C 0.396,-9.284 0.035,-9.487 0.015,-9.977 0.001,-9.981 -0.025,-9.986 -0.069,-9.986 h -0.007 -0.008 -0.011 c -0.143,0 -0.314,0.036 -0.314,0.208 m 29.532,5.822 c -0.511,0 -0.604,-0.699 -0.604,-0.699 l -0.005,-3.919 c 0,-0.099 0.055,-0.121 0.106,-0.121 0.046,0 0.089,0.018 0.089,0.018 0.505,0.417 0.683,0.626 0.683,0.626 0.148,0.208 0.125,0.367 0.125,0.367 v 3.355 c 0,0.332 -0.201,0.38 -0.317,0.38 -0.045,0 -0.077,-0.007 -0.077,-0.007 M 29.2,-4.121 c 0.048,0 0.138,0 0.138,-0.208 v -3.355 -0.012 l 0.002,-0.012 c 0,0 0.006,-0.099 -0.091,-0.239 -0.027,-0.031 -0.187,-0.204 -0.556,-0.516 l 0.005,3.795 c 0.011,0.071 0.103,0.539 0.425,0.539 h 0.021 l 0.021,0.005 v 0 c 0.001,0 0.015,0.003 0.035,0.003 m 12.832,-0.581 c -0.23,-0.119 -1.192,-0.371 -0.968,-1.667 0,0 0.201,-1.362 1.288,-2.08 0,0 0.192,0.269 0.636,0.269 0.035,0 0.071,-0.002 0.108,-0.005 0,0 0.256,0.058 -0.014,0.303 0,0 -1.306,1.513 -0.704,2.935 0,0 0.079,0.199 -0.032,0.275 0,0 -0.03,0.032 -0.104,0.032 -0.049,0 -0.118,-0.014 -0.21,-0.062 m -0.791,-1.642 c -0.178,1.031 0.438,1.298 0.769,1.442 0.042,0.018 0.079,0.034 0.106,0.048 0.054,0.028 0.09,0.038 0.11,0.041 -10e-4,-0.021 -0.007,-0.051 -0.015,-0.073 -0.633,-1.496 0.678,-3.041 0.734,-3.106 L 42.952,-8 42.96,-8.008 c 0,0 0,0 0,0 -0.302,-0.007 -0.507,-0.12 -0.626,-0.214 -0.904,0.682 -1.091,1.865 -1.093,1.878 m -55.549,0.049 -3.107,-5.71 -0.138,-0.252 h 0.296 3.13 0.178 v 0.172 l 0.004,0.994 0.003,0.789 10e-4,0.278 -0.259,-0.122 c -0.134,-0.064 -0.252,-0.098 -0.339,-0.098 h -0.013 l -0.013,-0.002 c -0.003,0 -0.017,-10e-4 -0.038,-10e-4 -0.258,0 -0.288,0.174 -0.288,0.305 v 0.01 l -10e-4,0.009 c 0,0 -0.004,0.075 0.054,0.136 0.063,0.064 0.184,0.099 0.351,0.099 0.089,0 0.192,-0.01 0.305,-0.03 l 0.211,-0.037 v 0.207 3.173 0.699 z m 0.158,-0.08 v -3.173 c -0.063,0.011 -0.122,0.019 -0.177,0.024 -0.018,0.002 -0.034,0.002 -0.051,0.003 -0.035,0.002 -0.07,0.005 -0.102,0.005 -0.002,0 -0.005,0 -0.007,0 -0.04,0 -0.077,-10e-4 -0.112,-0.005 -0.004,0 -0.008,-10e-4 -0.012,-10e-4 -0.032,-0.004 -0.062,-0.008 -0.09,-0.014 -0.011,-0.002 -0.021,-0.005 -0.032,-0.008 -0.019,-0.005 -0.038,-0.01 -0.054,-0.016 -0.011,-0.004 -0.021,-0.008 -0.031,-0.012 -0.015,-0.006 -0.029,-0.012 -0.042,-0.019 -0.009,-0.005 -0.017,-0.01 -0.025,-0.015 -0.012,-0.007 -0.023,-0.014 -0.034,-0.022 -0.007,-0.005 -0.014,-0.01 -0.02,-0.016 -0.01,-0.008 -0.019,-0.017 -0.028,-0.025 -0.005,-0.006 -0.01,-0.011 -0.015,-0.016 -0.009,-0.01 -0.016,-0.021 -0.024,-0.032 -0.002,-0.003 -0.006,-0.007 -0.008,-0.011 -0.009,-0.014 -0.017,-0.028 -0.023,-0.042 -0.002,-0.005 -0.004,-0.01 -0.005,-0.014 -0.004,-0.01 -0.008,-0.019 -0.011,-0.027 -0.002,-0.006 -0.003,-0.012 -0.004,-0.017 -0.003,-0.008 -0.004,-0.015 -0.006,-0.022 -10e-4,-0.005 -0.002,-0.01 -0.002,-0.015 -0.002,-0.007 -0.003,-0.013 -0.003,-0.019 -0.001,-0.004 -0.001,-0.009 -0.001,-0.013 -10e-4,-0.006 -10e-4,-0.01 -10e-4,-0.015 v -0.009 -0.011 -0.004 c 0,-0.003 0,-0.006 0,-0.006 0,-0.048 0.006,-0.09 0.013,-0.129 0.002,-0.009 0.003,-0.018 0.005,-0.026 0.009,-0.036 0.02,-0.069 0.035,-0.098 10e-4,-0.004 0.004,-0.008 0.006,-0.012 0.013,-0.025 0.029,-0.047 0.046,-0.067 0.004,-0.004 0.007,-0.009 0.011,-0.013 0.019,-0.02 0.039,-0.038 0.061,-0.052 0.004,-0.004 0.009,-0.006 0.013,-0.009 0.02,-0.012 0.04,-0.022 0.061,-0.031 0.003,-0.001 0.006,-0.003 0.01,-0.004 0.023,-0.009 0.046,-0.016 0.068,-0.021 0.005,-0.002 0.01,-0.002 0.015,-0.003 0.021,-0.005 0.042,-0.008 0.061,-0.01 10e-4,0 10e-4,0 0.002,0 0.02,-0.002 0.038,-0.003 0.055,-0.003 0.001,0 0.003,0 0.005,0 0.003,0 0.004,0 0.006,0 0.016,0 0.029,10e-4 0.039,0.002 0.003,0 0.004,0 0.006,0 0.006,10e-4 0.013,0.002 0.013,0.002 0.135,0 0.286,0.052 0.418,0.115 l -0.002,-0.526 -0.001,-0.263 -10e-4,-0.497 -0.002,-0.498 h -3.13 z m -1.227,-5.12 h 0.936 v 0.425 c 0,0 -0.006,-10e-4 -0.017,-10e-4 -0.076,0 -0.39,0.024 -0.558,0.405 z m 0.398,0.469 c 0.111,-0.107 0.238,-0.169 0.359,-0.198 v -0.098 h -0.488 z m 43.247,-1.735 v -5.765 l 1.104,-1.066 v 6.831 z m 0.179,-5.693 v 5.52 h 0.746 v -6.241 z m 12.092,5.448 h 10e-4 c 10e-4,0 0.002,10e-4 0.003,10e-4 -0.002,0 -0.003,-10e-4 -0.004,-10e-4"
                 style="fill:#af954b;fill-opacity:1;fill-rule:nonzero;stroke:none"
                 id="path1063"
                 inkscape:connector-curvature="0" /></g></g></g></g></g></g></svg>
