<?xml version="1.0" encoding="UTF-8" standalone="no"?>
<svg
   height="200"
   width="700"
   viewBox="0 0 699.99847 199.99895"
   version="1.1"
   id="svg32"
   sodipodi:docname="TB.svg"
   inkscape:version="1.3.1 (91b66b0783, 2023-11-16)"
   inkscape:export-filename="TB.png"
   inkscape:export-xdpi="96"
   inkscape:export-ydpi="96"
   xmlns:inkscape="http://www.inkscape.org/namespaces/inkscape"
   xmlns:sodipodi="http://sodipodi.sourceforge.net/DTD/sodipodi-0.dtd"
   xmlns="http://www.w3.org/2000/svg"
   xmlns:svg="http://www.w3.org/2000/svg">
  <defs
     id="defs32" />
  <sodipodi:namedview
     id="namedview32"
     pagecolor="#505050"
     bordercolor="#eeeeee"
     borderopacity="1"
     inkscape:showpageshadow="0"
     inkscape:pageopacity="0"
     inkscape:pagecheckerboard="0"
     inkscape:deskcolor="#505050"
     inkscape:zoom="7.0916791"
     inkscape:cx="95.534498"
     inkscape:cy="26.439437"
     inkscape:window-width="1920"
     inkscape:window-height="1017"
     inkscape:window-x="-8"
     inkscape:window-y="352"
     inkscape:window-maximized="1"
     inkscape:current-layer="g31" />
  <g
     transform="matrix(1.25,0,0,-1.25,-286.81,520.8)"
     id="g32">
    <g
       transform="matrix(0.25,0,0,0.25,229.45,296.62)"
       id="g31">
      <g
         id="g1"
         transform="matrix(3.6541378,0,0,3.6541378,4.1261512,-1285.1209)">
        <g
           fill="#b1babf"
           id="g20">
          <path
             d="m 503.72,463.69 11.565,16.376 h -10.127 l -5.9485,-9.9727 -5.8602,9.9727 h -10.132 l 11.57,-16.376 v -7.4917 h 8.9333 v 7.4917 z m -57.875,1.4918 3.3158,8.1354 h 0.1056 l 3.3211,-8.1354 z m -2.39,14.884 -10.962,-23.868 h 9.3805 l 1.5352,3.5217 h 11.612 l 1.5458,-3.5217 h 9.3752 l -10.982,23.868 h -11.505 z m -48.124,-14.039 h 5.512 c 1.8267,0 2.5785,-0.8996 2.5785,-2.1368 0,-1.6869 -0.8929,-2.2383 -2.5785,-2.2383 h -5.512 z m 0,4.2629 v 4.4185 h 4.4687 c 1.584,0 2.4783,-0.6964 2.4783,-2.2317 0,-1.4403 -0.8943,-2.1868 -2.5812,-2.1868 z m 10.62,-1.8835 c 3.4214,0.4946 4.9105,2.7289 4.9105,5.657 0,4.0215 -2.0839,6.0026 -6.8428,6.0026 h -17.574 v -23.868 h 17.474 c 6,0 8.1842,1.9917 8.1842,6.4484 0,3.3278 -2.4309,5.2601 -6.1517,5.7112 v 0.0488 z m -90.066,-3.2249 3.3805,8.1354 3.3739,-8.1354 z m -2.3808,14.884 -10.966,-23.868 h 9.3844 l 1.5405,3.5217 h 11.6 l 1.538,-3.5217 h 9.3897 l -10.966,23.868 h -11.521 z m -46.835,-23.868 v 5.5568 h 6.7491 c 5.0161,0 9.333,2.6788 9.333,9.0349 0,6.947 -4.0189,9.2763 -10.181,9.2763 h -14.779 v -23.868 h 8.878 z m 0,18.013 h 4.3143 c 1.8294,0 2.9835,-0.8401 2.9835,-3.3752 0,-2.3807 -1.2002,-3.2275 -3.0296,-3.2275 h -4.2682 z m -50.902,-4.9593 -7.0921,10.814 h -9.4359 v -23.868 h 8.8213 l 0.009,12.456 5.7625,-8.0839 h 3.9649 l 5.7572,8.0839 -0.0131,-12.448 8.8463,-0.008 v 23.868 h -9.4227 l -7.1976,-10.814 z m -59.389,-4.0703 3.3251,8.1354 h 0.0897 l 3.3344,-8.1354 z m -2.386,14.884 -10.968,-23.868 h 9.3791 l 1.5353,3.5217 h 11.618 l 1.5339,-3.5217 h 9.3845 l -10.972,23.868 h -11.509 z m -39.701,-23.868 v 17.914 h 8.9242 v 5.9538 h -26.588 v -5.9538 h 8.7356 v -17.914 h 8.928"
             id="path1" />
          <path
             d="m 94.265,348.42 -6.5724,6.5988 h 18.946 l 12.223,12.051 v 73.232 l 6.3297,-6.6001 v -69.391 l -15.909,-15.891 h -15.016"
             id="path2" />
          <path
             d="m 356.51,348.38 -6.335,6.6027 h 14.998 v 85.365 l 6.3298,-6.3218 v -85.646 h -14.993"
             id="path3" />
          <path
             d="m 565.61,335.4 -6.6357,6.5975 h 35.197 l 11.367,11.472 v 35.677 l 6.331,-5.4407 v -32.995 l -15.361,-15.311 h -30.898"
             id="path4" />
          <path
             d="m 506.3,348.38 -6.5276,6.6027 h 41.231 v 27.204 l 6.3323,-6.3376 v -27.469 h -41.036"
             id="path5" />
          <path
             d="m 280.25,310.93 c -3.1589,3.1708 -6.43,7.1686 -9.0705,11.108 -2.3135,9.2762 -4.8591,27.536 -4.8591,40.707 0,2.9294 0,5.6926 0.1965,8.4361 h 6.4247 c 0.1596,-23.813 5.0028,-49.373 7.3084,-60.252"
             id="path6" />
          <path
             d="m 287.65,348.38 -1.5722,6.6027 h 45.747 v 31.92 l 6.4919,-11.606 -0.149,-26.918 h -50.518"
             id="path7" />
          <path
             d="m 152.98,348.36 -6.6278,6.5975 h 31.269 v 29.017 l 6.3271,-3.5164 v -32.098 h -30.968"
             id="path8" />
          <path
             d="m 177.62,401.81 v 38.49 l 6.3271,-6.6001 v -35.55 l -6.3271,3.6602"
             id="path9" />
          <path
             d="m 211.69,348.36 -6.6331,6.5975 h 31.282 v 29.017 l 6.3192,-3.5164 v -32.098 h -30.968"
             id="path10" />
          <path
             d="m 236.34,401.81 v 38.49 l 6.3192,-6.6001 v -35.55 l -6.3192,3.6602"
             id="path11" />
          <path
             d="m 533.48,395.79 7.5221,7.5221 v 24.017 l 6.3323,-6.3323 v -20.439 l -9.2248,-9.2051 -4.6296,4.437"
             id="path12" />
          <path
             d="m 390.06,348.38 -6.612,6.6027 h 40.437 v 42.98 l 6.3298,-3.7406 v -45.842 h -40.155"
             id="path13" />
          <path
             d="m 423.88,410.77 v 29.525 l 6.3298,-6.6001 v -26.774 l -6.3298,3.8488"
             id="path14" />
          <path
             d="m 448.77,348.38 -6.612,6.6027 h 40.44 v 42.98 l 6.3191,-3.7406 v -45.842 h -40.147"
             id="path15" />
          <path
             d="m 482.6,410.77 v 29.525 l 6.3191,-6.6001 v -26.774 l -6.3191,3.8488"
             id="path16" />
          <path
             d="m 605.54,400.04 v 55.613 l 6.331,-6.5869 v -54.554 l -6.331,5.5278"
             id="path17" />
          <path
             d="m 285.47,440.35 9.2789,-9.2723 9.0679,-35.851 -0.0422,-25.671 -18.305,70.794"
             id="path18" />
          <path
             d="m 19.671,334.13 -6.6621,6.5473 h 35.025 l 12.007,12.43 v 35.912 l 6.3218,-6.5486 v -32.101 l -15.685,-16.239 h -31.006"
             id="path19" />
          <path
             d="m 52.507,402.44 7.5339,7.5247 v 30.088 l 6.3218,-6.5948 v -24.975 l -9.8843,-10.138 -3.9714,4.094"
             id="path20" />
        </g>
        <g
           fill="#a71930"
           id="g30">
          <path
             d="m 344.33,359.27 h 15.917 v 81.024 H 344.33 v -30.409 l -17.354,30.409 h -23.153 l 7.2359,-7.2345 v -73.79 h 15.917 v 45.834 l 17.354,-29.604 v -16.23"
             id="path21"
             style="fill:none;stroke:#ffffff;stroke-width:3.19999;stroke-dasharray:none;stroke-opacity:1" />
          <path
             d="m 114.29,367.95 v 72.343 H 96.93 v -65.107 h -6.5091 v 65.107 h -24.592 l 7.2292,-7.2345 v -65.108 l 8.688,-8.6815 h 23.865 l 8.6788,8.6815"
             id="path22"
             style="fill:none;stroke:#ffffff;stroke-width:3.19999;stroke-dasharray:none;stroke-opacity:1" />
          <path
             d="m 284.14,359.27 h 17.942 l -21.564,81.024 h -24.446 l 7.0894,-7.2345 c -10.279,-14.323 -15.474,-34.432 -15.474,-48.467 0,-39.643 16.92,-53.827 16.92,-53.827 0,0 -3.0402,13.753 -3.0402,30.818 0,21.56 3.4754,37.044 8.8291,49.194 l 5.2086,-19.679 h -6.3653 c -1.3032,-4.7733 -2.3188,-10.132 -2.7514,-15.911 h 13.463 l 4.189,-15.917"
             id="path23"
             style="fill:none;stroke:#ffffff;stroke-width:3.19999;stroke-dasharray:none;stroke-opacity:1" />
          <path
             d="m 27.498,440.29 h 9.395 v -22.858 l -4.6296,-4.6322 -4.7654,4.9184 v 22.572 z m 0,-78.129 v 34.579 l 9.395,-9.4082 v -25.171 H 27.498 Z M 0,456.211 8.6841,447.527 v -101.27 h 38.34 l 8.6762,8.6761 v 38.196 l -9.2525,9.2538 9.2525,9.2631 v 35.882 l -8.6762,8.684 H 1e-4"
             id="path24"
             style="fill:none;stroke:#ffffff;stroke-width:3.19999;stroke-dasharray:none;stroke-opacity:1" />
          <path
             d="m 572.18,383.44 -18.803,15.911 v -53.094 h 38.337 l 8.6841,8.6761 v 37.328 l -28.218,23.872 v 24.165 h 9.4122 v -21.274 l 18.806,-15.913 v 53.102 h -38.34 l -8.6814,-8.684 v -37.325 l 28.215,-23.875 v -24.16 h -9.4122 v 21.271"
             id="path25"
             style="fill:none;stroke:#ffffff;stroke-width:3.19999;stroke-dasharray:none;stroke-opacity:1" />
          <path
             d="m 487.56,440.29 7.2319,-7.2345 v -73.79 h 17.363 v 29.373 l 6.509,-6.513 v -22.86 h 17.362 v 27.204 l -9.2591,9.2565 9.2591,9.2578 v 26.625 l -8.6867,8.6814 h -39.779 z m 24.595,-13.86 h 6.509 v -17.1 l -3.1866,-3.1866 -3.3224,3.4728 v 16.814"
             id="path26"
             style="fill:none;stroke:#ffffff;stroke-width:3.19999;stroke-dasharray:none;stroke-opacity:1" />
          <path
             d="m 124.42,440.29 7.2385,-7.2345 v -65.108 l 8.684,-8.6815 h 32.547 v 26.42 l -17.355,9.9807 v -20.484 h -6.5144 v 51.247 h 6.5144 v -12.994 l 17.355,-9.9846 v 36.839 h -48.469"
             id="path27"
             style="fill:none;stroke:#ffffff;stroke-width:3.19999;stroke-dasharray:none;stroke-opacity:1" />
          <path
             d="m 183.01,440.29 7.2332,-7.2345 v -65.108 l 8.6815,-8.6815 h 32.549 v 26.42 l -17.358,9.9807 v -20.484 h -6.5078 v 51.247 h 6.5078 v -12.994 l 17.358,-9.9846 v 36.839 h -48.464"
             id="path28"
             style="fill:none;stroke:#ffffff;stroke-width:3.19999;stroke-dasharray:none;stroke-opacity:1" />
          <path
             d="m 418.83,359.27 v 33.101 l -17.358,-9.9753 v -7.2082 h -6.5131 v 18.806 h 6.5131 l 13.89,7.9626 -13.89,7.9534 h -6.5131 v 16.525 h 6.5131 v -4.9224 l 17.358,-9.9779 v 28.76 h -48.467 l 7.2306,-7.2345 v -73.79 h 41.236"
             id="path29"
             style="fill:none;stroke:#ffffff;stroke-width:3.19999;stroke-dasharray:none;stroke-opacity:1" />
          <path
             d="m 477.43,359.27 v 33.101 l -17.366,-9.9753 v -7.2082 h -6.5183 v 18.806 h 6.5183 l 13.885,7.9626 -13.885,7.9534 h -6.5183 v 16.525 h 6.5183 v -4.9224 l 17.366,-9.9779 v 28.76 h -48.475 l 7.2306,-7.2345 v -73.79 h 41.244"
             id="path30"
             style="fill:none;stroke:#ffffff;stroke-width:3.19999;stroke-dasharray:none;stroke-opacity:1" />
        </g>
      </g>
    </g>
  </g>
</svg>
