<?xml version="1.0" encoding="UTF-8" standalone="no"?>
<svg
   height="200"
   viewBox="0 0 700 200.00098"
   width="700"
   version="1.1"
   id="svg3"
   sodipodi:docname="TEN.svg"
   inkscape:version="1.3.1 (91b66b0783, 2023-11-16)"
   inkscape:export-filename="TEN.png"
   inkscape:export-xdpi="96"
   inkscape:export-ydpi="96"
   xmlns:inkscape="http://www.inkscape.org/namespaces/inkscape"
   xmlns:sodipodi="http://sodipodi.sourceforge.net/DTD/sodipodi-0.dtd"
   xmlns="http://www.w3.org/2000/svg"
   xmlns:svg="http://www.w3.org/2000/svg">
  <defs
     id="defs3" />
  <sodipodi:namedview
     id="namedview3"
     pagecolor="#505050"
     bordercolor="#eeeeee"
     borderopacity="1"
     inkscape:showpageshadow="0"
     inkscape:pageopacity="0"
     inkscape:pagecheckerboard="0"
     inkscape:deskcolor="#505050"
     inkscape:zoom="0.9588368"
     inkscape:cx="135.05948"
     inkscape:cy="-81.870033"
     inkscape:window-width="1920"
     inkscape:window-height="1017"
     inkscape:window-x="-8"
     inkscape:window-y="352"
     inkscape:window-maximized="1"
     inkscape:current-layer="g1" />
  <g
     transform="matrix(1.25,0,0,-1.25,-258.07,541.77)"
     id="g3">
    <g
       id="g1"
       transform="matrix(2.2064581,0,0,2.2064581,-188.97149,-521.7574)">
      <path
         d="m 207.14125,432.51472 v -18.3456 l 12.1936,9.0248 0.236,0.1768 0.2888,-0.0512 c 0.6984,-0.1152 3.5472,-0.5136 4.1624,-0.6128 l 0.5864,-0.0952 6.4728,3.52496 -18.2264,2.9984 -5.71392,3.37976 z m 198.424,-2.17032 -8.048,-3.49064 c 0,0 -7.696,-1.21112 -12.312,-2.03256 -4.616,-0.8248 -5.424,-3.4344 -5.424,-6.116 v -11.672 c 0,-2.5824 1.088,-4.132 1.848,-4.9048 l 11.456,-5.3888 c 2.52,-1.1856 4.424,-2.0512 5.568,-2.6592 1.816,-0.9656 2.016,-1.2888 2.016,-1.2888 v -22.5208 c -0.04,-2.2184 -1.008,-4.8024 -4.696,-4.3096 -0.256,0.0368 -2.568,0.3368 -2.576,0.3344 -5.8,0.7952 -7.856,1.4112 -13.736,2.0944 l 6.888,2.164 -0.168,0.1704 -11.672,11.6184 v -3.9032 l 0.008,-12.3872 c 5.744,-0.6968 10.232,-1.2952 15.384,-2.172 l 5.992,-1.0064 c 3.168,-0.5112 5.128,-0.6208 7.048,0.1872 1.576,0.6648 2.384,2.2128 2.416,4.5928 v 18.3608 l 0.008,0.9408 c 0.024,4.74 0.032,7.1216 -5.576,9.8856 -6.296,3.1032 -13.344,6.4448 -13.416,6.48 l -0.4,0.1856 v 13.9984 c 0,2.7184 0.792,3.676 3.384,4.0936 l 3.824,0.5552 0.248,0.036 0.208,-0.124 11.728,-6.8872 z m -174.48,-4.20784 v -57.156 l -13.8936,-8.3032 c 8.152,1.7704 17.9544,3.2864 27.5544,4.6656 l -7.0152,4.608 -0.3112,0.2064 v 50.5952 l 3.7984,-0.628 9.0896,-7.3784 0.003,5.78 v 6.504 l -3.5176,-1.4776 -15.708,2.58416 z m 26.5328,-2.58736 v -2.0704 c 0.7832,-0.0864 1.5656,-0.1704 2.3488,-0.2528 v -5.636 c 0.856,-0.0904 1.712,-0.1784 2.5688,-0.264 v 5.6352 c 0.7392,-0.0736 1.4784,-0.1464 2.2184,-0.2168 v 2.0688 c -2.38,0.2272 -4.7584,0.4736 -7.136,0.736 z m 107.888,0 c -2.144,-0.2368 -4.288,-0.4592 -6.432,-0.6672 v -7.7064 c 2.128,0.2072 4.256,0.428 6.376,0.6624 v 1.9016 c -1.32,-0.1456 -2.648,-0.2864 -3.968,-0.4216 v 1.292 c 1.336,0.136 2.672,0.2776 4.008,0.4248 v 1.408 c -1.328,-0.1464 -2.656,-0.288 -3.992,-0.4232 v 1.2344 c 1.336,0.136 2.672,0.2784 4.008,0.4264 z m -12.112,-1.1864 c -2.144,-0.1832 -4.296,-0.352 -6.448,-0.5072 v -7.7048 c 2.136,0.1536 4.264,0.3216 6.392,0.5032 v 1.9016 c -1.328,-0.1136 -2.656,-0.2208 -3.976,-0.324 v 1.2928 c 1.336,0.1024 2.672,0.212 4.008,0.3264 v 1.4064 c -1.328,-0.1136 -2.656,-0.2224 -3.992,-0.3256 v 1.236 c 1.344,0.104 2.68,0.2128 4.016,0.3264 z m -83.152,-0.0432 v -7.7048 c 2.1288,-0.1792 4.2592,-0.3456 6.3904,-0.4968 v 1.9016 c -1.328,0.0944 -2.656,0.1944 -3.9832,0.3 v 1.292 c 1.3384,-0.1064 2.6776,-0.2064 4.016,-0.3016 v 1.4064 c -1.3312,0.0944 -2.6632,0.1944 -3.9936,0.3 v 1.236 c 1.3376,-0.1064 2.6768,-0.2072 4.0152,-0.3016 v 1.8688 c -2.1488,0.1528 -4.2976,0.3184 -6.4448,0.5 z m 70.5432,-0.8704 c -1.504,-0.0896 -3.008,-0.1728 -4.512,-0.2488 -0.768,-0.0384 -1.304,-0.1408 -1.624,-0.3088 -0.448,-0.2408 -0.672,-0.672 -0.672,-1.2944 v -1.8432 c 0,-0.66 0.216,-1.068 0.64,-1.224 0.248,-0.0904 0.8,-0.116 1.656,-0.0728 0.888,0.0448 1.776,0.0928 2.664,0.1416 v -0.992 c -1.672,-0.0928 -3.344,-0.1768 -5.016,-0.2528 v -1.9704 c 1.88,0.0856 3.76,0.1816 5.64,0.2888 0.52,0.0296 0.928,0.1752 1.232,0.436 0.312,0.2608 0.464,0.6144 0.464,1.0624 v 1.872 c 0,1.0128 -0.576,1.4832 -1.728,1.4168 -1.056,-0.06 -2.12,-0.1184 -3.184,-0.1712 v 0.9792 c 1.48,0.0752 2.96,0.156 4.44,0.244 z m -58.4088,-0.002 v -7.7048 c 0.7704,-0.0456 1.5416,-0.0912 2.312,-0.1328 0,0 0.0352,4.6304 -0.002,4.8376 1.36465,-2.41682 1.27166,-2.38316 2.8984,-4.988 0.768,-0.0368 1.536,-0.072 2.304,-0.1056 v 7.7048 c -0.76,0.0336 -1.52,0.0688 -2.28,0.1056 0,-1.2672 -0.008,-2.5344 -0.008,-3.8016 -0.76,1.3048 -1.516,2.6096 -2.2736,3.9176 -0.984,0.0528 -1.968,0.1088 -2.9512,0.1672 z m 45.4648,-0.5968 c -1.504,-0.0504 -3.008,-0.0936 -4.512,-0.1296 -0.768,-0.0184 -1.304,-0.1072 -1.624,-0.2672 -0.448,-0.2288 -0.672,-0.6544 -0.672,-1.2768 v -1.844 c 0,-0.6584 0.216,-1.0728 0.64,-1.2392 0.248,-0.0968 0.8,-0.1376 1.656,-0.1168 0.888,0.0208 1.776,0.044 2.664,0.0704 v -0.9904 c -1.672,-0.0496 -3.344,-0.0904 -5.016,-0.1224 v -1.9704 c 1.88,0.036 3.76,0.0832 5.64,0.1408 0.52,0.016 0.928,0.1504 1.24,0.4032 0.304,0.252 0.464,0.6024 0.464,1.0504 v 1.8712 c 0,1.0136 -0.584,1.4984 -1.736,1.4632 -1.056,-0.0328 -2.12,-0.0616 -3.184,-0.088 v 0.98 c 1.48,0.036 2.96,0.0792 4.44,0.128 z m -32.2,-0.0128 v -7.7048 c 0.768,-0.0248 1.536,-0.0488 2.312,-0.0704 0,0 0.032,4.6312 0,4.8376 0.0251,-0.0655 0.36947,-0.69027 0.84157,-1.45606 2.13162,-3.45775 2.05443,-3.45323 2.05443,-3.45114 0.768,-0.0168 1.536,-0.0328 2.304,-0.0456 v 7.7048 c -0.76,0.0128 -1.52,0.0272 -2.28,0.0432 0,-1.2672 -0.008,-2.5336 -0.008,-3.8016 -0.76,1.284 -1.512,2.5696 -2.272,3.8568 -0.984,0.0256 -1.968,0.0552 -2.952,0.0872 z m 19.728,-0.244 c -2.152,-0.016 -4.312,-0.0184 -6.464,-0.007 v -7.7048 c 2.136,-0.012 4.272,-0.008 6.408,0.008 v 1.9016 c -1.328,-0.0104 -2.664,-0.0152 -3.992,-0.0144 v 1.292 c 1.344,-8e-4 2.68,0.004 4.024,0.0144 v 1.4064 c -1.336,-0.0104 -2.664,-0.0152 -4,-0.0144 v 1.236 c 1.344,0 2.68,0.003 4.024,0.0144 z m -68.084,-10.2792 4.78,-4.9592 5.0376,2.164 z m 9.8176,-2.7952 v -36.608 l -10.5112,-5.336 c 0.1888,0.0224 1.2328,0.1576 1.2328,0.1576 5.6672,0.7136 12.0112,1.4416 17.5064,1.9624 l 1.3888,0.1344 -4.8104,3.5944 -0.1656,0.1264 v 32.9952 l 0.1672,0.1248 4.7952,3.5192 z m 114.192,2.3064 -8.992,-2.6392 v -35.6896 l -3.336,-3.8088 12.36,-1.3032 -4.392,5.0856 -0.104,0.1176 v 33.2464 l 0.112,0.1192 z m -8.992,-38.3288 -3.904,15.7584 -0.776,1.4824 -9.92,18.7832 -3.584,-1.5016 z m -18.184,34.5224 v -33.9208 l -9.24,-2.7624 13.488,-0.748 v 19.5168 z m 0,0 -9.2,0.7328 4.84,-3.5312 0.176,-0.1224 z m -75.6856,2.0296 V 396.924 l 6.864,6.0344 3.1544,-0.1912 0.3912,-0.0248 4.4696,2.8576 c -0.1328,0.007 -0.3248,0.0176 -0.3248,0.0176 -2.9536,0.1464 -5.1728,0.304 -7.7416,0.484 l -4.3176,0.3264 z m 29.4056,-1.6832 -2.376,-1.2528 c 0,0 -7.184,0.244 -10.7392,0.4184 l -1.2296,0.064 -0.1544,0.005 v -32.6 l -9.4984,-4.492 c 0.432,0.0344 0.8528,0.064 1.2984,0.0848 5.6776,0.3768 11.1152,0.6544 16.6192,0.8496 0.472,0.0192 0.912,0.036 1.368,0.0504 l -4.888,3.8672 -0.16,0.1248 v 28.8936 l 0.432,-0.0232 2.528,-0.1208 6.816,-6.2408 v 10.372 z m 28.376,-0.3968 -2.928,-0.8512 V 389.508 372.2984 l -4.112,-2.4792 c 0.096,0 0.192,-0.002 0.32,0 3.56,-0.0392 10.984,-0.2928 10.984,-0.2928 l 2.28,-0.104 -4.912,4.04 -0.152,0.1256 v 0.1952 30.4872 c 0,0.492 -0.168,1.1888 -1.48,1.6984 z m -2.928,-16.4608 h -15.216 v -16.142 l -9.544,-3.592 c 0.248,0.005 1.2,0.028 1.208,0.0312 4.52,0.1 8.432,0.1456 12.304,0.1456 h 0.112 c 0.064,0 0.136,0.005 0.208,0.005 v 16.536 h 0.416 l 5.408,-0.006 h 0.576 l 0.272,-0.003 h 0.152 v 0.005 z m -15.216,0 5.096,2.8264 0.024,0.002 v 8.3952 l 5.144,0.0816 v -0.006 l 4.952,4.3112 c -3.8,-0.1088 -8.024,-0.1616 -12.584,-0.2192 -2.248,-0.1064 -2.632,-1.8544 -2.632,-3.3016 z"
         fill="#002244"
         id="path1"
         style="fill:none;stroke:#ffffff;stroke-width:0.60006;stroke-dasharray:none;stroke-opacity:1"
         sodipodi:nodetypes="ccccccccccccccssccccccccccccccccccccccscccccccccccccccccccccccccccccccccccccccccccccccccccccccccccccccccccccccsscsccccccssccccccccccccccccccscssccccccccsscccccccccsccccccccccccccccccccccccccccccccccccccccccccccccccccccccccccccccccccccccccccccccccccccccccccccccccccccsccccccsscccccccccccccccccsc" />
      <path
         d="m 205.9686,432.89895 5.76787,-3.41162 18.39823,-3.02667 15.8577,-2.60852 3.55076,1.49153 -43.57416,7.55528 z m 24.16569,-6.43829 -6.53382,-3.55819 v -54.1368 l -7.48914,-8.38148 14.02296,8.38148 v 57.69483 z m 176.1249,4.24751 c -3.73892,-0.67462 -19.07414,-3.44182 -23.9517,-4.15763 -4.77257,-0.69772 -7.19519,-3.30648 -7.19519,-7.752 v -7.64338 -0.58547 -0.13567 -0.56285 c 0,-0.0275 0.008,-0.0541 0.008,-0.0816 v -0.51925 -0.0581 c 0,-0.17847 0.008,-0.35128 0.008,-0.52248 v -0.0929 c 0,-0.172 0.008,-0.34159 0.008,-0.50632 v -0.025 c 0.008,-0.15989 0.008,-0.31817 0.0161,-0.4716 v -0.0646 c 0.008,-0.15585 0.008,-0.30848 0.0162,-0.45787 v -0.0646 c 0.0161,-0.30363 0.0323,-0.59515 0.0565,-0.87376 v -0.0581 c 0.008,-0.13728 0.0242,-0.27295 0.0323,-0.40377 0,-0.0105 0,-0.021 0.008,-0.0315 0.008,-0.1284 0.0242,-0.25519 0.0323,-0.37874 0.008,-0.009 0.008,-0.0162 0.008,-0.025 0.0161,-0.12516 0.0323,-0.24872 0.0485,-0.36904 0,-0.0154 0,-0.0299 0.008,-0.046 0.0323,-0.24146 0.0727,-0.47403 0.12113,-0.6953 0,-0.0121 0,-0.0242 0.008,-0.0363 0.0161,-0.10901 0.0404,-0.21561 0.0727,-0.31978 0,-0.0105 0,-0.0202 0.008,-0.0307 0.0485,-0.21077 0.10498,-0.41265 0.17766,-0.60646 0,-0.0121 0.008,-0.0234 0.008,-0.0347 0.0323,-0.0969 0.0727,-0.19219 0.10498,-0.28425 0,-0.002 0,-0.005 0.008,-0.008 0.0323,-0.0921 0.0727,-0.18169 0.11306,-0.27133 0,-0.006 0.008,-0.0129 0.008,-0.0186 0.0404,-0.088 0.0888,-0.17524 0.1292,-0.26003 0.008,-0.0101 0.008,-0.0178 0.0161,-0.0275 0.0888,-0.17039 0.18574,-0.33674 0.29879,-0.49664 0,-0.008 0.008,-0.017 0.0161,-0.025 0.0565,-0.0791 0.11306,-0.15828 0.16959,-0.235 0,-0.005 0.008,-0.0101 0.008,-0.0145 0.0646,-0.0783 0.12114,-0.15505 0.18574,-0.23177 v -0.002 c 0.0646,-0.0751 0.13728,-0.15101 0.20188,-0.2253 0.008,-0.008 0.0161,-0.0162 0.0242,-0.0234 0.14536,-0.14939 0.29072,-0.29475 0.45222,-0.43849 0.008,-0.004 0.008,-0.0101 0.0161,-0.0145 0.0808,-0.0711 0.16151,-0.14051 0.25034,-0.21158 l 0.0242,-0.017 c 0.17766,-0.14213 0.36339,-0.28345 0.5572,-0.42396 0.008,-0.006 0.0161,-0.0137 0.0242,-0.0194 0.10498,-0.0711 0.20188,-0.14213 0.30687,-0.2132 0.008,0 0.008,-0.002 0.008,-0.002 0.11306,-0.0735 0.22611,-0.14778 0.33917,-0.22208 0,0 0.83177,-0.52006 2.14806,-1.221 0.008,-0.004 0.0161,-0.007 0.0242,-0.0105 1.87349,-1.00135 4.77257,-2.45008 8.08349,-4.01106 v -0.002 l 5.02291,-2.37256 v -17.84748 c 0,-1.32679 -0.11305,-2.66166 -0.9529,-3.42721 -0.57335,-0.52329 -1.38897,-0.70821 -2.56798,-0.59354 l -2.22074,0.25599 -1.25169,0.14051 -0.23419,0.0299 -6.96101,-2.18279 c 5.93543,-0.68964 8.01082,-1.31306 13.86549,-2.11576 0.008,0.002 2.34188,-0.3004 2.60029,-0.33755 3.72277,-0.49744 4.69989,2.11092 4.74027,4.35023 v 22.73311 c 0,0 -0.20188,0.32625 -2.035,1.30095 -1.15479,0.61373 -3.07674,1.48749 -5.6205,2.68427 l -11.564,5.4396 c -0.76716,0.78009 -1.86542,2.3443 -1.86542,4.95104 v 11.78204 c 0,2.70688 0.81562,5.34108 5.47514,6.17366 4.65951,0.82918 12.42807,2.05172 12.42807,2.05172 z m -159.78025,-20.21843 9.91016,-2.82155 9.69373,0.67672 c -0.29233,0.0258 -1.38655,0.13082 -1.38655,0.13082 -5.81996,0.54994 -12.09698,1.24362 -17.67306,1.94618 -0.23661,0.0331 -0.40619,0.0517 -0.54428,0.0678 z m 9.91016,-2.82155 -5.0851,-2.1844 v -34.95768 l -5.5252,-5.19734 10.6103,5.3863 z m 115.26853,2.32814 -13.09025,-1.4245 0.0727,-21.35868 3.94081,-15.90696 v 36.02606 z m -9.07677,-38.69014 -18.35543,34.84786 4.28805,-18.08329 10.69993,-20.60927 z m -18.35543,34.84786 -4.22344,-2.94834 v -30.13585 l -5.10367,-3.94484 9.32711,2.78844 z m 0,0 3.61779,1.51576 -12.89645,-0.77605 z m -76.39912,2.04873 2.51873,-1.63446 4.3583,-0.33109 c 2.59302,-0.1817 4.83314,-0.34079 7.81458,-0.48857 0,0 0.19381,-0.009 0.32786,-0.0162 l -4.51173,-2.88615 v -29.91862 l -5.04875,-4.63852 9.58794,4.53434 v 32.90734 l 0.15586,-0.005 1.24119,-0.0646 c 3.58871,-0.17605 10.84044,-0.42235 10.84044,-0.42235 l 2.3984,1.26461 c -0.12921,8.1e-4 -0.30687,0.005 -0.31494,0.005 -11.24018,0.27456 -18.48867,0.81723 -29.05536,1.67646 -0.0969,0 -0.2035,0.006 -0.31252,0.0178 z m 54.98311,-1.56178 c -0.37147,-0.003 -0.79139,-0.0162 -1.25977,-0.0315 -0.13728,-0.003 -0.26648,-0.007 -0.40377,-0.0113 -0.24226,-0.006 -0.4926,-0.0137 -0.73486,-0.0202 -0.0323,-8.1e-4 -0.0565,-0.002 -0.0888,-0.002 -0.27456,-0.007 -0.54913,-0.0145 -0.82369,-0.0218 -1.43743,-0.038 -2.90715,-0.0735 -4.39303,-0.10418 -0.16151,-0.003 -0.33109,-0.008 -0.4926,-0.0113 -0.25034,-0.005 -0.4926,-0.009 -0.74294,-0.0137 -0.21804,-0.004 -0.44415,-0.007 -0.66218,-0.0113 -0.21804,-0.004 -0.44415,-0.007 -0.66219,-0.0113 -0.26649,-0.004 -0.53298,-0.006 -0.79947,-0.0105 -0.18573,-0.003 -0.37146,-0.006 -0.5572,-0.008 -0.4603,-0.006 -0.91252,-0.0101 -1.37282,-0.0129 -1.94618,-0.0137 -3.03636,-0.0485 -4.47378,-0.57416 -1.4778,-0.58304 -1.65546,-1.32194 -1.65546,-1.82908 v -30.40315 l -5.48321,-3.99814 9.63397,3.62587 v 16.29458 0.002 12.20115 c 0,1.46084 0.38762,3.22532 2.65681,3.33272 4.60299,0.0582 8.86682,0.11144 12.70264,0.22127 l 2.9556,0.85922 c -0.0888,0.0347 -0.18573,0.0678 -0.28264,0.10095 -1.1144,0.37227 -1.92195,0.44818 -3.06058,0.43688 z m 0.38762,-1.39705 -4.99869,-4.35184 -0.008,-8.52603 -5.17634,-0.0242 h -0.0323 l -5.14404,-2.85466 h 15.35137 0.008 z m -0.008,-15.75837 -4.13461,-3.04847 -0.008,-16.82433 4.14269,2.50257 z"
         fill="#4b92db"
         id="path2"
         style="stroke-width:0.605659;stroke-dasharray:none" />
    </g>
  </g>
</svg>
